<svg id="Ebene_1" data-name="Ebene 1" xmlns="http://www.w3.org/2000/svg" viewBox="0 0 91.293 43.718"><defs><style>.cls-1{fill:#b5131d;}.cls-2{fill:#1d1d1b;}.cls-3{fill:#9d9d9c;}</style></defs><title>ABS_Absturzsicherung mit System_R</title><polygon class="cls-1" points="0 4.204 0 42.945 9.279 42.945 9.279 40.027 3.492 40.027 3.492 7.12 9.279 7.12 9.279 4.204 0 4.204"/><polygon class="cls-1" points="85.606 42.945 85.606 4.204 76.327 4.204 76.327 7.121 82.115 7.121 82.115 40.027 76.327 40.027 76.327 42.945 85.606 42.945"/><path class="cls-2" d="M44.374,53.985,43.285,57.2h.728l.208-.612h1.1l.192.612h.957l-1.1-3.216Zm.051,1.94.353-1.051h.009l.323,1.051Zm8.269.6V55.457h.379v-.519h-.379v-.8h-.7l-.056.8h-.375v.519h.332v1.191c0,.4.17.613.779.613a2.734,2.734,0,0,0,.421-.043v-.532a1.1,1.1,0,0,1-.179.03C52.787,56.716,52.694,56.661,52.694,56.525ZM48.171,54.9a.7.7,0,0,0-.63.315h-.008V53.985h-.8V57.2h.485l.144-.34a.825.825,0,0,0,.736.4c.514,0,.94-.442.94-1.208C49.038,55.5,48.8,54.9,48.171,54.9Zm-.336,1.889c-.183,0-.3-.141-.3-.387v-.838a.445.445,0,0,1,.327-.17c.251,0,.345.226.345.706S48.094,56.793,47.835,56.793ZM50.322,55.7c-.276-.034-.357-.064-.357-.157,0-.137.136-.174.306-.174s.426.085.485.23l.473-.276a1.077,1.077,0,0,0-1-.447c-.609,0-.97.362-.97.8a.669.669,0,0,0,.179.45,1.227,1.227,0,0,0,.766.281c.434.068.46.132.46.209,0,.1-.136.178-.353.178a.7.7,0,0,1-.647-.31l-.472.3a1.164,1.164,0,0,0,1.042.477c.843,0,1.162-.324,1.162-.8C51.394,56.023,51.041,55.8,50.322,55.7Zm6.415-.413h-.009v-.353h-.8V57.2h.8V55.755A.554.554,0,0,1,57.1,55.6a1.047,1.047,0,0,1,.434.114v-.838A1.021,1.021,0,0,0,56.737,55.291Zm-2,1.2a.584.584,0,0,1-.344.2c-.2,0-.243-.166-.243-.328V54.939h-.8v1.638a.634.634,0,0,0,.651.685,1.09,1.09,0,0,0,.736-.383V57.2h.8V54.939h-.8Zm5.072-1.2v-.357h-1.97v.492h.941l-1.06,1.413V57.2h2.1v-.493H58.756Zm1.376.408c-.276-.034-.357-.064-.357-.157,0-.137.137-.174.306-.174s.425.085.485.23l.472-.276a1.076,1.076,0,0,0-1-.447c-.608,0-.97.362-.97.8a.669.669,0,0,0,.179.45,1.227,1.227,0,0,0,.766.281c.434.068.46.132.46.209,0,.1-.137.178-.353.178a.7.7,0,0,1-.647-.31l-.472.3a1.165,1.165,0,0,0,1.042.477c.842,0,1.161-.324,1.161-.8C62.255,56.023,61.9,55.8,61.183,55.7Zm1.36-1.08h.8v-.638h-.8Zm0,2.578h.8V54.939h-.8Zm5.093-2.323a1.089,1.089,0,0,0-.736.383V53.985h-.8V57.2h.8V55.645a.584.584,0,0,1,.344-.2c.2,0,.243.166.243.328V57.2h.8V55.564A.633.633,0,0,0,67.636,54.879Zm-2.768,1.863c-.285,0-.413-.174-.413-.673,0-.528.162-.672.332-.672.225,0,.285.158.3.336l.723-.047a.984.984,0,0,0-1.038-.809,1.121,1.121,0,0,0-1.148,1.191,1.151,1.151,0,0,0,2.246.392l-.574-.1C65.225,56.563,65.127,56.742,64.868,56.742Zm20.586-1.863a1.023,1.023,0,0,0-.787.408.6.6,0,0,0-.608-.408,1.158,1.158,0,0,0-.749.379v-.318h-.8V57.2h.8V55.627a.465.465,0,0,1,.344-.187c.2,0,.243.162.243.324V57.2h.8V55.627a.467.467,0,0,1,.344-.187c.2,0,.242.162.242.324V57.2h.8V55.517A.6.6,0,0,0,85.454,54.879Zm-8.15,0a1.089,1.089,0,0,0-.736.383v-.323h-.8V57.2h.8V55.645a.584.584,0,0,1,.344-.2c.2,0,.243.166.243.328V57.2h.8V55.564A.633.633,0,0,0,77.3,54.879Zm2,0c-.681,0-.992.4-.992.706a.662.662,0,0,0,.473.617v.009c-.212.066-.515.232-.515.5a.4.4,0,0,0,.32.366v.009c-.183.056-.409.162-.409.392,0,.323.5.438,1.157.438,1.013,0,1.365-.4,1.365-.732,0-.529-.574-.627-1.055-.661l-.43-.03c-.153-.013-.2-.021-.2-.105,0-.055.017-.1.208-.1h.191c.638,0,.991-.28.991-.731a.379.379,0,0,0-.064-.2c.076-.123.289-.043.383.013v-.485a.715.715,0,0,0-.566.23A1.364,1.364,0,0,0,79.306,54.879Zm-.094,2.263c.4,0,.8.021.8.191,0,.145-.366.174-.638.174-.527,0-.612-.081-.612-.191C78.765,57.163,78.931,57.142,79.212,57.142Zm.153-1.213a.335.335,0,0,1-.337-.34.344.344,0,0,1,.349-.328.32.32,0,0,1,.319.323A.335.335,0,0,1,79.365,55.929Zm-9.579-1.051a1.136,1.136,0,0,0-1.208,1.191,1.121,1.121,0,0,0,1.208,1.191,1.341,1.341,0,0,0,1.2-.613l-.527-.238a.594.594,0,0,1-.515.332.5.5,0,0,1-.528-.523h1.57v-.064A1.132,1.132,0,0,0,69.786,54.879Zm-.344.906c0-.247.1-.438.374-.438.23,0,.34.2.332.438Zm2.641-.494h-.009v-.353h-.8V57.2h.8V55.755a.554.554,0,0,1,.374-.153,1.047,1.047,0,0,1,.434.114v-.838A1.021,1.021,0,0,0,72.082,55.291Zm2.478,1.2a.584.584,0,0,1-.344.2c-.2,0-.242-.166-.242-.328V54.939h-.8v1.638a.634.634,0,0,0,.651.685,1.09,1.09,0,0,0,.736-.383V57.2h.8V54.939h-.8Zm11.933.706h.8V54.939h-.8Zm0-2.578h.8v-.638h-.8Zm2.194,1.9V55.457h.378v-.519h-.378v-.8h-.7l-.055.8h-.374v.519h.332v1.191c0,.4.17.613.779.613a2.735,2.735,0,0,0,.421-.043v-.532a1.087,1.087,0,0,1-.178.03C88.781,56.716,88.688,56.661,88.688,56.525Zm3.119-1.706c0-.149.158-.23.388-.23a.821.821,0,0,1,.672.285l.536-.443a1.464,1.464,0,0,0-1.2-.506c-.77,0-1.293.43-1.293,1.06,0,1.216,1.739.842,1.739,1.331,0,.141-.144.28-.506.28a1.02,1.02,0,0,1-.808-.391l-.554.43a1.585,1.585,0,0,0,1.422.625c.94,0,1.365-.54,1.365-1.071C93.572,54.878,91.806,55.339,91.806,54.819Zm3.236,1.391h-.008L94.6,54.939h-.851l.757,2a.523.523,0,0,1,.047.2c0,.179-.281.2-.387.2a1.17,1.17,0,0,1-.29-.034v.566a2.159,2.159,0,0,0,.238.013,1.05,1.05,0,0,0,1.127-.829l.859-2.114h-.608ZM97.3,55.7c-.276-.034-.358-.064-.358-.157,0-.137.137-.174.306-.174s.425.085.485.23l.472-.276a1.076,1.076,0,0,0-1-.447c-.608,0-.97.362-.97.8a.672.672,0,0,0,.179.45,1.227,1.227,0,0,0,.766.281c.434.068.46.132.46.209,0,.1-.137.178-.353.178a.7.7,0,0,1-.647-.31l-.472.3a1.165,1.165,0,0,0,1.042.477c.842,0,1.161-.324,1.161-.8C98.371,56.023,98.019,55.8,97.3,55.7Zm2.372.821V55.457h.378v-.519h-.378v-.8h-.7l-.055.8H98.54v.519h.332v1.191c0,.4.17.613.779.613a2.722,2.722,0,0,0,.421-.043v-.532a1.087,1.087,0,0,1-.178.03C99.765,56.716,99.672,56.661,99.672,56.525Zm1.746-1.646a1.136,1.136,0,0,0-1.208,1.191,1.121,1.121,0,0,0,1.208,1.191,1.342,1.342,0,0,0,1.2-.613l-.528-.238a.592.592,0,0,1-.515.332.5.5,0,0,1-.528-.523h1.57v-.064A1.132,1.132,0,0,0,101.419,54.879Zm-.344.906c0-.247.1-.438.374-.438.23,0,.34.2.331.438Zm4.806-.906a1.024,1.024,0,0,0-.787.408.6.6,0,0,0-.608-.408,1.159,1.159,0,0,0-.749.379v-.318h-.8V57.2h.8V55.627a.466.466,0,0,1,.344-.187c.2,0,.243.162.243.324V57.2h.8V55.627a.466.466,0,0,1,.344-.187c.2,0,.242.162.242.324V57.2h.8V55.517A.6.6,0,0,0,105.88,54.879Z" transform="translate(-32.167 -14.198)"/><path class="cls-2" d="M55.011,39.908H50.756l.477-1.688c.917-3.265,1.32-4.7,1.651-6.42.33,1.724.733,3.118,1.651,6.42ZM65.833,50.069,56.515,24.39h-7.19L40.007,50.069h7.63l1.394-4.512h7.7l1.394,4.512Z" transform="translate(-32.167 -14.198)"/><path class="cls-3" d="M81.786,41.925a2.325,2.325,0,0,1-2.568,2.531H73.605V39.468h5.65a2.261,2.261,0,0,1,2.531,2.458m-.587-9.9c0,1.211-.587,2.018-2.238,2.018H73.605V30h5.356c1.687,0,2.238.88,2.238,2.018m7.557,9.758a5.681,5.681,0,0,0-3.668-5.686,5.235,5.235,0,0,0,3.081-5.026c0-4.292-2.605-6.676-8.988-6.676h-12.4V50.069H79.108c6.457,0,9.648-3.045,9.648-8.291" transform="translate(-32.167 -14.198)"/><path class="cls-2" d="M109.788,42.182c0-4.806-2.862-6.787-9.319-8.328-3.3-.77-4.218-1.211-4.218-2.164,0-.917.513-1.578,2.641-1.578a12.438,12.438,0,0,1,7.154,2.422l3.448-5.576a16.861,16.861,0,0,0-10.235-2.971c-6.2,0-10.125,3.265-10.125,8.107,0,5.136,2.971,6.823,9.171,8.254,3.449.807,4.366,1.394,4.366,2.348,0,1.211-.807,1.651-3.338,1.651a15.5,15.5,0,0,1-7.52-2.568l-3.448,5.576a20.467,20.467,0,0,0,10.822,3.119c6.163,0,10.6-2.421,10.6-8.291" transform="translate(-32.167 -14.198)"/><path class="cls-2" d="M121.724,15.836v.234c0,.141-.071.223-.282.223h-.423V15.6h.423c.2,0,.282.046.282.234m.175,1.4h.4l-.516-.7a.464.464,0,0,0,.281-.457v-.27c0-.328-.175-.515-.609-.515h-.762v1.944h.327V16.6h.4Zm-2.183-.925a1.626,1.626,0,1,1,3.252,0,1.626,1.626,0,1,1-3.252,0m-.491,0a2.117,2.117,0,0,0,4.235,0,2.117,2.117,0,1,0-4.235,0" transform="translate(-32.167 -14.198)"/></svg>