<svg fill="none" height="118" viewBox="0 0 170 118" width="170" xmlns="http://www.w3.org/2000/svg"><path d="m167.987 95.4058.022.0225-37.116-65.181c-2.684-4.7143-7.494-7.5295-12.862-7.5295h-.011c-5.369 0-10.162 2.8208-12.823 7.5183l-7.2257 12.6878-20.177-35.39438c-2.6843-4.71438-7.4936-7.52952-12.8622-7.52952s-10.1612 2.82076-12.8455 7.52952l-50.07338 87.90438c-2.684295 4.7141-2.684295 10.3391 0 15.0481 2.6843 4.714 7.49367 7.518 12.84548 7.518h106.6893c2.769 0 5.017-2.276 5.017-5.08s-2.243-5.085-5.017-5.085h-106.6893c-2.4997 0-3.7468-1.708-4.1607-2.433-.4138-.73-1.25822-2.686 0-4.883l50.0622-87.9155c1.2583-2.2026 3.333-2.4386 4.1607-2.4386.8276 0 2.9136.236 4.1718 2.4499l21.4744 37.7094-.0391.0225 14.053 24.6788c1.376 2.4162 4.457 3.2422 6.879 1.8487 2.427-1.3935 3.277-4.484 1.901-6.9002l-6.761-11.873-2.863-5.0235 10.116-17.7562c1.247-2.2026 3.317-2.4499 4.161-2.4499.845 0 2.914.236 4.172 2.4499l37.116 65.1807c1.258 2.203.425 4.142 0 4.872-.414.73-1.661 2.439-4.172 2.439h-13.701c-2.768 0-5.016 2.275-5.016 5.085 0 2.809 2.248 5.08 5.016 5.08h13.701c5.369 0 10.178-2.821 12.862-7.53 2.685-4.714 2.673-10.339-.011-15.0366z" fill="#000"/></svg>