<?xml version="1.0" encoding="UTF-8"?> <svg xmlns="http://www.w3.org/2000/svg" fill="none" viewBox="0 0 182 91"><g clip-path="url(#a)"><path d="M100.36 20.2093c0-5.3863-2.1485-10.552-5.9731-14.3607C90.5624 2.04 85.3753-.0997 79.9666-.0997S69.3707 2.0399 65.5462 5.8486c-3.8245 3.8087-5.9731 8.9744-5.9731 14.3607h-.005v35.8393h17.6204V20.3134a2.7648 2.7648 0 0 1 .8313-1.9276 2.7876 2.7876 0 0 1 1.9497-.7943c.7293 0 1.4295.2852 1.9497.7943a2.7648 2.7648 0 0 1 .8313 1.9276v35.7352h17.6175V20.2093h-.008Z" fill="url(#b)"></path><path d="M123.538 20.2093c-.034-5.3637-2.198-10.496-6.019-14.2765-3.82-3.7806-8.988-5.9025-14.374-5.9025-5.3858 0-10.5532 2.1219-14.3739 5.9025-3.8207 3.7805-5.9844 8.9128-6.0189 14.2765h-.0059v35.8393h17.6177V20.3084a2.6995 2.6995 0 0 1 .415-1.4931 2.7127 2.7127 0 0 1 1.17-1.0212 2.8086 2.8086 0 0 1 1.363-.2524c.468.0309.921.1786 1.317.4294.396.2509.722.5968.949 1.0061.227.4093.347.8688.348 1.3362v35.7352h17.618V20.2093h-.006Z" fill="url(#c)"></path><path fill="#fff" d="M0 82.9744c0-3.1547 1.8666-4.6197 4.2993-4.6197a3.8606 3.8606 0 0 1 2.0167.4519 3.8396 3.8396 0 0 1 1.4907 1.4261 3.8348 3.8348 0 0 1 1.4902-1.4268 3.8557 3.8557 0 0 1 2.0171-.4512c2.4319 0 4.2993 1.465 4.2993 4.6197v7.9059H13.199v-7.9059c0-1.6898-.9049-2.3852-2.0907-2.3852-1.1859 0-2.0907.7137-2.0907 2.3852v7.9059H6.5999v-7.9059c0-1.6715-.9057-2.3852-2.0907-2.3852s-2.0907.6954-2.0907 2.3852v7.9059H0v-7.9059ZM20.6795 83.6896c0-3.2847 1.885-5.33 5.3723-5.33 3.4872 0 5.4107 2.047 5.4107 5.33v7.1905H29.049v-3.6794h-6.0129v3.6794h-2.3566v-7.1905Zm8.3695 1.3325v-1.3325c0-1.9713-.9801-3.0973-3.0156-3.0973-2.0171 0-2.9973 1.126-2.9973 3.0973v1.3325h6.0129ZM36.7862 78.423h2.4486v12.4573h-2.4486V78.423ZM44.6873 78.423h5.9911c2.3717 0 3.6153 1.3525 3.6153 3.238a2.9062 2.9062 0 0 1-.4039 1.6121 2.9222 2.9222 0 0 1-1.2227 1.1304v.0383a3.0804 3.0804 0 0 1 1.6287 1.1571 3.0595 3.0595 0 0 1 .5716 1.9093c0 1.9438-1.2628 3.3721-3.6914 3.3721h-6.4887V78.423Zm5.68 5.0477a1.343 1.343 0 0 0 .5742-.0574 1.339 1.339 0 0 0 .4964-.2929 1.3337 1.3337 0 0 0 .3265-.4738 1.3271 1.3271 0 0 0 .0957-.5667c0-.8003-.383-1.3908-1.5112-1.3908h-3.2138v2.7816h3.2322Zm.3831 5.1635a1.4148 1.4148 0 0 0 1.1592-.3615 1.4016 1.4016 0 0 0 .4481-1.1243 1.4556 1.4556 0 0 0-.1084-.6024 1.4609 1.4609 0 0 0-.3467-.5053 1.4695 1.4695 0 0 0-1.1338-.3972h-3.6337v2.9907h3.6153ZM58.8815 84.6381a6.4803 6.4803 0 0 1 1.0255-3.6521 6.5199 6.5199 0 0 1 2.8975-2.4606 6.5516 6.5516 0 0 1 3.7832-.4317 6.5358 6.5358 0 0 1 3.3813 1.7441 6.4928 6.4928 0 0 1 1.8285 3.3264 6.4744 6.4744 0 0 1-.3466 3.7764 6.506 6.506 0 0 1-2.4037 2.9412 6.546 6.546 0 0 1-3.6428 1.1048 6.2486 6.2486 0 0 1-2.5093-.3968 6.23 6.23 0 0 1-2.1412-1.362 6.201 6.201 0 0 1-1.4165-2.1005 6.1764 6.1764 0 0 1-.4559-2.4892Zm10.614 0a4.06 4.06 0 0 0-.7249-2.2415 4.0859 4.0859 0 0 0-1.8499-1.467 4.1045 4.1045 0 0 0-2.356-.2015 4.0926 4.0926 0 0 0-2.0741 1.1311 4.0658 4.0658 0 0 0-1.0982 2.0855 4.0548 4.0548 0 0 0 .2449 2.3423 4.075 4.075 0 0 0 1.5061 1.8155 4.1002 4.1002 0 0 0 2.2635.6813 3.9568 3.9568 0 0 0 1.6065-.2747 3.9452 3.9452 0 0 0 1.3577-.8982 3.9244 3.9244 0 0 0 .877-1.3683 3.9124 3.9124 0 0 0 .2466-1.6045h.0008ZM76.9978 78.423h5.241c3.1778 0 4.571 1.7331 4.571 4.1141a3.7227 3.7227 0 0 1-.6291 2.3909 3.7488 3.7488 0 0 1-1.9909 1.4759l3.0792 4.4764h-2.9069l-2.6577-4.2099h-2.258v4.2099h-2.4486V78.423Zm5.2794 5.9805c1.5488 0 2.0656-.7995 2.0656-1.8664 0-1.0668-.5168-1.848-2.0656-1.848h-2.8308v3.7144h2.8308ZM91.5557 83.4815c0-3.1555 1.8942-5.1268 5.3171-5.1268 3.4232 0 5.3182 1.9713 5.3182 5.1268v7.3988h-2.4489v-7.3988c0-1.8213-.9567-2.8923-2.8693-2.8923-1.9126 0-2.8685 1.071-2.8685 2.8923v7.3988h-2.4486v-7.3988ZM107.32 86.337v-7.9117h2.416v7.9117c0 1.6923.906 2.3877 2.091 2.3877s2.096-.7145 2.096-2.3877v-7.9117h2.417v7.9117c0 1.6732.905 2.3877 2.09 2.3877 1.185 0 2.096-.6954 2.096-2.3877v-7.9117h2.416v7.9117c0 3.1581-1.869 4.6247-4.304 4.6247a3.86 3.86 0 0 1-2.02-.4513 3.8487 3.8487 0 0 1-1.493-1.4284 3.8393 3.8393 0 0 1-1.492 1.4284 3.86 3.86 0 0 1-2.02.4513c-2.424 0-4.293-1.4666-4.293-4.6247ZM127.404 84.635a6.4955 6.4955 0 0 1 1.029-3.6611 6.5321 6.5321 0 0 1 2.904-2.4668 6.5702 6.5702 0 0 1 3.793-.4331 6.5571 6.5571 0 0 1 3.39 1.748 6.5121 6.5121 0 0 1 1.833 3.3343 6.4887 6.4887 0 0 1-.346 3.7859 6.5269 6.5269 0 0 1-2.409 2.9491 6.5627 6.5627 0 0 1-3.651 1.1089 6.2676 6.2676 0 0 1-2.517-.397 6.2428 6.2428 0 0 1-2.148-1.3655 6.2104 6.2104 0 0 1-1.42-2.1064 6.189 6.189 0 0 1-.458-2.4963Zm10.641 0a4.0716 4.0716 0 0 0-.727-2.2462 4.0926 4.0926 0 0 0-1.854-1.4695 4.1154 4.1154 0 0 0-2.362-.2014 4.107 4.107 0 0 0-2.078 1.134 4.0782 4.0782 0 0 0-1.1 2.0902 4.0673 4.0673 0 0 0 .245 2.3473 4.0916 4.0916 0 0 0 1.51 1.8194 4.1093 4.1093 0 0 0 2.268.6828 3.9687 3.9687 0 0 0 1.611-.2753 3.9445 3.9445 0 0 0 1.361-.9006c.386-.3913.686-.8586.879-1.3719a3.923 3.923 0 0 0 .247-1.6088ZM145.521 78.423h2.448v10.2095h6.542v2.2486h-8.99V78.423ZM159.16 78.423h9.067v2.2661h-6.618v2.7433h5.509v2.2095h-5.509v5.2384h-2.449V78.423ZM172.934 78.423H182v2.2661h-6.618v2.7433h5.509v2.2095h-5.509v5.2384h-2.448V78.423Z"></path></g><defs><linearGradient id="b" x1="61.2348" y1="27.8229" x2="100.857" y2="28.7457" gradientUnits="userSpaceOnUse"><stop offset=".222" stop-color="#FF007D"></stop><stop offset=".307" stop-color="#F4007C"></stop><stop offset=".457" stop-color="#D50079"></stop><stop offset=".656" stop-color="#A40075"></stop><stop offset=".67" stop-color="#A00075"></stop></linearGradient><linearGradient id="c" x1="84.413" y1="28.0211" x2="124.046" y2="28.0295" gradientUnits="userSpaceOnUse"><stop stop-color="#37D4FF"></stop><stop offset=".143" stop-color="#31D9EC"></stop><stop offset=".433" stop-color="#22E4BC"></stop><stop offset=".838" stop-color="#0AF770"></stop><stop offset="1" stop-color="#00FF4F"></stop></linearGradient><clipPath id="a"><path fill="#fff" d="M0 0h182v91H0z"></path></clipPath></defs></svg> 