<svg width="800" height="211" viewBox="0 0 800 211" fill="none" xmlns="http://www.w3.org/2000/svg">
<path d="M2.18376 156.119C1.71413 155.591 1.27386 155.062 0.862935 154.534C0.510716 154.006 0.246553 153.477 0.0704439 152.949C-0.0469625 152.362 -0.0176111 151.804 0.158499 151.276C0.334608 150.689 0.745529 150.073 1.39126 149.427L13.1906 137.892C14.2472 136.894 15.2745 136.571 16.2725 136.923C17.2704 137.217 18.2684 137.833 19.2664 138.772C21.0862 140.533 23.0821 142.324 25.2541 144.144C27.4261 145.963 29.7742 147.607 32.2984 149.075C34.8227 150.483 37.523 151.658 40.3995 152.597C43.3346 153.477 46.4752 153.918 49.8213 153.918C53.2848 153.918 56.3961 153.448 59.1551 152.509C61.9142 151.511 64.2329 150.219 66.1114 148.634C68.0486 147.049 69.5162 145.23 70.5142 143.175C71.5121 141.12 72.0111 138.978 72.0111 136.747C72.0111 133.929 71.1599 131.552 69.4575 129.615C67.7551 127.677 65.6418 126.034 63.1176 124.683C60.652 123.333 57.981 122.247 55.1046 121.425C52.2868 120.604 49.7039 119.87 47.3558 119.224C40.194 117.111 33.8834 114.792 28.424 112.268C23.0234 109.685 18.4739 106.808 14.7756 103.638C11.0773 100.41 8.28888 96.8288 6.41038 92.8957C4.53188 88.9039 3.59263 84.4131 3.59263 79.4234C3.59263 73.964 4.73734 69.0036 7.02676 64.5421C9.31618 60.0807 12.5449 56.265 16.7128 53.095C20.9394 49.8664 25.9585 47.3715 31.7701 45.6104C37.6404 43.8493 44.0978 42.9688 51.1421 42.9688C55.0165 42.9688 58.8322 43.4677 62.5892 44.4657C66.3462 45.4049 69.9565 46.7258 73.42 48.4281C76.9421 50.1305 80.2589 52.1264 83.3701 54.4159C86.5401 56.7053 89.4166 59.1708 91.9995 61.8124C94.1128 63.9845 94.0835 66.2445 91.9114 68.5926L82.2254 79.0712C81.0514 80.1278 79.936 80.4507 78.8793 80.0398C77.8227 79.5701 76.7073 78.8657 75.5333 77.9265C74.1244 76.7524 72.4807 75.4609 70.6022 74.052C68.7824 72.6432 66.7865 71.3517 64.6145 70.1776C62.5012 68.9449 60.2411 67.9176 57.8343 67.0957C55.4275 66.2739 52.9326 65.863 50.3496 65.863C48.0602 65.863 45.7121 66.0391 43.3053 66.3913C40.9572 66.6848 38.7851 67.3599 36.7892 68.4165C34.7933 69.4145 33.1496 70.8527 31.8582 72.7312C30.6254 74.551 30.009 76.9578 30.009 79.9517C30.009 82.1824 30.6254 84.1196 31.8582 85.7633C33.1496 87.3483 34.9107 88.7865 37.1414 90.078C39.4309 91.3108 42.1312 92.4555 45.2425 93.5121C48.4124 94.5101 51.8759 95.5374 55.6329 96.594C61.5619 98.3551 67.1681 100.322 72.4514 102.494C77.7346 104.666 82.3428 107.337 86.2759 110.507C90.2677 113.618 93.4084 117.375 95.6978 121.778C98.0459 126.122 99.22 131.376 99.22 137.539C99.22 143.645 97.8698 149.192 95.1695 154.182C92.4691 159.113 88.8589 163.339 84.3387 166.862C79.8186 170.325 74.6234 173.025 68.7531 174.963C62.8828 176.841 56.7483 177.78 50.3496 177.78C45.7708 177.78 41.2507 177.252 36.7892 176.195C32.3278 175.139 28.0131 173.671 23.8452 171.793C19.736 169.914 15.8322 167.654 12.1339 165.012C8.43563 162.312 5.11891 159.348 2.18376 156.119Z" fill="#3E61EE"/>
<path d="M177.346 171.264C177.229 170.149 177.082 169.21 176.906 168.447C176.73 167.625 176.554 166.656 176.378 165.541C175.321 167.126 174.147 168.652 172.856 170.12C171.564 171.587 170.038 172.908 168.277 174.082C166.516 175.197 164.432 176.078 162.025 176.724C159.677 177.428 156.888 177.78 153.66 177.78H153.219C146.938 177.78 141.185 176.636 135.961 174.346C130.795 172.057 126.304 168.916 122.488 164.924C118.731 160.933 115.796 156.207 113.683 150.748C111.628 145.288 110.601 139.418 110.601 133.137C110.601 126.738 111.628 120.809 113.683 115.35C115.796 109.89 118.702 105.165 122.4 101.173C126.157 97.1811 130.648 94.0404 135.873 91.751C141.097 89.4616 146.88 88.3169 153.219 88.3169C156.389 88.3169 159.148 88.6398 161.497 89.2855C163.845 89.9312 165.929 90.8411 167.748 92.0152C169.627 93.1305 171.3 94.4514 172.768 95.9776C174.235 97.5039 175.673 99.1183 177.082 100.821L178.843 94.1285C179.078 93.1893 179.284 92.3968 179.46 91.751C179.695 91.1053 179.988 90.6063 180.34 90.2541C180.693 89.9019 181.133 89.6671 181.661 89.5497C182.189 89.3736 182.865 89.2855 183.686 89.2855L193.637 89.6377C194.987 89.6377 196.161 90.078 197.159 90.9585C198.157 91.7804 198.656 92.9251 198.656 94.3927V171.705C198.656 173.114 198.157 174.2 197.159 174.963C196.161 175.726 194.987 176.107 193.637 176.107H182.278C180.516 176.107 179.313 175.667 178.667 174.787C178.08 173.906 177.64 172.732 177.346 171.264ZM133.583 133.313C133.583 136.541 134.082 139.565 135.08 142.382C136.078 145.2 137.487 147.666 139.307 149.779C141.185 151.834 143.416 153.477 145.999 154.71C148.641 155.884 151.546 156.471 154.716 156.471C157.945 156.471 160.88 155.884 163.522 154.71C166.164 153.536 168.394 151.922 170.214 149.867C172.093 147.812 173.531 145.376 174.529 142.559C175.527 139.741 176.026 136.688 176.026 133.401C176.026 130.231 175.527 127.237 174.529 124.419C173.589 121.543 172.181 119.048 170.302 116.935C168.482 114.763 166.252 113.06 163.61 111.827C161.027 110.536 158.062 109.89 154.716 109.89C151.488 109.89 148.553 110.507 145.911 111.739C143.328 112.972 141.127 114.675 139.307 116.847C137.487 118.96 136.078 121.455 135.08 124.331C134.082 127.149 133.583 130.143 133.583 133.313Z" fill="#3E61EE"/>
<path d="M222.651 65.863C222.651 64.4541 223.091 63.3094 223.971 62.4288C224.852 61.4896 226.202 60.9025 228.022 60.6677L241.054 58.7305C241.289 58.6718 241.494 58.6425 241.67 58.6425C241.905 58.6425 242.111 58.6425 242.287 58.6425C243.989 58.6425 245.104 59.1415 245.633 60.1394C246.22 61.1374 246.513 62.3995 246.513 63.9258V89.5497H257.08C258.548 89.5497 259.722 89.9899 260.602 90.8705C261.483 91.751 261.923 93.0425 261.923 94.7449V104.431C261.923 106.309 261.483 107.689 260.602 108.569C259.722 109.45 258.548 109.89 257.08 109.89H246.513V170.912C246.513 172.615 246.161 173.906 245.457 174.787C244.752 175.667 243.52 176.107 241.758 176.107H226.965C225.263 176.107 224.118 175.667 223.531 174.787C222.944 173.906 222.651 172.615 222.651 170.912V109.89H217.896C214.432 109.89 212.7 108.07 212.7 104.431V94.7449C212.7 91.2814 214.432 89.5497 217.896 89.5497H222.651V65.863Z" fill="#3E61EE"/>
<path d="M319.844 157.264C322.368 157.322 324.892 156.97 327.416 156.207C329.941 155.385 332.347 154.329 334.637 153.037C335.576 152.567 336.457 152.039 337.278 151.452C338.1 150.806 338.834 150.483 339.48 150.483C340.419 150.483 341.329 151.012 342.21 152.068L348.726 162.459C349.254 163.339 349.518 164.103 349.518 164.748C349.518 165.629 349.225 166.421 348.638 167.126C348.05 167.772 347.405 168.388 346.7 168.975C343.002 171.851 338.922 174.111 334.461 175.755C330.058 177.399 325.362 178.221 320.372 178.221C314.208 178.221 308.397 177.047 302.937 174.699C297.536 172.35 292.781 169.151 288.672 165.101C284.563 160.991 281.305 156.207 278.898 150.748C276.55 145.23 275.376 139.33 275.376 133.049C275.376 127.002 276.55 121.249 278.898 115.79C281.246 110.272 284.416 105.458 288.408 101.349C292.4 97.2398 297.037 93.9817 302.321 91.5749C307.663 89.1094 313.328 87.8766 319.315 87.8766C324.951 87.8766 330.293 88.9333 335.341 91.0466C340.39 93.1599 344.792 96.0363 348.549 99.6759C352.306 103.316 355.271 107.572 357.443 112.444C359.674 117.316 360.789 122.511 360.789 128.03C360.789 132.55 360.378 135.866 359.556 137.98C358.793 140.034 357.149 141.062 354.625 141.062H299.855C300.09 143.586 300.853 145.846 302.145 147.842C303.495 149.838 305.109 151.54 306.988 152.949C308.866 154.358 310.921 155.444 313.151 156.207C315.441 156.911 317.672 157.264 319.844 157.264ZM337.807 124.155C337.689 121.924 337.132 119.84 336.134 117.903C335.136 115.907 333.786 114.176 332.083 112.708C330.381 111.182 328.385 110.008 326.095 109.186C323.865 108.305 321.429 107.865 318.787 107.865C316.615 107.865 314.443 108.305 312.271 109.186C310.158 110.008 308.22 111.152 306.459 112.62C304.757 114.088 303.319 115.819 302.145 117.815C300.971 119.752 300.237 121.866 299.943 124.155H337.807Z" fill="#3E61EE"/>
<path d="M381.617 49.2206C381.617 47.9879 381.94 47.0486 382.585 46.4029C383.29 45.6984 384.2 45.3462 385.315 45.3462H401.781C402.955 45.3462 403.865 45.7278 404.511 46.4909C405.215 47.1954 405.568 48.1053 405.568 49.2206V172.233C405.568 173.407 405.245 174.346 404.599 175.051C403.953 175.755 403.014 176.107 401.781 176.107H385.315C382.849 176.107 381.617 174.816 381.617 172.233V49.2206Z" fill="#3E61EE"/>
<path d="M431.319 49.2206C431.319 47.9879 431.642 47.0486 432.288 46.4029C432.992 45.6984 433.902 45.3462 435.018 45.3462H451.484C452.658 45.3462 453.568 45.7278 454.214 46.4909C454.918 47.1954 455.27 48.1053 455.27 49.2206V172.233C455.27 173.407 454.947 174.346 454.302 175.051C453.656 175.755 452.717 176.107 451.484 176.107H435.018C432.552 176.107 431.319 174.816 431.319 172.233V49.2206Z" fill="#3E61EE"/>
<path d="M518.886 207.015C518.24 208.365 517.418 209.363 516.42 210.008C515.481 210.654 514.424 210.977 513.25 210.977H498.985C497.635 210.977 496.49 210.713 495.551 210.185C494.612 209.656 494.142 208.688 494.142 207.279C494.142 206.398 494.26 205.606 494.494 204.901L505.501 175.227L473.449 96.594H473.538C473.185 95.9483 472.95 95.3613 472.833 94.8329C472.774 94.3046 472.745 93.8937 472.745 93.6002C472.745 91.0172 474.33 89.7258 477.5 89.7258H492.91C494.436 89.7258 495.669 90.1367 496.608 90.9585C497.547 91.7217 498.163 92.6903 498.457 93.8643V93.7763L517.741 145.288L536.673 93.6002C537.612 91.0172 539.549 89.7258 542.484 89.7258H557.718C559.538 89.7258 560.8 90.1367 561.504 90.9585C562.267 91.7217 562.649 92.749 562.649 94.0404C562.649 94.334 562.59 94.7449 562.473 95.2732C562.355 95.7428 562.15 96.3886 561.856 97.2104L518.886 207.015Z" fill="#3E61EE"/>
<path d="M580.716 65.863C580.716 64.4541 581.157 63.3094 582.037 62.4288C582.918 61.4896 584.268 60.9025 586.088 60.6677L599.12 58.7305C599.355 58.6718 599.56 58.6425 599.736 58.6425C599.971 58.6425 600.177 58.6425 600.353 58.6425C602.055 58.6425 603.17 59.1415 603.699 60.1394C604.286 61.1374 604.579 62.3995 604.579 63.9258V89.5497H615.146C616.613 89.5497 617.787 89.9899 618.668 90.8705C619.549 91.751 619.989 93.0425 619.989 94.7449V104.431C619.989 106.309 619.549 107.689 618.668 108.569C617.787 109.45 616.613 109.89 615.146 109.89H604.579V170.912C604.579 172.615 604.227 173.906 603.523 174.787C602.818 175.667 601.585 176.107 599.824 176.107H585.031C583.329 176.107 582.184 175.667 581.597 174.787C581.01 173.906 580.716 172.615 580.716 170.912V109.89H575.962C572.498 109.89 570.766 108.07 570.766 104.431V94.7449C570.766 91.2814 572.498 89.5497 575.962 89.5497H580.716V65.863Z" fill="#3E61EE"/>
<path d="M677.91 157.264C680.434 157.322 682.958 156.97 685.482 156.207C688.006 155.385 690.413 154.329 692.703 153.037C693.642 152.567 694.523 152.039 695.344 151.452C696.166 150.806 696.9 150.483 697.546 150.483C698.485 150.483 699.395 151.012 700.275 152.068L706.791 162.459C707.32 163.339 707.584 164.103 707.584 164.748C707.584 165.629 707.29 166.421 706.703 167.126C706.116 167.772 705.471 168.388 704.766 168.975C701.068 171.851 696.988 174.111 692.527 175.755C688.124 177.399 683.428 178.221 678.438 178.221C672.274 178.221 666.462 177.047 661.003 174.699C655.602 172.35 650.847 169.151 646.738 165.101C642.629 160.991 639.371 156.207 636.964 150.748C634.616 145.23 633.442 139.33 633.442 133.049C633.442 127.002 634.616 121.249 636.964 115.79C639.312 110.272 642.482 105.458 646.474 101.349C650.466 97.2398 655.103 93.9817 660.387 91.5749C665.729 89.1094 671.393 87.8766 677.381 87.8766C683.017 87.8766 688.359 88.9333 693.407 91.0466C698.456 93.1599 702.858 96.0363 706.615 99.6759C710.372 103.316 713.337 107.572 715.509 112.444C717.74 117.316 718.855 122.511 718.855 128.03C718.855 132.55 718.444 135.866 717.622 137.98C716.859 140.034 715.215 141.062 712.691 141.062H657.921C658.156 143.586 658.919 145.846 660.211 147.842C661.561 149.838 663.175 151.54 665.054 152.949C666.932 154.358 668.987 155.444 671.217 156.207C673.507 156.911 675.737 157.264 677.91 157.264ZM695.873 124.155C695.755 121.924 695.198 119.84 694.2 117.903C693.202 115.907 691.852 114.176 690.149 112.708C688.447 111.182 686.451 110.008 684.161 109.186C681.931 108.305 679.495 107.865 676.853 107.865C674.681 107.865 672.509 108.305 670.337 109.186C668.224 110.008 666.286 111.152 664.525 112.62C662.823 114.088 661.385 115.819 660.211 117.815C659.036 119.752 658.303 121.866 658.009 124.155H695.873Z" fill="#3E61EE"/>
<path d="M730.701 161.138C730.466 160.668 730.349 160.081 730.349 159.377C730.349 158.966 730.437 158.555 730.613 158.144C730.789 157.675 731.112 157.234 731.582 156.823L742.324 148.194C742.559 147.959 742.853 147.754 743.205 147.578C743.616 147.402 743.968 147.313 744.261 147.313C745.201 147.431 746.14 147.871 747.079 148.634C748.195 149.574 749.369 150.601 750.601 151.716C751.893 152.773 753.243 153.771 754.652 154.71C756.119 155.649 757.646 156.442 759.231 157.088C760.874 157.733 762.606 158.056 764.426 158.056C766.422 158.056 768.066 157.821 769.357 157.352C770.707 156.882 771.764 156.266 772.527 155.503C773.349 154.681 773.936 153.771 774.288 152.773C774.64 151.775 774.816 150.718 774.816 149.603C774.816 148.37 774.288 147.255 773.231 146.257C772.233 145.2 771.03 144.29 769.621 143.527C768.212 142.705 766.745 142.06 765.218 141.59C763.751 141.062 762.547 140.651 761.608 140.357C756.501 139.007 752.098 137.481 748.4 135.778C744.76 134.017 741.737 132.051 739.33 129.879C736.982 127.648 735.251 125.153 734.135 122.394C733.02 119.635 732.462 116.524 732.462 113.06C732.462 109.714 733.225 106.544 734.752 103.55C736.337 100.498 738.567 97.8268 741.444 95.5374C744.32 93.1892 747.784 91.3401 751.834 89.9899C755.885 88.6398 760.405 87.9647 765.395 87.9647C771.265 87.9647 776.548 88.9333 781.244 90.8705C785.941 92.8077 790.05 95.3906 793.572 98.6193C795.685 100.556 796.742 102.288 796.742 103.815C796.742 104.167 796.448 104.695 795.861 105.399C795.274 106.104 794.511 106.896 793.572 107.777C792.633 108.599 791.606 109.479 790.49 110.419C789.434 111.299 788.377 112.121 787.32 112.884C786.322 113.589 785.412 114.176 784.59 114.645C783.827 115.115 783.299 115.35 783.005 115.35C782.184 115.35 781.186 114.821 780.012 113.765C779.19 113.06 778.28 112.326 777.282 111.563C776.343 110.8 775.286 110.125 774.112 109.538C772.997 108.951 771.734 108.481 770.326 108.129C768.917 107.718 767.39 107.513 765.747 107.513C764.631 107.513 763.516 107.63 762.401 107.865C761.344 108.041 760.375 108.364 759.495 108.834C758.673 109.245 757.998 109.832 757.47 110.595C756.941 111.299 756.677 112.209 756.677 113.324C756.677 114.381 756.971 115.32 757.558 116.142C758.203 116.964 759.084 117.727 760.199 118.432C761.373 119.077 762.782 119.694 764.426 120.281C766.128 120.868 768.036 121.513 770.149 122.218C774.611 123.686 778.691 125.27 782.389 126.973C786.087 128.675 789.228 130.642 791.811 132.873C794.394 135.103 796.39 137.657 797.799 140.533C799.266 143.41 800 146.785 800 150.66C800 155.18 799.002 159.142 797.006 162.547C795.069 165.952 792.457 168.828 789.169 171.176C785.882 173.466 782.096 175.197 777.81 176.372C773.584 177.546 769.152 178.133 764.514 178.133C758.35 178.133 752.568 177.017 747.167 174.787C741.767 172.497 737.188 169.327 733.431 165.277C732.198 163.985 731.288 162.606 730.701 161.138Z" fill="#3E61EE"/>
<path fill-rule="evenodd" clip-rule="evenodd" d="M13.148 3.02825C-2.71877 7.68175 1.56243 25.4824 19.6125 18.4353C65.4763 0.528976 108.579 27.8933 108.579 27.8933C108.579 27.8933 60.7403 -10.9299 13.148 3.02825Z" fill="#3E61EE"/>
</svg>
