<?xml version="1.0" encoding="UTF-8" standalone="no"?>
<svg
   xmlns:dc="http://purl.org/dc/elements/1.1/"
   xmlns:cc="http://creativecommons.org/ns#"
   xmlns:rdf="http://www.w3.org/1999/02/22-rdf-syntax-ns#"
   xmlns:svg="http://www.w3.org/2000/svg"
   xmlns="http://www.w3.org/2000/svg"
   viewBox="0 0 1165.3387 169.168"
   height="169.168"
   width="1165.3387"
   xml:space="preserve"
   id="svg2"
   version="1.1"><metadata
     id="metadata8"><rdf:RDF><cc:Work
         rdf:about=""><dc:format>image/svg+xml</dc:format><dc:type
           rdf:resource="http://purl.org/dc/dcmitype/StillImage" /></cc:Work></rdf:RDF></metadata><defs
     id="defs6"><clipPath
       id="clipPath38"
       clipPathUnits="userSpaceOnUse"><path
         id="path36"
         d="M 0,126.876 H 874.004 V 0 H 0 Z" /></clipPath></defs><g
     transform="matrix(1.3333333,0,0,-1.3333333,0,169.168)"
     id="g10"><g
       transform="translate(187.0981,115.3971)"
       id="g12"><path
         id="path14"
         style="fill:#6ba4b8;fill-opacity:1;fill-rule:nonzero;stroke:none"
         d="m 0,0 h -20.817 v -53.32 h -5.759 V 0 H -47.395 V 5.096 H 0 Z" /></g><path
       id="path16"
       style="fill:#6ba4b8;fill-opacity:1;fill-rule:nonzero;stroke:none"
       d="m 195.817,120.493 h 5.762 V 62.077 h -5.762 z" /><g
       transform="translate(216.2231,62.0768)"
       id="g18"><path
         id="path20"
         style="fill:#6ba4b8;fill-opacity:1;fill-rule:nonzero;stroke:none"
         d="M 0,0 V 58.416 H 38.345 V 53.32 H 5.762 V 31.84 h 27.48 V 27.072 H 5.762 L 5.762,0 Z" /></g><g
       transform="translate(264.6821,62.0768)"
       id="g22"><path
         id="path24"
         style="fill:#6ba4b8;fill-opacity:1;fill-rule:nonzero;stroke:none"
         d="M 0,0 V 58.416 H 38.345 V 53.32 H 5.762 V 31.84 h 27.48 V 27.072 H 5.762 L 5.762,0 Z" /></g><path
       id="path26"
       style="fill:#6ba4b8;fill-opacity:1;fill-rule:nonzero;stroke:none"
       d="m 313.148,120.493 h 5.762 V 62.077 h -5.762 z" /><g
       transform="translate(339.313,109.7994)"
       id="g28"><path
         id="path30"
         style="fill:#6ba4b8;fill-opacity:1;fill-rule:nonzero;stroke:none"
         d="m 0,0 v -47.723 h -5.763 v 58.416 h 4.444 l 38.673,-48.626 v 48.546 h 5.758 v -58.336 h -5.018 z" /></g><g
       id="g32"><g
         clip-path="url(#clipPath38)"
         id="g34"><g
           transform="translate(439.2807,70.6344)"
           id="g40"><path
             id="path42"
             style="fill:#6ba4b8;fill-opacity:1;fill-rule:nonzero;stroke:none"
             d="m 0,0 c -5.431,-5.979 -11.685,-8.966 -18.762,-8.966 -3.947,0 -7.584,0.844 -10.901,2.545 -3.318,1.7 -6.2,3.95 -8.638,6.749 -2.444,2.799 -4.349,5.966 -5.719,9.502 -1.373,3.542 -2.058,7.171 -2.058,10.907 0,3.891 0.673,7.62 2.015,11.19 1.346,3.562 3.224,6.703 5.638,9.421 2.414,2.712 5.267,4.881 8.558,6.496 3.291,1.62 6.884,2.43 10.777,2.43 2.853,0 5.457,-0.315 7.818,-0.944 2.357,-0.637 4.456,-1.514 6.293,-2.639 1.838,-1.125 3.429,-2.463 4.772,-4.031 1.346,-1.559 2.48,-3.274 3.415,-5.142 l -4.443,-2.959 c -1.922,3.622 -4.416,6.28 -7.487,7.981 -3.073,1.701 -6.554,2.551 -10.449,2.551 -3.237,0 -6.16,-0.69 -8.765,-2.056 -2.604,-1.372 -4.828,-3.2 -6.662,-5.476 -1.841,-2.278 -3.251,-4.882 -4.239,-7.815 -0.987,-2.932 -1.479,-5.967 -1.479,-9.094 0,-3.287 0.558,-6.414 1.683,-9.38 1.125,-2.96 2.676,-5.551 4.651,-7.775 1.975,-2.223 4.293,-3.99 6.954,-5.303 2.658,-1.319 5.55,-1.975 8.677,-1.975 3.345,0 6.542,0.776 9.586,2.344 3.047,1.56 5.966,4.043 8.765,7.446 v 9.709 h -13 v 4.446 H 4.854 V -8.558 H 0 Z" /></g><g
           transform="translate(495.2299,67.1793)"
           id="g44"><path
             id="path46"
             style="fill:#6ba4b8;fill-opacity:1;fill-rule:nonzero;stroke:none"
             d="M 0,0 V -5.103 H -39.249 V 53.313 H -0.74 V 48.218 H -33.487 V 27.152 H -4.938 V 22.298 H -33.487 V 0 Z" /></g><g
           transform="translate(511.853,88.734)"
           id="g48"><path
             id="path50"
             style="fill:#6ba4b8;fill-opacity:1;fill-rule:nonzero;stroke:none"
             d="m 0,0 h 19.087 c 1.7,0 3.251,0.375 4.65,1.111 1.4,0.743 2.591,1.742 3.579,3.007 0.988,1.259 1.754,2.685 2.303,4.278 0.55,1.587 0.824,3.261 0.824,5.016 0,1.754 -0.318,3.442 -0.947,5.063 -0.63,1.62 -1.48,3.033 -2.552,4.238 -1.067,1.205 -2.33,2.163 -3.783,2.879 -1.456,0.71 -2.976,1.071 -4.566,1.071 L 0,26.663 Z m -5.763,-26.657 v 58.416 h 24.686 c 2.52,0 4.841,-0.529 6.954,-1.6 2.108,-1.071 3.934,-2.471 5.47,-4.199 1.537,-1.728 2.729,-3.689 3.579,-5.879 0.85,-2.196 1.276,-4.419 1.276,-6.669 0,-2.136 -0.315,-4.185 -0.948,-6.127 C 34.625,5.337 33.748,3.582 32.623,2.016 31.498,0.455 30.139,-0.864 28.548,-1.929 26.958,-3 25.177,-3.729 23.201,-4.111 L 37.518,-26.657 H 31.019 L 17.278,-5.103 H 0 v -21.554 z" /></g><g
           transform="translate(586.892,108.568)"
           id="g52"><path
             id="path54"
             style="fill:#34657f;fill-opacity:1;fill-rule:nonzero;stroke:none"
             d="m 0,0 c 0,-0.663 0.094,-1.319 0.288,-1.976 0.191,-0.656 0.562,-1.413 1.111,-2.263 0.546,-0.851 1.276,-1.841 2.18,-2.959 0.903,-1.125 2.099,-2.458 3.579,-3.991 3.18,2.082 5.772,4.043 7.774,5.878 2.002,1.842 3.003,3.938 3.003,6.294 0,2.144 -0.793,3.898 -2.384,5.271 C 13.958,7.62 11.929,8.31 9.461,8.31 8.089,8.31 6.83,8.088 5.678,7.653 4.526,7.211 3.521,6.608 2.675,5.839 1.821,5.068 1.165,4.191 0.699,3.207 0.23,2.216 0,1.151 0,0 m 9.709,-42.788 c 2.796,0 5.373,0.589 7.733,1.767 2.358,1.179 4.444,2.813 6.255,4.895 L 6.006,-17.443 c -2.909,-2.036 -5.32,-4.159 -7.241,-6.382 -1.919,-2.216 -2.88,-4.815 -2.88,-7.774 0,-1.808 0.398,-3.415 1.192,-4.814 0.797,-1.4 1.852,-2.578 3.17,-3.536 1.316,-0.964 2.796,-1.674 4.443,-2.143 1.644,-0.462 3.318,-0.696 5.019,-0.696 m 23.861,-3.703 -6.746,7.078 c -2.303,-2.471 -4.952,-4.406 -7.941,-5.806 -2.99,-1.392 -6.241,-2.095 -9.75,-2.095 -2.578,0 -5.005,0.388 -7.281,1.151 -2.278,0.77 -4.252,1.855 -5.927,3.255 -1.674,1.392 -3.003,3.066 -3.99,5.014 -0.985,1.95 -1.481,4.099 -1.481,6.462 0,1.976 0.328,3.784 0.988,5.431 0.66,1.641 1.564,3.167 2.715,4.566 1.153,1.4 2.468,2.699 3.951,3.905 1.48,1.205 3.043,2.363 4.687,3.455 -1.48,1.594 -2.729,3.019 -3.743,4.278 -1.014,1.266 -1.838,2.431 -2.467,3.502 -0.633,1.065 -1.085,2.096 -1.359,3.08 -0.275,0.991 -0.409,2.002 -0.409,3.047 0,1.808 0.369,3.495 1.108,5.063 0.743,1.559 1.771,2.918 3.087,4.071 1.316,1.151 2.866,2.055 4.65,2.719 1.781,0.656 3.713,0.983 5.799,0.983 1.919,0 3.703,-0.274 5.351,-0.823 1.643,-0.549 3.083,-1.332 4.318,-2.344 1.232,-1.018 2.207,-2.236 2.92,-3.662 0.713,-1.427 1.071,-2.986 1.071,-4.688 0,-1.701 -0.345,-3.254 -1.028,-4.654 -0.69,-1.393 -1.607,-2.725 -2.758,-3.983 -1.152,-1.266 -2.495,-2.471 -4.031,-3.623 -1.537,-1.152 -3.181,-2.304 -4.939,-3.455 L 26.74,-31.68 c 1.099,2.083 1.962,4.346 2.592,6.79 0.629,2.438 0.947,5.002 0.947,7.694 h 4.771 c -0.054,-3.408 -0.505,-6.616 -1.356,-9.629 -0.85,-3.02 -2.072,-5.792 -3.663,-8.31 l 10.945,-11.356 z" /></g><g
           transform="translate(690.1918,115.3971)"
           id="g56"><path
             id="path58"
             style="fill:#6ba4b8;fill-opacity:1;fill-rule:nonzero;stroke:none"
             d="m 0,0 h -20.818 v -53.32 h -5.759 V 0 H -47.395 V 5.096 H 0 Z" /></g><g
           transform="translate(744.9887,120.4928)"
           id="g60"><path
             id="path62"
             style="fill:#6ba4b8;fill-opacity:1;fill-rule:nonzero;stroke:none"
             d="m 0,0 v -58.416 h -5.679 v 27.32 h -34.638 v -27.32 h -5.762 V 0 h 5.762 V -26 H -5.679 V 0 Z" /></g><path
           id="path64"
           style="fill:#6ba4b8;fill-opacity:1;fill-rule:nonzero;stroke:none"
           d="m 759.632,120.493 h 5.763 V 62.077 h -5.763 z" /><g
           transform="translate(819.2875,67.1793)"
           id="g66"><path
             id="path68"
             style="fill:#6ba4b8;fill-opacity:1;fill-rule:nonzero;stroke:none"
             d="m 0,0 v -5.103 h -39.249 v 58.416 h 38.51 V 48.218 H -33.486 V 27.152 h 28.548 v -4.854 h -28.548 l 0,-22.298 z" /></g><g
           transform="translate(830.145,62.0768)"
           id="g70"><path
             id="path72"
             style="fill:#6ba4b8;fill-opacity:1;fill-rule:nonzero;stroke:none"
             d="M 0,0 V 58.416 H 5.763 V 5.103 h 33.73 l 0,-5.103 z" /></g><g
           transform="translate(459.2358,44.7936)"
           id="g74"><path
             id="path76"
             style="fill:#97999b;fill-opacity:1;fill-rule:nonzero;stroke:none"
             d="m 0,0 -20.805,-31.298 h -3.393 L -3.395,0 Z" /></g><g
           transform="translate(479.3803,44.7936)"
           id="g78"><path
             id="path80"
             style="fill:#97999b;fill-opacity:1;fill-rule:nonzero;stroke:none"
             d="m 0,0 -20.804,-31.298 h -3.394 L -3.394,0 Z" /></g><g
           transform="translate(496.6157,15.7008)"
           id="g82"><path
             id="path84"
             style="fill:#97999b;fill-opacity:1;fill-rule:nonzero;stroke:none"
             d="M 0,0 C 0.733,0 1.52,0.146 2.358,0.44 3.195,0.733 3.981,1.138 4.717,1.651 5.449,2.165 6.075,2.769 6.589,3.46 7.103,4.149 7.42,4.893 7.537,5.685 v 7.096 c -0.295,0.795 -0.721,1.536 -1.278,2.228 -0.559,0.69 -1.197,1.301 -1.917,1.828 -0.721,0.53 -1.491,0.94 -2.315,1.235 -0.822,0.292 -1.631,0.44 -2.423,0.44 -1.235,0 -2.353,-0.263 -3.35,-0.792 -1,-0.529 -1.86,-1.228 -2.58,-2.094 -0.721,-0.866 -1.271,-1.858 -1.653,-2.976 -0.382,-1.117 -0.574,-2.262 -0.574,-3.437 0,-1.235 0.221,-2.41 0.661,-3.528 0.443,-1.116 1.044,-2.093 1.809,-2.93 C -5.32,1.916 -4.416,1.247 -3.372,0.749 -2.33,0.249 -1.205,0 0,0 m -0.661,-2.645 c -1.588,0 -3.058,0.331 -4.408,0.992 -1.353,0.662 -2.514,1.534 -3.484,2.622 -0.968,1.087 -1.726,2.344 -2.268,3.77 -0.546,1.424 -0.817,2.916 -0.817,4.474 0,1.615 0.265,3.15 0.795,4.606 0.528,1.454 1.254,2.725 2.181,3.813 0.926,1.085 2.027,1.946 3.307,2.577 1.278,0.634 2.68,0.948 4.208,0.948 1.94,0 3.659,-0.506 5.159,-1.519 1.498,-1.014 2.673,-2.242 3.525,-3.681 v 14.016 h 2.998 V 1.676 c 0,-0.825 0.353,-1.236 1.058,-1.236 V -2.205 C 11.152,-2.292 10.8,-2.336 10.535,-2.336 9.83,-2.336 9.212,-2.109 8.683,-1.653 8.154,-1.199 7.89,-0.647 7.89,0 V 2.247 C 6.979,0.749 5.744,-0.441 4.187,-1.322 2.629,-2.205 1.014,-2.645 -0.661,-2.645" /></g><path
           id="path86"
           style="fill:#97999b;fill-opacity:1;fill-rule:nonzero;stroke:none"
           d="m 518.348,36.462 h 2.998 V 13.496 h -2.998 z m 0,9.211 h 2.998 v -4.407 h -2.998 z" /><g
           transform="translate(542.4155,15.7008)"
           id="g88"><path
             id="path90"
             style="fill:#97999b;fill-opacity:1;fill-rule:nonzero;stroke:none"
             d="m 0,0 c 0.88,0 1.747,0.159 2.599,0.484 0.852,0.323 1.624,0.757 2.315,1.301 0.69,0.544 1.271,1.153 1.74,1.828 0.47,0.676 0.78,1.366 0.927,2.072 v 7.096 c -0.323,0.823 -0.766,1.588 -1.323,2.293 -0.558,0.705 -1.189,1.309 -1.894,1.809 -0.707,0.498 -1.465,0.894 -2.271,1.189 -0.809,0.292 -1.625,0.44 -2.446,0.44 -1.294,0 -2.448,-0.271 -3.461,-0.815 -1.014,-0.544 -1.873,-1.257 -2.578,-2.136 -0.705,-0.883 -1.243,-1.883 -1.609,-2.998 -0.369,-1.118 -0.552,-2.25 -0.552,-3.394 0,-1.235 0.221,-2.41 0.661,-3.528 0.443,-1.118 1.052,-2.093 1.83,-2.93 0.778,-0.838 1.682,-1.5 2.711,-1.983 C -2.322,0.241 -1.207,0 0,0 m -0.839,-2.514 c -1.587,0 -3.033,0.331 -4.342,0.993 -1.306,0.661 -2.44,1.536 -3.394,2.623 -0.954,1.086 -1.696,2.336 -2.225,3.747 -0.529,1.41 -0.795,2.864 -0.795,4.364 0,1.587 0.257,3.106 0.774,4.56 0.511,1.456 1.24,2.727 2.18,3.815 0.941,1.086 2.064,1.954 3.372,2.599 1.307,0.648 2.755,0.97 4.342,0.97 1.969,0 3.673,-0.492 5.114,-1.475 1.44,-0.987 2.672,-2.228 3.703,-3.725 v 4.804 h 2.688 V -2.292 c 0,-1.588 -0.301,-2.99 -0.904,-4.211 -0.602,-1.219 -1.41,-2.241 -2.424,-3.063 -1.014,-0.823 -2.203,-1.441 -3.569,-1.851 -1.368,-0.412 -2.815,-0.617 -4.342,-0.617 -2.646,0 -4.776,0.47 -6.392,1.41 -1.618,0.94 -2.926,2.205 -3.924,3.79 l 1.852,1.456 c 0.91,-1.47 2.115,-2.549 3.613,-3.24 1.5,-0.692 3.116,-1.036 4.851,-1.036 1.115,0 2.173,0.153 3.173,0.463 0.998,0.308 1.874,0.764 2.623,1.366 0.749,0.603 1.344,1.366 1.784,2.292 0.44,0.927 0.662,2.006 0.662,3.241 V 2.247 C 6.698,0.777 5.493,-0.382 3.966,-1.234 2.438,-2.087 0.836,-2.514 -0.839,-2.514" /></g><path
           id="path92"
           style="fill:#97999b;fill-opacity:1;fill-rule:nonzero;stroke:none"
           d="m 564.014,36.462 h 2.998 V 13.496 h -2.998 z m 0,9.211 h 2.998 v -4.407 h -2.998 z" /><g
           transform="translate(589.0493,14.5973)"
           id="g94"><path
             id="path96"
             style="fill:#97999b;fill-opacity:1;fill-rule:nonzero;stroke:none"
             d="M 0,0 C -0.175,-0.087 -0.433,-0.205 -0.771,-0.353 -1.109,-0.5 -1.498,-0.645 -1.937,-0.792 -2.38,-0.939 -2.88,-1.071 -3.438,-1.188 -3.995,-1.307 -4.583,-1.366 -5.2,-1.366 c -0.648,0 -1.263,0.088 -1.851,0.264 -0.59,0.178 -1.103,0.449 -1.544,0.816 -0.44,0.368 -0.793,0.83 -1.057,1.39 -0.265,0.557 -0.397,1.203 -0.397,1.938 v 16.442 h -3.175 v 2.38 h 3.175 v 7.758 h 2.998 v -7.758 h 5.288 v -2.38 H -7.051 V 3.881 c 0.058,-0.853 0.359,-1.479 0.903,-1.875 0.544,-0.397 1.169,-0.596 1.874,-0.596 0.852,0 1.601,0.14 2.247,0.421 0.647,0.278 1.059,0.476 1.234,0.594 z" /></g><g
           transform="translate(603.685,15.3463)"
           id="g98"><path
             id="path100"
             style="fill:#97999b;fill-opacity:1;fill-rule:nonzero;stroke:none"
             d="m 0,0 c 1.558,0 2.99,0.295 4.299,0.883 1.306,0.588 2.298,1.366 2.975,2.336 0.263,0.265 0.462,0.552 0.594,0.86 0.133,0.307 0.199,0.594 0.199,0.858 V 8.685 C 7.067,9.067 6.031,9.359 4.96,9.567 3.886,9.772 2.793,9.876 1.675,9.876 -0.44,9.876 -2.159,9.434 -3.481,8.553 -4.804,7.671 -5.466,6.51 -5.466,5.071 c 0,-0.707 0.14,-1.368 0.419,-1.983 C -4.769,2.47 -4.386,1.933 -3.901,1.479 -3.416,1.022 -2.836,0.661 -2.159,0.398 -1.483,0.134 -0.765,0 0,0 m -0.705,-2.29 c -1.088,0 -2.094,0.183 -3.02,0.55 -0.925,0.368 -1.734,0.874 -2.423,1.521 -0.692,0.646 -1.228,1.403 -1.61,2.271 -0.383,0.866 -0.574,1.799 -0.574,2.799 0,0.998 0.235,1.923 0.705,2.776 0.471,0.852 1.132,1.587 1.984,2.205 0.853,0.615 1.867,1.094 3.041,1.432 1.176,0.337 2.471,0.506 3.881,0.506 1.175,0 2.365,-0.102 3.57,-0.309 1.204,-0.205 2.278,-0.5 3.218,-0.88 v 2.071 c 0,2.028 -0.574,3.637 -1.719,4.827 -1.147,1.19 -2.733,1.786 -4.76,1.786 -1.178,0 -2.381,-0.237 -3.615,-0.705 -1.236,-0.472 -2.485,-1.147 -3.747,-2.028 l -1.058,1.982 c 2.968,2 5.849,2.998 8.639,2.998 2.88,0 5.142,-0.809 6.79,-2.424 1.645,-1.615 2.467,-3.851 2.467,-6.7 V 2.03 c 0,-0.825 0.367,-1.235 1.102,-1.235 v -2.646 c -0.5,-0.086 -0.883,-0.13 -1.145,-0.13 -0.765,0 -1.361,0.189 -1.787,0.571 C 8.808,-1.027 8.581,-0.5 8.551,0.178 L 8.463,1.984 C 7.405,0.604 6.075,-0.454 4.474,-1.188 2.872,-1.924 1.146,-2.29 -0.705,-2.29" /></g><g
           transform="translate(625.768,45.6735)"
           id="g102"><path
             id="path104"
             style="fill:#97999b;fill-opacity:1;fill-rule:nonzero;stroke:none"
             d="m 0,0 h 2.998 v -26.977 c 0,-0.852 0.235,-1.519 0.705,-2.005 0.47,-0.485 1.131,-0.727 1.984,-0.727 0.323,0 0.705,0.043 1.145,0.133 0.442,0.088 0.853,0.205 1.235,0.352 l 0.53,-2.423 c -0.56,-0.238 -1.243,-0.426 -2.05,-0.574 -0.809,-0.147 -1.508,-0.221 -2.095,-0.221 -1.381,0 -2.468,0.39 -3.261,1.169 C 0.396,-30.496 0,-29.4 0,-27.99 Z" /></g><g
           transform="translate(663.9409,13.0563)"
           id="g106"><path
             id="path108"
             style="fill:#97999b;fill-opacity:1;fill-rule:nonzero;stroke:none"
             d="m 0,0 c -1.792,0 -3.541,0.293 -5.244,0.88 -1.705,0.588 -3.175,1.44 -4.408,2.558 l 1.367,2.027 C -6.993,4.407 -5.679,3.613 -4.34,3.085 -3.003,2.556 -1.571,2.29 -0.044,2.29 1.809,2.29 3.285,2.667 4.386,3.416 5.489,4.165 6.039,5.23 6.039,6.61 6.039,7.258 5.892,7.794 5.6,8.22 5.305,8.646 4.872,9.021 4.299,9.344 3.725,9.668 3.006,9.953 2.14,10.204 c -0.869,0.249 -1.874,0.506 -3.02,0.771 -1.323,0.322 -2.47,0.647 -3.438,0.969 -0.97,0.324 -1.771,0.692 -2.404,1.102 -0.632,0.412 -1.101,0.918 -1.41,1.521 -0.309,0.602 -0.463,1.359 -0.463,2.272 0,1.144 0.228,2.158 0.684,3.041 0.456,0.881 1.071,1.607 1.85,2.181 0.779,0.574 1.691,1.005 2.735,1.3 1.042,0.293 2.151,0.441 3.326,0.441 1.765,0 3.366,-0.287 4.807,-0.859 1.437,-0.573 2.599,-1.331 3.481,-2.27 L 6.834,18.91 c -0.853,0.88 -1.888,1.541 -3.109,1.984 -1.219,0.44 -2.49,0.661 -3.812,0.661 -0.793,0 -1.528,-0.081 -2.203,-0.243 -0.678,-0.162 -1.273,-0.418 -1.787,-0.771 -0.514,-0.353 -0.918,-0.803 -1.211,-1.345 -0.295,-0.545 -0.442,-1.182 -0.442,-1.918 0,-0.617 0.103,-1.117 0.308,-1.5 0.206,-0.38 0.544,-0.711 1.015,-0.989 0.469,-0.281 1.065,-0.53 1.786,-0.751 C -1.902,13.819 -1.027,13.59 0,13.354 1.47,13.002 2.763,12.649 3.88,12.297 4.996,11.944 5.93,11.532 6.679,11.064 7.428,10.592 7.993,10.021 8.376,9.344 8.758,8.668 8.949,7.846 8.949,6.875 8.949,4.76 8.141,3.085 6.525,1.851 4.908,0.617 2.735,0 0,0" /></g><g
           transform="translate(683.644,24.8698)"
           id="g110"><path
             id="path112"
             style="fill:#97999b;fill-opacity:1;fill-rule:nonzero;stroke:none"
             d="m 0,0 c 0,-1.295 0.221,-2.492 0.661,-3.594 0.441,-1.101 1.036,-2.071 1.785,-2.91 0.751,-0.836 1.631,-1.491 2.645,-1.96 1.013,-0.472 2.094,-0.705 3.241,-0.705 1.145,0 2.225,0.241 3.238,0.728 1.014,0.483 1.905,1.145 2.667,1.983 0.765,0.837 1.367,1.812 1.809,2.93 0.44,1.118 0.661,2.323 0.661,3.615 0,1.263 -0.221,2.462 -0.661,3.594 C 15.604,4.81 15.002,5.796 14.237,6.633 13.475,7.471 12.584,8.132 11.57,8.616 10.557,9.103 9.477,9.343 8.332,9.343 7.185,9.343 6.113,9.103 5.113,8.616 4.115,8.132 3.232,7.463 2.468,6.61 1.705,5.758 1.102,4.766 0.661,3.637 0.221,2.503 0,1.292 0,0 m 8.332,-11.813 c -1.676,0 -3.203,0.314 -4.585,0.948 -1.381,0.631 -2.578,1.489 -3.592,2.577 -1.013,1.087 -1.801,2.351 -2.358,3.79 -0.56,1.44 -0.838,2.954 -0.838,4.542 0,1.615 0.286,3.143 0.86,4.583 0.572,1.439 1.367,2.704 2.38,3.792 1.014,1.086 2.211,1.954 3.591,2.6 1.383,0.647 2.895,0.969 4.542,0.969 1.645,0 3.165,-0.322 4.561,-0.969 1.396,-0.646 2.601,-1.514 3.615,-2.6 1.013,-1.088 1.806,-2.353 2.381,-3.792 0.573,-1.44 0.86,-2.968 0.86,-4.583 0,-1.588 -0.281,-3.102 -0.839,-4.542 -0.557,-1.439 -1.345,-2.703 -2.358,-3.79 -1.014,-1.088 -2.219,-1.946 -3.615,-2.577 -1.394,-0.634 -2.93,-0.948 -4.605,-0.948" /></g><g
           transform="translate(712.9575,45.6735)"
           id="g114"><path
             id="path116"
             style="fill:#97999b;fill-opacity:1;fill-rule:nonzero;stroke:none"
             d="m 0,0 h 2.998 v -26.977 c 0,-0.852 0.234,-1.519 0.705,-2.005 0.47,-0.485 1.131,-0.727 1.984,-0.727 0.322,0 0.705,0.043 1.145,0.133 0.442,0.088 0.853,0.205 1.234,0.352 l 0.531,-2.423 c -0.56,-0.238 -1.243,-0.426 -2.05,-0.574 -0.809,-0.147 -1.508,-0.221 -2.096,-0.221 -1.38,0 -2.468,0.39 -3.26,1.169 C 0.396,-30.496 0,-29.4 0,-27.99 Z" /></g><g
           transform="translate(736.4067,13.0563)"
           id="g118"><path
             id="path120"
             style="fill:#97999b;fill-opacity:1;fill-rule:nonzero;stroke:none"
             d="m 0,0 c -2.497,0 -4.355,0.828 -5.575,2.489 -1.221,1.659 -1.83,4.137 -1.83,7.428 v 13.488 h 2.998 V 10.446 c 0,-5.202 1.778,-7.801 5.334,-7.801 0.88,0 1.746,0.145 2.6,0.44 0.851,0.293 1.638,0.719 2.359,1.279 0.719,0.558 1.366,1.219 1.938,1.984 0.573,0.762 1.035,1.629 1.388,2.599 V 23.405 H 12.21 V 4.32 c 0,-0.825 0.353,-1.235 1.058,-1.235 V 0.439 C 12.915,0.382 12.63,0.353 12.409,0.353 H 11.947 C 11.24,0.382 10.668,0.631 10.227,1.102 9.786,1.571 9.564,2.203 9.564,2.997 V 5.641 C 8.567,3.848 7.206,2.46 5.487,1.476 3.769,0.492 1.94,0 0,0" /></g><g
           transform="translate(770.8334,14.5973)"
           id="g122"><path
             id="path124"
             style="fill:#97999b;fill-opacity:1;fill-rule:nonzero;stroke:none"
             d="m 0,0 c -0.176,-0.087 -0.433,-0.205 -0.771,-0.353 -0.338,-0.147 -0.727,-0.292 -1.167,-0.439 -0.443,-0.147 -0.943,-0.279 -1.5,-0.396 -0.558,-0.119 -1.145,-0.178 -1.763,-0.178 -0.648,0 -1.263,0.088 -1.85,0.264 -0.59,0.178 -1.103,0.449 -1.544,0.816 -0.44,0.368 -0.793,0.83 -1.057,1.39 -0.265,0.557 -0.397,1.203 -0.397,1.938 v 16.442 h -3.175 v 2.38 h 3.175 v 7.758 h 2.998 v -7.758 h 5.288 v -2.38 H -7.051 V 3.881 c 0.058,-0.853 0.359,-1.479 0.902,-1.875 0.544,-0.397 1.17,-0.596 1.875,-0.596 0.852,0 1.601,0.14 2.246,0.421 0.647,0.278 1.059,0.476 1.235,0.594 z" /></g><path
           id="path126"
           style="fill:#97999b;fill-opacity:1;fill-rule:nonzero;stroke:none"
           d="m 778.988,36.462 h 2.997 V 13.496 h -2.997 z m 0,9.211 h 2.997 v -4.407 h -2.997 z" /><g
           transform="translate(794.4604,24.8698)"
           id="g128"><path
             id="path130"
             style="fill:#97999b;fill-opacity:1;fill-rule:nonzero;stroke:none"
             d="m 0,0 c 0,-1.295 0.221,-2.492 0.661,-3.594 0.44,-1.101 1.035,-2.071 1.784,-2.91 0.751,-0.836 1.632,-1.491 2.646,-1.96 1.013,-0.472 2.093,-0.705 3.24,-0.705 1.146,0 2.225,0.241 3.239,0.728 1.014,0.483 1.904,1.145 2.667,1.983 0.765,0.837 1.367,1.812 1.809,2.93 0.439,1.118 0.661,2.323 0.661,3.615 0,1.263 -0.222,2.462 -0.661,3.594 C 15.604,4.81 15.002,5.796 14.237,6.633 13.474,7.471 12.584,8.132 11.57,8.616 10.556,9.103 9.477,9.343 8.331,9.343 7.184,9.343 6.112,9.103 5.112,8.616 4.114,8.132 3.232,7.463 2.468,6.61 1.704,5.758 1.101,4.766 0.661,3.637 0.221,2.503 0,1.292 0,0 m 8.331,-11.813 c -1.675,0 -3.202,0.314 -4.585,0.948 -1.38,0.631 -2.577,1.489 -3.591,2.577 -1.014,1.087 -1.801,2.351 -2.358,3.79 -0.56,1.44 -0.839,2.954 -0.839,4.542 0,1.615 0.287,3.143 0.86,4.583 0.573,1.439 1.367,2.704 2.38,3.792 1.015,1.086 2.211,1.954 3.592,2.6 1.382,0.647 2.894,0.969 4.541,0.969 1.646,0 3.165,-0.322 4.562,-0.969 1.396,-0.646 2.601,-1.514 3.615,-2.6 1.013,-1.088 1.806,-2.353 2.38,-3.792 0.574,-1.44 0.86,-2.968 0.86,-4.583 0,-1.588 -0.28,-3.102 -0.838,-4.542 -0.558,-1.439 -1.345,-2.703 -2.358,-3.79 -1.014,-1.088 -2.219,-1.946 -3.615,-2.577 -1.395,-0.634 -2.93,-0.948 -4.606,-0.948" /></g><g
           transform="translate(842.9467,13.4957)"
           id="g132"><path
             id="path134"
             style="fill:#97999b;fill-opacity:1;fill-rule:nonzero;stroke:none"
             d="m 0,0 h -2.998 v 12.828 c 0,2.733 -0.404,4.716 -1.211,5.951 -0.809,1.233 -2.05,1.851 -3.725,1.851 -0.882,0 -1.764,-0.162 -2.645,-0.484 -0.882,-0.325 -1.696,-0.779 -2.447,-1.367 -0.749,-0.59 -1.419,-1.287 -2.006,-2.095 -0.588,-0.807 -1.014,-1.681 -1.278,-2.621 V 0 h -2.997 v 22.966 h 2.733 v -5.2 c 0.94,1.674 2.285,3.025 4.033,4.054 1.747,1.029 3.651,1.542 5.709,1.542 1.263,0 2.336,-0.235 3.217,-0.705 0.882,-0.47 1.587,-1.131 2.117,-1.983 0.527,-0.853 0.91,-1.895 1.145,-3.13 C -0.118,16.31 0,14.943 0,13.445 Z" /></g><g
           transform="translate(861.3705,13.0563)"
           id="g136"><path
             id="path138"
             style="fill:#97999b;fill-opacity:1;fill-rule:nonzero;stroke:none"
             d="m 0,0 c -1.793,0 -3.541,0.293 -5.244,0.88 -1.705,0.588 -3.175,1.44 -4.408,2.558 l 1.366,2.027 c 1.293,-1.058 2.607,-1.852 3.946,-2.38 1.336,-0.529 2.769,-0.795 4.296,-0.795 1.853,0 3.328,0.377 4.43,1.126 1.103,0.749 1.653,1.814 1.653,3.194 0,0.648 -0.147,1.184 -0.44,1.61 C 5.304,8.646 4.872,9.021 4.298,9.344 3.725,9.668 3.006,9.953 2.14,10.204 c -0.869,0.249 -1.875,0.506 -3.02,0.771 -1.323,0.322 -2.471,0.647 -3.438,0.969 -0.97,0.324 -1.771,0.692 -2.405,1.102 -0.631,0.412 -1.101,0.918 -1.41,1.521 -0.308,0.602 -0.462,1.359 -0.462,2.272 0,1.144 0.228,2.158 0.684,3.041 0.456,0.881 1.071,1.607 1.849,2.181 0.78,0.574 1.692,1.005 2.736,1.3 1.042,0.293 2.151,0.441 3.326,0.441 1.765,0 3.366,-0.287 4.807,-0.859 1.437,-0.573 2.598,-1.331 3.481,-2.27 L 6.834,18.91 c -0.853,0.88 -1.889,1.541 -3.109,1.984 -1.219,0.44 -2.49,0.661 -3.813,0.661 -0.792,0 -1.527,-0.081 -2.203,-0.243 -0.677,-0.162 -1.272,-0.418 -1.786,-0.771 -0.514,-0.353 -0.918,-0.803 -1.211,-1.345 -0.295,-0.545 -0.442,-1.182 -0.442,-1.918 0,-0.617 0.103,-1.117 0.308,-1.5 0.205,-0.38 0.544,-0.711 1.014,-0.989 0.47,-0.281 1.066,-0.53 1.787,-0.751 C -1.902,13.819 -1.027,13.59 0,13.354 1.47,13.002 2.763,12.649 3.88,12.297 4.995,11.944 5.93,11.532 6.679,11.064 7.428,10.592 7.993,10.021 8.376,9.344 8.758,8.668 8.949,7.846 8.949,6.875 8.949,4.76 8.141,3.085 6.525,1.851 4.908,0.617 2.734,0 0,0" /></g><g
           transform="translate(67.6704,13.4957)"
           id="g140"><path
             id="path142"
             style="fill:#34657f;fill-opacity:1;fill-rule:nonzero;stroke:none"
             d="M 0,0 -59.524,28.03 V 40.79 L 0,12.761 Z" /></g><g
           transform="translate(67.6704,13.4967)"
           id="g144"><path
             id="path146"
             style="fill:#6ba4b8;fill-opacity:1;fill-rule:nonzero;stroke:none"
             d="M 0,0 59.524,28.03 V 40.789 L 0,12.759 Z" /></g><g
           transform="translate(67.6714,32.5787)"
           id="g148"><path
             id="path150"
             style="fill:#34657f;fill-opacity:1;fill-rule:nonzero;stroke:none"
             d="M 0,0 -59.523,28.03 V 40.804 L 0,12.773 Z" /></g><g
           transform="translate(67.6704,32.5787)"
           id="g152"><path
             id="path154"
             style="fill:#6ba4b8;fill-opacity:1;fill-rule:nonzero;stroke:none"
             d="M 0,0 59.524,28.03 V 40.804 L 0,12.774 Z" /></g><g
           transform="translate(67.6684,51.6471)"
           id="g156"><path
             id="path158"
             style="fill:#34657f;fill-opacity:1;fill-rule:nonzero;stroke:none"
             d="M 0,0 -59.524,28.03 V 40.832 L 0,12.802 Z" /></g><g
           transform="translate(127.2124,79.6617)"
           id="g160"><path
             id="path162"
             style="fill:#6ba4b8;fill-opacity:1;fill-rule:nonzero;stroke:none"
             d="M 0,0 -59.524,28.029 V 40.831 L 0,12.802 Z" /></g><g
           transform="translate(77.1342,75.1969)"
           id="g164"><path
             id="path166"
             style="fill:#34657f;fill-opacity:1;fill-rule:nonzero;stroke:none"
             d="M 0,0 -51.742,24.371 -38.165,30.779 13.558,6.421 Z" /></g><g
           transform="translate(21.6704,86.066)"
           id="g168"><path
             id="path170"
             style="fill:#34657f;fill-opacity:1;fill-rule:nonzero;stroke:none"
             d="M 0,0 39.741,18.678 V 31.479 L -13.524,6.4 Z" /></g><g
           transform="translate(67.6704,51.649)"
           id="g172"><path
             id="path174"
             style="fill:#6ba4b8;fill-opacity:1;fill-rule:nonzero;stroke:none"
             d="m 0,0 59.524,28.03 v 12.8 L 0,12.8 Z" /></g></g></g></g></svg>