<svg width="190" height="117" xmlns="http://www.w3.org/2000/svg">
    <g fill="none" fill-rule="evenodd">
        <path d="M151.885 34.025c-20.123-4.191-40.036-9.566-60.369-12.573-34.938-5.166-37.066-2.504-13.738 11.19 52.656 30.907 52.876 26.056 90.24 54.526 3.854 2.937 15.662 10.174 10.845 9.688-16.59-1.677-127.583-62.274-138.968-52.314-1.169 1.022 46.58 31.157 47.922 31.937 11.312 6.578 23.099 12.328 34.272 19.141 5.472 3.337 21.87 12.518 15.59 11.263-15.572-3.112-67.373-23.596-99.71-32.14-30.54-8.068-43.485-4.87 0 13.242" stroke="#6DD400" stroke-width="20"/>
        <g fill="#000" fill-rule="nonzero">
            <path d="M133.785 96.356V89.11h-2.845v4.352l-6.445-13.956h10.522v-2.841h-11.833l-4.114-8.91h7.793v-2.84h-9.105l-3.682-7.976h18.288v-2.841h-19.602l-2.487-5.384h8.052v-2.841h-9.364l-.238-.517-3.722-8.175 3.696-7.285-2.537-1.284-2.668 5.255-2.368-5.202-2.589 1.176 2.843 6.243H73.154l3.1-7.3-2.62-1.109-2.614 6.157-2.614-6.157-2.62 1.11 3.689 8.687-3.568 8.4H57.07v2.842h7.633l-2.286 5.384H43.604v2.84H61.21l-2.783 6.558H48.347v2.84h8.874l-4.385 10.329h-9.232v2.84h8.026L46.8 90.882v-1.77h-2.845v7.245H40v2.84h98.241v-2.84h-4.456zM65.912 87.3H76.1c.457.882.94 1.753 1.466 2.602h-13.12a39.539 39.539 0 001.465-2.602zm1.35-2.84c.3-.692.583-1.388.85-2.085H73.9c.266.697.55 1.393.85 2.084h-7.489zm1.846-4.926a66.373 66.373 0 001.898-7.387 66.373 66.373 0 001.898 7.387h-3.796zm.476-20.436c0 .268-.198 26.755-14.775 37.258h-7.243l22.02-51.86v14.602h-.002zm-7.086 33.645h17.014a30.181 30.181 0 003.245 3.613H59.254a29.9 29.9 0 003.244-3.613zm9.93-33.645V44.43l22.047 51.925h-7.272c-14.576-10.503-14.774-36.99-14.774-37.258zM95.24 89.11v1.77L73.182 38.928h29.442l26.52 57.429h-31.06V89.11H95.24zM54.368 27.899a10.4 10.4 0 006.023-1.925 8.546 8.546 0 003.829.901c2.095 0 4.09-.76 5.644-2.12a8.827 8.827 0 004.624 1.313c4.86 0 8.814-3.949 8.814-8.802s-3.955-8.801-8.814-8.801c-.603 0-1.197.061-1.78.183C72.103 4.25 68.315.852 63.746.852c-4.011 0-7.438 2.57-8.61 6.279-.257-.02-.513-.029-.767-.029-5.741 0-10.413 4.665-10.413 10.4 0 5.732 4.672 10.397 10.413 10.397zm0-17.956c.52 0 1.044.055 1.56.163l1.47.308.23-1.481a6.158 6.158 0 016.118-5.24c3.42 0 6.202 2.779 6.202 6.193 0 .197-.012.392-.03.584l-.228 2.48 2.253-1.065a5.917 5.917 0 012.545-.577c3.291 0 5.969 2.674 5.969 5.96 0 3.288-2.678 5.962-5.969 5.962a5.973 5.973 0 01-3.86-1.42l-1.093-.928-.92 1.099a5.722 5.722 0 01-7.561 1.102l-.904-.6-.817.71a7.56 7.56 0 01-4.965 1.865c-4.173 0-7.568-3.39-7.568-7.557 0-4.168 3.395-7.558 7.568-7.558zM107.954 17.53c.001 0 .001 0 0 0l2.668-.988a3.904 3.904 0 012.301-5.015l-.991-2.663a6.73 6.73 0 00-4.082 4.306 6.747 6.747 0 00-5.909-.6l.991 2.663a3.91 3.91 0 015.022 2.298zM119.637 24.757l.001.001 2.067 1.316.33.21a3.914 3.914 0 015.395-1.192l1.529-2.395a6.753 6.753 0 00-5.904-.653 6.724 6.724 0 00-3.083-5.07l-1.53 2.394a3.904 3.904 0 011.195 5.389z"/>
        </g>
    </g>
</svg>
