<svg width="84" height="84" viewBox="0 0 84 84" xmlns="http://www.w3.org/2000/svg">
    <circle fill="#FC521F" cx="42" cy="42" r="42"></circle>
    <path fill="#FFF"
          d="M51.87 61.316l-6.674-3.852 20.078-11.581c.77-.444 1.495-.954 2.17-1.522 2.61 3.716 2.866 8.609.54 12.639a11.846 11.846 0 0 1-10.23 5.895c-2.057 0-4.09-.545-5.884-1.58v.001zm-1.608 2.782c.77.445 1.574.819 2.405 1.12C50.75 69.332 46.638 72 41.98 72c-6.502 0-11.795-5.287-11.795-11.785V37.051l10.187 5.879v14.535c0 .574.307 1.104.804 1.391l9.086 5.242zm-24.025-1.205a11.84 11.84 0 0 1-10.225-5.891 11.699 11.699 0 0 1-1.176-8.943 11.706 11.706 0 0 1 5.495-7.158l6.672-3.85.001 23.16c0 .889.076 1.77.231 2.643-.332.026-.666.039-.998.039zM52.2 34.268l-10.184 5.875-12.6-7.267a1.612 1.612 0 0 0-1.607 0l-9.086 5.241c-.77.443-1.496.95-2.172 1.521-2.608-3.715-2.863-8.609-.539-12.639a11.845 11.845 0 0 1 10.229-5.896c2.055 0 4.09.548 5.884 1.582L52.2 34.268zM41.98 12c6.505 0 11.795 5.287 11.795 11.788v7.7l-20.072-11.58a14.966 14.966 0 0 0-2.408-1.122C33.211 14.669 37.325 12 41.98 12zm26.003 15.003c3.25 5.629 1.314 12.851-4.319 16.101l-20.075 11.58V42.932l12.599-7.269c.498-.287.805-.817.805-1.391V23.788c0-.885-.08-1.767-.232-2.636a11.842 11.842 0 0 1 11.222 5.851z"></path>
</svg>