<svg width="324" height="360" viewBox=" 0 0 324 360" xmlns="http://www.w3.org/2000/svg" xmlns:xlink="http://www.w3.org/1999/xlink">
    <defs>
        <path d="M155 .251a38.824 38.824 0 0119.384 5.197l115.975 66.98c11.962 6.909 19.392 19.786 19.392 33.608v133.928c0 13.822-7.43 26.7-19.392 33.608l-115.975 66.98A38.797 38.797 0 01155 345.75a38.795 38.795 0 01-19.382-5.197l-115.975-66.98C7.68 266.663.25 253.786.25 239.964V106.036c0-13.822 7.43-26.7 19.394-33.608l115.975-66.98A38.821 38.821 0 01155 .25" id="a"/>
    </defs>
    <g fill="none" fill-rule="evenodd">
        <path d="M162 0a45.965 45.965 0 00-23.005 6.166L23.02 73.146A46.06 46.06 0 000 113.037v133.928a46.06 46.06 0 0023.02 39.89l115.975 66.98A45.965 45.965 0 00162 360a45.968 45.968 0 0023.007-6.166l115.975-66.98A46.058 46.058 0 00324 246.963V113.036a46.058 46.058 0 00-23.018-39.89L185.007 6.167A45.968 45.968 0 00162 0" fill="#231F20"/>
        <g transform="translate(7 7)">
            <mask id="b" fill="#fff">
                <use xlink:href="#a"/>
            </mask>
            <use fill="#EA0074" xlink:href="#a"/>
            <g mask="url(#b)">
                <path d="M92 308l33.182 22.602L127 369.32l-1.204.679-31.905-21.736L92 308zm31-18l33.181 22.604L158 351.321l-1.205.679-31.904-21.736L123 290zm-97-29l32.922 23.119L61 325l-32.922-23.122L26 261zm31-17l32.922 23.119L92 308l-32.922-23.122L57 244zm31-18l32.922 23.119L123 290l-32.922-23.122L88 226zm31-18l32.922 23.12L154 272l-32.922-23.123L119 208zm189-24l33.181 22.602L343 245.318l-1.205.682-31.572-21.509 1.777 37.83-1.207.679-31.902-21.736L277 201l32.846 22.373L308 184zM-9 197l32.921 23.119L26 261l-32.922-23.122L-9 197zm159-7l32.922 23.119L185 254l-32.922-23.122L150 190zM22 180l32.924 23.122L57 244l-32.921-23.122L22 180zm159-7l32.921 23.117L216 237l-32.922-23.122L181 173zm158-7l33.179 22.604L374 227.321l-1.204.679-31.905-21.736L339 166zm-286-4l32.924 23.12L88 226l-32.921-23.12L53 162zm189-25l32.924 23.119L277 201l-32.057-22.515L247 219l-32.921-23.123L212 155l32.059 22.513L242 137zm128 11l33.182 22.603 1.818 38.72-1.204.677-31.905-21.735L370 148zm-286-4l32.924 23.119L119 208l-32.92-23.122L84 144zm31-17l32.922 23.122L150 191l-32.922-23.122L115 127zm158-7l32.921 23.122L308 184l-32.921-23.122L273 120zm-286-4l32.921 23.12L22 180l-32.922-23.123L-13 116zm189-25l32.921 23.119L211 155l-32.057-22.515L181 173l-32.922-23.122L146 109l32.059 22.511L176 91zm128 11l32.922 23.12L339 166l-32.922-23.12L304 102zM18 98l32.922 23.119L53 162l-32.922-23.122L18 98zm317-14l32.921 23.119L370 148l-32.921-23.122L335 84zM49 81l32.922 23.12L84 145l-32.921-23.122L49 81zm158-7l32.924 23.119L242 138l-32.921-23.122L207 74zM80 63l32.922 23.12L115 127l-32.924-23.12L80 63zm158-7l32.922 23.119L273 120l-32.922-23.124L238 56zm-284.048-2l30.96 21.475L-13 116l-33.04-22.922L-48 55.109-46.048 54zM141 27l32.922 23.122L176 91l-32.06-22.517L146 109l-32.922-23.122L111 45l32.059 22.513L141 27zm128 11l32.921 23.119L304 102l-32.921-23.122L269 38zm-284.048-2l30.96 21.475L18 98l-33.04-22.925L-17 37.11-15.048 36zM300 20l32.922 23.119L335 84l-32.922-23.122L300 20zM15.952 19l30.96 21.475L49 81 15.96 58.075 14 20.11 15.952 19zM172 10l32.927 23.119L207 74l-32.922-23.122L172 10zM46.952 1L77.91 22.477 80 63 46.958 40.078 45 2.109 46.952 1zM203-8l32.921 23.119L238 56l-32.922-23.122L203-8zm-95.048-27l30.96 21.477L141 27 108.923 4.745 111 45 77.96 22.076 76-15.888 77.952-17l29.994 20.808L106-33.891 107.952-35zM234-26l32.922 23.119L269 38l-32.922-23.122L234-26zm31-17l32.921 23.12L300 21 267.079-2.122 265-43zm-126.048-9l30.96 21.477L172 10l-33.04-22.922L137-50.891 138.952-52z" fill="#FF007F"/>
                <path fill="#219E87" d="M155.888 312.265L187.793 334l1.207-.676-1.821-38.721L154 272z"/>
                <path fill="#E98B23" d="M186.888 294.265L218.793 316l1.207-.679-1.821-38.718L185 254z"/>
                <path fill="#4B81B6" d="M216.89 277.264L248.797 299l1.204-.682-1.818-38.714L215 237z"/>
                <path fill="#EAEAEA" d="M247.894 259.264L279.796 281l1.204-.679-1.818-38.72L246 219z"/>
            </g>
        </g>
        <path d="M114.6 234.16c5.76 0 10.747-.96 14.96-2.88 4.213-1.92 7.68-4.533 10.4-7.84 2.72-3.307 4.747-7.2 6.08-11.68 1.333-4.48 2-9.227 2-14.24v-69.6h-23.52v67.68c0 6.933-1.093 11.707-3.28 14.32-2.187 2.613-5.413 3.92-9.68 3.92-2.667 0-5.28-.853-7.84-2.56-2.56-1.707-4.8-4.32-6.72-7.84l-16 11.84c3.627 6.4 8.133 11.147 13.52 14.24 5.387 3.093 12.08 4.64 20.08 4.64zm89.44 0c6.187 0 11.733-.88 16.64-2.64 4.907-1.76 9.04-4.107 12.4-7.04 3.36-2.933 5.92-6.347 7.68-10.24 1.76-3.893 2.64-8.027 2.64-12.4 0-7.36-1.84-13.28-5.52-17.76-3.68-4.48-8.72-8-15.12-10.56l-13.44-5.44c-2.24-.96-4.32-1.84-6.24-2.64s-3.6-1.653-5.04-2.56-2.56-1.92-3.36-3.04c-.8-1.12-1.2-2.48-1.2-4.08 0-2.987 1.2-5.307 3.6-6.96 2.4-1.653 5.627-2.48 9.68-2.48 4.16 0 7.947.72 11.36 2.16 3.413 1.44 6.827 3.493 10.24 6.16l12-14.88c-4.48-4.48-9.68-7.893-15.6-10.24-5.92-2.347-11.92-3.52-18-3.52-5.44 0-10.427.8-14.96 2.4-4.533 1.6-8.453 3.813-11.76 6.64-3.307 2.827-5.867 6.133-7.68 9.92-1.813 3.787-2.72 7.813-2.72 12.08 0 3.84.587 7.28 1.76 10.32s2.747 5.707 4.72 8a34.27 34.27 0 006.72 6c2.507 1.707 5.093 3.093 7.76 4.16l13.6 5.76 6.16 2.64c1.867.8 3.467 1.653 4.8 2.56 1.333.907 2.347 1.947 3.04 3.12.693 1.173 1.04 2.56 1.04 4.16 0 3.093-1.2 5.547-3.6 7.36-2.4 1.813-6.053 2.72-10.96 2.72-4.373 0-8.827-1.013-13.36-3.04a50.815 50.815 0 01-12.4-7.84l-13.44 16.16c5.333 5.013 11.387 8.773 18.16 11.28 6.773 2.507 13.573 3.76 20.4 3.76z" fill="#FFF" fill-rule="nonzero"/>
    </g>
</svg>
