<svg width="31" height="31" xmlns="http://www.w3.org/2000/svg">
    <path d="M22.467 10.758l-.012-.005c-.006-.002-.013-.005-.018-.01a.089.089 0 01-.023-.076l.626-3.82 2.934 2.93-3.052 1.298a.068.068 0 01-.026.005h-.012a.085.085 0 01-.017-.014 1.389 1.389 0 00-.4-.308zm4.255-.233l3.138 3.134c.651.651.977.976 1.096 1.353.018.056.033.112.044.17l-7.497-3.173a.59.59 0 00-.012-.005c-.03-.012-.065-.025-.065-.056 0-.03.035-.045.065-.057l.01-.005 3.221-1.361zm4.15 5.662c-.162.304-.477.62-1.012 1.154l-3.537 3.532-4.574-.952-.024-.005c-.04-.006-.084-.013-.084-.05a1.379 1.379 0 00-.53-.964c-.019-.019-.014-.048-.008-.075 0-.004 0-.008.002-.011l.86-5.276.003-.018c.005-.04.012-.087.049-.087a1.4 1.4 0 00.939-.538c.007-.008.012-.017.021-.022.026-.012.057 0 .084.012l7.81 3.3h.001zm-5.362 5.498l-5.816 5.81.995-6.112.002-.008a.11.11 0 01.005-.024c.008-.019.029-.027.05-.035l.009-.004c.218-.093.41-.236.562-.418.02-.023.043-.045.073-.049a.073.073 0 01.024 0l4.095.841h.001zm-7.047 7.04l-.656.655-7.248-10.464a.343.343 0 00-.008-.011c-.011-.015-.023-.03-.021-.049 0-.012.009-.024.018-.034l.008-.01c.022-.032.04-.065.06-.1l.017-.028.002-.002c.012-.02.022-.038.042-.049.017-.008.04-.005.059 0l8.03 1.654a.133.133 0 01.06.026c.011.01.014.022.016.035.114.43.422.78.832.95.023.011.013.036.003.063a.192.192 0 00-.012.037c-.102.614-.97 5.9-1.202 7.327zm-1.37 1.367c-.483.478-.768.73-1.09.833-.318.1-.658.1-.976 0-.377-.12-.703-.445-1.355-1.097l-7.279-7.27 1.902-2.946a.121.121 0 01.032-.038c.02-.014.05-.008.074 0 .436.132.904.108 1.325-.067.022-.008.044-.013.061.002a.154.154 0 01.023.026l7.283 10.558v-.001zM5.692 21.857l-1.67-1.668 3.297-1.405a.068.068 0 01.027-.006c.027 0 .044.028.058.053.033.05.068.1.105.148l.01.013c.01.014.004.028-.006.04l-1.82 2.825h-.001zm-2.41-2.406L1.17 17.34c-.359-.36-.62-.62-.8-.844l6.422 1.331a.68.68 0 00.025.004c.04.007.083.014.083.051 0 .04-.048.059-.088.074l-.019.008-3.51 1.486zM0 15.412c.007-.136.032-.27.073-.4.12-.377.445-.702 1.097-1.353l2.704-2.7c1.244 1.804 2.492 3.606 3.744 5.406.022.029.046.061.02.085-.117.13-.235.273-.319.427a.13.13 0 01-.04.05c-.01.007-.022.004-.034.002h-.002L0 15.411v.001zm4.597-5.176l3.635-3.631c.342.15 1.585.674 2.697 1.143.842.356 1.61.679 1.85.784.025.01.046.02.057.044.006.014.003.033 0 .048a1.618 1.618 0 00.423 1.478c.025.024 0 .06-.02.09l-.012.016-3.69 5.71a.112.112 0 01-.036.04c-.02.013-.047.007-.07.002a1.842 1.842 0 00-.439-.06c-.133 0-.277.024-.422.05h-.001c-.016.003-.03.006-.044-.003a.17.17 0 01-.036-.042l-3.892-5.67zm4.37-4.365l4.705-4.7c.652-.651.978-.977 1.355-1.096.318-.1.658-.1.976 0 .377.12.703.445 1.355 1.096l1.02 1.018-3.347 5.178a.125.125 0 01-.033.039c-.02.014-.049.008-.073 0a1.699 1.699 0 00-1.554.299c-.022.023-.054.01-.082-.002-.437-.19-3.836-1.626-4.323-1.832zM19.087 2.9l3.09 3.087-.744 4.607v.012c0 .01-.003.02-.007.03-.008.017-.024.02-.04.025a1.482 1.482 0 00-.46.234c-.009.01-.018.019-.032.02a.093.093 0 01-.035-.005L16.151 8.91l-.009-.004c-.03-.012-.065-.026-.065-.057a1.776 1.776 0 00-.251-.74c-.023-.037-.048-.076-.029-.114L19.088 2.9zm-3.182 6.958l4.414 1.868c.025.011.051.022.062.047a.086.086 0 010 .046 1.095 1.095 0 00-.025.212v.124c0 .03-.031.044-.06.056l-.01.003c-.698.298-9.817 4.182-9.83 4.182-.014 0-.029 0-.043-.013-.024-.025 0-.059.022-.09a.615.615 0 00.011-.015l3.628-5.611.007-.01c.02-.034.045-.072.084-.072l.036.006c.083.011.156.021.23.021.55 0 1.06-.267 1.367-.725a.13.13 0 01.028-.032c.021-.016.054-.008.079.003zm-5.055 7.426l9.939-4.234s.014 0 .028.014c.054.054.1.09.145.124l.022.014c.02.011.04.024.042.045 0 .008 0 .013-.002.02l-.851 5.225-.003.021c-.006.04-.012.087-.05.087a1.4 1.4 0 00-1.111.684l-.004.007c-.012.018-.022.036-.04.046-.018.008-.04.005-.057 0l-7.927-1.632c-.008-.002-.123-.42-.131-.42z" fill="#FFF" fill-rule="nonzero"/>
</svg>
