<?xml version="1.0" encoding="UTF-8"?>
<svg width="1437px" height="292px" viewBox="0 0 1437 292" version="1.1" xmlns="http://www.w3.org/2000/svg" xmlns:xlink="http://www.w3.org/1999/xlink">
    <!-- Generator: Sketch 63.1 (92452) - https://sketch.com -->
    <title>Shape</title>
    <desc>Created with Sketch.</desc>
    <g id="Page-1" stroke="none" stroke-width="1" fill="none" fill-rule="evenodd">
        <g id="Home" transform="translate(0.000000, -644.000000)" fill="#F5F5F5">
            <path d="M1437,936 L-1,936 L-1,919.328023 C3.30666914,917.267061 6.47265294,914.064415 10.7793221,912.005571 L10.7793221,916.074542 C14.391845,914.394847 17.9895539,912.71727 20.535462,909.970027 C20.8084646,901.02507 19.997922,890.997737 20.9396752,882.722116 C24.6029893,882.027362 28.0504409,883.675284 31.5042414,882.722116 C33.1422571,882.275186 34.1834764,880.307422 35.9780982,879.877437 C41.300591,878.595955 47.0378785,880.805188 54.2629244,879.877437 C54.5189967,872.546512 53.7253844,864.164984 54.6692539,857.511867 L61.1662929,857.511867 C61.4223651,856.27063 60.6456832,854.004207 61.570506,853.440779 L73.3604096,853.440779 C73.5085506,855.054811 72.9879409,857.338179 73.7646228,858.32312 C75.8639917,859.481749 79.2712336,859.316533 81.8912122,859.951979 L81.8912122,868.085684 L121.7115,868.085684 L121.7115,794.878105 C127.57365,790.855734 132.409394,785.79335 144.057505,787.564125 L144.057505,866.86351 L172.502684,866.86351 C173.463484,858.871721 171.179997,852.811688 172.502684,846.128917 C173.057155,843.332956 175.73639,839.444029 177.380754,836.366353 C182.275755,827.213817 187.754854,817.690605 192.823391,808.713875 L205.009042,808.713875 C206.314799,805.674327 207.49781,802.533107 209.480783,800.175604 L225.733961,800.175604 L225.733961,807.902623 L246.458881,807.902623 L246.458881,858.738278 L266.769005,858.738278 C265.372248,855.122592 262.36287,853.120938 261.082509,849.380281 C269.035562,846.58432 280.550347,844.614438 277.335688,830.67276 C275.913535,828.844795 272.662899,828.844795 272.861831,825.385852 C276.624611,822.780525 281.418029,821.204619 285.460161,818.883124 C286.677033,812.238481 283.320583,810.177519 281.401099,806.678331 C283.781936,805.227397 284.569199,803.700209 287.089712,802.202675 C289.024009,801.060991 292.909535,800.54628 293.586751,798.544626 C295.224766,793.704648 289.271616,793.835974 289.527688,790.006354 C289.826087,785.448091 296.769665,785.613307 300.498584,783.088469 C301.448803,778.074803 296.174985,779.282149 296.026844,775.36145 C300.159976,770.686688 307.863306,769.585248 308.625174,761.53627 L309.236784,762.345404 L310.244143,762.345404 C310.699147,766.367775 313.469383,768.070769 315.122213,770.892148 C318.626804,771.447104 321.38011,772.762477 322.438259,775.766017 C321.951511,779.34993 316.783508,778.240019 317.966519,783.495154 C322.645657,785.107068 328.920484,785.960684 328.935298,790.410922 C328.952229,793.852919 323.04987,793.655931 324.876236,798.951312 C329.06016,801.550284 334.217581,803.162198 337.061888,807.082898 C334.822843,810.128801 331.896001,812.486305 333.002826,818.883124 C334.615446,820.74498 345.47841,823.284645 345.601156,826.610144 C345.700622,829.382805 339.326328,828.488945 341.129415,833.922006 C343.774789,833.095926 345.990555,829.969533 348.445462,827.421396 C350.180827,825.610376 354.703359,822.043408 355.34883,819.694377 C356.546656,815.318274 355.34883,808.374971 355.34883,802.60936 C355.34883,786.77829 355.670508,767.195973 354.942501,752.593431 C356.068372,752.220636 358.762421,753.41951 358.605815,751.773706 C358.472488,748.249101 359.20896,743.84758 357.382594,742.019615 C360.002573,737.683757 357.46513,731.096303 362.258548,726.563458 C364.764246,724.189009 368.078371,724.701602 370.791467,722.087802 L370.791467,720.465297 L372.791369,720.664403 L373.633657,718.83432 C375.007135,718.578023 377.413367,719.355385 378.107513,718.429753 L379.322269,718.628859 L380.54549,718.83432 L385.008765,718.83432 L386.331453,720.257718 L388.267866,720.058612 L388.267866,722.087802 C393.590359,725.065924 399.475788,726.762564 400.451402,733.88591 C400.866196,736.88945 399.293786,740.001016 401.674623,742.424182 C399.535044,743.938661 400.783661,748.852774 400.451402,752.186746 C400.758265,753.36232 403.799387,751.816069 404.114716,752.997998 C403.170846,774.560788 403.972924,797.860463 403.699921,820.101062 C406.313551,822.913968 408.859459,825.786183 411.826511,828.234767 L484.153156,828.234767 C484.707627,821.738394 485.979523,815.964311 485.376378,808.311426 C489.335974,805.085481 487.666213,796.223131 489.43544,790.819725 L491.06499,790.686281 L492.288211,789.603906 C494.800258,794.028726 492.552749,798.845404 493.502967,803.429085 C493.941041,805.547238 496.372669,807.061717 496.751486,809.120561 C497.59589,813.666115 494.776979,818.423485 497.570494,822.541173 C499.818004,818.561165 501.365019,813.871576 504.067533,810.338498 L512.194123,810.338498 C513.400413,803.958623 511.798375,794.759488 513.004665,788.377495 L517.476406,788.377495 C517.865805,790.016945 516.31879,793.598741 519.105956,792.855269 C520.932323,791.69664 519.419169,787.212512 519.916499,784.721565 C520.155641,783.116005 517.103937,784.821118 517.476406,783.090587 L517.476406,738.348857 C517.806548,736.381093 520.229711,736.503946 519.916499,733.881674 L520.932323,734.08078 L521.948146,734.286241 C523.090948,735.313545 523.040157,737.522777 525.602995,737.133037 C524.661242,731.026404 527.875901,720.75972 523.165018,718.425516 C525.892928,717.631209 525.372319,713.585539 526.007208,710.698497 L526.445282,711.425023 L527.232546,711.103064 C530.182667,707.826282 529.033516,700.44664 529.257844,694.431088 C530.182667,694.132428 532.432293,695.159732 532.100034,693.619835 C534.102053,689.110289 533.490443,681.995416 534.540127,676.534819 L536.374959,676.74028 L538.201325,676.939386 C538.978007,682.399983 538.721935,688.887883 540.226624,693.619835 C540.209693,695.125841 543.261397,693.562645 543.079395,695.24234 C543.062465,701.224002 542.582065,707.661067 545.104694,711.103064 C545.7417,709.440315 545.491976,706.883705 546.327915,705.409471 C546.905664,710.382892 546.105703,716.754294 549.576434,718.830084 C544.567154,718.67334 546.865455,733.309773 547.54267,737.133037 C549.229361,736.78566 550.105509,735.627031 550.386977,733.881674 L551.4028,734.08078 L552.42074,734.286241 C556.272405,738.821205 554.858717,750.949745 554.858717,761.127466 L554.858717,783.493036 C554.932788,784.651666 552.196413,783.003743 552.824953,784.717328 C553.47889,787.174385 551.419731,792.359622 554.048175,792.851033 C556.041728,792.950586 553.908499,788.91127 555.265047,788.373259 L560.141,788.373259 L560.141,810.334262 L569.078132,810.334262 C569.93735,812.73201 571.020895,814.900998 572.326652,816.845462 C572.178511,813.623752 574.675744,811.607271 575.179423,808.30719 C576.171968,801.770572 575.179423,792.743007 575.179423,784.310643 C575.179423,776.310382 573.723409,766.926967 575.179423,760.316214 C575.757173,757.676996 578.552804,756.651811 579.238485,753.805014 C579.725234,751.794887 578.973948,749.528464 579.238485,747.302286 C579.420487,745.736972 580.27124,744.091168 580.461706,742.419945 C581.073317,736.802606 579.708304,730.596419 580.461706,724.523677 C580.643708,723.000725 581.485995,721.577327 581.676462,720.054376 C582.825613,710.747214 580.569638,701.323555 581.676462,693.206795 C581.941,691.285631 583.056289,689.690663 583.306013,687.92836 C583.858367,683.840326 583.809692,678.419974 583.306013,674.507747 C583.01608,672.290042 581.88386,670.311688 581.676462,668.401114 C580.180239,654.334465 589.720516,645.779248 602.401382,644 L602.600314,644.612146 L603.211924,644.406685 C615.645183,645.001886 624.929388,654.889421 623.936844,667.589862 C623.720981,670.303215 621.96022,672.950905 621.498867,676.128134 C620.794139,680.936339 622.085082,687.108635 622.713623,692.80011 C623.754842,702.158107 621.704148,712.839949 622.713623,721.272313 C622.918904,722.975308 623.771772,724.563922 623.936844,726.152536 C624.861666,735.188574 623.265977,743.900534 624.747386,751.76947 C625.862676,752.66333 628.053046,756.461177 628.814914,755.029306 C631.343891,747.740744 628.186373,737.158455 629.62334,728.18808 C629.955599,726.137709 631.2931,725.002379 631.657104,722.488133 C632.90572,713.725337 630.251881,703.399344 631.657104,694.024402 C632.194644,690.417189 634.071801,684.907875 633.278189,678.97493 C633.013651,676.981749 631.872966,675.119893 631.657104,673.281337 C630.021204,659.356604 637.931931,651.413533 652.373558,648.882341 L652.985168,649.08992 L653.596779,649.286908 C664.476674,649.958362 672.933406,657.446031 673.90902,667.994429 C674.5037,674.408194 670.6605,681.05072 671.883721,689.144179 C672.190585,691.162779 673.627552,692.942026 673.90902,694.835655 C675.274033,703.911937 672.347191,713.941388 673.90902,723.712425 C674.198953,725.474727 675.314242,726.923543 675.53857,728.594766 C676.67079,737.14151 674.074091,745.580229 675.53857,752.993762 C676.272926,756.700528 679.870635,760.307741 681.225067,763.974263 L811.252614,763.974263 C826.908996,784.492804 841.293483,806.292827 857.165728,826.597435 C858.397414,823.894673 859.720101,821.293582 861.233255,818.872534 L869.764058,818.872534 C867.778969,786.579184 873.30251,762.459784 878.29486,737.537604 L879.774153,737.736711 L881.139167,737.133037 C885.073367,758.265843 891.257194,777.155525 889.669969,803.820944 C893.001024,809.713643 895.523653,816.407004 899.01978,822.126016 C901.855621,817.688487 900.640865,811.401811 900.640865,805.454039 C900.640865,799.857881 900.640865,793.630513 900.640865,787.55777 C900.640865,772.184221 902.185763,754.734883 898.211353,744.855821 C899.095966,739.782846 904.767649,739.492659 903.899966,732.6595 C902.941282,731.575006 900.503305,731.988045 899.428225,731.028523 C898.30447,718.518715 906.041661,714.877611 914.458183,711.916435 C918.838923,705.718721 914.944932,696.517468 914.870862,688.73114 C917.928914,685.024373 921.450436,681.77301 921.367901,674.90596 L922.997451,675.113539 L924.618536,675.310527 C925.989898,678.239932 925.098936,680.648271 926.6523,683.444232 C928.165454,686.166057 931.041505,686.820566 931.53037,689.95755 C932.472123,696.004875 926.711556,704.742253 931.53037,711.509749 C939.606168,715.08519 948.139087,718.20311 946.973006,731.028523 C944.757241,732.235869 942.871618,731.450035 942.094936,733.470752 C940.32571,738.086206 948.344368,740.824977 948.187762,744.862175 C944.276841,752.97258 945.749785,768.577008 945.749785,782.277217 L945.749785,812.776491 C956.652959,818.245561 967.664065,823.549414 979.073034,829.043901 C982.619952,830.755368 986.901226,833.354341 990.448143,833.924124 C995.954754,834.809511 1000.77357,833.280205 1006.70132,833.924124 C1007.023,824.246286 1008.76895,809.639508 1004.26335,803.429085 L1009.14142,803.429085 L1009.14142,792.855269 C1005.25589,791.861856 1000.46882,789.603906 999.80007,786.748636 L1032.71064,786.748636 C1034.42908,782.370416 1035.97609,777.812152 1037.99292,773.732591 C1039.57168,775.412285 1039.85315,778.384053 1041.64777,779.839224 C1044.56615,775.306378 1046.78192,770.059714 1050.59337,766.418611 C1053.13081,771.061601 1055.71905,775.653755 1058.71996,779.839224 C1059.83525,777.704126 1060.83626,775.446176 1061.96848,773.328023 C1063.70384,777.820624 1065.6064,782.156482 1067.25076,786.748636 L1100.56555,786.748636 C1098.57411,790.03389 1094.96159,791.713585 1090.81999,792.855269 L1090.81999,803.429085 C1092.31621,803.685382 1094.86212,802.899547 1095.68959,803.831534 C1095.00391,805.826834 1093.23469,807.762825 1092.84529,809.931813 C1090.30784,824.098015 1094.74572,843.629497 1092.84529,858.729805 L1098.94658,858.729805 C1105.94095,850.413939 1112.30466,841.473218 1119.25882,833.112871 C1122.71474,837.294104 1126.91347,841.411792 1131.45294,846.131035 C1134.49617,849.2892 1142.2249,855.497505 1143.23226,859.551648 C1145.55595,868.873636 1141.52017,879.33519 1143.23226,890.45549 C1152.14399,890.968083 1159.61665,890.040332 1165.58461,887.608693 L1165.58461,872.972261 C1169.73467,865.870096 1173.29006,858.179085 1177.77026,851.407353 C1203.63779,851.682712 1230.59521,850.869342 1255.7834,851.82251 C1256.05641,855.347116 1255.24586,859.945624 1256.18762,862.803012 C1263.16506,860.286647 1271.21758,858.865367 1278.12729,856.291812 C1278.77276,851.20401 1278.25004,848.391104 1279.09233,843.335074 C1279.51347,840.869545 1280.26052,836.417189 1280.56527,834.332927 C1281.21921,829.931407 1280.78748,825.106256 1280.97795,820.912314 C1281.51549,808.55925 1281.17688,783.836177 1281.78849,770.788359 C1280.3748,768.346129 1276.28188,767.941562 1275.28299,764.690198 C1274.45551,761.9832 1275.87767,767.056175 1275.28299,762.993558 C1278.1675,762.754207 1276.45753,764.283513 1276.91254,761.620996 C1274.77084,761.040622 1273.9603,761.265146 1272.93601,759.585451 C1274.09363,757.632515 1275.53271,758.0625 1277.72308,757.143222 C1277.14533,757.185585 1276.57393,757.211003 1276.49986,756.738655 L1277.11147,754.950934 L1276.91254,753.080606 C1277.14321,751.483519 1273.10108,752.784065 1272.92755,750.235927 C1274.49784,748.679085 1276.71149,748.51387 1279.414,748.109302 C1279.414,748.109302 1274.30737,745.457376 1272.91908,742.623288 C1272.49159,741.750609 1271.3636,729.245038 1273.80158,727.177722 C1276.14855,725.186659 1280.4785,724.76091 1280.91446,724.530031 C1280.64992,716.116731 1281.49856,711.181436 1280.56527,703.445944 C1280.91234,702.569029 1283.1535,703.602687 1283.40958,702.634691 L1284.83173,702.84227 L1286.25388,703.039258 C1287.51096,702.86557 1288.59874,702.795671 1288.69186,703.850511 C1289.05586,707.951253 1288.18606,718.222174 1288.57546,724.089456 C1288.63895,725.034152 1293.39428,724.881645 1295.22911,726.29657 C1297.84909,728.319406 1295.83225,741.223189 1296.02272,742.801213 C1296.22165,744.463962 1289.78175,747.391249 1290.6579,748.19191 C1292.99641,748.969272 1295.69469,748.564705 1296.73591,750.640494 C1295.7603,752.377379 1292.29592,751.657208 1292.34671,753.080606 L1292.14778,755.042015 L1293.1636,756.738655 C1293.0726,757.325383 1291.94884,756.878453 1291.94038,757.549907 C1294.75082,757.863394 1295.95077,757.655815 1296.73591,759.990019 C1295.19101,761.296919 1293.71807,760.544974 1292.75939,762.43013 C1292.81653,765.351062 1292.11392,762.686426 1294.38047,763.398126 L1294.38047,764.681726 C1292.57104,767.337889 1289.16379,768.405438 1287.4771,771.192926 C1287.64217,776.23201 1287.24643,781.609999 1287.4771,786.64061 C1288.02311,798.692897 1286.80835,823.945508 1288.28765,834.737494 C1288.88233,839.105124 1290.31294,853.031975 1290.31294,853.031975 C1297.90199,851.195537 1305.16937,849.001132 1312.6653,846.933815 C1319.79088,844.961815 1327.38839,841.678679 1335.0113,840.835655 C1343.0871,839.931204 1351.05708,841.490164 1360.61429,840.835655 L1360.61429,892.482562 C1361.82905,893.302286 1364.44268,892.711322 1366.3029,892.88501 L1366.3029,856.283339 C1379.71178,856.556581 1394.20419,855.745328 1406.93374,856.685788 L1406.93374,908.747853 L1429.27974,908.747853 L1429.27974,916.070305 C1431.72618,916.335074 1435.23077,915.532295 1437,916.474872 C1437,922.983954 1437,929.495154 1437,936 L1437,936 Z M922.995335,696.059947 C919.490743,696.324716 921.482181,702.266133 920.961571,706.635881 L925.433312,706.635881 C925.07989,702.067026 926.724254,695.771878 922.995335,696.059947 L922.995335,696.059947 Z M1047.32792,822.536937 C1034.99413,824.235695 1040.99595,845.389682 1039.60766,858.727687 L1059.11782,858.727687 C1058.07449,844.017119 1064.05303,820.228151 1047.32792,822.536937 L1047.32792,822.536937 Z M1027.42201,835.552983 C1013.87346,830.704532 1018.29653,851.430652 1017.66799,858.725569 L1031.48107,858.725569 C1030.53932,850.454184 1034.21745,837.976149 1027.42201,835.552983 L1027.42201,835.552983 Z M1077.39419,835.552983 C1064.65406,830.992601 1067.82216,848.626219 1067.64863,858.725569 L1081.46171,858.725569 C1080.51996,850.454184 1084.19809,837.984622 1077.39419,835.552983 L1077.39419,835.552983 Z" id="Shape"></path>
        </g>
    </g>
</svg>