<svg  viewBox="0 0 86 103" xmlns="http://www.w3.org/2000/svg"
     xmlns:xlink="http://www.w3.org/1999/xlink">
    <defs>
        <path
            d="M3.17582976,94.3582095 L0.00368688625,9.83496939 C-0.101076557,7.04349832 2.03932352,4.67775913 4.82731978,4.50350935 L76.7202563,0.0102008313 C79.5581036,-0.167164621 82.0024166,1.9895821 82.1797821,4.8274295 C82.1864645,4.93434866 82.1898081,5.04145033 82.1898081,5.1485781 L82.1898081,97.2515965 C82.1898081,100.094981 79.8847895,102.4 77.0414047,102.4 C76.9643762,102.4 76.8873573,102.398271 76.8104064,102.394815 L8.0896129,99.3083453 C5.41320975,99.1881395 3.27630525,97.035426 3.17582976,94.3582095 L3.17582976,94.3582095 Z"
            id="path-1"></path>
    </defs>
    <g>
        <g>
            <mask id="mask-2" fill="white">
                <use xlink:href="#path-1"></use>
            </mask>
            <use fill="#FF4785" fill-rule="nonzero" xlink:href="#path-1"></use>
            <path
                d="M60.690965,12.5865913 L61.1820326,0.77574057 L71.0550945,0 L71.4804339,12.1801218 C71.4952366,12.6040182 71.1636009,12.959654 70.7397046,12.9744568 C70.5581975,12.9807952 70.3803174,12.9226038 70.2376504,12.8102158 L66.4302804,9.81090565 L61.9224476,13.2303718 C61.5845176,13.4867124 61.1027661,13.420571 60.8464256,13.082641 C60.7385188,12.9403892 60.6835476,12.7649852 60.690965,12.5865913 Z M48.0642652,38.5959606 C48.0642652,40.5989906 61.5564027,39.6389906 63.3676035,38.232 C63.3676035,24.5918437 56.0486154,17.4241563 42.6463132,17.4241563 C29.2440108,17.4241563 21.7349194,24.703363 21.7349194,35.6221788 C21.7349194,54.6391165 47.3989025,55.0030771 47.3989025,65.3759521 C47.3989025,68.2876365 45.9731259,70.016449 42.8364168,70.016449 C38.7491899,70.016449 37.1333094,67.9290742 37.323413,60.8318438 C37.323413,59.2921925 21.7349194,58.8121925 21.2596604,60.8318438 C20.0494576,78.0309588 30.7648394,82.9918438 43.0265203,82.9918438 C54.9079941,82.9918438 64.2230694,76.6587287 64.2230694,65.193972 C64.2230694,44.8121823 38.178879,45.358123 38.178879,35.2582185 C38.178879,31.1636623 41.2205363,30.6177216 43.0265203,30.6177216 C44.9275561,30.6177216 48.3494205,30.9527895 48.0642652,38.5959606 Z"
                fill="#FFFFFF" fill-rule="nonzero" mask="url(#mask-2)"></path>
        </g>
    </g>
</svg>
