<svg width="40" height="40" xmlns="http://www.w3.org/2000/svg">
    <g fill="none" fill-rule="evenodd">
        <circle fill="#32C5FF" cx="20" cy="20" r="20"/>
        <path d="M23.363 12.004V12h.938l.343.067c.228.044.436.102.622.173.186.07.367.154.541.248.174.095.332.192.474.29.141.097.267.2.38.309.11.11.282.138.517.085.234-.053.487-.127.757-.222s.538-.201.803-.32c.264-.118.425-.193.483-.225l.09-.053.004-.006.018-.009.018-.008.018-.01.018-.008.003-.006.006-.003.005-.004.004-.005.018-.005.018-.004-.004.027-.005.026-.01.027-.008.027-.01.017-.008.018-.01.027a.61.61 0 00-.017.07c-.006.03-.063.149-.172.356a4.433 4.433 0 01-.405.63 3.116 3.116 0 01-.437.483c-.13.11-.216.187-.258.231a.772.772 0 01-.153.125l-.09.058-.018.01-.018.008-.004.005-.005.004-.006.003-.003.006-.018.009-.018.008-.004.006-.005.003-.006.004-.003.005-.004.006-.005.003-.006.004-.003.005h.09l.505-.107c.336-.07.658-.156.965-.257l.487-.16.054-.018.027-.008.018-.01.018-.008.018-.01.018-.008.036-.005L30 13.9v.036l-.009.003-.009.006-.004.005-.005.003-.005.004-.004.005-.004.006-.005.003-.005.004-.004.005-.004.005-.005.004-.01.018-.008.017-.006.004-.229.302c-.15.199-.231.3-.243.302-.012.003-.029.021-.05.053-.021.033-.148.165-.383.396-.234.23-.464.436-.689.616-.226.181-.34.404-.342.668-.004.263-.018.56-.042.891-.024.332-.069.69-.135 1.075s-.168.82-.307 1.305c-.138.485-.306.959-.505 1.42a11 11 0 01-.622 1.244 12.009 12.009 0 01-1.145 1.651 10.66 10.66 0 01-.707.76c-.286.28-.442.435-.469.462-.028.026-.145.123-.353.291-.207.17-.43.339-.668.508a7.732 7.732 0 01-.652.42c-.199.113-.438.242-.718.386-.28.146-.581.28-.906.405-.324.124-.667.24-1.028.346-.36.107-.709.19-1.046.249-.336.06-.718.11-1.145.151l-.64.062V28h-1.172v-.009l-.153-.009a8.347 8.347 0 01-.253-.018 30.552 30.552 0 01-.748-.097c-.433-.06-.773-.119-1.02-.178-.246-.059-.612-.171-1.1-.337a10.799 10.799 0 01-1.25-.503 50.248 50.248 0 01-.648-.32 4.629 4.629 0 01-.293-.163l-.162-.097-.003-.006-.006-.003-.005-.004-.004-.005-.018-.009-.018-.009-.004-.005-.005-.004-.005-.003-.004-.006-.004-.005-.005-.004H10v-.035l.018.003.018.006.081.009c.054.006.202.014.442.026a8.263 8.263 0 002.597-.293c.385-.1.738-.22 1.06-.358.321-.14.55-.244.686-.313.134-.067.34-.193.616-.376l.415-.276.004-.005.005-.004.006-.003.003-.005.004-.006.005-.003.006-.004.003-.005.018-.006.018-.003.004-.018.005-.018.006-.003.003-.005-.144-.01-.28-.017a2.749 2.749 0 01-.423-.08 4.11 4.11 0 01-.622-.213 4.823 4.823 0 01-.65-.338 3.193 3.193 0 01-.456-.324 7.85 7.85 0 01-.36-.363 3.6 3.6 0 01-.383-.485 4.334 4.334 0 01-.31-.573l-.15-.323-.009-.027-.009-.027-.005-.017-.004-.018.027.003.027.006.199.026c.132.018.34.024.622.018.282-.006.478-.018.586-.035a3.84 3.84 0 00.198-.036l.036-.009.046-.009.045-.009.003-.005.006-.003.005-.004.004-.005-.036-.01-.036-.008-.037-.009-.036-.009-.036-.009a3.354 3.354 0 01-.126-.035 6.98 6.98 0 01-.487-.196 3.743 3.743 0 01-.631-.328 4.349 4.349 0 01-.447-.35 5.056 5.056 0 01-.464-.494 3.545 3.545 0 01-.45-.701 4.226 4.226 0 01-.298-.764 4.065 4.065 0 01-.13-.737l-.033-.372.019.003.018.005.018.01.018.008.018.01.018.008.28.124c.186.083.417.154.694.213.276.06.441.092.495.098l.082.009h.162l-.004-.005-.005-.004-.005-.004-.004-.005-.004-.005-.005-.004-.006-.003-.003-.006-.018-.009-.018-.008-.004-.006-.005-.003-.006-.004-.003-.005-.018-.009-.018-.009-.004-.005-.155-.114a2.35 2.35 0 01-.31-.29 10.493 10.493 0 01-.325-.372 2.878 2.878 0 01-.288-.418 5.024 5.024 0 01-.267-.564 3.963 3.963 0 01-.292-1.371 4.24 4.24 0 01.018-.577c.018-.16.054-.34.108-.542.054-.201.132-.414.234-.64l.154-.337.009-.026.009-.027.005-.003.004-.006.003-.005.006-.004.005.004.004.005.003.006.006.003.005.004.004.005.003.005.006.004.009.018.009.017.005.004.004.005.243.267c.163.177.355.375.577.594.223.22.346.333.37.341.024.01.054.037.09.082.036.044.156.149.36.314.205.166.473.359.803.578.331.219.698.435 1.1.648.403.213.836.405 1.299.577.463.172.787.284.974.337.186.054.505.122.956.205.45.082.79.136 1.019.16.228.023.384.037.468.04l.127.004-.004-.027-.005-.027-.036-.222a4.11 4.11 0 01-.036-.621c0-.266.02-.512.063-.737.042-.225.105-.453.189-.684.084-.23.167-.416.247-.556.082-.138.189-.296.321-.474.132-.177.304-.36.514-.55.21-.19.45-.358.721-.506.27-.148.52-.26.749-.338.228-.077.42-.127.577-.15.156-.024.234-.038.234-.041z" fill="#FFF" fill-rule="nonzero"/>
    </g>
</svg>
