<?xml version="1.0" encoding="utf-8"?>
<!-- Generator: Adobe Illustrator 18.0.0, SVG Export Plug-In . SVG Version: 6.00 Build 0)  -->
<!DOCTYPE svg PUBLIC "-//W3C//DTD SVG 1.1//EN" "http://www.w3.org/Graphics/SVG/1.1/DTD/svg11.dtd">
<svg version="1.1" id="Ebene_1" xmlns="http://www.w3.org/2000/svg" xmlns:xlink="http://www.w3.org/1999/xlink" x="0px" y="0px"
	 viewBox="0 0 137.3 66.3" enable-background="new 0 0 137.3 66.3" xml:space="preserve">
<path fill="#FF7500" d="M0,66.3h121.2c9,0,16.1-7.4,16.1-16V0H0V66.3z"/>
<path fill="#003468" d="M15.5,57.6h-0.3c-3.5,0-6.4-2.4-6.4-6.4c0-2.5,3.7-2.5,3.7,0c0,1.7,1.1,2.7,2.7,2.7h0.3
	c1.6,0,2.8-0.8,2.8-2.4c0-4-9.3-4.4-9.3-10.2c0-0.4,0-0.3,0-0.7c0-3.4,3.4-5.5,6.2-5.5h0.3c3.3,0,6.2,2,6.2,5.1
	c0,2.4-3.7,2.4-3.7,0.1c0-0.8-1-1.5-2.6-1.5h-0.3c-1.4,0-2.5,0.8-2.5,2c0,0.4,0,0.1,0,0.5c0,2.5,9.3,3.6,9.3,10.2
	C22,55.1,19.2,57.6,15.5,57.6z"/>
<path fill="#003468" d="M31.4,57.6h-0.3c-3.5,0-6.4-2.7-6.4-6.3v-10c0-3.5,2.9-6.2,6.4-6.2h0.3c3.2,0,5.9,2.2,6.3,5.3
	c0,0.1,0,0.2,0,0.3c0,1.2-1,1.8-1.9,1.8c-0.8,0-1.6-0.5-1.8-1.6c-0.2-1.3-1.3-2.2-2.7-2.2h-0.3c-1.5,0-2.7,1.1-2.7,2.6v10
	c0,1.5,1.2,2.6,2.7,2.6h0.3c1.4,0,2.5-0.9,2.7-2.2c0.2-1.1,1-1.6,1.8-1.6c1,0,1.9,0.6,1.9,1.8c0,0.1,0,0.2,0,0.4
	C37.3,55.4,34.6,57.6,31.4,57.6z"/>
<path fill="#003468" d="M47.1,57.6h-0.3c-3.5,0-6.4-2.8-6.4-6.3v-10c0-3.6,2.9-6.3,6.4-6.3h0.3c3.6,0,6.4,2.7,6.4,6.3v9.9
	C53.5,54.9,50.6,57.6,47.1,57.6z M49.8,41.4c0-1.5-1.2-2.6-2.7-2.6h-0.3c-1.5,0-2.7,1.1-2.7,2.6v9.9c0,1.5,1.2,2.6,2.7,2.6h0.3
	c1.5,0,2.7-1.1,2.7-2.6V41.4z"/>
<path fill="#003468" d="M64,57.6h-0.3c-3.5,0-6.4-2.9-6.4-6.4V37c0-1.2,0.9-1.9,1.9-1.9c0.9,0,1.9,0.6,1.9,1.9v14.2
	c0,1.5,1.2,2.7,2.7,2.7H64c1.5,0,2.7-1.2,2.7-2.7V37c0-1.2,0.9-1.9,1.9-1.9c0.9,0,1.9,0.6,1.9,1.9v14.2C70.4,54.7,67.5,57.6,64,57.6
	z"/>
<path fill="#003468" d="M83.4,39h-2.6v16.8c0,1.2-0.9,1.9-1.9,1.9c-0.9,0-1.9-0.6-1.9-1.9V39h-2.6c-1.2,0-1.9-0.9-1.9-1.9
	c0-0.9,0.6-1.8,1.9-1.8h8.8c1.2,0,1.9,0.9,1.9,1.8C85.3,38.1,84.6,39,83.4,39z"/>
<path fill="#003468" d="M101.5,57.4h-8.3c-1.2,0-1.9-1.1-1.9-2.2c0-0.4,0.1-0.8,0.3-1.2l7.3-11.7c0.4-0.6,0.4-1,0.4-1.5v-0.3
	c0-1-0.8-1.8-1.9-1.8h-0.1c-1.1,0-1.9,0.8-1.9,1.8V41c0,1.2-0.9,1.8-1.9,1.8c-0.9,0-1.9-0.6-1.9-1.8v-0.5c0-3.1,2.5-5.4,5.6-5.4h0.1
	c3,0,5.6,2.2,5.6,5.4l0,0.4c0,1.2-0.4,2.2-1.1,3.3l-5.9,9.6h5.6c1.2,0,1.9,0.9,1.9,1.8C103.3,56.5,102.7,57.4,101.5,57.4z"/>
<path fill="#003468" d="M115.9,53h-0.7v2.7c0,1.2-0.9,1.9-1.9,1.9c-0.9,0-1.9-0.6-1.9-1.9V53h-5c-1.3,0-2.1-0.7-2.1-2
	c0-0.3,0.1-0.7,0.2-1l6-13.8c0.4-0.8,1-1.1,1.6-1.1c1,0,1.9,0.7,1.9,1.8c0,0.3,0,0.5-0.2,0.8l-5.3,11.6h2.8v-1.9
	c0-1.2,0.9-1.9,1.9-1.9c0.9,0,1.9,0.6,1.9,1.9v1.9h0.7c1.2,0,1.9,0.9,1.9,1.8C117.8,52.1,117.2,53,115.9,53z"/>
</svg>
