<svg width="40" height="40" xmlns="http://www.w3.org/2000/svg">
    <path d="M0 20.305C0 29.847 6.45 37.767 15.15 40c-.1-.254-.15-.61-.15-.964v-3.453h-2.5c-1.35 0-2.6-.608-3.15-1.726-.65-1.219-.75-3.097-2.4-4.265-.5-.406-.1-.812.45-.762 1.05.304 1.899 1.016 2.699 2.08.8 1.066 1.15 1.32 2.65 1.32.7 0 1.8-.05 2.8-.203.55-1.423 1.5-2.691 2.65-3.3-6.7-.812-9.9-4.162-9.9-8.731 0-1.98.85-3.86 2.25-5.484-.449-1.574-1.05-4.823.202-6.091 3 0 4.8 1.98 5.249 2.487 1.5-.508 3.15-.813 4.85-.813 1.75 0 3.35.305 4.849.813.45-.508 2.25-2.487 5.25-2.487 1.2 1.218.65 4.517.149 6.091 1.4 1.575 2.2 3.503 2.2 5.484 0 4.569-3.15 7.92-9.798 8.63 1.85.964 3.15 3.705 3.15 5.735v4.625c0 .152-.05.304-.05.456C34.4 36.702 40 29.189 40 20.305 40 9.086 31.05 0 20 0S0 9.086 0 20.305z" fill="#000" fill-rule="nonzero"/>
</svg>
