<svg width="126" height="100" xmlns="http://www.w3.org/2000/svg">
    <g fill="none" fill-rule="evenodd">
        <path d="M28.037 17.523c24.294 0 51.971-12.427 72.88 0 16.01 9.516-36.573 6.872-54.766 10.766-7.83 1.676-15.593 3.679-23.275 5.94-3.776 1.111-14.982 3.95-11.053 4.164 27.488 1.498 55.061-.786 82.585-.265 5.06.095 18.884-1.198 15.04 2.11-5.92 5.095-15.19 3.653-22.918 4.67-16.035 2.107-32.236 2.736-48.29 4.692-5.84.711-23.197 2.732-17.341 3.304 16.985 1.657 34.145-.704 51.197 0 109.04 4.5-21.067 12.095-47.03 24.005-14.134 6.485 31.128-1.785 46.612-.487 8.927.748 17.376 4.385 26.065 6.578" stroke="#FF4C59" stroke-width="21"/>
        <g fill="#000" fill-rule="nonzero">
            <path d="M73.948 42.24V16.27C73.948 10.555 69.218 0 62.48 0 55.74 0 51.01 10.555 51.01 16.27v25.968L28.48 63.894c-.306.294-.479.7-.479 1.124v8.412a1.562 1.562 0 001.568 1.562c.107 0 .214-.01.32-.033l21.123-4.384v2.855c0 .783.589 1.404 1.343 1.517l-1.29 4.796c-.126.47-.026.97.27 1.356a1.57 1.57 0 001.245.611h.974a9.203 9.203 0 00-.385 2.637c0 4.666 7.25 14.006 8.078 15.056a1.57 1.57 0 002.467-.001c.827-1.05 8.078-10.39 8.078-15.055 0-.9-.131-1.786-.386-2.637h.974a1.57 1.57 0 001.245-.611 1.56 1.56 0 00.27-1.356l-1.29-4.796c.755-.113 1.344-.734 1.344-1.517v-2.855L95.07 74.96a1.57 1.57 0 001.888-1.53v-8.41c0-.425-.173-.83-.48-1.125L73.948 42.239zM51.01 67.383l-19.875 4.124v-5.826l19.875-19.1v20.802zM62.48 95.85c-2.773-3.766-6.176-9.158-6.176-11.503 0-.917.205-1.815.6-2.637h.175c-.018.178-.04.356-.04.537 0 2.478 3.22 6.758 4.207 8.01a1.571 1.571 0 002.467 0c.987-1.252 4.206-5.532 4.206-8.01 0-.18-.021-.359-.039-.537h.175a6.1 6.1 0 01.6 2.637c0 2.343-3.404 7.735-6.175 11.503zm-2.304-13.603c0-.182.022-.362.064-.537h4.478c.043.175.065.355.065.537 0 .72-1.05 2.594-2.303 4.404-1.24-1.8-2.304-3.696-2.304-4.404zm8.794-3.662H54.622l.967-3.593h13.78l.967 3.593H68.97zm1.841-35.682v28.964H54.148V16.27c0-4.944 4.035-13.145 8.332-13.145 4.296 0 8.331 8.2 8.331 13.145v26.633zm23.011 28.605l-19.874-4.124V46.58l19.874 19.101v5.826z"/>
            <path d="M56.35 24.873c0 3.368 2.75 6.108 6.13 6.108 3.379 0 6.128-2.74 6.128-6.108 0-3.367-2.75-6.106-6.128-6.106-3.38 0-6.13 2.74-6.13 6.106zm9.122 0a2.99 2.99 0 01-2.992 2.983 2.991 2.991 0 01-2.994-2.983 2.99 2.99 0 012.994-2.981 2.99 2.99 0 012.992 2.981zM62.48 53.798c-.867 0-1.569.7-1.569 1.562v8.689c0 .863.702 1.562 1.569 1.562.865 0 1.568-.7 1.568-1.562V55.36c0-.863-.703-1.562-1.568-1.562zM62.48 45.53c-.867 0-1.569.7-1.569 1.562v2.321c0 .863.702 1.563 1.569 1.563.865 0 1.568-.7 1.568-1.563v-2.32c0-.863-.703-1.563-1.568-1.563z"/>
        </g>
    </g>
</svg>
