<svg width="353" height="92" viewBox="0 0 353 92" fill="none" xmlns="http://www.w3.org/2000/svg">
    <path fill-rule="evenodd" clip-rule="evenodd"
        d="M16.0957 59.4977C18.0616 59.4977 19.8022 58.9457 21.3176 57.8417C22.833 56.7377 23.9388 55.3066 24.6351 53.5484H29.6112C28.6692 56.5742 26.9491 59.007 24.4508 60.847C21.8296 62.7279 18.7169 63.6684 15.1128 63.6684C10.6076 63.6684 6.94206 62.1351 4.11608 59.0684C1.37201 56.0835 0 52.3422 0 47.8444C0 43.3466 1.37201 39.6053 4.11608 36.6204C6.94206 33.5537 10.6076 32.0204 15.1128 32.0204C18.7169 32.0204 21.8296 32.9608 24.4508 34.8417C26.9491 36.6817 28.6692 39.1146 29.6112 42.1404H24.6351C23.9388 40.3821 22.833 38.9511 21.3176 37.847C19.8022 36.743 18.0616 36.1911 16.0957 36.1911C14.1298 36.1911 12.4609 36.4977 11.0888 37.111C9.71681 37.7244 8.55982 38.5626 7.61782 39.6257C5.61097 41.8337 4.60755 44.5733 4.60755 47.8444C4.60755 51.1155 5.61097 53.855 7.61782 56.063C9.66563 58.3528 12.4916 59.4977 16.0957 59.4977ZM48.6558 32.0204C53.2429 32.0204 56.9698 33.5537 59.8368 36.6204C62.5399 39.5644 63.8914 43.3057 63.8914 47.8444C63.8914 52.3831 62.5399 56.1244 59.8368 59.0684C56.9698 62.1351 53.2429 63.6684 48.6558 63.6684C44.0687 63.6684 40.3417 62.1351 37.4748 59.0684C34.7717 56.1244 33.4201 52.3831 33.4201 47.8444C33.4201 43.3057 34.7717 39.5644 37.4748 36.6204C40.3417 33.5537 44.0687 32.0204 48.6558 32.0204ZM48.6558 59.4977C51.9732 59.4977 54.5944 58.3528 56.5193 56.063C58.3624 53.8959 59.2839 51.1564 59.2839 47.8444C59.2839 44.5324 58.3624 41.7928 56.5193 39.6257C54.5944 37.3359 51.9732 36.1911 48.6558 36.1911C45.3383 36.1911 42.7172 37.3359 40.7922 39.6257C38.9492 41.7928 38.0277 44.5324 38.0277 47.8444C38.0277 51.1564 38.9492 53.8959 40.7922 56.063C42.7172 58.3528 45.3383 59.4977 48.6558 59.4977ZM74.5809 37.1724C76.6287 33.7377 79.7414 32.0204 83.9189 32.0204C85.9667 32.0204 87.8609 32.5622 89.6016 33.6457C91.3422 34.7293 92.704 36.2524 93.6869 38.2151C95.0794 35.639 97.2501 33.7991 100.199 32.6951C101.387 32.2453 102.728 32.0204 104.223 32.0204C105.718 32.0204 107.151 32.3168 108.523 32.9097C109.895 33.5026 111.114 34.351 112.179 35.455C114.472 37.9084 115.619 40.975 115.619 44.655V63.1777H111.011V44.7777C111.011 42.2426 110.295 40.1573 108.861 38.5217C107.428 36.9679 105.605 36.1911 103.394 36.1911C101.059 36.1911 99.1136 36.9475 97.5573 38.4604C95.919 40.0142 95.0999 42.1404 95.0999 44.839V63.1777H90.4924V44.7777C90.4924 42.2426 89.7756 40.1573 88.3422 38.5217C86.9087 36.9679 85.0862 36.1911 82.8745 36.1911C80.54 36.1911 78.5946 36.9475 77.0383 38.4604C75.4 40.0142 74.5809 42.1404 74.5809 44.839V63.1777H69.9734V32.5111H74.5809V37.1724ZM127.906 37.4177C130.363 33.8195 134.029 32.0204 138.902 32.0204C143.326 32.0204 146.909 33.5537 149.653 36.6204C152.397 39.6462 153.769 43.3875 153.769 47.8444C153.769 52.3013 152.397 56.0426 149.653 59.0684C146.909 62.1351 143.223 63.6684 138.595 63.6684C133.967 63.6684 130.404 61.8488 127.906 58.2097V75.3217H123.298V32.5111H127.906V37.4177ZM138.288 36.1911C134.971 36.1911 132.349 37.3359 130.424 39.6257C128.581 41.7928 127.66 44.5324 127.66 47.8444C127.66 51.1564 128.581 53.8959 130.424 56.063C132.349 58.3528 134.971 59.4977 138.288 59.4977C141.565 59.4977 144.227 58.3528 146.274 56.063C148.199 53.8959 149.162 51.1564 149.162 47.8444C149.162 44.5324 148.199 41.7928 146.274 39.6257C144.227 37.3359 141.565 36.1911 138.288 36.1911ZM173.121 32.0204C177.708 32.0204 181.435 33.5537 184.302 36.6204C187.005 39.5644 188.357 43.3057 188.357 47.8444C188.357 52.3831 187.005 56.1244 184.302 59.0684C181.435 62.1351 177.708 63.6684 173.121 63.6684C168.534 63.6684 164.807 62.1351 161.94 59.0684C159.237 56.1244 157.885 52.3831 157.885 47.8444C157.885 43.3057 159.237 39.5644 161.94 36.6204C164.807 33.5537 168.534 32.0204 173.121 32.0204ZM173.121 59.4977C176.439 59.4977 179.06 58.3528 180.985 56.063C182.828 53.8959 183.749 51.1564 183.749 47.8444C183.749 44.5324 182.828 41.7928 180.985 39.6257C179.06 37.3359 176.439 36.1911 173.121 36.1911C169.804 36.1911 167.183 37.3359 165.258 39.6257C163.415 41.7928 162.493 44.5324 162.493 47.8444C162.493 51.1564 163.415 53.8959 165.258 56.063C167.183 58.3528 169.804 59.4977 173.121 59.4977ZM212.5 40.7297C212.091 37.5404 209.521 35.9457 204.79 35.9457C200.06 35.9457 197.695 37.4177 197.695 40.3617C197.695 41.5884 198.196 42.5186 199.2 43.1524C200.203 43.7862 201.463 44.3075 202.978 44.7164C204.493 45.1253 206.142 45.5035 207.924 45.851C209.705 46.1986 211.354 46.6893 212.869 47.323C214.384 47.9568 215.644 48.8257 216.647 49.9297C217.651 51.0337 218.152 52.5466 218.152 54.4684C218.152 57.4533 217.026 59.7328 214.773 61.307C212.521 62.8813 209.47 63.6684 205.62 63.6684C201.524 63.6684 198.268 62.6462 195.852 60.6017C193.64 58.8026 192.452 56.4515 192.289 53.5484H197.08C197.367 56.3697 198.964 58.271 201.872 59.2524C202.937 59.5795 203.992 59.743 205.036 59.743C206.081 59.743 207.053 59.6817 207.954 59.559C208.855 59.4364 209.736 59.2115 210.596 58.8844C212.562 58.1075 213.545 56.7786 213.545 54.8977C213.545 53.6301 213.043 52.659 212.04 51.9844C211.036 51.3097 209.777 50.7577 208.261 50.3284C206.746 49.899 205.098 49.5106 203.316 49.163C201.534 48.8155 199.886 48.335 198.371 47.7217C196.855 47.1084 195.596 46.2702 194.592 45.207C193.589 44.1439 193.087 42.6719 193.087 40.791C193.087 38.0106 194.101 35.8537 196.128 34.3204C198.156 32.787 201.156 32.0204 205.128 32.0204C208.896 32.0204 211.866 32.9199 214.036 34.719C215.838 36.2319 216.883 38.2355 217.169 40.7297H212.5ZM237.75 59.4977C241.886 59.4977 244.856 57.7804 246.658 54.3457H251.695C250.63 57.1262 248.941 59.375 246.627 61.0924C244.313 62.8097 241.333 63.6684 237.688 63.6684C233.06 63.6684 229.292 62.1351 226.384 59.0684C223.558 56.0835 222.146 52.3422 222.146 47.8444C222.146 43.3057 223.497 39.5644 226.2 36.6204C229.067 33.5537 232.794 32.0204 237.381 32.0204C241.968 32.0204 245.695 33.5537 248.562 36.6204C251.265 39.5644 252.617 43.3057 252.617 47.8444V49.6844H226.876C227.204 52.5057 228.33 54.8364 230.255 56.6764C232.221 58.5573 234.719 59.4977 237.75 59.4977ZM237.381 36.1911C234.555 36.1911 232.18 37.0702 230.255 38.8284C228.453 40.5048 227.347 42.6924 226.937 45.391H247.825C247.415 42.6924 246.31 40.5048 244.508 38.8284C242.583 37.0702 240.207 36.1911 237.381 36.1911Z"
        fill="#000" />
    <g style="mix-blend-mode:multiply">
        <g style="mix-blend-mode:color-burn">
            <path
                d="M309.996 88.9333C333.747 88.9333 353 69.7114 353 46C353 22.2886 333.747 3.06665 309.996 3.06665C286.246 3.06665 266.992 22.2886 266.992 46C266.992 69.7114 286.246 88.9333 309.996 88.9333Z"
                fill="#2A21D3" />
        </g>
        <g style="mix-blend-mode:color-burn">
            <path
                d="M304.774 92C328.525 92 347.778 72.7781 347.778 49.0666C347.778 25.3552 328.525 6.1333 304.774 6.1333C281.024 6.1333 261.77 25.3552 261.77 49.0666C261.77 72.7781 281.024 92 304.774 92Z"
                fill="#D0021B" />
        </g>
        <g style="mix-blend-mode:multiply">
            <path
                d="M304.775 85.8667C328.526 85.8667 347.779 66.6448 347.779 42.9333C347.779 19.2219 328.526 0 304.775 0C281.025 0 261.772 19.2219 261.772 42.9333C261.772 66.6448 281.025 85.8667 304.775 85.8667Z"
                fill="#3AB53A" />
        </g>
    </g>
    <g style="mix-blend-mode:multiply">
        <g style="mix-blend-mode:color-burn">
            <path fill-rule="evenodd" clip-rule="evenodd"
                d="M309.996 88.9333C333.747 88.9333 353 69.7114 353 46C353 22.2886 333.747 3.06665 309.996 3.06665C286.246 3.06665 266.992 22.2886 266.992 46C266.992 69.7114 286.246 88.9333 309.996 88.9333M304.774 92C328.525 92 347.778 72.7781 347.778 49.0666C347.778 25.3552 328.525 6.1333 304.774 6.1333C281.024 6.1333 261.77 25.3552 261.77 49.0666C261.77 72.7781 281.024 92 304.774 92M304.775 85.8667C328.526 85.8667 347.779 66.6448 347.779 42.9333C347.779 19.2219 328.526 0 304.775 0C281.025 0 261.772 19.2219 261.772 42.9333C261.772 66.6448 281.025 85.8667 304.775 85.8667Z"
                fill="white" />
        </g>
    </g>
    <path fill-rule="evenodd" clip-rule="evenodd"
        d="M298.692 64.7067V59.9227C297.586 61.3947 296.235 62.6418 294.638 63.664C293.04 64.6862 291.218 65.1973 289.17 65.1973C287.122 65.1973 285.361 64.9111 283.887 64.3387C282.412 63.7662 281.122 62.9076 280.016 61.7627C277.477 59.2684 276.207 55.9769 276.207 51.888V34.04H280.815V51.7653C280.815 54.5867 281.614 56.8355 283.211 58.512C284.808 60.1885 286.876 61.0267 289.416 61.0267C291.996 61.0267 294.187 60.168 295.989 58.4507C297.791 56.6924 298.692 54.4436 298.692 51.704V34.04H303.3V64.7067H298.692ZM329.348 42.2587C328.938 39.0693 326.368 37.4747 321.638 37.4747C316.907 37.4747 314.542 38.9467 314.542 41.8907C314.542 43.1173 315.044 44.0476 316.047 44.6813C317.051 45.3151 318.31 45.8364 319.826 46.2453C321.341 46.6542 322.989 47.0324 324.771 47.38C326.553 47.7276 328.201 48.2182 329.716 48.852C331.232 49.4858 332.491 50.3547 333.495 51.4587C334.498 52.5627 335 54.0756 335 55.9973C335 58.9822 333.874 61.2618 331.621 62.836C329.368 64.4102 326.317 65.1973 322.467 65.1973C318.372 65.1973 315.116 64.1751 312.699 62.1307C310.488 60.3315 309.3 57.9805 309.136 55.0773H313.928C314.215 57.8987 315.812 59.8 318.72 60.7813C319.785 61.1084 320.839 61.272 321.884 61.272C322.928 61.272 323.901 61.2107 324.802 61.088C325.703 60.9653 326.583 60.7404 327.443 60.4133C329.409 59.6364 330.392 58.3076 330.392 56.4267C330.392 55.1591 329.891 54.188 328.887 53.5133C327.884 52.8387 326.624 52.2867 325.109 51.8573C323.594 51.428 321.945 51.0396 320.163 50.692C318.382 50.3444 316.733 49.864 315.218 49.2507C313.703 48.6373 312.443 47.7991 311.44 46.736C310.436 45.6729 309.935 44.2009 309.935 42.32C309.935 39.5396 310.948 37.3827 312.976 35.8493C315.003 34.316 318.003 33.5493 321.976 33.5493C325.744 33.5493 328.713 34.4489 330.884 36.248C332.686 37.7609 333.73 39.7644 334.017 42.2587H329.348Z"
        fill="white" />
</svg>