<?xml version="1.0" encoding="UTF-8"?>
<svg id="uuid-78de2837-bc2d-4034-b5bf-1f8f0aa406ed" data-name="Ebene 2" xmlns="http://www.w3.org/2000/svg" width="340.04" height="227.39" viewBox="0 0 340.04 227.39">
  <g id="uuid-0c62d821-6b4f-420c-83fb-5e97c23368a0" data-name="Ebene 1">
    <rect width="340.04" height="227.39" style="fill: none;"/>
    <g id="uuid-1adc5ed5-d0a6-4bb9-aa2c-6880aa5d58d3" data-name="Ebene 1">
      <rect x="76.26" y="97.33" width="24" height="11" style="fill: #e0b43b;"/>
      <polygon points="139.25 117.08 139.25 66.75 87.75 37.08 58.26 54.02 58.26 50.57 87.75 33.6 142.17 65.02 142.2 115.33 139.25 117.08" style="fill: #e0b43b;"/>
      <polygon points="147.12 87.6 147.01 61.88 124.82 49.7 127.82 47.87 150.01 60.1 150.25 85.81 147.12 87.6" style="fill: #e0b43b;"/>
      <polygon points="55.26 140.2 33.6 127.78 33.6 102.28 36.57 100.58 36.6 126.04 58.44 138.52 55.26 140.2" style="fill: #e0b43b;"/>
      <polygon points="75.26 142.55 41.33 123.1 41.45 69.57 87.85 42.82 134.23 69.83 134.27 119.8 131.27 121.52 131.26 71.56 87.91 46.41 44.58 71.37 44.33 121.39 75.26 139.09 75.26 142.55" style="fill: #e0b43b;"/>
      <g>
        <path d="M84.32,163.28v-33.6h6.29v33.6h-6.29Z" style="fill: #3a3a3a;"/>
        <path d="M119.63,129.62h6.34v33.65h-3.94v.05l-17.67-22.71v22.66h-6.34v-33.6h5.14l16.47,20.83v-20.88Z" style="fill: #3a3a3a;"/>
        <path d="M153.33,137.79c-1.15-1.92-4.32-3.74-7.97-3.74-4.7,0-6.96,1.97-6.96,4.46,0,2.93,3.46,3.74,7.49,4.22,7.01,.86,13.54,2.69,13.54,10.71,0,7.49-6.62,10.71-14.11,10.71-6.86,0-12.15-2.11-14.64-8.26l5.28-2.74c1.49,3.7,5.38,5.33,9.46,5.33s7.73-1.39,7.73-5.04c0-3.17-3.31-4.46-7.78-4.94-6.86-.82-13.2-2.64-13.2-10.18,0-6.91,6.82-9.74,13.01-9.79,5.23,0,10.66,1.49,13.2,6.67l-5.04,2.59Z" style="fill: #3a3a3a;"/>
        <path d="M180.79,153.39h-9.51v9.89h-6.34v-33.6c5.28,0,10.56-.05,15.84-.05,16.42,0,16.46,23.76,0,23.76Zm-9.51-5.81h9.51c8.11,0,8.06-11.9,0-11.9h-9.51v11.9Z" style="fill: #3a3a3a;"/>
        <path d="M198.16,163.28v-33.6h6.29v33.6h-6.29Z" style="fill: #3a3a3a;"/>
        <path d="M240.99,163.28h-7.54l-9.79-11.23h-6.1v11.23h-6.34v-33.65c5.33,0,10.65,.05,15.98,.05,7.92,.05,12.1,5.33,12.1,11.14,0,4.61-2.11,9.27-8.5,10.56l10.18,11.47v.43h0Zm-23.42-27.7v10.75h9.65c4.03,0,5.76-2.69,5.76-5.38s-1.78-5.38-5.76-5.38h-9.65Z" style="fill: #3a3a3a;"/>
        <path d="M270.07,163.28h-25.15v-33.6h25.15v6.15h-18.86v7.73h18.19v5.9h-18.19v7.58h18.86v6.24Z" style="fill: #3a3a3a;"/>
        <path d="M306.39,146.19c.15,8.5-5.04,17.09-16.8,17.09h-13.2v-33.6h13.2c11.52,0,16.66,8.21,16.8,16.51Zm-23.71,10.99h6.91c7.63,0,10.66-5.57,10.51-11.04-.14-5.23-3.21-10.46-10.51-10.46h-6.91v21.51Z" style="fill: #3a3a3a;"/>
      </g>
      <polygon points="89.63 124.19 85.26 122.32 85.26 102.33 88.26 102.33 88.26 120.34 93.26 122.08 89.63 124.19" style="fill: #e0b43b;"/>
      <g>
        <path d="M100.25,191.27c-1.82,1.82-4.24,2.73-6.63,2.73-6.14,0-9.33-4.29-9.36-9.21-.05-4.86,3.12-9.41,9.36-9.41,2.39,0,4.81,.91,6.63,2.73l-.96,.83c-1.56-1.56-3.61-2.31-5.67-2.31-5.31,0-8.03,3.74-8.01,8.11,.05,4.26,2.76,7.96,8.01,7.96,2.06,0,4.13-.78,5.69-2.31l.94,.88Z" style="fill: #3a3a3a;"/>
        <path d="M122.4,184.71c-.03,4.78-3.07,9.39-9.18,9.39s-9.18-4.63-9.18-9.44,3.04-9.36,9.18-9.36,9.2,4.5,9.18,9.41Zm-16.98-.03c.03,4.11,2.63,8.11,7.8,8.11s7.83-4,7.83-8.11-2.6-8.09-7.83-8.09-7.83,3.8-7.8,8.09Z" style="fill: #3a3a3a;"/>
        <path d="M127.65,175.59l12.25,15.05v-15.05h1.38v18.2h-.55l-12.27-15.03v15.03h-1.4v-18.2h.6Z" style="fill: #3a3a3a;"/>
        <path d="M158.72,179.1c-1.33-2.13-3.46-2.44-5.51-2.47-2.13,0-5.51,.78-5.51,3.69,0,2.31,2.5,2.86,5.56,3.43,3.51,.68,7.15,1.3,7.15,5.23-.02,4.11-4.16,5.1-7.2,5.1-2.83,0-6.06-1.17-7.46-3.95l1.25-.62c1.12,2.21,3.98,3.3,6.21,3.3s5.8-.62,5.8-3.85c.02-2.73-2.99-3.33-5.98-3.9-3.33-.65-6.73-1.33-6.73-4.68-.08-3.85,3.93-5.04,6.92-5.04,2.6,0,4.86,.42,6.66,3.09l-1.14,.67Z" style="fill: #3a3a3a;"/>
        <path d="M178.61,175.59v11.31c0,9.52-13.94,9.54-13.94,0v-11.31h1.38v11.31c0,7.83,11.18,7.8,11.18,0v-11.31h1.38Z" style="fill: #3a3a3a;"/>
        <path d="M185.14,175.59v16.88h10.24v1.33h-11.65v-18.2h1.4Z" style="fill: #3a3a3a;"/>
        <path d="M201.8,176.86h-6.58v-1.25h14.56v1.25h-6.58v16.93h-1.4v-16.93h0Z" style="fill: #3a3a3a;"/>
        <path d="M213.76,193.79v-18.2h1.38v18.2h-1.38Z" style="fill: #3a3a3a;"/>
        <path d="M221.07,175.59l12.25,15.05v-15.05h1.38v18.2h-.55l-12.27-15.03v15.03h-1.4v-18.2h.6Z" style="fill: #3a3a3a;"/>
        <path d="M254.37,178.94c-1.59-1.56-3.8-2.34-5.85-2.34-5.33,0-8.06,3.9-8.04,8.11,0,4.29,2.73,7.98,8.04,7.98,1.95,0,3.98-.68,5.54-2.11v-5.1h-6.35v-1.22h7.67v6.81c-1.9,1.9-4.16,2.94-6.86,2.94-6.19,0-9.39-4.31-9.39-9.28-.03-5.69,3.85-9.41,9.39-9.41,2.39,0,4.81,.91,6.65,2.73l-.8,.88Z" style="fill: #3a3a3a;"/>
      </g>
    </g>
  </g>
</svg>