<?xml version="1.0" encoding="UTF-8" standalone="no"?><!DOCTYPE svg PUBLIC "-//W3C//DTD SVG 1.1//EN" "http://www.w3.org/Graphics/SVG/1.1/DTD/svg11.dtd"><svg width="100%" height="100%" viewBox="0 0 977 143" version="1.1" xmlns="http://www.w3.org/2000/svg" xmlns:xlink="http://www.w3.org/1999/xlink" xml:space="preserve" xmlns:serif="http://www.serif.com/" style="fill-rule:evenodd;clip-rule:evenodd;stroke-linejoin:round;stroke-miterlimit:2;"><g><path d="M0.042,1.188l-0,24.458l36.666,-0l0,116.042l27.459,-0l-0,-116.042l36.666,-0l0,-24.458l-100.791,-0Z" style="fill:#fff;fill-rule:nonzero;"/><path d="M203.25,1.188l0,86.041l-55.625,-86.042l-24.5,0.001l0,140.5l27.458,-0l0,-86.25l55.625,86.25l24.459,-0l-0,-140.5l-27.417,-0Z" style="fill:#fff;fill-rule:nonzero;"/><path d="M350.042,126.854c-10.834,11.042 -23.875,16 -39.667,16c-15,0 -27.625,-5.125 -37.875,-15.375c-6.125,-6.125 -9.875,-13.25 -11.458,-21.125c-1.584,-7.875 -2.375,-19.542 -2.375,-34.917c-0,-15.375 0.791,-27.041 2.375,-34.916c1.583,-8.083 5.333,-15 11.458,-21.084c10.292,-10.25 22.917,-15.375 37.875,-15.375c31.958,0 49.125,20.501 52.875,45.001l-27.625,-0c-3.333,-13.625 -11.625,-20.5 -25.25,-20.5c-7.292,-0 -13.208,2.583 -17.542,7.5c-5.125,6.5 -6.708,11.666 -6.708,39.458c0,27.625 1.167,33.167 6.708,39.667c4.125,4.916 10.042,7.291 17.542,7.291c8.083,0 14.625,-2.583 19.542,-7.875c4.125,-4.75 6.291,-11.041 6.291,-18.75l0,-5.333l-19.791,-0l-0,-22.875l47,-0l-0,20.5c0.041,20.458 -3.709,32.458 -13.375,42.708" style="fill:#fff;fill-rule:nonzero;"/><path d="M553.875,7.854l0,44.125l-7.708,0l-0,-44.125l-14.084,0l0,-6.958l35.875,-0l0,6.958l-14.083,0Z" style="fill:#fff;fill-rule:nonzero;"/><path d="M576.75,51.979l0,-51.083l32.667,-0l-0,6.958l-24.917,0l0,14.917l21.25,-0l0,6.917l-21.25,-0l0,15.333l24.917,-0l-0,6.958l-32.667,0Z" style="fill:#fff;fill-rule:nonzero;"/><path d="M636.5,52.396c-5.292,-0 -9.917,-1.917 -13.417,-5.459c-5,-5.041 -4.958,-10.666 -4.958,-20.499c0,-9.834 -0.083,-15.501 4.958,-20.5c3.5,-3.542 8.125,-5.459 13.417,-5.459c9.417,0 16.417,5.542 18.208,15.708l-7.916,0c-1.209,-5.166 -4.667,-8.75 -10.334,-8.75c-3,0 -5.75,1.125 -7.541,3.084c-2.5,2.708 -3.084,5.666 -3.084,15.917c0,10.25 0.584,13.208 3.084,15.916c1.791,1.917 4.541,3.083 7.541,3.083c5.667,0 9.167,-3.583 10.417,-8.75l7.833,0c-1.666,10.209 -8.958,15.709 -18.208,15.709" style="fill:#fff;fill-rule:nonzero;"/><path d="M693.542,51.979l-0,-22.291l-20.709,-0l0,22.291l-7.75,0l0,-51.083l7.75,-0l0,21.833l20.709,0l-0,-21.833l7.75,-0l-0,51.083l-7.75,0Z" style="fill:#fff;fill-rule:nonzero;"/><path d="M746,51.979l-23.625,-35.958l0,35.958l-7.708,0l-0,-51.083l7.083,-0l23.583,35.875l0,-35.875l7.75,-0l0,51.083l-7.083,0Z" style="fill:#fff;fill-rule:nonzero;"/><path d="M796.417,46.938c-3.542,3.499 -8.042,5.458 -13.5,5.458c-5.417,-0 -9.875,-1.917 -13.417,-5.459c-5.042,-4.999 -4.958,-10.666 -4.958,-20.499c-0,-9.834 -0.084,-15.501 4.958,-20.5c3.542,-3.542 7.958,-5.459 13.417,-5.459c5.458,0 9.958,1.959 13.5,5.459c5.041,4.999 4.875,10.666 4.875,20.5c-0,9.833 0.166,15.5 -4.875,20.5m-5.875,-36.334c-1.792,-1.917 -4.584,-3.167 -7.625,-3.167c-3,0 -5.792,1.209 -7.584,3.167c-2.5,2.709 -3,5.583 -3,15.875c0,10.292 0.5,13.125 3,15.834c1.792,1.958 4.584,3.166 7.584,3.166c3,0 5.833,-1.208 7.625,-3.166c2.5,-2.709 3,-5.584 3,-15.834c-0,-10.25 -0.5,-13.166 -3,-15.875" style="fill:#fff;fill-rule:nonzero;"/><path d="M812.75,51.979l0,-51.083l7.75,-0l0,44.125l24.625,-0l0,6.958l-32.375,0Z" style="fill:#fff;fill-rule:nonzero;"/><path d="M882.042,46.938c-3.5,3.499 -8.042,5.458 -13.5,5.458c-5.459,-0 -9.917,-1.917 -13.417,-5.459c-5.042,-4.999 -4.958,-10.666 -4.958,-20.499c-0,-9.834 -0.084,-15.501 4.958,-20.5c3.5,-3.542 7.958,-5.459 13.417,-5.459c5.458,0 9.958,1.959 13.5,5.459c5.041,4.999 4.875,10.666 4.875,20.5c-0,9.833 0.166,15.5 -4.875,20.5m-5.875,-36.334c-1.792,-1.917 -4.584,-3.167 -7.625,-3.167c-3.042,0 -5.834,1.209 -7.584,3.167c-2.541,2.709 -3.041,5.583 -3.041,15.875c-0,10.292 0.5,13.125 3.041,15.834c1.792,1.958 4.584,3.166 7.584,3.166c3,0 5.833,-1.208 7.625,-3.166c2.5,-2.709 3,-5.584 3,-15.834c-0,-10.25 -0.459,-13.166 -3,-15.875" style="fill:#fff;fill-rule:nonzero;"/><path d="M928.958,46.604c-3.875,4.084 -8.666,5.792 -14.041,5.792c-5.334,-0 -9.917,-1.917 -13.417,-5.458c-5,-5 -4.958,-10.667 -4.958,-20.5c-0,-9.834 -0.042,-15.5 4.958,-20.5c3.542,-3.542 7.958,-5.459 13.417,-5.459c10.833,0 17.125,7.084 18.583,15.875l-7.792,0c-1.291,-5.583 -5.041,-8.875 -10.791,-8.875c-3,0 -5.75,1.209 -7.542,3.125c-2.542,2.709 -3.125,5.584 -3.125,15.875c0,10.25 0.583,13.209 3.125,15.917c1.792,1.917 4.5,3.083 7.542,3.083c3.375,0 6.291,-1.291 8.333,-3.583c1.875,-2.167 2.583,-4.75 2.583,-8.042l0,-2.875l-10.916,0l-0,-6.583l18.625,-0l-0,7.833c-0,6.542 -1.209,10.792 -4.584,14.375" style="fill:#fff;fill-rule:nonzero;"/><path d="M960.958,30.938l0,21.041l-7.75,0l0,-21.041l-15.291,-30.042l8.458,-0l10.708,22.458l10.709,-22.458l8.416,-0l-15.25,30.042Z" style="fill:#fff;fill-rule:nonzero;"/><path d="M553.083,142.063c-5.291,-0 -9.916,-1.917 -13.416,-5.459c-5,-5 -4.959,-10.667 -4.959,-20.5c0,-9.833 -0.083,-15.5 4.959,-20.5c3.5,-3.5 8.125,-5.458 13.416,-5.458c9.417,-0 16.459,5.541 18.209,15.708l-7.875,0c-1.25,-5.167 -4.667,-8.75 -10.334,-8.75c-3,0 -5.708,1.167 -7.541,3.083c-2.5,2.709 -3.084,5.667 -3.084,15.917c0,10.25 0.584,13.208 3.084,15.917c1.791,1.916 4.541,3.083 7.541,3.083c5.667,0 9.167,-3.583 10.417,-8.75l7.792,0c-1.709,10.208 -8.959,15.709 -18.209,15.709" style="fill:#fff;fill-rule:nonzero;"/><path d="M613.792,136.604c-3.542,3.5 -8.042,5.459 -13.5,5.459c-5.459,-0 -9.875,-1.917 -13.417,-5.459c-5,-5 -4.958,-10.666 -4.958,-20.5c-0,-9.833 -0.084,-15.5 4.958,-20.5c3.542,-3.5 7.958,-5.458 13.417,-5.458c5.458,-0 9.958,1.958 13.5,5.458c5,5 4.875,10.667 4.875,20.5c-0,9.834 0.166,15.5 -4.875,20.5m-5.875,-36.333c-1.792,-1.917 -4.625,-3.167 -7.625,-3.167c-3,0 -5.792,1.208 -7.584,3.167c-2.541,2.708 -3,5.583 -3,15.833c0,10.25 0.5,13.125 3,15.834c1.792,1.958 4.584,3.166 7.584,3.166c3,0 5.833,-1.208 7.625,-3.166c2.5,-2.75 3,-5.584 3,-15.834c-0,-10.25 -0.5,-13.125 -3,-15.833" style="fill:#fff;fill-rule:nonzero;"/><path d="M663.667,141.646l-23.625,-35.959l-0,35.959l-7.75,-0l-0,-51.084l7.083,0l23.625,35.875l0,-35.875l7.75,0l0,51.084l-7.083,-0Z" style="fill:#fff;fill-rule:nonzero;"/><path d="M699.792,142.063c-7.667,-0 -13.209,-1.792 -18.084,-6.75l5.167,-5.084c3.75,3.709 7.792,4.875 13.042,4.875c6.666,0 10.541,-2.875 10.541,-7.791c0,-2.25 -0.666,-4.084 -2,-5.334c-1.291,-1.208 -2.583,-1.708 -5.625,-2.166l-6.041,-0.876c-4.167,-0.583 -7.459,-1.999 -9.667,-4.083c-2.542,-2.375 -3.75,-5.583 -3.75,-9.75c0,-8.916 6.458,-15 17.042,-15c6.75,0 11.5,1.709 15.875,5.834l-4.959,4.875c-3.166,-3 -6.791,-3.917 -11.125,-3.917c-6.041,-0 -9.333,3.417 -9.333,7.958c0,1.875 0.583,3.5 1.958,4.75c1.292,1.125 3.375,2 5.75,2.375l5.834,0.834c4.708,0.708 7.375,1.875 9.541,3.791c2.792,2.417 4.167,6.084 4.167,10.459c0.042,9.416 -7.667,15 -18.333,15" style="fill:#fff;fill-rule:nonzero;"/><path d="M748.208,142.063c-10.416,-0 -18.291,-7.084 -18.291,-17.667l-0,-33.834l7.75,0l-0,33.5c-0,6.834 4.125,11.042 10.541,11.042c6.375,0 10.625,-4.25 10.625,-11.042l0,-33.5l7.75,0l0,33.834c-0.041,10.583 -7.958,17.667 -18.375,17.667" style="fill:#fff;fill-rule:nonzero;"/><path d="M781.292,141.646l-0,-51.084l7.75,0l-0,44.126l24.583,-0l0,6.958l-32.333,-0Z" style="fill:#fff;fill-rule:nonzero;"/><path d="M836.125,97.521l0,44.125l-7.75,-0l0,-44.125l-14.042,-0l0,-6.959l35.875,0l0,6.959l-14.083,-0Z" style="fill:#fff;fill-rule:nonzero;"/><path d="M915.75,141.646l-23.583,-35.959l-0,35.959l-7.75,-0l-0,-51.084l7.125,0l23.583,35.875l0,-35.875l7.75,0l0,51.084l-7.125,-0Z" style="fill:#fff;fill-rule:nonzero;"/><path d="M968.917,136.271c-3.875,4.083 -8.667,5.792 -14.042,5.792c-5.333,-0 -9.917,-1.959 -13.417,-5.459c-5.041,-5 -4.958,-10.667 -4.958,-20.5c0,-9.833 -0.083,-15.5 4.958,-20.5c3.5,-3.5 7.959,-5.458 13.417,-5.458c10.833,-0 17.125,7.083 18.583,15.875l-7.791,-0c-1.292,-5.584 -5,-8.875 -10.75,-8.875c-3.042,-0 -5.75,1.208 -7.542,3.166c-2.5,2.709 -3.083,5.584 -3.083,15.875c-0,10.25 0.583,13.209 3.083,15.917c1.792,1.917 4.5,3.084 7.542,3.084c3.375,-0 6.333,-1.292 8.333,-3.584c1.875,-2.167 2.583,-4.75 2.583,-8.041l0,-2.876l-10.875,0.001l0,-6.626l18.625,0.001l0,7.833c-0.083,6.542 -1.291,10.791 -4.666,14.375" style="fill:#fff;fill-rule:nonzero;"/><path style="fill:#fff;" d="M404.458 0.854h93v13.083h-93"/><path style="fill:#fff;" d="M404.458 32.813h93v13.083h-93"/><path style="fill:#fff;" d="M404.458 64.771h93v13.083h-93"/><path style="fill:#fff;" d="M404.458 96.688h93v13.083h-93"/><path style="fill:#fff;" d="M404.458 128.646h93v13.083h-93"/><path style="fill:#fff;" d="M861.167 90.563h7.75v51.083h-7.75"/></g></svg>