<?xml version="1.0" encoding="UTF-8"?>
<svg xmlns="http://www.w3.org/2000/svg" version="1.1" viewBox="0 0 714.29 847.62">
  <defs>
    <style>
      .cls-1 {
        fill: #323673;
      }

      .cls-2 {
        fill: #8c1f66;
      }

      .cls-3 {
        fill: #f25041;
      }

      .cls-4, .cls-5 {
        fill: none;
      }

      .cls-6 {
        fill: #33a6a6;
      }

      .cls-7 {
        display: none;
      }

      .cls-5 {
        stroke: #ec1c24;
        stroke-miterlimit: 10;
        stroke-width: .25px;
      }
    </style>
  </defs>
  <!-- Generator: Adobe Illustrator 28.7.1, SVG Export Plug-In . SVG Version: 1.2.0 Build 142)  -->
  <g>
    <g id="Guides" class="cls-7">
      <path class="cls-4" d="M117.71,271.44"/>
    </g>
    <g id="Layer_1">
      <path class="cls-2" d="M128.66,18.94h37.4l59.6,141h-41.6l-10.2-25h-54l-10,25h-40.8L128.66,18.94ZM162.66,104.74l-15.6-39.8-15.8,39.8h31.4Z"/>
      <path class="cls-2" d="M239.26,19.94h38.8v106h67.8v34h-106.6V19.94Z"/>
      <path class="cls-2" d="M362.46,19.94h38.8v106h67.8v34h-106.6V19.94Z"/>
      <path class="cls-1" d="M80.26,239.94h60c35.4,0,58.2,18.2,58.2,49.2v.4c0,33-25.4,50.4-60.2,50.4h-19.2v40h-38.8v-140ZM137.46,309.54c13.8,0,22.2-7.2,22.2-18.2v-.4c0-12-8.4-18.4-22.4-18.4h-18.2v37h18.4Z"/>
      <path class="cls-1" d="M214.85,239.94h66.2c21.4,0,36.2,5.6,45.6,15.2,8.2,8,12.4,18.8,12.4,32.6v.4c0,21.4-11.4,35.6-28.8,43l33.4,48.8h-44.8l-28.2-42.4h-17v42.4h-38.8v-140ZM279.25,307.14c13.2,0,20.8-6.4,20.8-16.6v-.4c0-11-8-16.6-21-16.6h-25.4v33.6h25.6Z"/>
      <path class="cls-1" d="M359.45,239.94h39v140h-39v-140Z"/>
      <path class="cls-1" d="M424.05,239.94h36.2l57.6,74v-74h38.4v140h-34l-59.8-76.8v76.8h-38.4v-140Z"/>
      <path class="cls-1" d="M615.25,273.94h-42v-34h122.8v34h-42v106h-38.8v-106Z"/>
      <path class="cls-6" d="M75.46,530.34v-.4c0-40.8,31.4-72.8,73.8-72.8,28.6,0,47,12,59.4,29.2l-29.2,22.6c-8-10-17.2-16.4-30.6-16.4-19.6,0-33.4,16.6-33.4,37v.4c0,21,13.8,37.4,33.4,37.4,14.6,0,23.2-6.8,31.6-17l29.2,20.8c-13.2,18.2-31,31.6-62,31.6-40,0-72.2-30.6-72.2-72.4Z"/>
      <path class="cls-6" d="M224.46,538.54v-78.6h39.4v77.8c0,20.2,10.2,29.8,25.8,29.8s25.8-9.2,25.8-28.8v-78.8h39.4v77.6c0,45.2-25.8,65-65.6,65s-64.8-20.2-64.8-64Z"/>
      <path class="cls-6" d="M412.05,493.94h-42v-34h122.8v34h-42v106h-38.8v-106Z"/>
      <path class="cls-3" d="M21.06,780.94h39.6v39H21.06v-39Z"/>
      <path class="cls-3" d="M70.86,750.34v-.4c0-40.8,31.4-72.8,73.8-72.8,28.6,0,47,12,59.4,29.2l-29.2,22.6c-8-10-17.2-16.4-30.6-16.4-19.6,0-33.4,16.6-33.4,37v.4c0,21,13.8,37.4,33.4,37.4,14.6,0,23.2-6.8,31.6-17l29.2,20.8c-13.2,18.2-31,31.6-62,31.6-40,0-72.2-30.6-72.2-72.4Z"/>
      <path class="cls-3" d="M212.86,750.34v-.4c0-40.2,32.4-72.8,75.6-72.8s75.2,32.2,75.2,72.4v.4c0,40.2-32.4,72.8-75.6,72.8s-75.2-32.2-75.2-72.4ZM324.06,750.34v-.4c0-20.2-14.6-37.8-36-37.8s-35.4,17.2-35.4,37.4v.4c0,20.2,14.6,37.8,35.8,37.8s35.6-17.2,35.6-37.4Z"/>
      <path class="cls-3" d="M383.86,679.94h41l33.4,54.2,33.4-54.2h41v140h-38.6v-80.4l-35.8,54.8h-.8l-35.6-54.4v80h-38v-140Z"/>
    </g>
    <g id="REZ">
      <polygon class="cls-5" points="146.96 62.6 164.19 105.64 129.51 105.64 146.96 62.6"/>
    </g>
  </g>
</svg>