<svg width="3483" height="910" viewBox="0 0 3483 910" fill="none" xmlns="http://www.w3.org/2000/svg">
<path fill-rule="evenodd" clip-rule="evenodd" d="M158.788 587.922C178.182 587.922 195.353 582.468 210.303 571.559C225.253 560.649 236.162 546.508 243.03 529.134H292.121C282.828 559.034 265.859 583.074 241.212 601.256C215.353 619.841 184.647 629.134 149.091 629.134C104.646 629.134 68.485 613.983 40.6061 583.68C13.5352 554.185 0 517.215 0 472.771C0 428.326 13.5352 391.357 40.6061 361.862C68.485 331.559 104.646 316.407 149.091 316.407C184.647 316.407 215.353 325.7 241.212 344.286C265.859 362.468 282.828 386.508 292.121 416.407H243.03C236.162 399.033 225.253 384.892 210.303 373.983C195.353 363.074 178.182 357.619 158.788 357.619C139.394 357.619 122.929 360.65 109.394 366.71C95.8585 372.771 84.4445 381.054 75.1515 391.559C55.3534 413.377 45.4545 440.447 45.4545 472.771C45.4545 505.094 55.3534 532.165 75.1515 553.983C95.3536 576.609 123.232 587.922 158.788 587.922ZM480 316.407C525.253 316.407 562.02 331.559 590.303 361.862C616.97 390.953 630.303 427.922 630.303 472.771C630.303 517.619 616.97 554.589 590.303 583.68C562.02 613.983 525.253 629.134 480 629.134C434.747 629.134 397.98 613.983 369.697 583.68C343.03 554.589 329.697 517.619 329.697 472.771C329.697 427.922 343.03 390.953 369.697 361.862C397.98 331.559 434.747 316.407 480 316.407ZM480 587.922C512.727 587.922 538.586 576.609 557.576 553.983C575.758 532.569 584.848 505.498 584.848 472.771C584.848 440.043 575.758 412.973 557.576 391.559C538.586 368.932 512.727 357.619 480 357.619C447.272 357.619 421.414 368.932 402.424 391.559C384.242 412.973 375.151 440.043 375.151 472.771C375.151 505.498 384.242 532.569 402.424 553.983C421.414 576.609 447.272 587.922 480 587.922ZM735.757 367.316C755.96 333.377 786.666 316.407 827.879 316.407C848.081 316.407 866.767 321.761 883.939 332.468C901.111 343.175 914.545 358.225 924.242 377.619C937.98 352.165 959.394 333.983 988.485 323.074C1000.2 318.629 1013.43 316.407 1028.18 316.407C1042.93 316.407 1057.07 319.336 1070.61 325.195C1084.14 331.054 1096.16 339.437 1106.67 350.347C1129.29 374.589 1140.61 404.892 1140.61 441.256V624.286H1095.15V442.468C1095.15 417.417 1088.08 396.811 1073.94 380.65C1059.8 365.296 1041.82 357.619 1020 357.619C996.969 357.619 977.778 365.094 962.424 380.044C946.262 395.397 938.182 416.407 938.182 443.074V624.286H892.727V442.468C892.727 417.417 885.656 396.811 871.515 380.65C857.373 365.296 839.394 357.619 817.576 357.619C794.545 357.619 775.353 365.094 760 380.044C743.838 395.397 735.757 416.407 735.757 443.074V624.286H690.303V321.256H735.757V367.316ZM1261.82 369.741C1286.06 334.185 1322.22 316.407 1370.3 316.407C1413.94 316.407 1449.29 331.559 1476.36 361.862C1503.43 391.761 1516.97 428.73 1516.97 472.771C1516.97 516.811 1503.43 553.781 1476.36 583.68C1449.29 613.983 1412.93 629.134 1367.27 629.134C1321.62 629.134 1286.46 611.155 1261.82 575.195V744.286H1216.36V321.256H1261.82V369.741ZM1364.24 357.619C1331.51 357.619 1305.66 368.932 1286.67 391.559C1268.48 412.973 1259.39 440.043 1259.39 472.771C1259.39 505.498 1268.48 532.569 1286.67 553.983C1305.66 576.609 1331.51 587.922 1364.24 587.922C1396.57 587.922 1422.83 576.609 1443.03 553.983C1462.02 532.569 1471.51 505.498 1471.51 472.771C1471.51 440.043 1462.02 412.973 1443.03 391.559C1422.83 368.932 1396.57 357.619 1364.24 357.619ZM1707.88 316.407C1753.13 316.407 1789.9 331.559 1818.18 361.862C1844.85 390.953 1858.18 427.922 1858.18 472.771C1858.18 517.619 1844.85 554.589 1818.18 583.68C1789.9 613.983 1753.13 629.134 1707.88 629.134C1662.63 629.134 1625.86 613.983 1597.58 583.68C1570.91 554.589 1557.58 517.619 1557.58 472.771C1557.58 427.922 1570.91 390.953 1597.58 361.862C1625.86 331.559 1662.63 316.407 1707.88 316.407ZM1707.88 587.922C1740.61 587.922 1766.46 576.609 1785.45 553.983C1803.64 532.569 1812.73 505.498 1812.73 472.771C1812.73 440.043 1803.64 412.973 1785.45 391.559C1766.46 368.932 1740.61 357.619 1707.88 357.619C1675.15 357.619 1649.29 368.932 1630.3 391.559C1612.12 412.973 1603.03 440.043 1603.03 472.771C1603.03 505.498 1612.12 532.569 1630.3 553.983C1649.29 576.609 1675.15 587.922 1707.88 587.922ZM2096.36 402.468C2092.32 370.953 2066.97 355.195 2020.3 355.195C1973.64 355.195 1950.3 369.74 1950.3 398.831C1950.3 410.953 1955.25 420.145 1965.15 426.407C1975.05 432.67 1987.47 437.821 2002.42 441.862C2017.37 445.902 2033.64 449.639 2051.21 453.074C2068.79 456.508 2085.05 461.357 2100 467.619C2114.95 473.882 2127.37 482.468 2137.27 493.377C2147.17 504.286 2152.12 519.235 2152.12 538.225C2152.12 567.72 2141.01 590.245 2118.79 605.801C2096.57 621.357 2066.46 629.134 2028.48 629.134C1988.08 629.134 1955.96 619.033 1932.12 598.831C1910.3 581.053 1898.59 557.821 1896.97 529.134H1944.24C1947.07 557.013 1962.83 575.801 1991.51 585.498C2002.02 588.73 2012.42 590.346 2022.73 590.346C2033.03 590.346 2042.63 589.74 2051.51 588.528C2060.4 587.316 2069.09 585.094 2077.58 581.862C2096.97 574.185 2106.67 561.054 2106.67 542.468C2106.67 529.942 2101.72 520.347 2091.82 513.68C2081.92 507.013 2069.49 501.559 2054.54 497.316C2039.6 493.074 2023.33 489.235 2005.76 485.801C1988.18 482.367 1971.92 477.619 1956.97 471.559C1942.02 465.498 1929.6 457.215 1919.7 446.71C1909.8 436.205 1904.85 421.66 1904.85 403.074C1904.85 375.599 1914.85 354.286 1934.85 339.134C1954.85 323.983 1984.44 316.407 2023.64 316.407C2060.81 316.407 2090.1 325.296 2111.51 343.074C2129.29 358.023 2139.6 377.821 2142.42 402.468H2096.36ZM2345.45 587.922C2386.26 587.922 2415.55 570.953 2433.33 537.013H2483.03C2472.52 564.488 2455.86 586.71 2433.03 603.68C2410.2 620.65 2380.81 629.134 2344.85 629.134C2299.19 629.134 2262.02 613.983 2233.33 583.68C2205.45 554.185 2191.51 517.215 2191.51 472.771C2191.51 427.922 2204.85 390.953 2231.51 361.862C2259.8 331.559 2296.56 316.407 2341.82 316.407C2387.07 316.407 2423.84 331.559 2452.12 361.862C2478.79 390.953 2492.12 427.922 2492.12 472.771V490.953H2238.18C2241.41 518.832 2252.52 541.862 2271.51 560.043C2290.91 578.629 2315.55 587.922 2345.45 587.922ZM2341.82 357.619C2313.94 357.619 2290.5 366.306 2271.51 383.68C2253.74 400.246 2242.83 421.862 2238.79 448.528H2444.85C2440.81 421.862 2429.9 400.246 2412.12 383.68C2393.13 366.306 2369.7 357.619 2341.82 357.619Z" fill="white"/>
<g style="mix-blend-mode:multiply">
<g style="mix-blend-mode:color-burn">
<path d="M3058.18 878.788C3292.48 878.788 3482.42 688.848 3482.42 454.545C3482.42 220.243 3292.48 30.3027 3058.18 30.3027C2823.88 30.3027 2633.94 220.243 2633.94 454.545C2633.94 688.848 2823.88 878.788 3058.18 878.788Z" fill="#22C55E"/>
</g>
<g style="mix-blend-mode:color-burn">
<path d="M3006.67 909.091C3240.97 909.091 3430.91 719.151 3430.91 484.848C3430.91 250.546 3240.97 60.606 3006.67 60.606C2772.36 60.606 2582.42 250.546 2582.42 484.848C2582.42 719.151 2772.36 909.091 3006.67 909.091Z" fill="#3B82F6"/>
</g>
<g style="mix-blend-mode:multiply">
<path d="M3006.67 848.485C3240.97 848.485 3430.91 658.545 3430.91 424.242C3430.91 189.94 3240.97 0 3006.67 0C2772.37 0 2582.43 189.94 2582.43 424.242C2582.43 658.545 2772.37 848.485 3006.67 848.485Z" fill="#F43F5E"/>
</g>
</g>
<g style="mix-blend-mode:screen">
<g style="mix-blend-mode:color-burn">
<path fill-rule="evenodd" clip-rule="evenodd" d="M3246.27 74.9428C3385.98 144.355 3482 288.518 3482 455.107C3482 621.697 3385.98 765.86 3246.27 835.272C3178.01 882.192 3095.33 909.653 3006.24 909.653C2771.94 909.653 2582 719.713 2582 485.411C2582 475.222 2582.36 465.117 2583.07 455.107C2582.36 445.098 2582 434.993 2582 424.804C2582 190.502 2771.94 0.562012 3006.24 0.562012C3095.33 0.562012 3178.01 28.0233 3246.27 74.9428Z" fill="black"/>
</g>
</g>
<path fill-rule="evenodd" clip-rule="evenodd" d="M2946.67 639.394V592.121C2935.76 606.667 2922.42 618.99 2906.67 629.091C2890.91 639.192 2872.93 644.242 2852.73 644.242C2832.52 644.242 2815.15 641.414 2800.61 635.757C2786.06 630.101 2773.33 621.616 2762.42 610.303C2737.37 585.656 2724.85 553.131 2724.85 512.727V336.364H2770.3V511.515C2770.3 539.394 2778.18 561.616 2793.94 578.182C2809.7 594.747 2830.1 603.03 2855.15 603.03C2880.61 603.03 2902.22 594.545 2920 577.576C2937.78 560.202 2946.67 537.98 2946.67 510.909V336.364H2992.12V639.394H2946.67ZM3249.09 417.576C3245.05 386.06 3219.7 370.303 3173.03 370.303C3126.36 370.303 3103.03 384.848 3103.03 413.939C3103.03 426.061 3107.98 435.252 3117.88 441.515C3127.78 447.778 3140.2 452.929 3155.15 456.97C3170.1 461.01 3186.36 464.747 3203.94 468.182C3221.51 471.616 3237.78 476.465 3252.73 482.727C3267.68 488.99 3280.1 497.576 3290 508.485C3299.9 519.394 3304.85 534.343 3304.85 553.333C3304.85 582.828 3293.74 605.353 3271.51 620.909C3249.29 636.465 3219.19 644.242 3181.21 644.242C3140.81 644.242 3108.69 634.141 3084.85 613.939C3063.03 596.161 3051.31 572.929 3049.7 544.242H3096.97C3099.8 572.121 3115.55 590.909 3144.24 600.606C3154.75 603.838 3165.15 605.454 3175.45 605.454C3185.76 605.454 3195.35 604.848 3204.24 603.636C3213.13 602.424 3221.82 600.202 3230.3 596.97C3249.7 589.293 3259.39 576.162 3259.39 557.576C3259.39 545.05 3254.44 535.454 3244.54 528.788C3234.65 522.121 3222.22 516.667 3207.27 512.424C3192.32 508.182 3176.06 504.343 3158.48 500.909C3140.91 497.475 3124.65 492.727 3109.7 486.667C3094.75 480.606 3082.32 472.323 3072.42 461.818C3062.52 451.313 3057.57 436.768 3057.57 418.182C3057.57 390.707 3067.57 369.394 3087.57 354.242C3107.57 339.091 3137.17 331.515 3176.36 331.515C3213.53 331.515 3242.83 340.404 3264.24 358.182C3282.02 373.131 3292.32 392.929 3295.15 417.576H3249.09Z" fill="white"/>
</svg>
