<?xml version="1.0" encoding="UTF-8" standalone="no"?>
<svg
   width="100%"
   height="100%"
   viewBox="0 0 438 460"
   version="1.1"
   xml:space="preserve"
   style="fill-rule:evenodd;clip-rule:evenodd;stroke-linecap:round;stroke-linejoin:round;stroke-miterlimit:1.5;"
   id="svg87"
   sodipodi:docname="Gorlug Windows Computer_path_flattened.svg"
   inkscape:version="1.3.2 (091e20e, 2023-11-25)"
   xmlns:inkscape="http://www.inkscape.org/namespaces/inkscape"
   xmlns:sodipodi="http://sodipodi.sourceforge.net/DTD/sodipodi-0.dtd"
   xmlns="http://www.w3.org/2000/svg"
   xmlns:svg="http://www.w3.org/2000/svg"><defs
   id="defs87" /><sodipodi:namedview
   id="namedview87"
   pagecolor="#ffffff"
   bordercolor="#000000"
   borderopacity="0.25"
   inkscape:showpageshadow="2"
   inkscape:pageopacity="0.0"
   inkscape:pagecheckerboard="0"
   inkscape:deskcolor="#d1d1d1"
   inkscape:zoom="1.7351598"
   inkscape:cx="219"
   inkscape:cy="230.23816"
   inkscape:window-width="1392"
   inkscape:window-height="1212"
   inkscape:window-x="4480"
   inkscape:window-y="25"
   inkscape:window-maximized="0"
   inkscape:current-layer="g81" />
    <g
   transform="matrix(1,0,0,1,-206.962,-48.9165)"
   id="g87">
        <g
   transform="matrix(1.22451,0,0.00293207,1.44802,-190.72,-791.727)"
   id="g86">
            <g
   transform="matrix(1,0,1.30104e-18,1,-22.3443,26.404)"
   id="g85">
                <g
   transform="matrix(0.890964,0,-0.00112453,0.881581,75.3614,116.191)"
   id="g3">
                    <rect
   x="309.622"
   y="501.524"
   width="389.342"
   height="322.271"
   style="fill:rgb(197,190,161);"
   id="rect1" />
                    <g
   transform="matrix(0.83174,0,5.42101e-19,0.751522,81.8838,159.286)"
   id="g2">
                        <rect
   x="309.622"
   y="501.524"
   width="389.342"
   height="322.271"
   style="fill:rgb(14,140,237);"
   id="rect2" />
                    </g>
                    <rect
   x="309.622"
   y="501.524"
   width="389.342"
   height="322.271"
   style="fill:none;stroke:rgb(197,190,161);stroke-width:10.2px;"
   id="rect3" />
                </g>
                <g
   transform="matrix(0.743504,0,-0.000846421,0.663556,147.38,254.675)"
   id="g4">
                    <rect
   x="309.622"
   y="501.524"
   width="389.342"
   height="322.271"
   style="fill:none;stroke:rgb(220,208,161);stroke-width:12.93px;"
   id="rect4" />
                </g>
                <g
   transform="matrix(0.618065,0,0.000176694,0.556083,196.531,302.767)"
   id="g81">
                    <path
   d="M711.667,619.825L711.667,769.714C711.667,811.078 675.938,844.659 631.93,844.659L421.408,844.659C377.4,844.659 341.671,811.078 341.671,769.714L341.671,619.825C341.671,578.462 377.4,544.88 421.408,544.88L631.93,544.88C675.938,544.88 711.667,578.462 711.667,619.825Z"
   style="fill:white;"
   id="path4" />
                    <clipPath
   id="_clip1">
                        <path
   d="M711.667,619.825L711.667,769.714C711.667,811.078 675.938,844.659 631.93,844.659L421.408,844.659C377.4,844.659 341.671,811.078 341.671,769.714L341.671,619.825C341.671,578.462 377.4,544.88 421.408,544.88L631.93,544.88C675.938,544.88 711.667,578.462 711.667,619.825Z"
   id="path5" />
                    </clipPath>
                    <g
   clip-path="url(#_clip1)"
   id="g80">
                        <g
   transform="matrix(1.47816,0,-0.00325758,1.33494,-88.0257,403.653)"
   id="g75">
                            <g
   transform="matrix(1.07752,0,1.06097e-19,1.08534,-32.9035,-21.5995)"
   id="g10">
                                <g
   transform="matrix(1.342,0,0.00331216,1.63573,-281.635,-906.252)"
   id="g8">
                                    <g
   transform="matrix(-0.865292,0,-0.00175624,0.73345,900.566,99.6414)"
   id="g6">
                                        <path
   d="M465.261,799.436C466.864,802.614 466.824,802.601 468.731,805.624C473.782,813.629 478.977,829.012 481.944,816.299C483.173,811.032 486.14,809.67 488.409,805.179C490.383,801.27 489.165,799.197 492.551,794.15C489.014,794.9 488.98,794.941 485.611,794.121C484.879,793.943 481.269,795.29 478.7,797.826C477.501,799.009 473.92,799.642 470.871,798.368C468.434,797.35 468.306,800.645 465.261,799.436Z"
   style="stroke:black;stroke-width:0.71px;"
   id="path6" />
                                    </g>
                                    <g
   transform="matrix(0.865292,0,-0.00128002,0.73345,139.543,99.6414)"
   id="g7">
                                        <path
   d="M465.261,799.436C466.864,802.614 466.824,802.601 468.731,805.624C473.782,813.629 478.977,829.012 481.944,816.299C483.173,811.032 486.14,809.67 488.409,805.179C490.383,801.27 489.165,799.197 492.551,794.15C489.014,794.9 488.98,794.941 485.611,794.121C484.879,793.943 481.269,795.29 478.7,797.826C477.501,799.009 473.92,799.642 470.871,798.368C468.434,797.35 468.306,800.645 465.261,799.436Z"
   style="stroke:black;stroke-width:0.71px;"
   id="path7" />
                                    </g>
                                </g>
                                <g
   transform="matrix(1,0,0,1,4.51008,0.219478)"
   id="g9">
                                    <path
   d="M374.494,226.268C374.753,225.649 376.961,220.364 376.438,218.102C375.502,214.062 373.293,211.393 383.469,205.772C389.011,202.71 387.436,195.361 394.788,196.044C399.819,196.512 404.765,198.755 409.609,190.966C419.617,199.661 420.32,198.693 428.127,200.082C431.832,200.742 444.892,209.141 447.388,217.588C450.744,228.945 450.517,229.555 461.119,237.521C471.277,245.153 463.591,249.726 464.572,253.203C468.444,266.93 467.734,269.572 451.716,277.694C436.014,285.656 450.803,295.586 438.18,307.825C434.396,311.493 416.267,323.065 398.009,311.718C374.97,297.4 388.204,288.914 382.899,281.768C377.557,274.572 364.913,273.356 361.456,262.843C360.405,259.647 361.32,257.442 363.926,251.21C363.684,250.802 358.114,244.957 363.198,238.989C368.914,232.279 372.155,233.741 374.494,226.268Z"
   style="stroke:black;stroke-width:1.02px;stroke-miterlimit:1.36628;"
   id="path8" />
                                </g>
                            </g>
                            <g
   transform="matrix(1.342,0,0.00331216,1.63573,-281.635,-906.252)"
   id="g19">
                                <g
   transform="matrix(-0.865292,0,-0.00175624,0.73345,900.566,99.6414)"
   id="g14">
                                    <path
   d="M465.261,799.436C466.864,802.614 466.824,802.601 468.731,805.624C473.782,813.629 478.977,829.012 481.944,816.299C483.173,811.032 486.14,809.67 488.409,805.179C490.383,801.27 489.165,799.197 492.551,794.15C489.014,794.9 488.98,794.941 485.611,794.121C484.879,793.943 481.269,795.29 478.7,797.826C477.501,799.009 473.92,799.642 470.871,798.368C468.434,797.35 468.306,800.645 465.261,799.436Z"
   style="fill:rgb(29,213,53);"
   id="path10" />
                                    <clipPath
   id="_clip2">
                                        <path
   d="M465.261,799.436C466.864,802.614 466.824,802.601 468.731,805.624C473.782,813.629 478.977,829.012 481.944,816.299C483.173,811.032 486.14,809.67 488.409,805.179C490.383,801.27 489.165,799.197 492.551,794.15C489.014,794.9 488.98,794.941 485.611,794.121C484.879,793.943 481.269,795.29 478.7,797.826C477.501,799.009 473.92,799.642 470.871,798.368C468.434,797.35 468.306,800.645 465.261,799.436Z"
   id="path11" />
                                    </clipPath>
                                    <g
   clip-path="url(#_clip2)"
   id="g13">
                                        <g
   transform="matrix(0.943793,0,0,0.941576,52.0806,588.3)"
   id="g12">
                                            <path
   d="M445.109,229.707C447.744,227.24 448.031,227.694 450.866,227.839C454.966,228.049 458.265,223.958 459.058,223.2C459.299,223.605 464.064,229.471 459.011,231.944C455.71,233.56 452.79,232.422 453.478,240.204C448.266,236.408 447.915,236.407 445.183,229.953"
   style="fill:rgb(0,255,41);stroke:black;stroke-width:0.99px;"
   id="path12" />
                                        </g>
                                    </g>
                                    <path
   d="M465.261,799.436C466.864,802.614 466.824,802.601 468.731,805.624C473.782,813.629 478.977,829.012 481.944,816.299C483.173,811.032 486.14,809.67 488.409,805.179C490.383,801.27 489.165,799.197 492.551,794.15C489.014,794.9 488.98,794.941 485.611,794.121C484.879,793.943 481.269,795.29 478.7,797.826C477.501,799.009 473.92,799.642 470.871,798.368C468.434,797.35 468.306,800.645 465.261,799.436Z"
   style="fill:none;stroke:black;stroke-width:0.77px;"
   id="path13" />
                                </g>
                                <g
   transform="matrix(0.865292,0,-0.00128002,0.73345,139.543,99.6414)"
   id="g18">
                                    <path
   d="M465.261,799.436C466.864,802.614 466.824,802.601 468.731,805.624C473.782,813.629 478.977,829.012 481.944,816.299C483.173,811.032 486.14,809.67 488.409,805.179C490.383,801.27 489.165,799.197 492.551,794.15C489.014,794.9 488.98,794.941 485.611,794.121C484.879,793.943 481.269,795.29 478.7,797.826C477.501,799.009 473.92,799.642 470.871,798.368C468.434,797.35 468.306,800.645 465.261,799.436Z"
   style="fill:rgb(29,213,53);"
   id="path14" />
                                    <clipPath
   id="_clip3">
                                        <path
   d="M465.261,799.436C466.864,802.614 466.824,802.601 468.731,805.624C473.782,813.629 478.977,829.012 481.944,816.299C483.173,811.032 486.14,809.67 488.409,805.179C490.383,801.27 489.165,799.197 492.551,794.15C489.014,794.9 488.98,794.941 485.611,794.121C484.879,793.943 481.269,795.29 478.7,797.826C477.501,799.009 473.92,799.642 470.871,798.368C468.434,797.35 468.306,800.645 465.261,799.436Z"
   id="path15" />
                                    </clipPath>
                                    <g
   clip-path="url(#_clip3)"
   id="g17">
                                        <g
   transform="matrix(0.943793,0,0,0.941576,52.0806,588.3)"
   id="g16">
                                            <path
   d="M445.109,229.707C447.744,227.24 448.031,227.694 450.866,227.839C454.966,228.049 458.265,223.958 459.058,223.2C459.299,223.605 464.064,229.471 459.011,231.944C455.71,233.56 452.79,232.422 453.478,240.204C448.266,236.408 447.915,236.407 445.183,229.953"
   style="fill:rgb(0,255,41);stroke:black;stroke-width:0.99px;"
   id="path16" />
                                        </g>
                                    </g>
                                    <path
   d="M465.261,799.436C466.864,802.614 466.824,802.601 468.731,805.624C473.782,813.629 478.977,829.012 481.944,816.299C483.173,811.032 486.14,809.67 488.409,805.179C490.383,801.27 489.165,799.197 492.551,794.15C489.014,794.9 488.98,794.941 485.611,794.121C484.879,793.943 481.269,795.29 478.7,797.826C477.501,799.009 473.92,799.642 470.871,798.368C468.434,797.35 468.306,800.645 465.261,799.436Z"
   style="fill:none;stroke:black;stroke-width:0.77px;"
   id="path17" />
                                </g>
                            </g>
                            <g
   transform="matrix(1,0,0,1,4.51008,0.219478)"
   id="g74">
                                <path
   d="M374.494,226.268C374.753,225.649 376.961,220.364 376.438,218.102C375.502,214.062 373.293,211.393 383.469,205.772C389.011,202.71 387.436,195.361 394.788,196.044C399.819,196.512 404.765,198.755 409.609,190.966C419.617,199.661 420.32,198.693 428.127,200.082C431.832,200.742 444.892,209.141 447.388,217.588C450.744,228.945 450.517,229.555 461.119,237.521C471.277,245.153 463.591,249.726 464.572,253.203C468.444,266.93 467.734,269.572 451.716,277.694C436.014,285.656 450.803,295.586 438.18,307.825C434.396,311.493 416.267,323.065 398.009,311.718C374.97,297.4 388.204,288.914 382.899,281.768C377.557,274.572 364.913,273.356 361.456,262.843C360.405,259.647 361.32,257.442 363.926,251.21C363.684,250.802 358.114,244.957 363.198,238.989C368.914,232.279 372.155,233.741 374.494,226.268Z"
   style="fill:rgb(255,144,0);"
   id="path19" />
                                <clipPath
   id="_clip4">
                                    <path
   d="M374.494,226.268C374.753,225.649 376.961,220.364 376.438,218.102C375.502,214.062 373.293,211.393 383.469,205.772C389.011,202.71 387.436,195.361 394.788,196.044C399.819,196.512 404.765,198.755 409.609,190.966C419.617,199.661 420.32,198.693 428.127,200.082C431.832,200.742 444.892,209.141 447.388,217.588C450.744,228.945 450.517,229.555 461.119,237.521C471.277,245.153 463.591,249.726 464.572,253.203C468.444,266.93 467.734,269.572 451.716,277.694C436.014,285.656 450.803,295.586 438.18,307.825C434.396,311.493 416.267,323.065 398.009,311.718C374.97,297.4 388.204,288.914 382.899,281.768C377.557,274.572 364.913,273.356 361.456,262.843C360.405,259.647 361.32,257.442 363.926,251.21C363.684,250.802 358.114,244.957 363.198,238.989C368.914,232.279 372.155,233.741 374.494,226.268Z"
   id="path20" />
                                </clipPath>
                                <g
   clip-path="url(#_clip4)"
   id="g73">
                                    <g
   transform="matrix(0.924416,0,0,0.881635,31.0783,27.9716)"
   id="g21">
                                        <path
   d="M374.494,226.268C374.753,225.649 376.961,220.364 376.438,218.102C375.502,214.062 373.293,211.393 383.469,205.772C389.011,202.71 387.436,195.361 394.788,196.044C399.819,196.512 404.765,198.755 409.609,190.966C419.617,199.661 420.32,198.693 428.127,200.082C431.832,200.742 444.892,209.141 447.388,217.588C450.744,228.945 450.517,229.555 461.119,237.521C471.277,245.153 463.591,249.726 464.572,253.203C468.444,266.93 467.734,269.572 451.716,277.694C436.014,285.656 450.803,295.586 438.18,307.825C434.396,311.493 416.267,323.065 398.009,311.718C374.97,297.4 388.204,288.914 382.899,281.768C377.557,274.572 364.913,273.356 361.456,262.843C360.405,259.647 361.32,257.442 363.926,251.21C363.684,250.802 358.114,244.957 363.198,238.989C368.914,232.279 372.155,233.741 374.494,226.268Z"
   style="fill:rgb(255,107,0);"
   id="path21" />
                                    </g>
                                    <g
   transform="matrix(1.13809,0,-0.00029652,0.933644,-88.5161,-523.367)"
   id="g64">
                                        <path
   d="M440.735,857.471C467.966,855.807 464.147,846.941 470.352,836.026C473.358,830.737 479.801,826.001 478.145,822.295C474.489,814.117 472.289,814.135 468.137,805.595C462.165,793.312 458.64,785.114 432.399,787.18C415.576,788.505 416.756,800 404.043,818.402C399.401,825.122 402.723,827.122 407.132,832.126C417.787,844.219 409.65,856.647 440.735,857.471Z"
   style="fill:rgb(29,213,53);"
   id="path22" />
                                        <clipPath
   id="_clip5">
                                            <path
   d="M440.735,857.471C467.966,855.807 464.147,846.941 470.352,836.026C473.358,830.737 479.801,826.001 478.145,822.295C474.489,814.117 472.289,814.135 468.137,805.595C462.165,793.312 458.64,785.114 432.399,787.18C415.576,788.505 416.756,800 404.043,818.402C399.401,825.122 402.723,827.122 407.132,832.126C417.787,844.219 409.65,856.647 440.735,857.471Z"
   id="path23" />
                                        </clipPath>
                                        <g
   clip-path="url(#_clip5)"
   id="g63">
                                            <g
   transform="matrix(1,0,1.0842e-19,1,0.228938,-2.65876)"
   id="g42">
                                                <g
   transform="matrix(-0.866232,0.123515,0.124492,1.5423,815.324,363.435)"
   id="g32">
                                                    <ellipse
   cx="452.448"
   cy="256.728"
   rx="6.045"
   ry="4.782"
   style="fill:white;"
   id="ellipse23" />
                                                    <clipPath
   id="_clip6">
                                                        <ellipse
   cx="452.448"
   cy="256.728"
   rx="6.045"
   ry="4.782"
   id="ellipse24" />
                                                    </clipPath>
                                                    <g
   clip-path="url(#_clip6)"
   id="g31">
                                                        <g
   transform="matrix(1.32241,1.45594e-16,6.58078e-19,1.31139,-144.744,-80.2976)"
   id="g30">
                                                            <ellipse
   cx="451.54"
   cy="256.996"
   rx="3.052"
   ry="2.378"
   style="fill:rgb(255,107,0);"
   id="ellipse25" />
                                                            <clipPath
   id="_clip7">
                                                                <ellipse
   cx="451.54"
   cy="256.996"
   rx="3.052"
   ry="2.378"
   id="ellipse26" />
                                                            </clipPath>
                                                            <g
   clip-path="url(#_clip7)"
   id="g29">
                                                                <g
   transform="matrix(1.36151,-2.18031e-16,-7.54605e-17,1.20468,-115.876,-52.7122)"
   id="g27">
                                                                    <ellipse
   cx="416.753"
   cy="257.088"
   rx="0.96"
   ry="0.941"
   id="ellipse27" />
                                                                </g>
                                                                <g
   transform="matrix(1.14924,-0.0923606,0.122125,0.801294,-58.1682,89.6936)"
   id="g28">
                                                                    <ellipse
   cx="417.945"
   cy="255.925"
   rx="0.402"
   ry="0.437"
   style="fill:white;"
   id="ellipse28" />
                                                                </g>
                                                            </g>
                                                        </g>
                                                    </g>
                                                    <ellipse
   cx="452.448"
   cy="256.728"
   rx="6.045"
   ry="4.782"
   style="fill:none;stroke:black;stroke-width:0.89px;stroke-miterlimit:1.36628;"
   id="ellipse31" />
                                                </g>
                                                <g
   transform="matrix(-0.866232,0.123515,0.124492,1.5423,784.353,363.423)"
   id="g41">
                                                    <ellipse
   cx="452.448"
   cy="256.728"
   rx="6.045"
   ry="4.782"
   style="fill:white;"
   id="ellipse32" />
                                                    <clipPath
   id="_clip8">
                                                        <ellipse
   cx="452.448"
   cy="256.728"
   rx="6.045"
   ry="4.782"
   id="ellipse33" />
                                                    </clipPath>
                                                    <g
   clip-path="url(#_clip8)"
   id="g40">
                                                        <g
   transform="matrix(1.32241,1.45594e-16,6.58078e-19,1.31139,-144.744,-80.2976)"
   id="g39">
                                                            <ellipse
   cx="451.54"
   cy="256.996"
   rx="3.052"
   ry="2.378"
   style="fill:rgb(255,107,0);"
   id="ellipse34" />
                                                            <clipPath
   id="_clip9">
                                                                <ellipse
   cx="451.54"
   cy="256.996"
   rx="3.052"
   ry="2.378"
   id="ellipse35" />
                                                            </clipPath>
                                                            <g
   clip-path="url(#_clip9)"
   id="g38">
                                                                <g
   transform="matrix(1.36151,-2.18031e-16,-7.54605e-17,1.20468,-115.876,-52.7122)"
   id="g36">
                                                                    <ellipse
   cx="416.753"
   cy="257.088"
   rx="0.96"
   ry="0.941"
   id="ellipse36" />
                                                                </g>
                                                                <g
   transform="matrix(1.14924,-0.0923606,0.122125,0.801294,-58.1682,89.6936)"
   id="g37">
                                                                    <ellipse
   cx="417.945"
   cy="255.925"
   rx="0.402"
   ry="0.437"
   style="fill:white;"
   id="ellipse37" />
                                                                </g>
                                                            </g>
                                                        </g>
                                                    </g>
                                                    <ellipse
   cx="452.448"
   cy="256.728"
   rx="6.045"
   ry="4.782"
   style="fill:none;stroke:black;stroke-width:0.89px;stroke-miterlimit:1.36628;"
   id="ellipse40" />
                                                </g>
                                            </g>
                                            <g
   transform="matrix(0.878662,0,0.000279058,1.07107,60.2758,539.425)"
   id="g43">
                                                <path
   d="M442.42,246.43C448.558,247.715 449.105,244.047 454.48,246.23C456.298,247.205 456.513,248.448 455.793,249.859C450.225,249.032 447.635,249.269 444.353,251.59C440.089,250.791 439.801,248.448 442.42,246.43Z"
   style="fill:rgb(255,107,0);stroke:black;stroke-width:1.1px;stroke-miterlimit:1.36628;"
   id="path42" />
                                            </g>
                                            <g
   transform="matrix(0.878662,0,0.000279058,1.07107,49.2082,513.395)"
   id="g44">
                                                <path
   d="M444.773,293.489L450.801,289.053L448.78,283.604L450.367,277.629C447.079,272.611 442.333,272.26 439.179,277.629L440.943,283.564L438.744,289.085L444.773,293.489Z"
   style="fill:rgb(0,253,40);stroke:black;stroke-width:1.1px;stroke-miterlimit:1.36628;"
   id="path43" />
                                            </g>
                                            <g
   transform="matrix(0.603913,0,0.000222927,0.855634,171.506,574.183)"
   id="g45">
                                                <path
   d="M444.773,293.489L450.801,289.053L448.78,283.604L450.367,277.629C447.079,272.611 442.333,272.26 439.179,277.629L440.943,283.564L438.744,289.085L444.773,293.489Z"
   style="fill:rgb(29,213,53);"
   id="path44" />
                                            </g>
                                            <g
   transform="matrix(-0.878662,0,0.000279058,1.07107,820.18,539.425)"
   id="g46">
                                                <path
   d="M442.42,246.43C448.558,247.715 449.105,244.047 454.48,246.23C456.298,247.205 456.513,248.448 455.793,249.859C450.225,249.032 447.635,249.269 444.353,251.59C440.089,250.791 439.801,248.448 442.42,246.43Z"
   style="fill:rgb(255,107,0);stroke:black;stroke-width:1.1px;stroke-miterlimit:1.36628;"
   id="path45" />
                                            </g>
                                            <g
   transform="matrix(0.00944626,-1.44932,5.73852,0.0639401,-1144.59,1439.85)"
   id="g47">
                                                <path
   d="M435.179,272.178C433.747,273.002 432.585,274.195 432.585,275.474C432.585,276.753 433.747,277.946 435.179,278.77C429.452,278.77 424.802,277.293 424.802,275.474C424.802,273.655 429.452,272.178 435.179,272.178Z"
   style="stroke:rgb(0,254,40);stroke-width:0.23px;stroke-miterlimit:1.36628;"
   id="path46" />
                                            </g>
                                            <g
   transform="matrix(0.00944626,-1.44932,5.73852,0.0639401,-1144.59,1439.85)"
   id="g62">
                                                <path
   d="M435.179,272.178C433.747,273.002 432.585,274.195 432.585,275.474C432.585,276.753 433.747,277.946 435.179,278.77C429.452,278.77 424.802,277.293 424.802,275.474C424.802,273.655 429.452,272.178 435.179,272.178Z"
   id="path47" />
                                                <clipPath
   id="_clip10">
                                                    <path
   d="M435.179,272.178C433.747,273.002 432.585,274.195 432.585,275.474C432.585,276.753 433.747,277.946 435.179,278.77C429.452,278.77 424.802,277.293 424.802,275.474C424.802,273.655 429.452,272.178 435.179,272.178Z"
   id="path48" />
                                                </clipPath>
                                                <g
   clip-path="url(#_clip10)"
   id="g61">
                                                    <g
   transform="matrix(0.0146398,0.392134,-1.12085,0.00226745,734.737,102.878)"
   id="g49">
                                                        <path
   d="M442.641,277.242L443.619,281.926L441.662,281.926L442.641,277.242Z"
   style="fill:white;"
   id="path49" />
                                                    </g>
                                                    <g
   transform="matrix(0.0146398,0.392134,-1.12085,0.00226745,734.598,99.7393)"
   id="g50">
                                                        <path
   d="M442.641,277.242L443.619,281.926L441.662,281.926L442.641,277.242Z"
   style="fill:white;"
   id="path50" />
                                                    </g>
                                                    <g
   transform="matrix(-0.0108623,-0.312958,1.12085,-0.00210801,121.909,415.822)"
   id="g51">
                                                        <path
   d="M442.641,277.242L443.619,281.926L441.662,281.926L442.641,277.242Z"
   style="fill:white;"
   id="path51" />
                                                    </g>
                                                    <g
   transform="matrix(-0.0108623,-0.312958,1.12085,-0.00210801,122.054,413.405)"
   id="g52">
                                                        <path
   d="M442.641,277.242L443.619,281.926L441.662,281.926L442.641,277.242Z"
   style="fill:white;"
   id="path52" />
                                                    </g>
                                                    <g
   id="g55">
                                                        <g
   transform="matrix(0.246606,0.210935,-1.00443,0.0636307,594.002,166.703)"
   id="g53">
                                                            <rect
   x="442.575"
   y="271.954"
   width="7.951"
   height="2.969"
   style="fill:white;"
   id="rect52" />
                                                        </g>
                                                        <g
   transform="matrix(0.248839,0.212844,-1.13486,0.0718933,632.921,163.324)"
   id="g54">
                                                            <rect
   x="442.575"
   y="271.954"
   width="7.951"
   height="2.969"
   style="fill:white;"
   id="rect53" />
                                                        </g>
                                                    </g>
                                                    <g
   transform="matrix(0.999849,-0.00342358,-0.0882279,-0.999849,24.3517,552.471)"
   id="g58">
                                                        <g
   transform="matrix(0.246606,0.210935,-1.00443,0.0636307,594.002,166.703)"
   id="g56">
                                                            <rect
   x="442.575"
   y="271.954"
   width="7.951"
   height="2.969"
   style="fill:white;"
   id="rect55" />
                                                        </g>
                                                        <g
   transform="matrix(0.248839,0.212844,-1.13486,0.0718933,632.921,163.324)"
   id="g57">
                                                            <rect
   x="442.575"
   y="271.954"
   width="7.951"
   height="2.969"
   style="fill:white;"
   id="rect56" />
                                                        </g>
                                                    </g>
                                                    <g
   transform="matrix(0.00269486,0.304011,-1.07271,0.000515249,723.785,139.599)"
   id="g59">
                                                        <rect
   x="442.575"
   y="271.954"
   width="7.951"
   height="2.969"
   style="fill:white;"
   id="rect58" />
                                                    </g>
                                                    <g
   transform="matrix(0.00241265,0.272175,-1.5884,0.00076295,858.651,153.742)"
   id="g60">
                                                        <rect
   x="442.575"
   y="271.954"
   width="7.951"
   height="2.969"
   style="fill:white;"
   id="rect59" />
                                                    </g>
                                                </g>
                                                <path
   d="M435.179,272.178C433.747,273.002 432.585,274.195 432.585,275.474C432.585,276.753 433.747,277.946 435.179,278.77C429.452,278.77 424.802,277.293 424.802,275.474C424.802,273.655 429.452,272.178 435.179,272.178Z"
   style="fill:none;stroke:black;stroke-width:0.23px;stroke-miterlimit:1.36628;"
   id="path61" />
                                            </g>
                                        </g>
                                        <path
   d="M440.735,857.471C467.966,855.807 464.147,846.941 470.352,836.026C473.358,830.737 479.801,826.001 478.145,822.295C474.489,814.117 472.289,814.135 468.137,805.595C462.165,793.312 458.64,785.114 432.399,787.18C415.576,788.505 416.756,800 404.043,818.402C399.401,825.122 402.723,827.122 407.132,832.126C417.787,844.219 409.65,856.647 440.735,857.471Z"
   style="fill:none;stroke:black;stroke-width:1.06px;"
   id="path63" />
                                    </g>
                                    <g
   transform="matrix(1.11088,0,4.27895e-34,1.11088,-44.8963,-33.9166)"
   id="g68">
                                        <g
   transform="matrix(0.349144,0,0,0.36374,273.055,171.797)"
   id="g65">
                                            <ellipse
   cx="453.709"
   cy="261.383"
   rx="3.585"
   ry="3.511"
   style="fill:rgb(0,253,40);"
   id="ellipse64" />
                                        </g>
                                        <g
   transform="matrix(0.349144,0,0,0.36374,276.334,172.93)"
   id="g66">
                                            <ellipse
   cx="453.709"
   cy="261.383"
   rx="3.585"
   ry="3.511"
   style="fill:rgb(0,253,40);"
   id="ellipse65" />
                                        </g>
                                        <g
   transform="matrix(0.449032,0,0,0.433829,230.537,150.979)"
   id="g67">
                                            <ellipse
   cx="453.709"
   cy="261.383"
   rx="3.585"
   ry="3.511"
   style="fill:rgb(0,253,40);"
   id="ellipse66" />
                                        </g>
                                    </g>
                                    <g
   transform="matrix(1.34746,0,3.06234e-33,1.34746,-186.866,-139.522)"
   id="g72">
                                        <g
   transform="matrix(0.349144,0,0,0.36374,273.055,171.797)"
   id="g69">
                                            <ellipse
   cx="453.709"
   cy="261.383"
   rx="3.585"
   ry="3.511"
   style="fill:rgb(0,253,40);"
   id="ellipse68" />
                                        </g>
                                        <g
   transform="matrix(0.349144,0,0,0.36374,276.334,172.93)"
   id="g70">
                                            <ellipse
   cx="453.709"
   cy="261.383"
   rx="3.585"
   ry="3.511"
   style="fill:rgb(0,253,40);"
   id="ellipse69" />
                                        </g>
                                        <g
   transform="matrix(0.449032,0,0,0.433829,230.537,150.979)"
   id="g71">
                                            <ellipse
   cx="453.709"
   cy="261.383"
   rx="3.585"
   ry="3.511"
   style="fill:rgb(0,253,40);"
   id="ellipse70" />
                                        </g>
                                    </g>
                                </g>
                                <path
   d="M374.494,226.268C374.753,225.649 376.961,220.364 376.438,218.102C375.502,214.062 373.293,211.393 383.469,205.772C389.011,202.71 387.436,195.361 394.788,196.044C399.819,196.512 404.765,198.755 409.609,190.966C419.617,199.661 420.32,198.693 428.127,200.082C431.832,200.742 444.892,209.141 447.388,217.588C450.744,228.945 450.517,229.555 461.119,237.521C471.277,245.153 463.591,249.726 464.572,253.203C468.444,266.93 467.734,269.572 451.716,277.694C436.014,285.656 450.803,295.586 438.18,307.825C434.396,311.493 416.267,323.065 398.009,311.718C374.97,297.4 388.204,288.914 382.899,281.768C377.557,274.572 364.913,273.356 361.456,262.843C360.405,259.647 361.32,257.442 363.926,251.21C363.684,250.802 358.114,244.957 363.198,238.989C368.914,232.279 372.155,233.741 374.494,226.268Z"
   style="fill:none;stroke:black;stroke-width:1.1px;stroke-miterlimit:1.36628;"
   id="path73" />
                            </g>
                        </g>
                        <g
   transform="matrix(1.25779,0,-0.00267079,1.09448,-10.2002,414.03)"
   id="g79">
                            <g
   transform="matrix(0.640182,0,0,0.834661,105.55,13.3375)"
   id="g77">
                                <g
   transform="matrix(41.6667,0,0,41.6667,685.197,233.472)"
   id="g76">
                                </g>
                                <path
   d="m 329.40298,209.54603 h 14.16027 q 0.93588,0 1.22071,1.38347 v 3.58076 q 0,1.709 -1.70899,1.709 h -2.76695 q -1.54624,-0.24414 -1.54624,-1.54624 v -2.36004 h -7.48704 v 3.8249 h 1.46486 q 1.46485,0.28483 1.46485,1.46485 v 1.62762 h 9.27742 q 1.30209,0.24414 1.30209,1.22071 v 9.68432 q -0.20345,1.46486 -1.46485,1.46486 h -13.67199 q -1.46485,-0.2238 -1.46485,-1.46486 v -3.49937 q 0,-1.79038 2.03452,-1.79038 h 2.03452 q 1.50555,0 1.95314,1.13933 v 2.76695 h 4.55733 v -6.91737 h -9.27742 q -1.30209,0 -1.30209,-1.54624 v -9.11466 q 0.18311,-1.62761 1.22071,-1.62761 z m 18.7176,9.7657 h 13.91613 q 1.38347,0.2238 1.38347,1.38348 h -0.0814 l 0.0814,0.0814 v 8.95189 q 0,1.95314 -1.79038,1.95314 h -13.10232 q -1.70899,0 -1.70899,-1.38347 v -9.68433 q 0.16276,-1.30209 1.30209,-1.30209 z m 4.72009,2.60419 v 6.91737 h 4.55733 v -6.91737 z m 15.78789,-2.68557 h 12.04436 q 1.38348,0.18311 1.38348,1.38347 v 3.8249 q 0,1.79038 -2.03452,1.79038 h -1.95314 q -2.03452,0 -2.03452,-1.54623 v -2.84833 h -4.55733 v 6.91737 h 3.17385 q 1.32244,0 1.46486,1.54624 0,0.99691 -1.46486,1.30209 h -3.17385 v 8.21947 q -0.30518,1.46485 -1.3021,1.46485 h -3.25523 q -1.46486,-0.26449 -1.46486,-1.46485 v -17.57827 q 1.13934,-3.01109 3.17386,-3.01109 z m 16.92722,-9.68432 h 0.32552 q 1.3021,0.36621 1.3021,1.46485 v 5.04562 h 1.46485 q 1.09864,0 1.46486,1.30209 v 1.87176 h 3.33661 q 1.3021,0.18311 1.3021,1.30209 v 0.16277 q -0.32553,1.13933 -1.13934,1.13933 h -3.49937 v 7.16151 h 9.44018 q 1.13933,0.32553 1.13933,1.13933 v 0.16277 q 0,1.13933 -1.38348,1.30209 H 385.8813 q -1.79038,0 -1.79038,-2.03452 v -18.06655 q 0,-1.95314 1.46486,-1.95314 z m 18.71759,9.7657 h 3.0111 q 1.46485,0.28483 1.46485,1.46486 v 8.0567 h 4.55733 v -7.97532 q 0.24414,-1.54624 1.54624,-1.54624 h 2.76694 q 1.709,0.16276 1.709,1.46486 v 8.0567 h 4.55733 v -8.0567 q 0.30518,-1.46486 1.46486,-1.46486 h 3.01109 q 1.54623,0.24414 1.54623,1.54624 v 9.3588 q 0,1.28174 -1.54623,1.46485 h -23.92597 q -1.709,0 -1.709,-1.709 v -8.87051 q 0,-1.79038 1.54623,-1.79038 z m 30.68059,-0.0814 h 12.28851 q 1.30209,0.18311 1.30209,1.30209 v 9.68433 q 0,1.15967 -1.46485,1.38347 h -13.42785 q -1.70899,0 -1.70899,-1.79038 v -7.56842 q 1.28175,-3.01109 3.01109,-3.01109 z m 3.01109,2.60419 v 6.91737 h 4.55733 v -6.91737 z m 15.62512,-2.60419 h 12.28851 q 1.3021,0.18311 1.3021,1.30209 v 4.15043 q 0,1.54623 -2.03452,1.54623 h -1.95315 q -2.03452,0 -2.03452,-1.79038 v -2.60418 h -4.55732 v 8.21946 q -0.30518,1.46486 -1.46486,1.46486 h -3.01109 q -1.54624,0 -1.54624,-1.87176 v -7.40566 q 1.26141,-3.01109 3.01109,-3.01109 z m 18.63623,0 h 12.28851 q 1.30209,0.24414 1.30209,1.13933 v 4.47595 q 0,1.38347 -2.1159,1.38347 h -8.38223 v 2.52281 h 9.11466 q 1.38347,0.28483 1.38347,1.22071 v 0.24415 q 0,1.15967 -1.46486,1.38347 H 470.9243 q -1.709,0 -1.709,-1.95314 v -7.56842 q 1.44451,-2.84833 3.0111,-2.84833 z m 3.09247,2.60419 v 1.54623 h 4.47595 v -1.54623 z m 27.12017,-2.60419 h 12.28851 q 1.3021,0.18311 1.3021,1.30209 v 9.68433 q 0,1.15967 -1.46486,1.38347 h -13.42784 q -1.709,0 -1.709,-1.79038 v -7.56842 q 1.28175,-3.01109 3.01109,-3.01109 z m 3.01109,2.60419 v 6.91737 h 4.55733 v -6.91737 z m 13.99751,-2.68557 h 11.96299 q 1.93279,0 3.25523,2.76695 v 8.21946 q -0.28483,1.38348 -1.30209,1.38348 h -3.17386 q -1.54623,-0.24414 -1.54623,-1.54624 v -8.21946 h -4.55733 v 8.38222 q 0,1.20037 -1.54624,1.46486 h -2.68556 q -1.79038,0 -1.79038,-1.79038 v -9.27742 q 0.22379,-1.38347 1.38347,-1.38347 z m 29.13435,-9.60294 h 3.41799 q 0.97657,0 1.3021,1.54623 V 230.054 q -0.30518,1.54624 -1.38348,1.54624 l -8.62637,-0.0814 h -5.28975 q -1.01727,0 -1.3021,-1.38348 v -7.97532 q 1.11899,-3.01109 3.25524,-3.01109 h 7.32427 v -8.30085 q 0.36622,-1.30209 1.3021,-1.30209 z m -5.85942,12.20713 v 6.91737 h 4.55732 v -6.91737 z m 25.41117,-12.20713 h 14.16027 q 0.93588,0 1.22071,1.38347 v 3.58076 q 0,1.709 -1.70899,1.709 h -2.76695 q -1.54624,-0.24414 -1.54624,-1.54624 v -2.36004 h -7.48704 v 3.8249 h 1.46486 q 1.46485,0.28483 1.46485,1.46485 v 1.62762 h 9.27742 q 1.30209,0.24414 1.30209,1.22071 v 9.68432 q -0.20345,1.46486 -1.46485,1.46486 h -13.67199 q -1.46485,-0.2238 -1.46485,-1.46486 v -3.49937 q 0,-1.79038 2.03452,-1.79038 h 2.03452 q 1.50555,0 1.95314,1.13933 v 2.76695 h 4.55733 v -6.91737 h -9.27742 q -1.30209,0 -1.30209,-1.54624 v -9.11466 q 0.1831,-1.62761 1.22071,-1.62761 z m 20.42659,9.68432 h 12.28851 q 1.3021,0.24414 1.3021,1.13933 v 4.47595 q 0,1.38347 -2.1159,1.38347 h -8.38223 v 2.52281 h 9.11465 q 1.38348,0.28483 1.38348,1.22071 v 0.24415 q 0,1.15967 -1.46486,1.38347 h -13.42784 q -1.709,0 -1.709,-1.95314 v -7.56842 q 1.44451,-2.84833 3.01109,-2.84833 z m 3.09248,2.60419 v 1.54623 h 4.47594 v -1.54623 z m 15.54372,-2.60419 h 12.28851 q 1.3021,0.18311 1.3021,1.30209 v 4.15043 q 0,1.54623 -2.03452,1.54623 h -1.95314 q -2.03453,0 -2.03453,-1.79038 v -2.60418 h -4.55732 v 8.21946 q -0.30518,1.46486 -1.46486,1.46486 h -3.01109 q -1.54624,0 -1.54624,-1.87176 v -7.40566 q 1.26141,-3.01109 3.01109,-3.01109 z m 16.84586,0.0814 h 3.01109 q 1.91245,0 2.36004,3.74352 1.38348,5.24907 1.38348,5.77804 h 0.0814 q 1.91245,-8.87051 2.36004,-8.87051 0.75278,-0.65105 1.38348,-0.65105 h 3.01109 q 0.95623,0 1.22071,1.22071 -2.27866,9.72502 -2.60418,10.25399 -0.65105,0.89519 -1.87176,0.89519 h -7.08014 q -2.27866,-0.28483 -2.27866,-2.1159 l -2.19729,-9.03328 q 0.24415,-1.22071 1.22072,-1.22071 z m 18.22932,-9.7657 h 3.17385 q 1.32244,0 1.46486,1.79038 v 2.36004 q 0,1.87176 -2.03453,1.87176 h -1.79037 q -2.19729,0 -2.19729,-1.46485 v -3.17386 q 0.24414,-1.38347 1.38348,-1.38347 z m 0.16276,9.60294 h 2.68557 q 1.79038,0 1.79038,1.87176 v 8.70775 q 0,1.87176 -1.79038,1.87176 h -2.68557 q -1.54624,-0.26449 -1.54624,-1.46486 v -9.52156 q 0,-1.20036 1.54624,-1.46485 z m 9.52156,0.0814 h 12.28851 q 1.30209,0.18311 1.30209,1.30209 v 4.23181 q 0,1.46485 -2.03452,1.46485 h -1.95314 q -2.03452,0 -2.03452,-1.87176 v -2.5228 h -4.55733 v 6.91737 h 9.19603 q 1.38348,0.2238 1.38348,1.38347 v 0.0814 q 0,1.15967 -1.46486,1.38347 h -13.42784 q -1.709,0 -1.709,-1.95314 v -7.56842 q 1.42417,-2.84833 3.0111,-2.84833 z m 18.6362,0 h 12.28851 q 1.30209,0.24414 1.30209,1.13933 v 4.47595 q 0,1.38347 -2.1159,1.38347 h -8.38223 v 2.52281 h 9.11465 q 1.38348,0.28483 1.38348,1.22071 v 0.24415 q 0,1.15967 -1.46486,1.38347 h -13.42784 q -1.709,0 -1.709,-1.95314 v -7.56842 q 1.44451,-2.84833 3.0111,-2.84833 z m 3.09247,2.60419 v 1.54623 h 4.47595 v -1.54623 z"
   id="text76"
   style="font-size:41.667px;font-family:COMPUTERRobot, 'COMPUTER Robot'"
   aria-label="Software and Service" />
                            </g>
                            <g
   transform="matrix(1.01727,0,0,0.937735,-15.4383,14.7635)"
   id="g78">
                                <path
   d="m 347.48964,124.51491 h 25.01032 q 2.3131,0.4337 2.3131,2.16852 v 7.08385 q -0.54214,2.60223 -2.60223,2.60223 h -5.34903 q -2.7468,0 -2.7468,-3.1805 v -3.75878 h -13.30029 v 6.79472 h 2.60223 q 1.95167,0 2.60223,2.31309 v 20.095 h 8.09583 v -12.28831 h -2.02396 q -2.02396,-0.57827 -2.02396,-2.02396 v -0.28913 q 0.32528,-2.3131 2.3131,-2.3131 h 10.11978 q 2.3131,0.32528 2.3131,2.3131 v 17.20363 q 0,2.0601 -2.60223,2.45766 h -23.85378 q -3.03594,0 -3.03594,-3.1805 v -32.96159 q 0.253,-3.03593 2.16853,-3.03593 z m 33.25072,17.3482 h 24.72119 q 2.45766,0.39756 2.45766,2.45766 h -0.14457 l 0.14457,0.14457 v 15.90252 q 0,3.46964 -3.18051,3.46964 h -23.2755 q -3.03594,0 -3.03594,-2.45766 v -17.20363 q 0.28914,-2.3131 2.3131,-2.3131 z m 8.38496,4.62619 v 12.28831 h 8.09583 V 146.4893 Z m 27.75712,-4.77076 h 21.82983 q 2.31309,0.32528 2.31309,2.3131 v 7.37298 q 0,2.7468 -3.61421,2.7468 h -3.46964 q -3.61421,0 -3.61421,-3.1805 v -4.62619 h -8.09583 v 14.6014 q -0.54213,2.60223 -2.60223,2.60223 h -5.34903 q -2.74679,0 -2.74679,-3.32507 v -13.15572 q 2.2408,-5.34903 5.34902,-5.34903 z m 30.35935,-17.20363 h 0.57828 q 2.31309,0.65056 2.31309,2.60223 v 8.96324 h 2.60223 q 1.95167,0 2.60223,2.31309 v 20.67328 h 6.21644 q 2.02396,0.57827 2.02396,2.02395 v 0.28914 q 0,1.98781 -2.45766,2.31309 h -13.30029 q -3.18051,0 -3.18051,-3.61421 v -32.09417 q 0,-3.46964 2.60223,-3.46964 z m 22.55267,17.3482 h 5.34903 q 2.7468,0.43371 2.7468,2.7468 v 14.1677 h 8.09582 v -14.31227 q 0.50599,-2.60223 2.60224,-2.60223 h 5.34902 q 2.7468,0 2.7468,3.18051 v 15.75795 q 0,3.03593 -3.03593,3.03593 h -23.42008 q -3.03593,-0.25299 -3.03593,-2.31309 v -17.05907 q 0.54213,-2.60223 2.60223,-2.60223 z m 35.70838,-0.14457 h 21.82982 q 2.31309,0.39757 2.31309,2.02396 v 34.84097 q -0.36142,2.3131 -2.31309,2.3131 h -24.72119 q -2.31309,-0.32528 -2.31309,-2.3131 v -0.28913 q 0.28913,-2.3131 2.31309,-2.3131 h 16.33622 v -12.28831 h -15.75795 q -2.89136,-0.32528 -2.89136,-2.16852 V 146.923 q 2.13238,-5.20446 5.20446,-5.20446 z m 5.49359,4.62619 v 12.28831 h 7.95126 v -12.28831 z"
   id="text77"
   style="font-size:74.019px;font-family:COMPUTERRobot, 'COMPUTER Robot'"
   aria-label="Gorlug" />
                            </g>
                        </g>
                    </g>
                </g>
                <g
   transform="matrix(1.35141,0,0,1.4923,-226.253,-407.936)"
   id="g82">
                    <ellipse
   cx="642.381"
   cy="827.749"
   rx="3.036"
   ry="2.709"
   style="fill:rgb(230,209,123);stroke:black;stroke-width:0.63px;"
   id="ellipse81" />
                </g>
                <g
   transform="matrix(1.22314,0,2.94795e-18,0.823466,-116.655,158.86)"
   id="g83">
                    <path
   d="M438.058,842.434C438.058,842.434 458.779,865.229 458.565,865.107C458.351,864.985 587.418,865.249 587.418,865.249L605.54,842.434L438.058,842.434Z"
   style="fill:rgb(197,190,161);"
   id="path82" />
                </g>
                <g
   transform="matrix(0.977399,0,0,0.502887,14.4888,411.969)"
   id="g84">
                    <rect
   x="652.658"
   y="821.381"
   width="13.535"
   height="9.078"
   style="fill:rgb(29,213,53);stroke:black;stroke-width:1.22px;"
   id="rect83" />
                </g>
            </g>
        </g>
    </g>
</svg>
