<?xml version="1.0" encoding="UTF-8"?><svg id="uuid-01cd0f33-e0cd-4b55-aa8c-f3e01e1f11af" xmlns="http://www.w3.org/2000/svg" viewBox="0 0 237.8 113.6"><defs><style>.uuid-f016359d-db7e-4b61-aee7-bc63f1a535ee{fill:#fff;}</style></defs><g id="uuid-a23b983f-f739-4621-b1aa-646aad47b6bc"><path class="uuid-f016359d-db7e-4b61-aee7-bc63f1a535ee" d="M44.5,112.9v-29.2h5.5v29.2s-5.5,0-5.5,0Z"/><path class="uuid-f016359d-db7e-4b61-aee7-bc63f1a535ee" d="M75.3,83.6h5.5v29.3h-3.4l-15.4-19.7v19.7h-5.5v-29.2h4.5l14.3,18.1v-18.2h0Z"/><path class="uuid-f016359d-db7e-4b61-aee7-bc63f1a535ee" d="M104.6,90.7c-1-1.7-3.8-3.3-6.9-3.3s-6.1,1.7-6.1,3.9,3,3.3,6.5,3.7c6.1.7,11.8,2.3,11.8,9.3s-5.8,9.3-12.3,9.3-10.6-1.8-12.7-7.2l4.6-2.4c1.3,3.2,4.7,4.6,8.2,4.6s6.7-1.2,6.7-4.4-2.9-3.9-6.8-4.3c-6-.7-11.5-2.3-11.5-8.9s5.9-8.5,11.3-8.5,9.3,1.3,11.5,5.8l-4.4,2.3h.1Z"/><path class="uuid-f016359d-db7e-4b61-aee7-bc63f1a535ee" d="M128.5,104.2h-8.3v8.6h-5.5v-29.2h13.8c14.3,0,14.3,20.7,0,20.7h0ZM120.2,99.2h8.3c7.1,0,7-10.4,0-10.4h-8.3v10.4Z"/><path class="uuid-f016359d-db7e-4b61-aee7-bc63f1a535ee" d="M143.6,112.9v-29.2h5.5v29.2s-5.5,0-5.5,0Z"/><path class="uuid-f016359d-db7e-4b61-aee7-bc63f1a535ee" d="M180.9,112.9h-6.6l-8.5-9.8h-5.3v9.8h-5.5v-29.3h13.9c6.9,0,10.5,4.6,10.5,9.7s-1.8,8.1-7.4,9.2l8.9,10v.4h0ZM160.5,88.7v9.4h8.4c3.5,0,5-2.3,5-4.7s-1.5-4.7-5-4.7c0,0-8.4,0-8.4,0Z"/><path class="uuid-f016359d-db7e-4b61-aee7-bc63f1a535ee" d="M206.2,112.9h-21.9v-29.2h21.9v5.4h-16.4v6.7h15.8v5.1h-15.8v6.6h16.4v5.4h0Z"/><path class="uuid-f016359d-db7e-4b61-aee7-bc63f1a535ee" d="M237.8,98c.1,7.4-4.4,14.9-14.6,14.9h-11.5v-29.2h11.5c10,0,14.5,7.1,14.6,14.4h0ZM217.2,107.5h6c6.6,0,9.3-4.8,9.1-9.6-.1-4.6-2.8-9.1-9.1-9.1h-6v18.7h0Z"/><polygon class="uuid-f016359d-db7e-4b61-aee7-bc63f1a535ee" points="57.6 65 57.6 55.5 36.7 55.5 36.7 65 44.5 65 44.5 77.2 48.3 78.8 51.5 77 47.2 75.5 47.2 65 57.6 65"/><polygon class="uuid-f016359d-db7e-4b61-aee7-bc63f1a535ee" points="17.6 92.1 20.5 90.5 2.8 80.3 2.8 58.3 0 59.9 0 81.9 17.6 92.1"/><polygon class="uuid-f016359d-db7e-4b61-aee7-bc63f1a535ee" points="99 47 101.8 45.4 101.8 23.4 82.5 12.3 79.7 13.9 99 25 99 47"/><polygon class="uuid-f016359d-db7e-4b61-aee7-bc63f1a535ee" points="92 29 92 72.6 94.8 71.1 94.8 27.4 47.3 0 21.6 14.8 21.6 18 47.3 3.2 92 29"/><polygon class="uuid-f016359d-db7e-4b61-aee7-bc63f1a535ee" points="47.3 8 7 31.3 7 34.5 7 34.5 7 77.9 36.4 94.9 36.4 91.7 9.8 76.3 9.8 32.9 47.3 11.2 85 33 85 76.5 87.8 75 87.8 31.4 47.3 8"/></g></svg>