<?xml version="1.0" encoding="UTF-8"?>
<svg id="Ebene_1" xmlns="http://www.w3.org/2000/svg" version="1.1" viewBox="0 0 401.8 92.2">
  <!-- Generator: Adobe Illustrator 30.2.1, SVG Export Plug-In . SVG Version: 2.1.1 Build 1)  -->
  <defs>
    <style>
      .st0 {
        fill: #fd97a6;
      }

      .st1 {
        fill: #fff;
      }

      .st2 {
        fill: #ffd25c;
      }

      .st3 {
        fill: #f3a1ad;
      }

      .st4 {
        fill: #9ed0ad;
      }

      .st5 {
        fill: #8fdfa7;
      }

      .st6 {
        fill: #60caf5;
      }

      .st7 {
        fill: #ffb68a;
      }

      .st8 {
        fill: #e287c0;
      }
    </style>
  </defs>
  <rect class="st3" x="51.7" y="26" width="14.2" height="14.2" rx="5.2" ry="5.2" transform="translate(-6.2 51.3) rotate(-45)"/>
  <path class="st4" d="M66.7,3.3l3.8,3.8c-4.9-4.9-13.9,4.3-14.7,5.2-.1.1-.3.3-.4.4l-15.7,15.7c-2,1.8-5.1,1.7-6.9-.3-1.7-1.9-1.7-4.8,0-6.6L50.9,3.3c.6-.6,1.2-1,1.8-1.5,4.4-2.9,10.2-2.2,13.9,1.5Z"/>
  <path class="st5" d="M61.3,54.3c-3.2,2.6-11,8-15.2,3.8l-.8-.8c-1.9-1.9-5-1.9-6.9,0l-5,5c-1.9,1.9-5,1.9-6.9,0,0,0,0,0,0,0h0c-1.9-1.9-1.9-5,0-6.9l7.4-7.4c4.4-4.4,11.5-4.4,15.9,0,0,0,0,0,0,0l5.6,5.6c1.6,1.6,4,1.9,5.9.8Z"/>
  <path class="st2" d="M48.5,81.2l-7.5,7.4c-4.4,4.4-11.5,4.4-15.8,0,0,0,0,0,0,0l-17.7-17.7c-4.3-4.3,1.2-11.2,4.8-15.1-1.5,1.9-1.3,4.7.4,6.4l17,17c1.9,1.9,5,1.9,6.9,0,0,0,0,0,0,0l5-5c1.9-1.9,5-1.9,6.9,0h0c1.9,1.9,1.9,5,0,6.9Z"/>
  <path class="st0" d="M55.8,12.3c-.1.1-.3.3-.4.4l-15.7,15.7c-2,1.8-5.1,1.7-6.9-.3-1.7-1.9-1.7-4.8,0-6.6L50.9,3.3c.6-.6,1.2-1,1.8-1.5,4.4-2.9,10.2-2.2,13.9,1.5l3.8,3.8c-4.9-4.9-13.9,4.3-14.7,5.2Z"/>
  <path class="st7" d="M88.7,41l-3.8,3.8c3.8-3.7-2.2-11.3-5.1-14.5-.1-.2-.3-.4-.5-.6l-.9-.9h0c0,0-16-16.1-16-16.1-1.7-1.7-4.5-1.9-6.5-.4.9-.8,9.9-10.1,14.7-5.2l18.1,18.2c4.3,4.3,4.3,11.4,0,15.7Z"/>
  <path class="st8" d="M7.5,70.9l-4.2-4.2c-4.3-4.3-4.4-11.4,0-15.7,0,0,0,0,0,0l15.7-15.7c1.9-1.9,5-1.9,6.9,0,1.9,1.9,1.9,5,0,6.9l-10.9,10.9c-.2.2-.6.6-1.2,1.2l-1.2,1.1c-.2.2-.3.3-.4.5-3.6,3.9-9,10.8-4.7,15.1Z"/>
  <path class="st6" d="M84.9,44.7l-18.2,18.2c-4.3,4.3-11.4,4.4-15.7,0,0,0,0,0,0,0l-4.8-4.8c4.2,4.2,12-1.2,15.2-3.8h0c.3-.2.6-.4.9-.7l17-17c1.7-1.7,1.9-4.4.5-6.3,2.9,3.3,8.9,10.8,5.2,14.5Z"/>
  <path class="st1" d="M152.2,18.6c2.5,0,4.9.4,7.2,1.4,2,.9,3.8,2.2,5.3,3.9,1.5,1.6,2.6,3.5,3.3,5.6.8,2.2,1.1,4.5,1.1,6.8,0,2.3-.4,4.5-1.2,6.7-.7,2-1.8,3.9-3.3,5.5-1.5,1.6-3.3,2.9-5.3,3.7-2.3.9-4.7,1.4-7.2,1.4h-14.1v18c.2,1.4-.8,2.7-2.1,2.9-.2,0-.5,0-.7,0h-2.7c-1.4.2-2.7-.8-2.9-2.2,0-.2,0-.5,0-.7V21.4c-.2-1.4.8-2.7,2.1-2.9.2,0,.5,0,.7,0h19.7ZM150.6,46.7c2.8.1,5.5-1,7.3-3,1.8-2.1,2.7-4.8,2.6-7.6.1-2.8-.8-5.6-2.7-7.7-1.9-2-4.5-3.1-7.3-3h-12.4v21.3h12.4Z"/>
  <path class="st1" d="M193.7,75.3c-2.8,0-5.5-.5-8.1-1.6-2.4-1.1-4.5-2.6-6.2-4.5-1.7-1.9-3.1-4.2-4-6.7-1.9-5.2-1.9-11,0-16.2.9-2.4,2.3-4.7,4-6.6,1.7-1.9,3.9-3.4,6.2-4.5,2.6-1.1,5.3-1.7,8.1-1.6,2.7,0,5.3.5,7.8,1.6,2.7,1.2,4.9,3.2,6.5,5.6v-3.4c0-1.9,1-2.9,2.9-2.9h2.4c1.4-.2,2.7.8,2.9,2.2,0,.2,0,.5,0,.7v34.2c.2,1.4-.8,2.7-2.2,2.9-.2,0-.5,0-.7,0h-2.4c-2,0-2.9-1-2.9-2.9v-3.4c-1.6,2.5-3.8,4.4-6.5,5.6-2.5,1-5.1,1.6-7.8,1.6ZM194.8,68.1c1.8,0,3.7-.3,5.4-1,1.6-.7,3-1.6,4.2-2.9,1.2-1.3,2.1-2.7,2.8-4.3,1.3-3.5,1.3-7.4,0-10.9-.6-1.6-1.6-3.1-2.8-4.3-1.2-1.2-2.6-2.2-4.2-2.9-1.7-.7-3.5-1-5.4-1-1.9,0-3.7.3-5.4,1.1-1.5.7-2.9,1.7-4,3-1.1,1.3-1.9,2.7-2.5,4.3-.6,1.7-.9,3.5-.8,5.2,0,1.8.3,3.6.8,5.3.5,1.6,1.4,3.1,2.5,4.4,1.1,1.3,2.5,2.3,4,2.9,1.7.7,3.5,1.1,5.4,1h0Z"/>
  <path class="st1" d="M240.1,75.3c-3,0-5.9-.7-8.5-2-2.6-1.2-4.7-3.3-6-5.8-.5-.7-.5-1.6-.1-2.3.5-.7,1.2-1.1,2-1.3l1.7-.5c.7-.2,1.4-.2,2,.2.6.4,1.2.9,1.6,1.5.8,1,1.9,1.9,3.1,2.4,1.3.6,2.8.9,4.3.9,1.7,0,3.4-.5,4.8-1.5,1.2-.9,1.9-2.3,1.9-3.8,0-1.2-.5-2.3-1.4-3-1.1-.8-2.2-1.4-3.5-1.8l-5.4-1.8c-2.7-.7-5.2-2.1-7.3-4-1.8-1.8-2.8-4.4-2.7-6.9,0-1.6.3-3.2,1-4.7.6-1.4,1.6-2.7,2.8-3.8,1.3-1.1,2.7-1.9,4.3-2.5,1.7-.6,3.6-.9,5.4-.9,2.4,0,4.8.5,6.9,1.4,2.3,1.1,4.1,2.9,5.3,5.1.5.7.6,1.6.2,2.3-.5.7-1.2,1.2-2,1.3l-1.5.3c-.7.3-1.4.3-2.1,0-.6-.4-1.2-1-1.7-1.6-.6-.7-1.4-1.3-2.3-1.6-.8-.3-1.7-.4-2.6-.4-1.5,0-3,.4-4.2,1.4-1,.9-1.6,2.2-1.6,3.5,0,1.2.5,2.3,1.4,3,1,.7,2,1.3,3.2,1.6l5.8,1.9c1.7.5,3.3,1.2,4.7,2.2,1.1.8,2.2,1.7,3,2.8.7.9,1.3,2,1.6,3.1.3,1.1.4,2.2.4,3.3,0,1.8-.4,3.5-1.2,5.1-.8,1.5-1.8,2.8-3.1,3.8-1.4,1.1-3,1.9-4.7,2.4-1.8.5-3.7.8-5.6.8Z"/>
  <path class="st1" d="M278.3,75.3c-1.6,0-3.2-.2-4.7-.7-3.2-.9-5.8-3.3-6.9-6.4-.8-2.1-1.1-4.3-1.1-6.5v-20.9h-4.9c-1.1,0-1.6-.6-1.6-1.7v-3.1c-.1-.8.4-1.5,1.2-1.6.1,0,.3,0,.4,0h5l1.4-9.2c0-1.3,1.2-2.4,2.5-2.3,0,0,0,0,0,0h1.7c1.6,0,2.4.8,2.4,2.5v9h10.9c.8-.1,1.5.4,1.6,1.2,0,.1,0,.3,0,.4v3.1c0,1.1-.5,1.7-1.6,1.7h-10.9v21.3c0,2.2.5,3.7,1.4,4.6.9.9,2,1.4,3.3,1.3,1.2,0,2.3-.4,3.3-1.1,1-.8,1.5-2,1.4-3.2v-.6c0-.3,0-.6-.2-.9-.1-1.2.3-1.8,1.4-1.8h3.7c.9-.1,1.7.5,1.8,1.4,0,0,0,0,0,0,.2.7.3,1.3.3,2v1c0,2.8-1,5.6-3.1,7.5-2.1,1.9-5,2.9-8.9,2.9Z"/>
  <path class="st1" d="M317.1,75.3c-3.2,0-6.4-.5-9.5-1.6-2.7-1-5.1-2.5-7.2-4.5-2-1.9-3.5-4.1-4.5-6.6-3.3-7.9-1.5-16.9,4.6-22.9,2-1.9,4.3-3.4,6.8-4.5,2.7-1.1,5.6-1.7,8.6-1.6,2.5,0,4.9.4,7.3,1.1,2.3.7,4.4,1.9,6.3,3.5,1.9,1.6,3.4,3.6,4.6,5.9,1.3,2.6,2.1,5.4,2.2,8.3.1.8,0,1.6-.6,2.2-.6.5-1.4.8-2.2.8h-30.9c0,1.8.3,3.5,1,5.2.7,1.6,1.7,2.9,3,4.1,1.4,1.2,3,2.1,4.7,2.7,1.9.7,4,1,6,1,3.9,0,7.7-1.1,10.8-3.3,1.3-1,3-.8,4.1.4l.6.6c.6.6.9,1.4.9,2.2-.2.9-.7,1.8-1.5,2.3-2.2,1.8-4.7,3.1-7.3,3.9-2.5.7-5.1,1-7.7,1ZM328.1,49.2c-.4-1.6-1.2-3-2.1-4.3-1.6-2.1-3.9-3.5-6.4-4-1.1-.2-2.3-.4-3.5-.4-1.2,0-2.4.1-3.6.4-1.3.3-2.5.8-3.6,1.4-1.2.7-2.3,1.6-3.2,2.6-1.1,1.2-1.9,2.7-2.4,4.2h24.9Z"/>
  <path class="st1" d="M348.1,74.4c-2,0-3-1-3-2.9V19.6c0-1.9,1-2.9,3-2.9h2.4c1.4-.2,2.7.8,2.9,2.2,0,.2,0,.5,0,.7v51.9c.2,1.4-.8,2.7-2.2,2.9-.2,0-.5,0-.7,0h-2.4Z"/>
  <path class="st1" d="M374,92.2c-.9,0-1.7-.3-2.2-.9-.4-.8-.4-1.7,0-2.4l6.1-16-15.3-35.1c-.4-.8-.4-1.7,0-2.4.5-.7,1.4-1,2.2-.9h3.2c1.5-.1,2.8.8,3.3,2.2l11.1,27,10.2-27c.4-1.5,1.9-2.5,3.4-2.3h3.3c.8,0,1.7.2,2.2.9.4.8.4,1.7,0,2.5l-22.2,52.3c-.5,1.4-1.9,2.3-3.4,2.2h-1.9Z"/>
</svg>