<svg xmlns="http://www.w3.org/2000/svg" viewBox="0 0 101 32">  <g fill="none" fill-rule="evenodd">  <path d="M97.4336703 15.4338462v-.0397363c1.005011-.3741539 1.7346813-1.5173626 1.7346813-2.8374506 0-1.3605274-.5914725-3.4686593-4.0007032-3.4686593H83.5210549v12.2676044L78.2463297 9.088h-5.735033L67.988044 19.5055824 63.5083956 9.088h-5.7343297l-4.6843077 10.7882198c.0798242-.334066.1258902-.6952088.1258902-1.0922198 0-2.482989-1.576088-3.5474286-4.1979781-4.0007033-1.3788132-.2363077-4.9853187-.7683516-6.1679121-.9656264-.7092747-.1185055-1.0443956-.3945494-1.0443956-.8671648 0-.9262418.8671649-1.3795165 2.4439561-1.3795165 2.1475165 0 2.9162198.6698901 3.0540659 1.6358681h5.3207912c-.2953846-3.33081314-3.3698461-4.55279117-8.4733187-4.55279117-6.1686153 0-7.3118241 2.62118677-7.3118241 4.47367037 0 2.0891428 1.1231648 3.5470769 4.0200439 3.9806593l4.6906374.7092747c1.6355165.2567033 2.2266373.5127033 2.2266373 1.2617143 0 1.2015824-1.2807032 1.477978-2.4632967 1.477978-2.4436044 0-3.0350769-.6702417-3.1528791-1.7343296h-5.5574505c.2756923 3.9215824 3.7243077 4.7694066 8.4933626 4.7694066 1.5447912 0 5.8078242-.0284836 7.4552967-2.4766594l-.8872088 2.0430769h5.0257583l.8478241-2.2864175h6.1482198l.8474725 2.2864175h6.8937143l.8474726-2.2864175h6.1485714l.8478242 2.2864175h15.5024175c4.3157803 0 5.1038242-2.5227252 5.1038242-4.197978 0-1.9903296-.9652747-3.1926154-2.4436044-3.5270329zm-38.7927912 2.5223736l1.9509451-5.3211429h.0397362l1.9509451 5.3211429h-3.9416264zm14.7375824 0l1.9509451-5.3211429h.0393846l1.9509451 5.3211429h-3.9412748zm14.8325275-5.8338462h4.6705934c1.005011 0 1.4385934.5524396 1.4385934 1.1825934 0 .6501978-.4335824 1.2026374-1.4385934 1.2026374H88.210989v-2.3852308zm5.0447473 8.0014066H88.210989v-2.8571428h5.0447473c.9860219 0 1.6555604.472967 1.6555604 1.3988571 0 .9262418-.6695385 1.4582857-1.6555604 1.4582857zM16.0418462 31.3167473c8.4592527 0 15.3167472-6.8578462 15.3167472-15.3167473 0-8.4589011-6.8574945-15.31674725-15.3167472-15.31674725C7.58259341.68325275.72545055 7.5410989.72545055 16S7.5825934 31.3167473 16.0418462 31.3167473" fill="#CDCDCD"></path>  <path d="M16.0421978 1.29617582c-8.12096703 0-14.70417582 6.5832088-14.70417582 14.70417578 0 8.1206154 6.58320879 14.7034726 14.70417582 14.7034726 8.1206154 0 14.7038242-6.5828572 14.7038242-14.7034726 0-8.12096698-6.5832088-14.70417578-14.7038242-14.70417578" fill="#34322E"></path>  <path d="M24.1568352 5.21424176c-2.1675605-2.17283517-5.0493187-3.36914286-8.1146374-3.36914286-3.0656703 0-5.9470769 1.19630769-8.11463736 3.36914286-2.16791209 2.17248351-3.36140659 5.06127474-3.36140659 8.13397804 0-.0003517.00140659 5.4526593.00281318 5.5268571 0 .0021099-.00070329.0038682-.00070329.0056264h.00070329c.05767033 2.9869011 1.24483517 5.7867253 3.35859341 7.9054066 2.16756046 2.1724835 5.04896706 3.3691428 8.11463736 3.3691428 3.0653187 0 5.9470769-1.1966593 8.1146374-3.3691428 2.1190329-2.1243077 3.3069011-4.9322198 3.3585934-7.9279121l.0028132-5.509978c0-3.0727033-1.1941978-5.96149453-3.3614066-8.13397804zm-.2183737 21.33767034c-2.1095384 2.1148132-4.9135824 3.2787692-7.8966153 3.2787692-2.9826814 0-5.7877803-1.163956-7.89661543-3.2787692-2.05468132-2.0592528-3.20984615-4.7799561-3.26821978-7.6835165.04536264-.8080879.17758242-1.5985934.39173626-2.3616703 1.71885715 4.4205714 5.97872525 7.358945 10.74215385 7.358945 4.7968352 0 9.0676044-2.9464615 10.765011-7.3775824.2250549.7504176.3706374 1.5261539.4314725 2.3156044-.0425494 2.9278242-1.1987692 5.6738462-3.2689231 7.7482198zM5.44105495 16.0133626c.57248351-1.7258901 1.57116483-3.2900219 2.93345054-4.5584175 2.08210991-1.93828576 4.81828571-3.00589015 7.70496701-3.00589015 2.8181099 0 5.5236923 1.08342857 7.6188132 3.05160435 1.349978 1.2683956 2.3528791 2.8145934 2.945055 4.5049671-1.5518242 4.5151648-5.8099341 7.5456703-10.6095825 7.5456703-4.7697582 0-9.01978018-3.0276923-10.59270325-7.5379341zm21.76879125.9135825c-.532044-2.1243077-1.6759561-4.0734946-3.3234286-5.6214506-2.1520879-2.02127472-4.9329231-3.1345934-7.8294506-3.1345934-2.9647472 0-5.7754725 1.09679121-7.91490107 3.0881758-1.62778022 1.5156044-2.75024175 3.442989-3.26751648 5.5630769v-3.4640879c0-2.9897143 1.16184615-5.80079117 3.27103297-7.91525271C10.2547692 3.3287033 13.0595165 2.1643956 16.0421978 2.1643956c2.9826813 0 5.7870769 1.1643077 7.8966154 3.27841759 2.1095384 2.11446154 3.271033 4.92553841 3.271033 7.91525271v3.5688792z" fill="#CDCDCD"></path>  <path d="M13.4547692 4.24474725c.602022-.15261538 1.4547693-.22435165 1.4547693-.22435165l1.1312527 2.31982418 1.1316044-2.31982418s.7725714.06962638 1.4547692.22435165l1.0341978 3.0298022.2317363-2.68448352c.7630769.21415385 1.4547692.51094506 2.2930989.95929671.7528791.40298901.8798242.85942857.8218022 1.32993406-.0028132.00773627-.0654066.47718682-.626989.27569231-.0123077 0 .9754725.51727473.7574505 1.48536264-.0812307.34707692-.4272527.52395604-.9515604.22927472-.4652308-.26830769-.9867253-.54751648-1.6045714-.7890989-1.0823737-.42268132-1.8742857-.55806593-1.8742857-.55806593l-.2183737-.64351649c-.7106813-.14593406-1.5113846-.19446153-1.5113846-.19446153l-.2584615.56861538c-.3787253-.01617582-.9652747-.01441758-1.358066 0l-.2584615-.56861538c-.6941538.03586813-1.5113846.19446153-1.5113846.19446153l-.218022.64351649c-.359033.0734945-.7163077.16035165-1.1425055.28764835l.0636484-.19832967c-.6973187.55595604-1.2975825.80597802-1.2975825.81125275-.4550329.22189011-1.69846149.85134066-1.99841753.24228571-.09494506-.14136264-.08474726-.43147253-.08474726-.43147253.36712088-.24228571.8974066-.51410989 1.27578019-.72474725 0 0-.1895384.76589011.5854945.35375824.2753407-.13432967.5608792-.3294945.6913407-.62065934.178989-.5018022-.3699341-.40334066-.5752967-.34250549-.3509451.10303296-1.64676924.5432967-1.65098902-.33125275-.00316483-.62276923.83727472-1.26065934 1.73854942-1.63164835 1.3496264-.5556044 1.8148572-.04887912 1.7782857.37098901-.5464615.15226374-.6628571.19551648-1.125978.34953846.0098462-.15613187-.1061978-.38892308-.6772747-.15578022-.557011.27323077-.6994286.49054945-.6196044.7258022.1016264.31578022.9726593-.02074725 1.1906813-.06716484 1.2209231-.26197802 1.0612748.56263737 1.0595165.58479121 0 0 .8636484-2.50021978.869978-2.50021978zm.3393407 2.02057143c.2380659-.05063736.6653187-.11428571 1.0503736-.14945055-.0021099.00386813-.5816264-1.27226373-.5816264-1.27226373l-.4687472 1.42171428zm6.9025055 1.10276923c.3207033.12167033.8647033.38962638 1.127033.53872528 0 0 .2728791.20325274.4068571.02707692.1051429-.20641758.0284835-.40931868-.4261978-.65125275-.2936264-.1709011-.8478242-.41002198-1.0567033-.49336263l-.050989.57881318zm.1125275-1.27085714s.4676923.19446154.7827692.34250549c.1185055.05556044.1877802.11393407.3287912.12307693.1111209-.01336264.1519121-.07947253.1645714-.13468132.0358682-.31015385-.3157802-.4494066-.4360439-.51059341-.3446154-.17301099-.4501099-.21907692-.7929671-.36114286 0 .00808792-.0471208.54083517-.0471208.54083517zm-3.572044.01863736c.3716923.03446154.6037802.06083517 1.0503736.14945081.0045715.00070304-.4683956-1.42171454-.4683956-1.42171454l-.581978 1.27226373zM10.4305934 15.7605275c.3692308.1694945.6695385.2904615.9958681.2440439.7419781-.1058461.9614066-.3984176 1.6404396-.2000879.3090989.0907253.5520879.344967.5520879.344967s-.1761758-.0622417-.3671209-.0738461c-.7233406-.0429011-1.3028571.5130549-2.0117802.3316044-.638945-.1638681-.8094945-.6466813-.8094945-.6466813" fill="#CDCDCD"></path>  <path d="M14.4622418 15.8603956c-.2352528.2021978-.7542858 1.3130549-2.0676923.6885275-.0379781.1329231.0457142.5608791.2531868.8611868.178989.2851868.6491428.4061538.9863736.3692308-.4058022.376967-.1381978.9480439-.0998681 1.7972747.229978-.4666374.6407033-.6684835.6407033-.6684835.0003516 0-.4177583.7588571-.4198682 1.1607912-.0295384.6396483.6290989 1.1934945 1.2036923 2.0381538.1701978-.9874285.1301099-1.3450549.3112088-1.9231648.1533187.3410989.3164835 2.0265494.2605715 2.6932747.9895384-.792967 2.1271208-.8137143 1.6256703-2.9035604.299956.3759121.5854945 1.1312527.6688351 1.5725714v-.0007033c.4669891-.7588571 1.5669451-1.2444835.7243956-3.2506374.4596044.3762638.6241759 1.0243517.808088 1.268044.1346813-.9614066.6821978-2.4309451-.5158682-3.5386374l.007033-.0070329c.299956.0977582.679033.3692307.8914286.6814945-.0066814-.8625934.544-1.3573627-.6709451-2.8451868.2254066-.3713407.3854066-.8105495.4532747-1.2585495-.4589011.0538022-1.0014945.1466374-1.3978022.353055-.0144175-.0376264-.1030329-.1997363-.3207033-.2225935l-3.5073406.0007033c-.2422857-.0003516-.4652308.3263297-.6023736.9526154-.0105495-.0063296-.1227253-.0970549-.2756923-.1554285-.4261979-.1624616-1.4266374-.174066-1.7199121.7398681-.1673847.4283077-.0341099 1.1787253-.0341099 1.1787253s1.093978-.820044 1.6281318.1318681m.8126594-.9564835c-.1754725-.1051429-.3003077-.4332308-.0907253-.5992088.1498022-.1185055.5840879.103033.2595165.4494066.301011.1740659.478945-.1125275.4891428-.2159121l.103033-.0080879c-.0411428.2116923-.3407472.6501978-.760967.3738022M17.780044 12.5095385c.1185055 0 .2120439.0766593.2120439.0766593l1.377055-2.98232967c-1.4843077.00105495-.9529671.98672527-.929055 1.04404397.0242637.0576703-.0749011.0298901-.0749011.0298901-.0914286-.0872088-.2162637-.141011-.3527033-.141011-.2827253 0-.519033.2275165-.519033.5105934 0 .2827253.2363077.5137583.519033.5137583.045011 0 .088967-.0056264.1308132-.0165275 0 0-1.0011429.9526154-1.8057143-.2813187-.0601319-.0928352.0843956.1107692.3168352.1100659.2830769-.0014066.5123516-.2296263.5123516-.5123516s-.2292747-.5123517-.5123516-.5123517c-.1086594 0-.2095824.0337583-.2929231.0917803l.0007033-.0073847c.1188571-.0938901.1958681-.2398241.1958681-.4033406 0-.28272529-.2292747-.51235166-.5123516-.51235166l-.0073846-.00175824c-.2827253 0-.5127033.22927472-.5127033.5123516 0 .1635165.077011.3090989.1965714.4033407l.0003517.0073846c-.0829891-.058022-.1842638-.0921318-.2932748-.0921318-.2830769 0-.512.2292747-.512.5123516s.2289231.5112967.512.512c.2331429.0014066.3776704-.2025495.3168352-.1093626-.8042198 1.2335824-1.805011.2806153-1.805011.2806153.0414945.0112528.0854506.0172308.1308132.0172308.2823736 0 .5123516-.2292747.5123516-.5123516 0-.283077-.229978-.512-.5123516-.512-.1367912 0-.2612747.0534505-.353055.141011 0 0-.0995164.0274285-.0752527-.0302418.0246154-.0573187.555956-1.04298901-.9283517-1.04369231l1.3767033 2.98197801s.0931869-.0745494.212044-.0745494h3.476044" fill="#CDCDCD"></path>  <path d="M19.4254066 15.8688352c.0780659-.3231649.0414945-.7778462-.6565275-1.5272088-.2225934.242989-.4683956.4620659-.7177143.6656703.0872088.9128791.1244836 2.3145495-.6424615 3.0456264 0 0 .0101978-.5953407-.3252747-1.2413187-.0337583.8123077-.4001759 1.6460659-1.1375824 2.1506813 0 0 .1248351-.5643956.0418461-1.5613187-.1202637.3699341-.4128352.7461978-.8576703.8924835l-.1895385-1.0285714s.3674725-.2616264.3681758-.2721758c-.0007033.0105494.1199121.5847912.1199121.5847912.3903297-.3692308.0805275-.9610549.4515165-1.0932747.1962198-.0629451.301011.0854505.3632528.2085275.1726593.356923.1765274.6618022.1825055 1.047912.2313846-.542945.2401758-1.0774505.1571868-1.6886153-.0263737-.2088792.0727912-.3185935.196923-.3541099.1329231-.0284836.2377143.0453626.3256264.1508571.231033.289055.3843517.6691868.4754286 1.0081758.1515604-.5155165.1691428-1.2476483-.0119561-1.7575384-.0218022-.0995165-.0538022-.2074726-.0538022-.2074726.5327473-.4525714 1.0218902-.9818022 1.3028572-1.649934-.7458462.2190769-1.7248352.8109011-1.7248352.8109011l-.2021978-.2155605.7736264-.6030769c.0488791-.037978.0696264-.0938901-.0696264-.0974066l-2.8560879.0035165c-.2697143-.0007033-.538022.0854506-.5404835.5411868l.3562198.3013627s.4388571-.1635165.858022.1258901l-.0555605.2436923s-.1842637-.1258901-.2785055-.0559121c-.2349011.6062417-.6287472.6934505-.9508571.574945-.3555165-.1473406-.4089671-.5640439-.4648791-.7873406-.6129231-.3548132-1.5704616-.4142418-1.6425495.6674286.6544176-.2967913 1.3229011.0650549 1.5025934.4318241l1.701978.4919561c-.5802197.433934-1.3608791 1.8067692-2.3180659 1.3608791.6646154.7198242 1.4076484-.1807473 1.643956.1962198.2415825.4026373-.8731428.504967-.6920439 1.5268571.1642198-.1684395.4986373-.5232527.7272088-.3112088.1318681.1223737.0689231.2946813.026022.346022-.4831649 1.024-.6927473 1.4952088.0970549 2.3057582.167033-1.2494065.2366593-1.5880439.5679121-1.6.4814066-.0021098.6378901 2.0993407.6628571 2.6215385.9585934-.6224176 1.1048792-.7338901.7985934-2.266022-.0632967-.273934-.0214505-.4318241.1656264-.5053187.2014945-.0745494.3738022.0611869.4557363.1927033.2254066.3495385.4574945.7578022.5886593 1.1738022.244044-.4047472.8865055-.6874725.186022-2.3813626-.114989-.2092308-.0938901-.3882198.062945-.485978.3498902-.2352528.820044.3481318.986022.626989-.0334066-.5978022.2574066-1.3443517-.677978-2.2934506-.1512088-.1832087-.1512088-.3185934-.0256703-.4441318.2018461-.2088791.6836044-.0249671.9455824.1301099" fill="#34322E"></path>  <path d="M15.1127912 15.2893187c.5039121-.0991649.4163517.3541099.9927033.4652308-.4821099.1814505-.7015385-.3864616-.9927033-.4652308M18.1918242 13.7673846c-.1905934.3041758-.4792967.5661539-.8348132.6484396.1596483-.2623297.4673406-.6115165.8348132-.6484396M7.91876923 22.1816264c-.11006593-.0945934-.18637363-.1554286-.30101099-.2901099l-.00281319-.4778901c.29784616.3087472.61538462.5844395.94628572.8302417l.00386813.4645275c-.1163956-.0865055-.23068132-.1839121-.34391209-.2753407v2.8518682c-.09424176-.0756044-.21098901-.1701978-.30241758-.2486154v-2.8546813M8.7992967 22.4253187c.37696704.2827253.57002198.3987692.85098901.561934l.00246154.4546814c-.18672527-.1086594-.33793406-.1821539-.54892307-.338989l.00597802.8770109c.20043956.1318682.36184615.2306814.50145055.3129671l.00281318.3857582c-.17054945-.1002198-.31085714-.1796923-.50180219-.3133187l-.0007033 1.1266814c.18848352.1251868.32668132.210989.5869011.3632527l.00246154.4835165c-.448-.280967-.50215385-.3154286-.90162638-.594989 0 0 .0007033-3.3185055 0-3.3185055M11.0094066 26.8571429c-.9047912.4912527-1.42382418-1.5483077-.9793407-3.1068132.0836923-.2939781.3509451-.6741099.9360879.0024615l.0031649.4184615c-.4652308-.6667252-.6934506-.4680439-.7131429.5904176-.0334066 1.8809671.4008791 1.8528352.7539341 1.6165275l-.0007033.4789451M11.2942418 23.8241758c.1244835.0573187.1775824.0815824.3632527.1466374v1.4554725c.1694945.0594286.3439121.1125275.5221978.1512088l-.0010549-1.4283956c.1540219.0601319.2264615.0741978.3477802.1065495l.0010549 3.3265934c-.1206154-.0323517-.2264615-.0661099-.3456703-.1026814l.0049231-1.496967c-.1765275-.0530989-.3555165-.1100659-.5292308-.1709011v1.477978c-.1174505-.0411428-.2366593-.094945-.3632527-.1540219v-3.3114726M13.035956 24.3987692c.1343297.0379781.2007913.0516923.3119121.0766594.1962198.6290989.442022 1.5637802.6403517 2.1911209.0031648.0007032.0056264-.0003517.0084395 0l.0031649-2.0715605c.1125274.0232088.2380659.052044.3541099.0654066V27.968c-.103033-.0126593-.1698462-.0270769-.2725275-.0418462-.197978-.632967-.4828132-1.4990769-.6786813-2.1341538-.0028132-.0007033-.0056264.0003516-.0084396 0l.0084396 2.0033407c-.1139341-.0221539-.2535385-.0495825-.3667693-.0749011 0 0 .001055-3.3216704 0-3.3216704M16.7978901 24.7335385c.1308132-.0094945.2359561-.0221539.3773187-.0414945v2.8877362c.2732308-.0116044.5454066-.0573187.7978901-.0988132l-.0035165.434989c-.384.0629451-.7887472.1114726-1.1706373.1396044l-.001055-3.3220219M21.4062418 26.6686593c-.7022418.8847473-1.5085715.4698022-1.448088-1.1562197.0397363-1.0704176.5436484-2.0413187 1.4290989-1.8268132l.0031649.4430769c-1.2043956-.5432967-1.1238681 1.7782857-.9761758 2.2653187.1367912.4525714.420923.3748571.6343736.2310329l-.005978-.9874285c-.0826374.0369231-.1712528.0847472-.2549451.1192088l.0035165-.3973627c.2053626-.0854505.429011-.1786373.6143297-.286945l.0007033 1.5961318M21.8141538 23.2886154c.1142858-.0597802.2176704-.1199121.3298462-.1832088l.0116044 3.3353846c-.1118242.0629451-.2250549.1244835-.3393407.184967 0 0-.0021099-3.3364395-.0021099-3.3371428M22.605011 22.840967c.3164835-.1853186.5724835-.3931428.8516923-.600967l-.013011.4620659c-.1782857.1329231-.3428571.2503737-.5295824.3741539l.0031648.9251868c.1965715-.1135824.3115605-.1934066.4947693-.340044l-.0052748.3889231c-.1796923.1417143-.3105055.2366594-.4894945.3442638l-.0049231 1.1048791c.2254066-.1452308.3889231-.2661978.5756484-.4061539l-.0017582.4321758c-.2806154.2313847-.5918242.468044-.9019781.660044l.0207473-3.3445275M23.7387253 24.8179341c.2021978.1403077.5478681-.2387693.442022-.7025934-.1167473-.5109451-.5056704-.9522638-.4546814-1.5718682.001055-.0080879.0882638-.8738461.6716484-1.0774505l.0024615.3906813c-.3875165.0717363-.4026373.512-.4033406.530989-.0038682.1621099.0341099.2742857.0453626.3048791.0903736.2377143.2236484.4982857.3217582.7296704.4205715.9941098-.1297582 1.829978-.6227692 1.8247281l-.0024615-.4290358M16.325978 26.4179341c0 .9498022-.1663296 1.7241318-.7813626 1.7206273-.5545495-.0031768-.7820659-.7708251-.7820659-1.7206273 0-.9508572.2275164-1.7216704.7820659-1.7216704.5840879.0003517.7813626.7708132.7813626 1.7216704zm-.7820659-1.29653c-.2844835.0014091-.4318242.6041344-.4318242 1.3116508 0 .7071649.1473407 1.2821099.4318242 1.2803557.2827253-.001059.4328791-.5731908.4328791-1.2803557 0-.7075164-.1501538-1.3130549-.4328791-1.3116508zM19.6254945 26.0177582c0 .941011-.165978 1.7076044-.7817143 1.7041-.5534945-.0031769-.7813626-.763089-.7813626-1.7041 0-.9410109.2278681-1.7040879.7813626-1.7040879.5847912.0007033.7817143.763077.7817143 1.7040879zm-.7817143-1.2831673c-.2848351.0014091-.4321758.598508-.4321758 1.2989915 0 .6997802.1473407 1.2687473.4321758 1.2676938.2827253-.0021114.4325275-.5679136.4325275-1.2676938 0-.7004835-.1498022-1.3003956-.4325275-1.2989915z" fill="#CDCDCD"></path>  </g> </svg>