<svg width="120" height="64" viewBox="0 0 120 64" fill="none" xmlns="http://www.w3.org/2000/svg">
<path fill-rule="evenodd" clip-rule="evenodd" d="M95.4797 19.43C95.8847 20.76 96.8597 22.03 100.35 25.515L104 29.165V21.86C104 20.515 102.91 19.425 101.565 19.425H95.4797V19.43ZM79.6548 25.4549C79.6548 27.0549 80.2898 28.5849 81.4198 29.7149L89.3948 37.6899C92.8848 41.1799 93.8598 42.4449 94.2648 43.7749H97.9798C101.31 43.7749 104.005 41.0749 104.005 37.7499C104.005 36.1499 103.37 34.6199 102.24 33.4899L94.2648 25.5149C90.7748 22.0249 89.7998 20.7599 89.3948 19.4299H85.6798C82.3498 19.4299 79.6548 22.1299 79.6548 25.4549ZM83.3048 37.69C86.7948 41.175 87.7698 42.445 88.1748 43.775V43.78H82.0898C80.7448 43.78 79.6548 42.69 79.6548 41.345V34.04L83.3048 37.69Z" fill="white"/>
<path fill-rule="evenodd" clip-rule="evenodd" d="M54.0524 19.43C52.5087 19.4309 51.4595 20.3205 50.8598 21.205V16L46.5498 16.53V16.99H47.0398C47.4198 16.99 47.7298 17.53 47.7298 17.91V29.705C48.1648 29.36 48.7098 29.165 49.2998 29.165C49.9563 29.165 50.4138 29.3766 50.8889 29.5963C51.4015 29.8335 51.9345 30.08 52.7598 30.08C55.7148 30.08 57.9148 27.965 57.9148 24.12C57.9148 21.0811 56.361 19.4312 54.0524 19.43ZM54.0524 19.43L54.0498 19.43H54.0548L54.0524 19.43ZM52.3998 29.27C51.4598 29.27 50.8598 28.59 50.8598 27.745V21.745C51.2598 21.455 51.7598 21.27 52.2648 21.27C53.8998 21.27 54.7848 22.675 54.7848 25.115C54.7848 27.555 53.9198 29.27 52.3998 29.27ZM28.9249 27.775C28.9249 28.33 29.0199 28.735 29.4999 28.735C29.7899 28.735 30.0399 28.66 30.2099 28.58L30.3249 29.04C29.7499 29.695 28.9799 30.08 27.9799 30.08C26.9049 30.08 26.1749 29.465 25.9249 28.425C25.3299 29.23 24.3699 30.04 22.9849 30.04C21.3899 30.04 20.3149 29.1 20.3149 27.5C20.3149 25.9 21.4899 25.155 22.8899 24.635L25.8699 23.58V21.79C25.8699 20.79 25.5599 20.1 24.6799 20.1C23.8549 20.1 23.5049 20.755 23.5049 21.675C23.5049 22.77 22.6899 23.455 21.8299 23.175C21.2899 23 20.9249 22.56 20.9249 21.905C20.9249 20.23 22.6549 19.425 24.8849 19.425C27.4399 19.425 28.9249 20.29 28.9249 22.675V27.77V27.775ZM25.8699 27.905V24.33L24.5049 24.87C23.7549 25.18 23.2749 25.56 23.2749 26.66C23.2749 27.66 23.6999 28.37 24.6999 28.37C25.1399 28.37 25.4499 28.195 25.8749 27.91L25.8699 27.905ZM58.5957 42.0225L58.6001 42.02H58.5951L58.5957 42.0225ZM57.5051 42.3349C57.8885 42.3349 58.2422 42.2308 58.5957 42.0225L58.7051 42.485C58.2951 43.21 57.3751 43.965 56.0201 43.965C54.3651 43.965 53.1751 43.12 53.1751 40.91V34.93C53.1751 34.545 52.8651 34.24 52.4851 34.24H51.9951V33.78L53.1801 33.635V31.59L56.2751 31.2V33.255L58.7451 32.955V33.8349L56.2751 34.135V40.8349C56.2751 41.895 56.6801 42.3349 57.5051 42.3349ZM68.4848 42.6201C68.0048 42.6201 67.9098 42.2151 67.9098 41.6601V41.6551V36.5601C67.9098 34.1751 66.4248 33.3101 63.8698 33.3101C61.6398 33.3101 59.9098 34.1151 59.9098 35.7901C59.9098 36.4451 60.2748 36.8851 60.8148 37.0601C61.6748 37.3401 62.4898 36.6551 62.4898 35.5601C62.4898 34.6401 62.8398 33.9851 63.6648 33.9851C64.5448 33.9851 64.8548 34.6751 64.8548 35.6751V37.4651L61.8748 38.5201C60.4748 39.0401 59.2998 39.7851 59.2998 41.3851C59.2998 42.9851 60.3748 43.9251 61.9698 43.9251C63.3548 43.9251 64.3148 43.1151 64.9098 42.3101C65.1598 43.3501 65.8898 43.9651 66.9648 43.9651C67.9648 43.9651 68.7348 43.5801 69.3098 42.9251L69.1948 42.4651C69.0248 42.5451 68.7748 42.6201 68.4848 42.6201ZM64.8548 38.2201V41.7951L64.8598 41.8001C64.4348 42.0851 64.1248 42.2601 63.6848 42.2601C62.6848 42.2601 62.2598 41.5501 62.2598 40.5501C62.2598 39.4501 62.7398 39.0701 63.4898 38.7601L64.8548 38.2201ZM33.7651 42.6201C33.2851 42.6201 33.1901 42.2151 33.1901 41.6601V41.6551V36.5601C33.1901 34.1751 31.7051 33.3101 29.1501 33.3101C26.9201 33.3101 25.1901 34.1151 25.1901 35.7901C25.1901 36.4451 25.5551 36.8851 26.0951 37.0601C26.9551 37.3401 27.7701 36.6551 27.7701 35.5601C27.7701 34.6401 28.1201 33.9851 28.9451 33.9851C29.8251 33.9851 30.1351 34.6751 30.1351 35.6751V37.4651L27.1551 38.5201C25.7551 39.0401 24.5801 39.7851 24.5801 41.3851C24.5801 42.9851 25.6551 43.9251 27.2501 43.9251C28.6351 43.9251 29.5951 43.1151 30.1901 42.3101C30.4401 43.3501 31.1701 43.9651 32.2451 43.9651C33.2451 43.9651 34.0151 43.5801 34.5901 42.9251L34.4751 42.4651C34.3051 42.5451 34.0551 42.6201 33.7651 42.6201ZM30.1301 38.2201V41.7951L30.1351 41.8001C29.7101 42.0851 29.4001 42.2601 28.9601 42.2601C27.9601 42.2601 27.5351 41.5501 27.5351 40.5501C27.5351 39.4501 28.0151 39.0701 28.7651 38.7601L30.1301 38.2201ZM45.2848 27.775C45.2848 28.33 45.3798 28.735 45.8598 28.735C46.1498 28.735 46.3998 28.66 46.5698 28.58L46.6848 29.04C46.1098 29.695 45.3398 30.08 44.3398 30.08C43.2648 30.08 42.5348 29.465 42.2848 28.425C41.6898 29.23 40.7298 30.04 39.3448 30.04C37.7498 30.04 36.6748 29.1 36.6748 27.5C36.6748 25.9 37.8498 25.155 39.2498 24.635L42.2298 23.58V21.79C42.2298 20.79 41.9198 20.1 41.0398 20.1C40.2148 20.1 39.8648 20.755 39.8648 21.675C39.8648 22.77 39.0498 23.455 38.1898 23.175C37.6498 23 37.2848 22.56 37.2848 21.905C37.2848 20.23 39.0148 19.425 41.2448 19.425C43.7998 19.425 45.2848 20.29 45.2848 22.675V27.77V27.775ZM42.2298 27.905V24.33L40.8648 24.87C40.1148 25.18 39.6348 25.56 39.6348 26.66C39.6348 27.66 40.0598 28.37 41.0598 28.37C41.4998 28.37 41.8098 28.195 42.2348 27.91L42.2298 27.905ZM73.5352 23.9849V23.5449H73.5302C73.5302 21.1599 72.1852 19.4299 69.4752 19.4299C66.7652 19.4299 64.5352 21.6399 64.5352 25.0049C64.5352 28.0999 66.5351 30.0799 69.3401 30.0799C71.6702 30.0799 73.1102 28.7349 73.6102 26.7149L73.2852 26.5249C72.5752 27.5049 71.6902 28.0049 70.4002 28.0049C68.5952 28.0049 67.2652 26.5049 67.3251 23.9849H73.5352ZM70.8251 23.1949H67.3652C67.4801 21.4249 68.1402 20.1749 69.2701 20.1749C70.4001 20.1749 70.8251 21.3699 70.8251 23.1949ZM49.3054 33.2699C50.1724 33.2699 50.8754 32.567 50.8754 31.6999C50.8754 30.8328 50.1724 30.1299 49.3054 30.1299C48.4383 30.1299 47.7354 30.8328 47.7354 31.6999C47.7354 32.567 48.4383 33.2699 49.3054 33.2699ZM50.8598 42.5249C50.8598 42.8599 51.0998 43.1449 51.4298 43.2049L51.4348 43.1999L52.0448 43.3099V43.7699H46.5498V43.3099L47.1598 43.1999C47.4898 43.1449 47.7298 42.8549 47.7298 42.5199V35.5999C47.7298 35.2199 47.4198 34.9099 47.0398 34.9099H46.5498V34.4499L50.8598 33.9199V42.5249ZM49.2998 42.5849L49.3198 42.5699H49.2798L49.2998 42.5849ZM62.7953 28.635C62.7953 28.97 63.0354 29.255 63.3654 29.315H63.3703L63.9804 29.425V29.885H58.4854V29.425L59.0954 29.315C59.4254 29.26 59.6654 28.97 59.6654 28.635V17.68C59.6654 17.3 59.3554 16.99 58.9753 16.99H58.4854V16.53L62.7953 16V28.635ZM74.4249 43.205C74.0949 43.145 73.8549 42.86 73.8549 42.525V31.095L69.5449 31.625V32.085H70.0349C70.4149 32.085 70.7249 32.395 70.7249 32.775V42.52C70.7249 42.855 70.4849 43.145 70.1549 43.2L69.5449 43.31V43.77H75.0399V43.31L74.4299 43.2L74.4249 43.205ZM34.8749 28.635C34.8749 28.97 35.1149 29.255 35.4449 29.315H35.4499L36.0599 29.425V29.885H30.5649V29.425L31.1749 29.315C31.5049 29.26 31.7449 28.97 31.7449 28.635V17.68C31.7449 17.3 31.4349 16.99 31.0549 16.99H30.5649V16.53L34.8749 16V28.635ZM41.955 33.315C40.38 33.315 39.32 34.2349 38.725 35.1399V33.2L34.415 33.7299V34.19H34.905C35.285 34.19 35.595 34.5 35.595 34.8799V46.745C35.595 47.08 35.355 47.3699 35.025 47.4249L34.415 47.535V47.995H39.91V47.535L39.3 47.4249C38.97 47.365 38.73 47.08 38.73 46.745V43.5049C39.115 43.8099 39.785 43.965 40.535 43.965C43.495 43.965 45.82 41.8499 45.82 38.0049C45.82 34.965 44.265 33.315 41.955 33.315ZM40.3 43.16C39.195 43.16 38.735 42.405 38.725 41.065V35.66C39.13 35.3549 39.645 35.16 40.165 35.16C41.8 35.16 42.685 36.5649 42.685 39.0049C42.685 41.445 41.82 43.16 40.3 43.16ZM0 25.485L0.175 28.81L0.17 28.815C1.055 29.525 2.69 30.085 4.575 30.085C7.34 30.085 9.63 28.72 9.63 25.895C9.63 23.34 8.015 22.34 5.44 21.475C3.42 20.78 2.65 20.26 2.65 18.955C2.65 17.8 3.475 17.05 4.745 17.05C6.575 17.05 7.63 18.24 8.035 20.24H8.845V17.335C7.885 16.64 6.44 16.2 4.75 16.2C2 16.2 0.095 17.85 0.095 20.35C0.095 22.66 1.52 23.795 3.925 24.56C6.155 25.31 6.98 25.945 6.98 27.215C6.98 28.485 6.035 29.235 4.575 29.235C2.615 29.235 1.365 27.715 0.905 25.485H0ZM16.4199 27.9449C17.5749 27.9449 18.4199 27.5049 19.0349 26.5999L19.4199 26.8099C18.8049 29.0199 17.3249 30.0799 15.2649 30.0799C12.6299 30.0799 10.6699 28.1599 10.6699 25.0799C10.6699 21.8499 12.6699 19.4299 15.7849 19.4299C17.6899 19.4299 19.1299 20.1799 19.1299 21.7549C19.1299 22.4299 18.7599 22.8999 18.3399 23.0999C17.6049 23.4549 16.7849 22.9949 16.7849 22.0799C16.7849 21.0249 16.4599 20.2149 15.4599 20.2149C14.1349 20.2149 13.3449 21.8099 13.3449 23.8699C13.3449 26.3499 14.4799 27.9449 16.4199 27.9449ZM23.1051 34.6951L23.0701 31.5701L23.0651 31.5801C22.0001 30.8651 20.7451 30.4751 19.0601 30.4751C15.6401 30.4751 12.3301 33.2051 12.3301 37.5601C12.3301 41.4701 15.0851 43.9751 18.9851 43.9751C20.7801 43.9751 22.1851 43.5451 23.2901 42.7951L23.5901 39.1851H22.7301C22.1251 41.7801 20.9101 43.0751 19.3701 43.0751C17.0951 43.0751 15.7001 40.4751 15.7001 37.0351C15.7001 33.8551 16.8851 31.3301 19.2051 31.3301C20.7251 31.3301 21.9551 32.6301 22.3001 34.6951H23.1051Z" fill="white"/>
</svg>
