<?xml version="1.0" encoding="UTF-8"?>
<svg id="Layer_1" xmlns="http://www.w3.org/2000/svg" version="1.1" viewBox="0 300 1920 480" fill="white">
  <!-- Generator: Adobe Illustrator 30.1.0, SVG Export Plug-In . SVG Version: 2.1.1 Build 136)  -->
  <g>
    <path d="M32.48,616.93l6.93-19.74c18,9,50.2,20.77,90.02,20.77,48.47,0,64.05-18,64.05-38.43,0-67.86-156.84-34.97-156.84-117.37,0-33.58,27.35-59.55,86.9-59.55,33.93,0,64.05,9.35,85.17,18.35l-5.89,19.74c-22.16-8.31-50.2-15.92-78.94-15.92-45.36,0-63.7,18-63.7,37.39,0,58.86,156.84,27.35,156.84,117.37,0,41.89-35.31,60.59-87.94,60.59-40.86,0-73.75-11.77-96.6-23.2Z"/>
    <path d="M467.55,407.12v22.16h-145.06v76.17h131.91v22.16h-131.91v85.86h148.52v22.16h-173.45v-228.5h169.99Z"/>
    <path d="M651.48,402.62c68.56,0,117.72,48.82,117.72,118.75s-49.16,118.75-117.72,118.75-117.71-48.82-117.71-118.75,49.16-118.75,117.71-118.75ZM651.48,425.12c-54.7,0-93.13,40.16-93.13,96.25s38.43,96.25,93.13,96.25,93.13-40.16,93.13-96.25-38.43-96.25-93.13-96.25Z"/>
  </g>
  <path d="M960.38,407.12c50.9,0,84.83,27,84.83,74.43,0,31.85-15.23,54.36-40.86,65.78l46.4,88.29h-55.74l-40.86-79.63h-57.82v79.63h-50.55v-228.5h114.6ZM956.23,513.06c23.54,0,38.43-10.04,38.43-31.51s-14.89-31.85-38.43-31.85h-59.9v63.36h59.9Z"/>
  <path d="M1147.22,635.62h-50.2l92.06-228.5h58.16l92.4,228.5h-50.55l-70.94-175.88-70.93,175.88Z"/>
  <path d="M1436.67,407.12l111.48,147.49v-147.49h49.17v228.5h-44.32l-111.49-147.84v147.84h-49.16v-228.5h44.32Z"/>
  <path d="M1730.06,407.12v88.28h35.31c19.39,0,28.39-7.62,37.05-27.35l27.35-60.93h51.24l-33.93,77.9c-7.27,16.96-14.89,30.12-24.93,39.47l65.78,111.14h-56.43l-55.05-94.52c-2.42.35-5.19.35-7.96.35h-38.43v94.17h-50.55v-228.5h50.55Z"/>
  <path d="M1178.31,637c17.47,7.79,31.36,22.1,38.62,39.85.53,1.29,2.28,1.29,2.81,0,7.26-17.75,21.15-32.05,38.62-39.85,1.22-.55,1.22-2.21,0-2.75-17.47-7.79-31.36-22.09-38.62-39.85-.53-1.29-2.28-1.29-2.81,0-7.26,17.75-21.15,32.05-38.62,39.85-1.22.55-1.22,2.21,0,2.75Z"/>
</svg>