<?xml version="1.0" encoding="UTF-8"?>
<svg id="Layer_2" data-name="Layer 2" xmlns="http://www.w3.org/2000/svg" viewBox="0 0 1340.49 224.44">
  <defs>
    <style>
      .cls-1 {
        fill: #fff;
      }
    </style>
  </defs>
  <g id="Layer_1-2" data-name="Layer 1">
    <g>
      <g>
        <path class="cls-1" d="M329.31,181.66c-6.61-1.34-12.66-3.45-18.16-6.35-5.5-2.9-10.03-6.05-13.59-9.47.59-3.27,1.89-6.76,3.9-10.47,2.01-3.71,5.09-6.83,9.25-9.36,3.42,3.12,7.43,5.83,12.03,8.13,4.61,2.3,9.25,3.9,13.93,4.79,4.68.89,8.88,1.34,12.59,1.34,9.06,0,15.93-1.78,20.61-5.35,4.68-3.57,7.02-8.24,7.02-14.04s-2.45-10.36-7.35-13.7c-4.9-3.34-12.78-6.35-23.62-9.02-15.45-3.57-26.63-8.76-33.54-15.6-6.91-6.83-10.44-15.97-10.58-27.41,0-12.33,4.6-22.36,13.81-30.08,9.21-7.72,21.32-11.59,36.32-11.59,19.61,0,35.51,4.75,47.69,14.26-.3,3.86-1.6,7.8-3.9,11.81-2.3,4.01-5.09,6.91-8.36,8.69-10.7-7.72-22.8-11.59-36.32-11.59-7.43,0-13.37,1.6-17.83,4.79s-6.68,7.17-6.68,11.92c0,5.5,2.23,9.66,6.68,12.48,4.46,2.82,11.88,5.5,22.28,8.02,7.28,1.78,13.7,3.9,19.27,6.35,5.57,2.45,10.36,5.38,14.37,8.8,4.01,3.42,7.13,7.54,9.36,12.37,2.23,4.83,3.34,10.44,3.34,16.82,0,6.98-1.19,13.33-3.56,19.05-2.38,5.72-5.91,10.55-10.59,14.48-4.68,3.94-10.29,6.91-16.82,8.91-6.54,2.01-13.82,3.01-21.84,3.01-6.54,0-13.11-.67-19.72-2.01Z"/>
        <path class="cls-1" d="M482.39,161.83c-2.08-3.42-4.38-5.94-6.91-7.58-1.78,1.78-4.35,3.42-7.69,4.9-3.34,1.49-6.65,2.23-9.92,2.23-4.16,0-7.65-.78-10.47-2.34-2.82-1.56-4.75-3.94-5.79-7.13-1.04-3.19-1.56-6.57-1.56-10.14v-45.23h39.44c.74-2.97,1.11-6.46,1.11-10.47s-.37-7.2-1.11-10.03h-39.44v-28.08c-3.27-.74-7.35-1.11-12.25-1.11s-9.14.37-12.7,1.11v99.6c0,12.03,3.57,20.98,10.7,26.85,7.13,5.87,16.71,8.8,28.74,8.8,6.54,0,12.52-1.11,17.94-3.34,5.42-2.23,9.99-4.9,13.7-8.02-.45-3.27-1.71-6.61-3.79-10.03Z"/>
        <path class="cls-1" d="M557.03,74.15c5.94,1.71,11.07,4.31,15.37,7.8,4.31,3.49,7.65,8.06,10.03,13.7,2.38,5.65,3.56,12.18,3.56,19.61v57.71c-6.39,3.12-14,5.65-22.84,7.58-8.84,1.93-17.49,2.9-25.96,2.9-15.3,0-26.89-3.05-34.76-9.14-7.87-6.09-11.81-14.48-11.81-25.18,0-3.86.74-7.8,2.23-11.81,1.49-4.01,4.01-7.61,7.57-10.81,3.57-3.19,8.25-5.79,14.04-7.8,5.79-2.01,12.7-3.01,20.72-3.01,10.1,0,18.79,1.34,26.07,4.01v-6.02c0-6.39-2.19-11.36-6.57-14.93-4.38-3.57-10.66-5.35-18.83-5.35-4.31,0-9.17.74-14.6,2.23-5.42,1.49-10.36,3.86-14.82,7.13-3.12-1.49-5.68-3.68-7.69-6.57-2-2.9-3.3-6.13-3.9-9.69,3.71-3.57,9.51-6.94,17.38-10.14,7.87-3.19,16.34-4.79,25.4-4.79,6.98,0,13.44.85,19.39,2.56ZM522.27,159.71c4.01,2.9,9.73,4.35,17.16,4.35s14.7-1.12,21.84-3.34v-22.73c-6.68-2.82-14.7-4.23-24.06-4.23-6.39,0-11.48,1.19-15.26,3.57-3.79,2.38-5.68,5.94-5.68,10.7s2.01,8.8,6.02,11.7Z"/>
        <path class="cls-1" d="M633.8,179.65c-6.91-2.52-12.85-6.2-17.83-11.03-4.97-4.83-8.8-10.7-11.48-17.6-2.67-6.91-4.01-14.67-4.01-23.29,0-8.17,1.41-15.75,4.23-22.73,2.82-6.98,6.76-13,11.81-18.05,5.05-5.05,11.03-8.91,17.94-11.59,6.91-2.67,14.22-4.01,21.95-4.01,5.5,0,11.63.96,18.38,2.9,6.76,1.93,12.52,4.98,17.27,9.14-.89,3.42-2.6,6.8-5.12,10.14-2.53,3.34-5.35,5.98-8.47,7.91-6.54-5.5-13.81-8.24-21.84-8.24-3.71,0-7.39.59-11.03,1.78-3.64,1.19-7.06,3.38-10.25,6.57-3.19,3.19-5.53,7.2-7.02,12.03-1.49,4.83-2.23,9.47-2.23,13.93,0,6.69,1.41,12.89,4.23,18.61,2.82,5.72,6.69,9.73,11.59,12.03,4.9,2.3,9.88,3.45,14.93,3.45,4.16,0,8.1-.63,11.81-1.89,3.71-1.26,7.58-3.6,11.59-7.02,2.97,1.63,5.68,3.97,8.13,7.02,2.45,3.04,4.2,6.42,5.24,10.14-3.86,3.71-9.1,6.91-15.71,9.58-6.61,2.67-13.7,4.01-21.28,4.01-8.32,0-15.93-1.26-22.84-3.79Z"/>
        <path class="cls-1" d="M809.72,179.43c-5.65,1.34-11.74,2.01-18.27,2.01-4.61,0-8.84-.22-12.7-.67l-35.43-40.33-8.69,5.13v34.54c-3.27.74-7.43,1.11-12.48,1.11-4.76,0-8.99-.37-12.7-1.11V33.93c3.57-.74,7.73-1.11,12.48-1.11s9.14.37,12.7,1.11v85.12c17.68-11.29,31.42-25.92,41.22-43.9,2.97-.44,7.21-.67,12.7-.67,5.94,0,11.07.52,15.37,1.56-11.14,19.76-24.73,36.47-40.78,50.14l46.57,53.26Z"/>
        <path class="cls-1" d="M848.04,60.22v41.45h58.16c.74,3.12,1.11,6.91,1.11,11.36s-.37,8.25-1.11,11.36h-58.16v55.71c-4.16.89-8.39,1.34-12.7,1.34-4.01,0-8.17-.45-12.48-1.34V37.05h90.69c.74,3.12,1.11,6.98,1.11,11.59s-.37,8.47-1.11,11.59h-65.51Z"/>
        <path class="cls-1" d="M955.34,179.32c-6.91-2.75-12.81-6.61-17.72-11.59-4.9-4.98-8.73-10.92-11.47-17.83-2.75-6.91-4.12-14.37-4.12-22.39s1.41-15.3,4.23-22.28c2.82-6.98,6.76-13,11.81-18.05,5.05-5.05,11.07-8.95,18.05-11.7,6.98-2.75,14.41-4.12,22.28-4.12s15.67,1.56,23.4,4.68c7.73,3.12,14.11,7.8,19.16,14.04,5.05,6.24,8.47,12.55,10.25,18.94,1.78,6.39,2.67,12.55,2.67,18.49,0,7.87-1.41,15.26-4.23,22.17-2.82,6.91-6.76,12.89-11.81,17.94-5.05,5.05-11.07,8.95-18.05,11.7-6.98,2.75-14.41,4.12-22.28,4.12s-15.26-1.37-22.17-4.12ZM1000.24,152.02c5.5-6.24,8.24-14.41,8.24-24.51s-2.75-18.53-8.24-24.84c-5.5-6.31-12.92-9.47-22.28-9.47s-16.79,3.16-22.28,9.47c-5.5,6.31-8.24,14.59-8.24,24.84s2.75,18.27,8.24,24.51c5.5,6.24,12.92,9.36,22.28,9.36s16.79-3.12,22.28-9.36Z"/>
        <path class="cls-1" d="M1119.89,74.93c0,3.86-.59,7.8-1.78,11.81-1.19,4.01-2.82,7.35-4.9,10.03-1.93-.45-4.57-.89-7.91-1.34-3.34-.44-6.05-.67-8.13-.67-3.86,0-7.58.37-11.14,1.11-3.56.74-6.46,1.78-8.69,3.12v81.11c-3.27.74-7.5,1.11-12.7,1.11-4.9,0-9.13-.37-12.7-1.11v-93.36c4.46-4.01,10.7-7.54,18.72-10.58,8.02-3.05,16.64-4.57,25.85-4.57s17.31,1.11,23.4,3.34Z"/>
        <path class="cls-1" d="M1202.12,75.37c8.02,2.67,14.85,6.16,20.5,10.47v89.8c0,7.43-1.3,14.19-3.9,20.28-2.6,6.09-6.28,11.25-11.03,15.49-4.75,4.23-10.36,7.46-16.82,9.69-6.46,2.23-13.48,3.34-21.06,3.34-10.55,0-20.02-1.67-28.41-5.01-8.39-3.34-15.26-7.98-20.61-13.93.89-3.42,2.64-6.69,5.24-9.8,2.6-3.12,5.76-5.35,9.47-6.69,8.32,9.66,19.46,14.48,33.42,14.48,9.66,0,16.79-2.34,21.39-7.02,4.61-4.68,6.91-10.66,6.91-17.94v-4.9c-6.54,2.82-13.81,4.23-21.84,4.23-7.58,0-14.74-1.15-21.5-3.45-6.76-2.3-12.7-5.68-17.83-10.14-5.12-4.46-9.13-9.95-12.03-16.49-2.9-6.54-4.35-13.74-4.35-21.61s1.49-15.45,4.46-22.28c2.97-6.83,7.06-12.66,12.25-17.49,5.2-4.83,11.36-8.54,18.5-11.14,7.13-2.6,14.63-3.9,22.51-3.9,8.47,0,16.71,1.34,24.73,4.01ZM1197.22,152.02v-53.92c-5.79-3.12-12.33-4.68-19.61-4.68-9.36,0-17.08,2.97-23.17,8.91-6.09,5.94-9.14,13.74-9.14,23.4s3.01,17.08,9.03,22.73c6.02,5.65,13.78,8.47,23.28,8.47,7.28,0,13.81-1.63,19.61-4.9Z"/>
        <path class="cls-1" d="M1339.6,134.2h-74.65c.74,6.39,2.71,11.85,5.91,16.38,3.19,4.53,7.06,7.61,11.59,9.25s8.8,2.45,12.81,2.45c3.42,0,7.61-.52,12.59-1.56,4.98-1.04,11.18-4.16,18.61-9.36,2.53,1.63,4.87,4.12,7.02,7.46,2.15,3.34,3.45,6.57,3.9,9.69-12.48,9.95-27.11,14.93-43.9,14.93-7.72,0-14.93-1.26-21.61-3.79-6.68-2.52-12.48-6.2-17.38-11.03-4.9-4.83-8.69-10.73-11.36-17.71-2.67-6.98-4.01-14.63-4.01-22.95,0-7.87,1.34-15.3,4.01-22.28,2.67-6.98,6.43-13,11.25-18.05,4.83-5.05,10.51-8.99,17.05-11.81,6.54-2.82,13.44-4.23,20.72-4.23,6.83,0,13.26,1.15,19.27,3.45,6.02,2.3,11.18,5.57,15.49,9.8,4.31,4.23,7.65,9.32,10.03,15.26,2.38,5.94,3.57,12.33,3.57,19.16,0,4.75-.3,9.73-.89,14.93ZM1315.76,117.49c0-6.83-1.97-12.74-5.91-17.72-3.94-4.98-9.84-7.54-17.71-7.69-7.58,0-13.74,2.38-18.5,7.13s-7.58,10.84-8.47,18.27h50.58Z"/>
      </g>
      <path class="cls-1" d="M87.08,73.17c.7-.62,1.36-1.3,2.04-1.96,5.74-5.76,10.29-12.45,13.67-19.94,15.31,5.89,32.19,5.89,47.51,0,3.31,7.49,7.9,14.18,13.63,19.9,11.71,11.75,27.52,18.65,45.69,20.01v-35.4c-.08-.01-.16-.03-.25-.04-24.17-3.06-42.86-23.68-42.86-48.68,0-1.21.06-2.41.15-3.6-10.17,10.46-24.38,16.97-40.12,16.97-17.41,0-32.97-7.95-43.23-20.43-1.19,14.94-6.4,28.74-14.53,40.34-1.24,2.06-2.67,3.95-4.33,5.66-15.01,17.91-37.53,29.3-62.73,29.3-.57,0-1.14-.03-1.71-.04l165.89,68.72c-.7.62-1.36,1.3-2.04,1.96-5.74,5.76-10.29,12.45-13.67,19.94-15.31-5.89-32.19-5.89-47.51,0-3.31-7.49-7.9-14.18-13.63-19.9-11.71-11.75-27.52-18.65-45.69-20.01v35.4c.08.01.16.03.25.04,24.17,3.06,42.86,23.68,42.86,48.68,0,1.21-.06,2.41-.15,3.6,10.17-10.46,24.38-16.97,40.12-16.97,17.41,0,32.97,7.95,43.23,20.43,1.19-14.94,6.4-28.74,14.53-40.34,1.24-2.06,2.67-3.95,4.33-5.66,15.01-17.91,37.53-29.3,62.73-29.3.57,0,1.14.03,1.71.04L87.08,73.17Z"/>
    </g>
  </g>
</svg>