<svg width="172" height="106" xmlns="http://www.w3.org/2000/svg">
    <g fill="none" fill-rule="evenodd">
        <path d="M35.276 23.488c18.092-3.762 35.996-8.587 54.276-11.287 31.41-4.638 33.323-2.247 12.35 10.045-47.34 27.747-47.538 23.392-81.13 48.95-3.465 2.637-14.08 9.134-9.75 8.697 14.915-1.505 108.91-48.842 119.146-39.9 1.05.918-58.058 32.675-68.103 38.791-4.92 2.996-19.663 11.238-14.016 10.111 27.22-5.432 170.136-50.44 89.645-16.965" stroke="#FFC932" stroke-width="20"/>
        <g fill="#000" fill-rule="nonzero">
            <path d="M86.366 6.102c-2.675-.533-5.35 1.067-6.018 3.867l-20.06 90c-.535 2.666 1.203 5.333 3.878 5.866 2.675.534 5.216-1.066 5.884-3.733l20.06-90c.67-2.8-1.07-5.467-3.744-6zM48.653 32.369c-2.006-2-5.082-2-7.088 0l-20.06 20c-2.007 2-2.007 5.066 0 7.066l20.06 20c2.006 1.867 5.215 1.734 7.088-.266 1.738-1.867 1.738-4.934 0-6.8l-16.45-16.4 16.583-16.4c1.873-2 1.873-5.2-.133-7.2.133.133.133.133 0 0zM128.894 52.369l-20.06-20c-1.873-2-5.082-2.134-7.089-.267-2.006 1.867-2.14 5.067-.267 7.067l.267.266L118.33 55.97l-16.584 16.4c-1.872 2-1.738 5.2.268 7.066 1.872 1.734 4.948 1.734 6.82 0l20.06-20c2.007-1.866 2.007-5.066 0-7.066.134 0 .134 0 0 0z"/>
        </g>
    </g>
</svg>
