<?xml version="1.0" encoding="UTF-8" standalone="no"?>
<!-- Created with Inkscape (http://www.inkscape.org/) -->

<svg
   width="116.16964mm"
   height="109.03309mm"
   viewBox="0 0 116.16964 109.03309"
   version="1.1"
   id="svg1"
   xmlns="http://www.w3.org/2000/svg"
   xmlns:svg="http://www.w3.org/2000/svg">
  <defs
     id="defs1">
    <clipPath
       id="_clip2">
                                    <path
   d="m 465.261,799.436 c 1.603,3.178 1.563,3.165 3.47,6.188 5.051,8.005 10.246,23.388 13.213,10.675 1.229,-5.267 4.196,-6.629 6.465,-11.12 1.974,-3.909 0.756,-5.982 4.142,-11.029 -3.537,0.75 -3.571,0.791 -6.94,-0.029 -0.732,-0.178 -4.342,1.169 -6.911,3.705 -1.199,1.183 -4.78,1.816 -7.829,0.542 -2.437,-1.018 -2.565,2.277 -5.61,1.068 z"
   id="path8" />

                                </clipPath>
    <clipPath
       id="_clip3">
                                    <path
   d="m 465.261,799.436 c 1.603,3.178 1.563,3.165 3.47,6.188 5.051,8.005 10.246,23.388 13.213,10.675 1.229,-5.267 4.196,-6.629 6.465,-11.12 1.974,-3.909 0.756,-5.982 4.142,-11.029 -3.537,0.75 -3.571,0.791 -6.94,-0.029 -0.732,-0.178 -4.342,1.169 -6.911,3.705 -1.199,1.183 -4.78,1.816 -7.829,0.542 -2.437,-1.018 -2.565,2.277 -5.61,1.068 z"
   id="path12" />

                                </clipPath>
    <clipPath
       id="_clip4">
                                <path
   d="m 374.494,226.268 c 0.259,-0.619 2.467,-5.904 1.944,-8.166 -0.936,-4.04 -3.145,-6.709 7.031,-12.33 5.542,-3.062 3.967,-10.411 11.319,-9.728 5.031,0.468 9.977,2.711 14.821,-5.078 10.008,8.695 10.711,7.727 18.518,9.116 3.705,0.66 16.765,9.059 19.261,17.506 3.356,11.357 3.129,11.967 13.731,19.933 10.158,7.632 2.472,12.205 3.453,15.682 3.872,13.727 3.162,16.369 -12.856,24.491 -15.702,7.962 -0.913,17.892 -13.536,30.131 -3.784,3.668 -21.913,15.24 -40.171,3.893 -23.039,-14.318 -9.805,-22.804 -15.11,-29.95 -5.342,-7.196 -17.986,-8.412 -21.443,-18.925 -1.051,-3.196 -0.136,-5.401 2.47,-11.633 -0.242,-0.408 -5.812,-6.253 -0.728,-12.221 5.716,-6.71 8.957,-5.248 11.296,-12.721 z"
   id="path17" />

                            </clipPath>
    <clipPath
       id="_clip5">
                                        <path
   d="m 440.735,857.471 c 27.231,-1.664 23.412,-10.53 29.617,-21.445 3.006,-5.289 9.449,-10.025 7.793,-13.731 -3.656,-8.178 -5.856,-8.16 -10.008,-16.7 -5.972,-12.283 -9.497,-20.481 -35.738,-18.415 -16.823,1.325 -15.643,12.82 -28.356,31.222 -4.642,6.72 -1.32,8.72 3.089,13.724 10.655,12.093 2.518,24.521 33.603,25.345 z"
   id="path20" />

                                    </clipPath>
    <clipPath
       id="_clip6">
                                                    <ellipse
   cx="452.448"
   cy="256.728"
   rx="6.0450001"
   ry="4.7820001"
   id="ellipse21" />

                                                </clipPath>
    <clipPath
       id="_clip7">
                                                            <ellipse
   cx="451.54001"
   cy="256.996"
   rx="3.052"
   ry="2.378"
   id="ellipse23" />

                                                        </clipPath>
    <clipPath
       id="_clip8">
                                                    <ellipse
   cx="452.448"
   cy="256.728"
   rx="6.0450001"
   ry="4.7820001"
   id="ellipse30" />

                                                </clipPath>
    <clipPath
       id="_clip9">
                                                            <ellipse
   cx="451.54001"
   cy="256.996"
   rx="3.052"
   ry="2.378"
   id="ellipse32" />

                                                        </clipPath>
    <clipPath
       id="_clip10">
                                                <path
   d="m 435.179,272.178 c -1.432,0.824 -2.594,2.017 -2.594,3.296 0,1.279 1.162,2.472 2.594,3.296 -5.727,0 -10.377,-1.477 -10.377,-3.296 0,-1.819 4.65,-3.296 10.377,-3.296 z"
   id="path45" />

                                            </clipPath>
  </defs>
  <g
     id="layer1"
     transform="translate(-11.112499,-5.2916611)">
    <g
       transform="matrix(0.51030488,0,0,0.51499458,-143.25848,-51.787094)"
       id="g72"
       style="clip-rule:evenodd;fill-rule:evenodd;stroke-linecap:round;stroke-linejoin:round;stroke-miterlimit:1.5">
                        <g
   transform="matrix(1.07752,0,0,1.08534,-32.9035,-21.5995)"
   id="g7">
                            <g
   transform="matrix(1.342,0,0.00331216,1.63573,-281.635,-906.252)"
   id="g5">
                                <g
   transform="matrix(-0.865292,0,-0.00175624,0.73345,900.566,99.6414)"
   id="g3">
                                    <path
   d="m 465.261,799.436 c 1.603,3.178 1.563,3.165 3.47,6.188 5.051,8.005 10.246,23.388 13.213,10.675 1.229,-5.267 4.196,-6.629 6.465,-11.12 1.974,-3.909 0.756,-5.982 4.142,-11.029 -3.537,0.75 -3.571,0.791 -6.94,-0.029 -0.732,-0.178 -4.342,1.169 -6.911,3.705 -1.199,1.183 -4.78,1.816 -7.829,0.542 -2.437,-1.018 -2.565,2.277 -5.61,1.068 z"
   style="stroke:#000000;stroke-width:0.4px"
   id="path3" />

                                </g>

                                <g
   transform="matrix(0.865292,0,-0.00128002,0.73345,139.543,99.6414)"
   id="g4">
                                    <path
   d="m 465.261,799.436 c 1.603,3.178 1.563,3.165 3.47,6.188 5.051,8.005 10.246,23.388 13.213,10.675 1.229,-5.267 4.196,-6.629 6.465,-11.12 1.974,-3.909 0.756,-5.982 4.142,-11.029 -3.537,0.75 -3.571,0.791 -6.94,-0.029 -0.732,-0.178 -4.342,1.169 -6.911,3.705 -1.199,1.183 -4.78,1.816 -7.829,0.542 -2.437,-1.018 -2.565,2.277 -5.61,1.068 z"
   style="stroke:#000000;stroke-width:0.4px"
   id="path4" />

                                </g>

                            </g>

                            <g
   transform="translate(4.51008,0.219478)"
   id="g6">
                                <path
   d="m 374.494,226.268 c 0.259,-0.619 2.467,-5.904 1.944,-8.166 -0.936,-4.04 -3.145,-6.709 7.031,-12.33 5.542,-3.062 3.967,-10.411 11.319,-9.728 5.031,0.468 9.977,2.711 14.821,-5.078 10.008,8.695 10.711,7.727 18.518,9.116 3.705,0.66 16.765,9.059 19.261,17.506 3.356,11.357 3.129,11.967 13.731,19.933 10.158,7.632 2.472,12.205 3.453,15.682 3.872,13.727 3.162,16.369 -12.856,24.491 -15.702,7.962 -0.913,17.892 -13.536,30.131 -3.784,3.668 -21.913,15.24 -40.171,3.893 -23.039,-14.318 -9.805,-22.804 -15.11,-29.95 -5.342,-7.196 -17.986,-8.412 -21.443,-18.925 -1.051,-3.196 -0.136,-5.401 2.47,-11.633 -0.242,-0.408 -5.812,-6.253 -0.728,-12.221 5.716,-6.71 8.957,-5.248 11.296,-12.721 z"
   style="stroke:#000000;stroke-width:0.58px;stroke-miterlimit:1.36628"
   id="path5" />

                            </g>

                        </g>

                        <g
   transform="matrix(1.342,0,0.00331216,1.63573,-281.635,-906.252)"
   id="g16">
                            <g
   transform="matrix(-0.865292,0,-0.00175624,0.73345,900.566,99.6414)"
   id="g11">
                                <path
   d="m 465.261,799.436 c 1.603,3.178 1.563,3.165 3.47,6.188 5.051,8.005 10.246,23.388 13.213,10.675 1.229,-5.267 4.196,-6.629 6.465,-11.12 1.974,-3.909 0.756,-5.982 4.142,-11.029 -3.537,0.75 -3.571,0.791 -6.94,-0.029 -0.732,-0.178 -4.342,1.169 -6.911,3.705 -1.199,1.183 -4.78,1.816 -7.829,0.542 -2.437,-1.018 -2.565,2.277 -5.61,1.068 z"
   style="fill:#1dd535"
   id="path7" />

                                <clipPath
   id="clipPath1">
                                    <path
   d="m 465.261,799.436 c 1.603,3.178 1.563,3.165 3.47,6.188 5.051,8.005 10.246,23.388 13.213,10.675 1.229,-5.267 4.196,-6.629 6.465,-11.12 1.974,-3.909 0.756,-5.982 4.142,-11.029 -3.537,0.75 -3.571,0.791 -6.94,-0.029 -0.732,-0.178 -4.342,1.169 -6.911,3.705 -1.199,1.183 -4.78,1.816 -7.829,0.542 -2.437,-1.018 -2.565,2.277 -5.61,1.068 z"
   id="path1" />

                                </clipPath>

                                <g
   clip-path="url(#_clip2)"
   id="g10">
                                    <g
   transform="matrix(0.943793,0,0,0.941576,52.0806,588.3)"
   id="g9">
                                        <path
   d="m 445.109,229.707 c 2.635,-2.467 2.922,-2.013 5.757,-1.868 4.1,0.21 7.399,-3.881 8.192,-4.639 0.241,0.405 5.006,6.271 -0.047,8.744 -3.301,1.616 -6.221,0.478 -5.533,8.26 -5.212,-3.796 -5.563,-3.797 -8.295,-10.251"
   style="fill:#00ff29;stroke:#000000;stroke-width:0.56px"
   id="path9" />

                                    </g>

                                </g>

                                <path
   d="m 465.261,799.436 c 1.603,3.178 1.563,3.165 3.47,6.188 5.051,8.005 10.246,23.388 13.213,10.675 1.229,-5.267 4.196,-6.629 6.465,-11.12 1.974,-3.909 0.756,-5.982 4.142,-11.029 -3.537,0.75 -3.571,0.791 -6.94,-0.029 -0.732,-0.178 -4.342,1.169 -6.911,3.705 -1.199,1.183 -4.78,1.816 -7.829,0.542 -2.437,-1.018 -2.565,2.277 -5.61,1.068 z"
   style="fill:none;stroke:#000000;stroke-width:0.44px"
   id="path10" />

                            </g>

                            <g
   transform="matrix(0.865292,0,-0.00128002,0.73345,139.543,99.6414)"
   id="g15">
                                <path
   d="m 465.261,799.436 c 1.603,3.178 1.563,3.165 3.47,6.188 5.051,8.005 10.246,23.388 13.213,10.675 1.229,-5.267 4.196,-6.629 6.465,-11.12 1.974,-3.909 0.756,-5.982 4.142,-11.029 -3.537,0.75 -3.571,0.791 -6.94,-0.029 -0.732,-0.178 -4.342,1.169 -6.911,3.705 -1.199,1.183 -4.78,1.816 -7.829,0.542 -2.437,-1.018 -2.565,2.277 -5.61,1.068 z"
   style="fill:#1dd535"
   id="path11" />

                                <clipPath
   id="clipPath2">
                                    <path
   d="m 465.261,799.436 c 1.603,3.178 1.563,3.165 3.47,6.188 5.051,8.005 10.246,23.388 13.213,10.675 1.229,-5.267 4.196,-6.629 6.465,-11.12 1.974,-3.909 0.756,-5.982 4.142,-11.029 -3.537,0.75 -3.571,0.791 -6.94,-0.029 -0.732,-0.178 -4.342,1.169 -6.911,3.705 -1.199,1.183 -4.78,1.816 -7.829,0.542 -2.437,-1.018 -2.565,2.277 -5.61,1.068 z"
   id="path2" />

                                </clipPath>

                                <g
   clip-path="url(#_clip3)"
   id="g14">
                                    <g
   transform="matrix(0.943793,0,0,0.941576,52.0806,588.3)"
   id="g13">
                                        <path
   d="m 445.109,229.707 c 2.635,-2.467 2.922,-2.013 5.757,-1.868 4.1,0.21 7.399,-3.881 8.192,-4.639 0.241,0.405 5.006,6.271 -0.047,8.744 -3.301,1.616 -6.221,0.478 -5.533,8.26 -5.212,-3.796 -5.563,-3.797 -8.295,-10.251"
   style="fill:#00ff29;stroke:#000000;stroke-width:0.56px"
   id="path13" />

                                    </g>

                                </g>

                                <path
   d="m 465.261,799.436 c 1.603,3.178 1.563,3.165 3.47,6.188 5.051,8.005 10.246,23.388 13.213,10.675 1.229,-5.267 4.196,-6.629 6.465,-11.12 1.974,-3.909 0.756,-5.982 4.142,-11.029 -3.537,0.75 -3.571,0.791 -6.94,-0.029 -0.732,-0.178 -4.342,1.169 -6.911,3.705 -1.199,1.183 -4.78,1.816 -7.829,0.542 -2.437,-1.018 -2.565,2.277 -5.61,1.068 z"
   style="fill:none;stroke:#000000;stroke-width:0.44px"
   id="path14" />

                            </g>

                        </g>

                        <g
   transform="translate(4.51008,0.219478)"
   id="g71">
                            <path
   d="m 374.494,226.268 c 0.259,-0.619 2.467,-5.904 1.944,-8.166 -0.936,-4.04 -3.145,-6.709 7.031,-12.33 5.542,-3.062 3.967,-10.411 11.319,-9.728 5.031,0.468 9.977,2.711 14.821,-5.078 10.008,8.695 10.711,7.727 18.518,9.116 3.705,0.66 16.765,9.059 19.261,17.506 3.356,11.357 3.129,11.967 13.731,19.933 10.158,7.632 2.472,12.205 3.453,15.682 3.872,13.727 3.162,16.369 -12.856,24.491 -15.702,7.962 -0.913,17.892 -13.536,30.131 -3.784,3.668 -21.913,15.24 -40.171,3.893 -23.039,-14.318 -9.805,-22.804 -15.11,-29.95 -5.342,-7.196 -17.986,-8.412 -21.443,-18.925 -1.051,-3.196 -0.136,-5.401 2.47,-11.633 -0.242,-0.408 -5.812,-6.253 -0.728,-12.221 5.716,-6.71 8.957,-5.248 11.296,-12.721 z"
   style="fill:#ff9000"
   id="path16" />

                            <clipPath
   id="clipPath6">
                                <path
   d="m 374.494,226.268 c 0.259,-0.619 2.467,-5.904 1.944,-8.166 -0.936,-4.04 -3.145,-6.709 7.031,-12.33 5.542,-3.062 3.967,-10.411 11.319,-9.728 5.031,0.468 9.977,2.711 14.821,-5.078 10.008,8.695 10.711,7.727 18.518,9.116 3.705,0.66 16.765,9.059 19.261,17.506 3.356,11.357 3.129,11.967 13.731,19.933 10.158,7.632 2.472,12.205 3.453,15.682 3.872,13.727 3.162,16.369 -12.856,24.491 -15.702,7.962 -0.913,17.892 -13.536,30.131 -3.784,3.668 -21.913,15.24 -40.171,3.893 -23.039,-14.318 -9.805,-22.804 -15.11,-29.95 -5.342,-7.196 -17.986,-8.412 -21.443,-18.925 -1.051,-3.196 -0.136,-5.401 2.47,-11.633 -0.242,-0.408 -5.812,-6.253 -0.728,-12.221 5.716,-6.71 8.957,-5.248 11.296,-12.721 z"
   id="path6" />

                            </clipPath>

                            <g
   clip-path="url(#_clip4)"
   id="g70">
                                <g
   transform="matrix(0.924416,0,0,0.881635,31.0783,27.9716)"
   id="g18">
                                    <path
   d="m 374.494,226.268 c 0.259,-0.619 2.467,-5.904 1.944,-8.166 -0.936,-4.04 -3.145,-6.709 7.031,-12.33 5.542,-3.062 3.967,-10.411 11.319,-9.728 5.031,0.468 9.977,2.711 14.821,-5.078 10.008,8.695 10.711,7.727 18.518,9.116 3.705,0.66 16.765,9.059 19.261,17.506 3.356,11.357 3.129,11.967 13.731,19.933 10.158,7.632 2.472,12.205 3.453,15.682 3.872,13.727 3.162,16.369 -12.856,24.491 -15.702,7.962 -0.913,17.892 -13.536,30.131 -3.784,3.668 -21.913,15.24 -40.171,3.893 -23.039,-14.318 -9.805,-22.804 -15.11,-29.95 -5.342,-7.196 -17.986,-8.412 -21.443,-18.925 -1.051,-3.196 -0.136,-5.401 2.47,-11.633 -0.242,-0.408 -5.812,-6.253 -0.728,-12.221 5.716,-6.71 8.957,-5.248 11.296,-12.721 z"
   style="fill:#ff6b00"
   id="path18" />

                                </g>

                                <g
   transform="matrix(1.13809,0,-2.9652e-4,0.933644,-88.5161,-523.367)"
   id="g61">
                                    <path
   d="m 440.735,857.471 c 27.231,-1.664 23.412,-10.53 29.617,-21.445 3.006,-5.289 9.449,-10.025 7.793,-13.731 -3.656,-8.178 -5.856,-8.16 -10.008,-16.7 -5.972,-12.283 -9.497,-20.481 -35.738,-18.415 -16.823,1.325 -15.643,12.82 -28.356,31.222 -4.642,6.72 -1.32,8.72 3.089,13.724 10.655,12.093 2.518,24.521 33.603,25.345 z"
   style="fill:#1dd535"
   id="path19" />

                                    <clipPath
   id="clipPath15">
                                        <path
   d="m 440.735,857.471 c 27.231,-1.664 23.412,-10.53 29.617,-21.445 3.006,-5.289 9.449,-10.025 7.793,-13.731 -3.656,-8.178 -5.856,-8.16 -10.008,-16.7 -5.972,-12.283 -9.497,-20.481 -35.738,-18.415 -16.823,1.325 -15.643,12.82 -28.356,31.222 -4.642,6.72 -1.32,8.72 3.089,13.724 10.655,12.093 2.518,24.521 33.603,25.345 z"
   id="path15" />

                                    </clipPath>

                                    <g
   clip-path="url(#_clip5)"
   id="g60">
                                        <g
   transform="translate(0.228938,-2.65876)"
   id="g39">
                                            <g
   transform="matrix(-0.866232,0.123515,0.124492,1.5423,815.324,363.435)"
   id="g29">
                                                <ellipse
   cx="452.448"
   cy="256.728"
   rx="6.0450001"
   ry="4.7820001"
   style="fill:#ffffff"
   id="ellipse20" />

                                                <clipPath
   id="clipPath16">
                                                    <ellipse
   cx="452.448"
   cy="256.728"
   rx="6.0450001"
   ry="4.7820001"
   id="ellipse15" />

                                                </clipPath>

                                                <g
   clip-path="url(#_clip6)"
   id="g28">
                                                    <g
   transform="matrix(1.32241,0,0,1.31139,-144.744,-80.2976)"
   id="g27">
                                                        <ellipse
   cx="451.54001"
   cy="256.996"
   rx="3.052"
   ry="2.378"
   style="fill:#ff6b00"
   id="ellipse22" />

                                                        <clipPath
   id="clipPath17">
                                                            <ellipse
   cx="451.54001"
   cy="256.996"
   rx="3.052"
   ry="2.378"
   id="ellipse16" />

                                                        </clipPath>

                                                        <g
   clip-path="url(#_clip7)"
   id="g26">
                                                            <g
   transform="matrix(1.36151,0,0,1.20468,-115.876,-52.7122)"
   id="g24">
                                                                <ellipse
   cx="416.75299"
   cy="257.08801"
   rx="0.95999998"
   ry="0.94099998"
   id="ellipse24" />

                                                            </g>

                                                            <g
   transform="matrix(1.14924,-0.0923606,0.122125,0.801294,-58.1682,89.6936)"
   id="g25">
                                                                <ellipse
   cx="417.94501"
   cy="255.925"
   rx="0.40200001"
   ry="0.43700001"
   style="fill:#ffffff"
   id="ellipse25" />

                                                            </g>

                                                        </g>

                                                    </g>

                                                </g>

                                                <ellipse
   cx="452.448"
   cy="256.728"
   rx="6.0450001"
   ry="4.7820001"
   style="fill:none;stroke:#000000;stroke-width:0.5px;stroke-miterlimit:1.36628"
   id="ellipse28" />

                                            </g>

                                            <g
   transform="matrix(-0.866232,0.123515,0.124492,1.5423,784.353,363.423)"
   id="g38">
                                                <ellipse
   cx="452.448"
   cy="256.728"
   rx="6.0450001"
   ry="4.7820001"
   style="fill:#ffffff"
   id="ellipse29" />

                                                <clipPath
   id="clipPath18">
                                                    <ellipse
   cx="452.448"
   cy="256.728"
   rx="6.0450001"
   ry="4.7820001"
   id="ellipse17" />

                                                </clipPath>

                                                <g
   clip-path="url(#_clip8)"
   id="g37">
                                                    <g
   transform="matrix(1.32241,0,0,1.31139,-144.744,-80.2976)"
   id="g36">
                                                        <ellipse
   cx="451.54001"
   cy="256.996"
   rx="3.052"
   ry="2.378"
   style="fill:#ff6b00"
   id="ellipse31" />

                                                        <clipPath
   id="clipPath19">
                                                            <ellipse
   cx="451.54001"
   cy="256.996"
   rx="3.052"
   ry="2.378"
   id="ellipse18" />

                                                        </clipPath>

                                                        <g
   clip-path="url(#_clip9)"
   id="g35">
                                                            <g
   transform="matrix(1.36151,0,0,1.20468,-115.876,-52.7122)"
   id="g33">
                                                                <ellipse
   cx="416.75299"
   cy="257.08801"
   rx="0.95999998"
   ry="0.94099998"
   id="ellipse33" />

                                                            </g>

                                                            <g
   transform="matrix(1.14924,-0.0923606,0.122125,0.801294,-58.1682,89.6936)"
   id="g34">
                                                                <ellipse
   cx="417.94501"
   cy="255.925"
   rx="0.40200001"
   ry="0.43700001"
   style="fill:#ffffff"
   id="ellipse34" />

                                                            </g>

                                                        </g>

                                                    </g>

                                                </g>

                                                <ellipse
   cx="452.448"
   cy="256.728"
   rx="6.0450001"
   ry="4.7820001"
   style="fill:none;stroke:#000000;stroke-width:0.5px;stroke-miterlimit:1.36628"
   id="ellipse37" />

                                            </g>

                                        </g>

                                        <g
   transform="matrix(0.878662,0,2.79058e-4,1.07107,60.2758,539.425)"
   id="g40">
                                            <path
   d="m 442.42,246.43 c 6.138,1.285 6.685,-2.383 12.06,-0.2 1.818,0.975 2.033,2.218 1.313,3.629 -5.568,-0.827 -8.158,-0.59 -11.44,1.731 -4.264,-0.799 -4.552,-3.142 -1.933,-5.16 z"
   style="fill:#ff6b00;stroke:#000000;stroke-width:0.63px;stroke-miterlimit:1.36628"
   id="path39" />

                                        </g>

                                        <g
   transform="matrix(0.878662,0,2.79058e-4,1.07107,49.2082,513.395)"
   id="g41">
                                            <path
   d="m 444.773,293.489 6.028,-4.436 -2.021,-5.449 1.587,-5.975 c -3.288,-5.018 -8.034,-5.369 -11.188,0 l 1.764,5.935 -2.199,5.521 z"
   style="fill:#00fd28;stroke:#000000;stroke-width:0.63px;stroke-miterlimit:1.36628"
   id="path40" />

                                        </g>

                                        <g
   transform="matrix(0.603913,0,2.22927e-4,0.855634,171.506,574.183)"
   id="g42">
                                            <path
   d="m 444.773,293.489 6.028,-4.436 -2.021,-5.449 1.587,-5.975 c -3.288,-5.018 -8.034,-5.369 -11.188,0 l 1.764,5.935 -2.199,5.521 z"
   style="fill:#1dd535"
   id="path41" />

                                        </g>

                                        <g
   transform="matrix(-0.878662,0,2.79058e-4,1.07107,820.18,539.425)"
   id="g43">
                                            <path
   d="m 442.42,246.43 c 6.138,1.285 6.685,-2.383 12.06,-0.2 1.818,0.975 2.033,2.218 1.313,3.629 -5.568,-0.827 -8.158,-0.59 -11.44,1.731 -4.264,-0.799 -4.552,-3.142 -1.933,-5.16 z"
   style="fill:#ff6b00;stroke:#000000;stroke-width:0.63px;stroke-miterlimit:1.36628"
   id="path42" />

                                        </g>

                                        <g
   transform="matrix(0.00944626,-1.44932,5.73852,0.0639401,-1144.59,1439.85)"
   id="g44">
                                            <path
   d="m 435.179,272.178 c -1.432,0.824 -2.594,2.017 -2.594,3.296 0,1.279 1.162,2.472 2.594,3.296 -5.727,0 -10.377,-1.477 -10.377,-3.296 0,-1.819 4.65,-3.296 10.377,-3.296 z"
   style="stroke:#00fe28;stroke-width:0.13px;stroke-miterlimit:1.36628"
   id="path43" />

                                        </g>

                                        <g
   transform="matrix(0.00944626,-1.44932,5.73852,0.0639401,-1144.59,1439.85)"
   id="g59">
                                            <path
   d="m 435.179,272.178 c -1.432,0.824 -2.594,2.017 -2.594,3.296 0,1.279 1.162,2.472 2.594,3.296 -5.727,0 -10.377,-1.477 -10.377,-3.296 0,-1.819 4.65,-3.296 10.377,-3.296 z"
   id="path44" />

                                            <clipPath
   id="clipPath21">
                                                <path
   d="m 435.179,272.178 c -1.432,0.824 -2.594,2.017 -2.594,3.296 0,1.279 1.162,2.472 2.594,3.296 -5.727,0 -10.377,-1.477 -10.377,-3.296 0,-1.819 4.65,-3.296 10.377,-3.296 z"
   id="path21" />

                                            </clipPath>

                                            <g
   clip-path="url(#_clip10)"
   id="g58">
                                                <g
   transform="matrix(0.0146398,0.392134,-1.12085,0.00226745,734.737,102.878)"
   id="g46">
                                                    <path
   d="m 442.641,277.242 0.978,4.684 h -1.957 z"
   style="fill:#ffffff"
   id="path46" />

                                                </g>

                                                <g
   transform="matrix(0.0146398,0.392134,-1.12085,0.00226745,734.598,99.7393)"
   id="g47">
                                                    <path
   d="m 442.641,277.242 0.978,4.684 h -1.957 z"
   style="fill:#ffffff"
   id="path47" />

                                                </g>

                                                <g
   transform="matrix(-0.0108623,-0.312958,1.12085,-0.00210801,121.909,415.822)"
   id="g48">
                                                    <path
   d="m 442.641,277.242 0.978,4.684 h -1.957 z"
   style="fill:#ffffff"
   id="path48" />

                                                </g>

                                                <g
   transform="matrix(-0.0108623,-0.312958,1.12085,-0.00210801,122.054,413.405)"
   id="g49">
                                                    <path
   d="m 442.641,277.242 0.978,4.684 h -1.957 z"
   style="fill:#ffffff"
   id="path49" />

                                                </g>

                                                <g
   id="g52">
                                                    <g
   transform="matrix(0.246606,0.210935,-1.00443,0.0636307,594.002,166.703)"
   id="g50">
                                                        <rect
   x="442.57501"
   y="271.95401"
   width="7.9510002"
   height="2.9690001"
   style="fill:#ffffff"
   id="rect49" />

                                                    </g>

                                                    <g
   transform="matrix(0.248839,0.212844,-1.13486,0.0718933,632.921,163.324)"
   id="g51">
                                                        <rect
   x="442.57501"
   y="271.95401"
   width="7.9510002"
   height="2.9690001"
   style="fill:#ffffff"
   id="rect50" />

                                                    </g>

                                                </g>

                                                <g
   transform="matrix(0.999849,-0.00342358,-0.0882279,-0.999849,24.3517,552.471)"
   id="g55">
                                                    <g
   transform="matrix(0.246606,0.210935,-1.00443,0.0636307,594.002,166.703)"
   id="g53">
                                                        <rect
   x="442.57501"
   y="271.95401"
   width="7.9510002"
   height="2.9690001"
   style="fill:#ffffff"
   id="rect52" />

                                                    </g>

                                                    <g
   transform="matrix(0.248839,0.212844,-1.13486,0.0718933,632.921,163.324)"
   id="g54">
                                                        <rect
   x="442.57501"
   y="271.95401"
   width="7.9510002"
   height="2.9690001"
   style="fill:#ffffff"
   id="rect53" />

                                                    </g>

                                                </g>

                                                <g
   transform="matrix(0.00269486,0.304011,-1.07271,5.15249e-4,723.785,139.599)"
   id="g56">
                                                    <rect
   x="442.57501"
   y="271.95401"
   width="7.9510002"
   height="2.9690001"
   style="fill:#ffffff"
   id="rect55" />

                                                </g>

                                                <g
   transform="matrix(0.00241265,0.272175,-1.5884,7.6295e-4,858.651,153.742)"
   id="g57">
                                                    <rect
   x="442.57501"
   y="271.95401"
   width="7.9510002"
   height="2.9690001"
   style="fill:#ffffff"
   id="rect56" />

                                                </g>

                                            </g>

                                            <path
   d="m 435.179,272.178 c -1.432,0.824 -2.594,2.017 -2.594,3.296 0,1.279 1.162,2.472 2.594,3.296 -5.727,0 -10.377,-1.477 -10.377,-3.296 0,-1.819 4.65,-3.296 10.377,-3.296 z"
   style="fill:none;stroke:#000000;stroke-width:0.13px;stroke-miterlimit:1.36628"
   id="path58" />

                                        </g>

                                    </g>

                                    <path
   d="m 440.735,857.471 c 27.231,-1.664 23.412,-10.53 29.617,-21.445 3.006,-5.289 9.449,-10.025 7.793,-13.731 -3.656,-8.178 -5.856,-8.16 -10.008,-16.7 -5.972,-12.283 -9.497,-20.481 -35.738,-18.415 -16.823,1.325 -15.643,12.82 -28.356,31.222 -4.642,6.72 -1.32,8.72 3.089,13.724 10.655,12.093 2.518,24.521 33.603,25.345 z"
   style="fill:none;stroke:#000000;stroke-width:0.6px"
   id="path60" />

                                </g>

                                <g
   transform="matrix(1.11088,0,0,1.11088,-44.8963,-33.9166)"
   id="g65">
                                    <g
   transform="matrix(0.349144,0,0,0.36374,273.055,171.797)"
   id="g62">
                                        <ellipse
   cx="453.70901"
   cy="261.383"
   rx="3.585"
   ry="3.5109999"
   style="fill:#00fd28"
   id="ellipse61" />

                                    </g>

                                    <g
   transform="matrix(0.349144,0,0,0.36374,276.334,172.93)"
   id="g63">
                                        <ellipse
   cx="453.70901"
   cy="261.383"
   rx="3.585"
   ry="3.5109999"
   style="fill:#00fd28"
   id="ellipse62" />

                                    </g>

                                    <g
   transform="matrix(0.449032,0,0,0.433829,230.537,150.979)"
   id="g64">
                                        <ellipse
   cx="453.70901"
   cy="261.383"
   rx="3.585"
   ry="3.5109999"
   style="fill:#00fd28"
   id="ellipse63" />

                                    </g>

                                </g>

                                <g
   transform="matrix(1.34746,0,0,1.34746,-186.866,-139.522)"
   id="g69">
                                    <g
   transform="matrix(0.349144,0,0,0.36374,273.055,171.797)"
   id="g66">
                                        <ellipse
   cx="453.70901"
   cy="261.383"
   rx="3.585"
   ry="3.5109999"
   style="fill:#00fd28"
   id="ellipse65" />

                                    </g>

                                    <g
   transform="matrix(0.349144,0,0,0.36374,276.334,172.93)"
   id="g67">
                                        <ellipse
   cx="453.70901"
   cy="261.383"
   rx="3.585"
   ry="3.5109999"
   style="fill:#00fd28"
   id="ellipse66" />

                                    </g>

                                    <g
   transform="matrix(0.449032,0,0,0.433829,230.537,150.979)"
   id="g68">
                                        <ellipse
   cx="453.70901"
   cy="261.383"
   rx="3.585"
   ry="3.5109999"
   style="fill:#00fd28"
   id="ellipse67" />

                                    </g>

                                </g>

                            </g>

                            <path
   d="m 374.494,226.268 c 0.259,-0.619 2.467,-5.904 1.944,-8.166 -0.936,-4.04 -3.145,-6.709 7.031,-12.33 5.542,-3.062 3.967,-10.411 11.319,-9.728 5.031,0.468 9.977,2.711 14.821,-5.078 10.008,8.695 10.711,7.727 18.518,9.116 3.705,0.66 16.765,9.059 19.261,17.506 3.356,11.357 3.129,11.967 13.731,19.933 10.158,7.632 2.472,12.205 3.453,15.682 3.872,13.727 3.162,16.369 -12.856,24.491 -15.702,7.962 -0.913,17.892 -13.536,30.131 -3.784,3.668 -21.913,15.24 -40.171,3.893 -23.039,-14.318 -9.805,-22.804 -15.11,-29.95 -5.342,-7.196 -17.986,-8.412 -21.443,-18.925 -1.051,-3.196 -0.136,-5.401 2.47,-11.633 -0.242,-0.408 -5.812,-6.253 -0.728,-12.221 5.716,-6.71 8.957,-5.248 11.296,-12.721 z"
   style="fill:none;stroke:#000000;stroke-width:0.63px;stroke-miterlimit:1.36628"
   id="path70" />

                        </g>

                    </g>
    <g
       transform="matrix(0.50972803,0,0,0.4417505,-149.78131,-52.809789)"
       id="g76"
       style="clip-rule:evenodd;fill-rule:evenodd;stroke-linecap:round;stroke-linejoin:round;stroke-miterlimit:1.5">
                        <g
   transform="matrix(0.640182,0,0,0.834661,105.55,13.3375)"
   id="g74">
                            <g
   transform="matrix(41.6667,0,0,41.6667,685.197,233.472)"
   id="g73">
                            </g>

                            <text
   x="327.16501"
   y="233.472"
   style="font-size:41.667px;font-family:COMPUTERRobot, 'COMPUTER Robot'"
   id="text73">Software and Service</text>

                        </g>

                        <g
   transform="matrix(1.01727,0,0,0.937735,-15.4383,14.7635)"
   id="g75">
                            <text
   x="343.51401"
   y="167.01801"
   style="font-size:74.019px;font-family:COMPUTERRobot, 'COMPUTER Robot'"
   id="text74">Gorlug</text>

                        </g>

                    </g>
  </g>
</svg>
