<svg width="27" height="21" viewBox="0 0 27 21" fill="none" xmlns="http://www.w3.org/2000/svg">
<g clip-path="url(#clip0_34_6161)">
<path d="M22.8348 2.17497C21.0637 1.38121 19.194 0.818094 17.2734 0.5C17.0106 0.959917 16.7728 1.43311 16.561 1.9176C14.5153 1.61582 12.4349 1.61582 10.3891 1.9176C10.1772 1.43316 9.93938 0.959973 9.67668 0.5C7.75488 0.82078 5.88395 1.38524 4.11109 2.17912C0.591522 7.27667 -0.362579 12.2476 0.114472 17.148C2.17562 18.6388 4.48264 19.7725 6.93523 20.5C7.48748 19.7729 7.97616 19.0015 8.39607 18.1941C7.59851 17.9025 6.82872 17.5427 6.09562 17.1189C6.28856 16.9819 6.47726 16.8408 6.6596 16.7038C8.79275 17.6859 11.121 18.195 13.4782 18.195C15.8355 18.195 18.1637 17.6859 20.2969 16.7038C20.4813 16.8512 20.67 16.9923 20.8609 17.1189C20.1263 17.5434 19.3552 17.9038 18.5562 18.1961C18.9756 19.0032 19.4643 19.7739 20.017 20.5C22.4717 19.7755 24.7805 18.6422 26.842 17.1501C27.4018 11.4672 25.8858 6.54193 22.8348 2.17497ZM9.00033 14.1343C7.67095 14.1343 6.57267 12.9533 6.57267 11.5004C6.57267 10.0475 7.63279 8.85616 8.99609 8.85616C10.3594 8.85616 11.4492 10.0475 11.4259 11.5004C11.4025 12.9533 10.3552 14.1343 9.00033 14.1343ZM17.9562 14.1343C16.6247 14.1343 15.5306 12.9533 15.5306 11.5004C15.5306 10.0475 16.5907 8.85616 17.9562 8.85616C19.3216 8.85616 20.4029 10.0475 20.3796 11.5004C20.3562 12.9533 19.311 14.1343 17.9562 14.1343Z" fill="white"/>
</g>
<defs>
<clipPath id="clip0_34_6161">
<rect width="26.9565" height="20" fill="white" transform="translate(0 0.5)"/>
</clipPath>
</defs>
</svg>
