<svg width="22" height="21" viewBox="0 0 22 21" fill="none" xmlns="http://www.w3.org/2000/svg">
<g clip-path="url(#clip0_8_771)">
<path fill-rule="evenodd" clip-rule="evenodd" d="M11.4253 0.5C5.63633 0.5 0.956543 5.08333 0.956543 10.7535C0.956543 15.286 3.95504 19.1227 8.11476 20.4806C8.63483 20.5827 8.82533 20.26 8.82533 19.9885C8.82533 19.7508 8.80819 18.936 8.80819 18.0871C5.89604 18.6983 5.28961 16.8648 5.28961 16.8648C4.82161 15.6765 4.12819 15.371 4.12819 15.371C3.17504 14.7429 4.19761 14.7429 4.19761 14.7429C5.2549 14.8108 5.80969 15.7954 5.80969 15.7954C6.74547 17.3571 8.2534 16.9158 8.86004 16.6442C8.94661 15.9821 9.22411 15.5237 9.51876 15.2692C7.19611 15.0315 4.7524 14.1488 4.7524 10.2102C4.7524 9.08979 5.16811 8.17312 5.82683 7.46021C5.7229 7.20563 5.35883 6.15292 5.93097 4.74396C5.93097 4.74396 6.8149 4.47229 8.80797 5.79646C9.66128 5.57201 10.5413 5.45784 11.4253 5.45687C12.3092 5.45687 13.2103 5.57583 14.0423 5.79646C16.0356 4.47229 16.9195 4.74396 16.9195 4.74396C17.4917 6.15292 17.1274 7.20563 17.0235 7.46021C17.6995 8.17312 18.0981 9.08979 18.0981 10.2102C18.0981 14.1488 15.6544 15.0144 13.3144 15.2692C13.6958 15.5917 14.025 16.2027 14.025 17.1704C14.025 18.5454 14.0078 19.649 14.0078 19.9883C14.0078 20.26 14.1985 20.5827 14.7184 20.4808C18.8781 19.1225 21.8766 15.286 21.8766 10.7535C21.8938 5.08333 17.1968 0.5 11.4253 0.5Z" fill="white"/>
</g>
<defs>
<clipPath id="clip0_8_771">
<rect width="21" height="20" fill="white" transform="translate(0.956543 0.5)"/>
</clipPath>
</defs>
</svg>
