<svg width="23" height="23" viewBox="0 0 23 23" fill="none" xmlns="http://www.w3.org/2000/svg">
<g clip-path="url(#clip0_8_572)">
<path d="M22.6161 5.09197C22.2811 2.62073 20.111 0.673216 17.5386 0.295838C17.1045 0.232071 15.4601 0 11.6509 0H11.6225C7.81224 0 6.99481 0.232071 6.56079 0.295838C4.05995 0.662761 1.77611 2.41271 1.22201 4.91321C0.955491 6.14467 0.927049 7.50991 0.97656 8.76227C1.04714 10.5582 1.06083 12.351 1.22517 14.1396C1.33878 15.3277 1.53697 16.5063 1.81825 17.6667C2.34496 19.8097 4.4771 21.5931 6.56604 22.3207C8.80256 23.0794 11.2078 23.2054 13.5124 22.6845C13.7659 22.6259 14.0162 22.558 14.2635 22.4806C14.8239 22.3039 15.4802 22.1063 15.9626 21.7593C15.9693 21.7544 15.9747 21.7481 15.9785 21.7409C15.9823 21.7337 15.9845 21.7257 15.9847 21.7175V19.9843C15.9846 19.9766 15.9828 19.9691 15.9794 19.9623C15.9759 19.9554 15.971 19.9494 15.965 19.9447C15.9589 19.94 15.9519 19.9367 15.9444 19.9351C15.9368 19.9334 15.929 19.9334 15.9216 19.9351C14.445 20.2851 12.932 20.4606 11.4139 20.4578C8.80142 20.4578 8.0988 19.2274 7.89757 18.7152C7.73586 18.2725 7.63316 17.8107 7.59209 17.3416C7.59165 17.3337 7.59312 17.3258 7.59635 17.3186C7.59955 17.3114 7.60444 17.3051 7.6106 17.3001C7.61676 17.2951 7.62401 17.2916 7.63178 17.2899C7.63956 17.2882 7.64759 17.2884 7.65531 17.2904C9.10722 17.638 10.5956 17.8134 12.0892 17.813C12.4484 17.813 12.8066 17.813 13.1658 17.8036C14.668 17.7618 16.2513 17.6855 17.7292 17.3991C17.7661 17.3918 17.803 17.3855 17.8346 17.3761C20.1658 16.9318 22.3843 15.5373 22.6098 12.006C22.6182 11.867 22.6393 10.5498 22.6393 10.4056C22.6403 9.9153 22.7983 6.92763 22.6161 5.09197Z" fill="white"/>
<path d="M18.9229 7.8684V14.0079H16.4715V8.04925C16.4715 6.79482 15.9448 6.15504 14.8735 6.15504C13.6957 6.15504 13.1059 6.91189 13.1059 8.40677V11.6683H10.6692V8.40677C10.6692 6.91189 10.0783 6.15504 8.90057 6.15504C7.83553 6.15504 7.30354 6.79482 7.30354 8.04925V14.0079H4.85327V7.8684C4.85327 6.61396 5.17597 5.61739 5.82139 4.87866C6.48714 4.14167 7.36045 3.76324 8.4444 3.76324C9.69905 3.76324 10.6471 4.24202 11.2792 5.19853L11.8891 6.21464L12.5001 5.19853C13.1322 4.24202 14.0802 3.76324 15.3328 3.76324C16.4157 3.76324 17.289 4.14167 17.9569 4.87866C18.6016 5.6167 18.9236 6.61327 18.9229 7.8684Z" fill="black"/>
</g>
<defs>
<clipPath id="clip0_8_572">
<rect width="22" height="23" fill="white" transform="translate(0.956543)"/>
</clipPath>
</defs>
</svg>
