<svg width="21" height="21" viewBox="0 0 21 21" fill="none" xmlns="http://www.w3.org/2000/svg">
<g clip-path="url(#clip0_8_575)">
<path d="M10.9565 20.5C16.4794 20.5 20.9565 16.0228 20.9565 10.5C20.9565 4.97715 16.4794 0.5 10.9565 0.5C5.4337 0.5 0.956543 4.97715 0.956543 10.5C0.956543 16.0228 5.4337 20.5 10.9565 20.5Z" fill="white"/>
<path d="M12.638 6.502V6.5H13.107L13.2785 6.5335C13.3925 6.5555 13.4965 6.5845 13.5895 6.62C13.6825 6.655 13.773 6.697 13.86 6.744C13.947 6.7915 14.026 6.84 14.097 6.889C14.1675 6.9375 14.2305 6.989 14.287 7.0435C14.342 7.0985 14.428 7.1125 14.5455 7.086C14.6625 7.0595 14.789 7.0225 14.924 6.975C15.059 6.9275 15.193 6.8745 15.3255 6.815C15.4575 6.756 15.538 6.7185 15.567 6.7025L15.612 6.676L15.614 6.673L15.623 6.6685L15.632 6.6645L15.641 6.6595L15.65 6.6555L15.6515 6.6525L15.6545 6.651L15.657 6.649L15.659 6.6465L15.668 6.644L15.677 6.642L15.675 6.6555L15.6725 6.6685L15.6675 6.682L15.6635 6.6955L15.6585 6.704L15.6545 6.713L15.6495 6.7265C15.646 6.73799 15.6432 6.74968 15.641 6.7615C15.638 6.7765 15.6095 6.836 15.555 6.9395C15.4965 7.05002 15.4288 7.1554 15.3525 7.2545C15.2883 7.34241 15.2151 7.42335 15.134 7.496C15.069 7.551 15.026 7.5895 15.005 7.6115C14.9823 7.63552 14.9566 7.65653 14.9285 7.674L14.8835 7.703L14.8745 7.708L14.8655 7.712L14.8635 7.7145L14.861 7.7165L14.858 7.718L14.8565 7.721L14.8475 7.7255L14.8385 7.7295L14.8365 7.7325L14.834 7.734L14.831 7.736L14.8295 7.7385L14.8275 7.7415L14.825 7.743L14.822 7.745L14.8205 7.7475H14.8655L15.118 7.694C15.286 7.659 15.447 7.616 15.6005 7.5655L15.844 7.4855L15.871 7.4765L15.8845 7.4725L15.8935 7.4675L15.9025 7.4635L15.9115 7.4585L15.9205 7.4545L15.9385 7.452L15.9565 7.45V7.468L15.952 7.4695L15.9475 7.4725L15.9455 7.475L15.943 7.4765L15.9405 7.4785L15.9385 7.481L15.9365 7.484L15.934 7.4855L15.9315 7.4875L15.9295 7.49L15.9275 7.4925L15.925 7.4945L15.92 7.5035L15.916 7.512L15.913 7.514L15.7985 7.665C15.7235 7.7645 15.683 7.815 15.677 7.816C15.671 7.8175 15.6625 7.8265 15.652 7.8425C15.6415 7.859 15.578 7.925 15.4605 8.0405C15.3435 8.1555 15.2285 8.2585 15.116 8.3485C15.003 8.439 14.946 8.5505 14.945 8.6825C14.943 8.814 14.936 8.9625 14.924 9.128C14.912 9.294 14.8895 9.473 14.8565 9.6655C14.8235 9.858 14.7725 10.0755 14.703 10.318C14.634 10.5605 14.55 10.7975 14.4505 11.028C14.3601 11.2417 14.2562 11.4494 14.1395 11.65C13.9721 11.9407 13.7806 12.2168 13.567 12.4755C13.4555 12.6078 13.3375 12.7346 13.2135 12.8555C13.0705 12.9955 12.9925 13.073 12.979 13.0865C12.965 13.0995 12.9065 13.148 12.8025 13.232C12.699 13.317 12.5875 13.4015 12.4685 13.486C12.3635 13.5614 12.2547 13.6315 12.1425 13.696C12.043 13.7525 11.9235 13.817 11.7835 13.889C11.6435 13.962 11.493 14.029 11.3305 14.0915C11.1685 14.1535 10.997 14.2115 10.8165 14.2645C10.6365 14.318 10.462 14.3595 10.2935 14.389C10.1255 14.419 9.93454 14.444 9.72104 14.4645L9.40104 14.4955V14.5H8.81504V14.4955L8.73854 14.491C8.69633 14.4886 8.65416 14.4856 8.61204 14.482C8.48718 14.4674 8.36251 14.4512 8.23804 14.4335C8.02154 14.4035 7.85154 14.374 7.72804 14.3445C7.60504 14.315 7.42204 14.259 7.17804 14.176C6.96468 14.1053 6.75594 14.0213 6.55304 13.9245C6.44466 13.8719 6.33666 13.8186 6.22904 13.7645C6.17924 13.7391 6.13038 13.7119 6.08254 13.683L6.00154 13.6345L6.00004 13.6315L5.99704 13.63L5.99454 13.628L5.99254 13.6255L5.98354 13.621L5.97454 13.6165L5.97254 13.614L5.97004 13.612L5.96754 13.6105L5.96554 13.6075L5.96354 13.605L5.96104 13.603H5.95654V13.5855L5.96554 13.587L5.97454 13.59L6.01504 13.5945C6.04204 13.5975 6.11604 13.6015 6.23604 13.6075C6.67391 13.6279 7.11222 13.5784 7.53454 13.461C7.72704 13.411 7.90354 13.351 8.06454 13.282C8.22504 13.212 8.33954 13.16 8.40754 13.1255C8.47454 13.092 8.57754 13.029 8.71554 12.9375L8.92304 12.7995L8.92504 12.797L8.92754 12.795L8.93054 12.7935L8.93204 12.791L8.93404 12.788L8.93654 12.7865L8.93954 12.7845L8.94104 12.782L8.95004 12.779L8.95904 12.7775L8.96104 12.7685L8.96354 12.7595L8.96654 12.758L8.96804 12.7555L8.89604 12.7505L8.75604 12.742C8.68461 12.7342 8.61389 12.7208 8.54454 12.702C8.4382 12.6749 8.3342 12.6392 8.23354 12.5955C8.12108 12.5475 8.01243 12.491 7.90854 12.4265C7.82795 12.3793 7.75166 12.3251 7.68054 12.2645C7.61859 12.206 7.55856 12.1454 7.50054 12.083C7.42988 12.0078 7.36581 11.9267 7.30904 11.8405C7.25026 11.749 7.19845 11.6533 7.15404 11.554L7.07904 11.3925L7.07454 11.379L7.07004 11.3655L7.06754 11.357L7.06554 11.348L7.07904 11.3495L7.09254 11.3525L7.19204 11.3655C7.25804 11.3745 7.36204 11.3775 7.50304 11.3745C7.64404 11.3715 7.74204 11.3655 7.79604 11.357C7.82919 11.3519 7.86221 11.3459 7.89504 11.339L7.91304 11.3345L7.93604 11.33L7.95854 11.3255L7.96004 11.323L7.96304 11.3215L7.96554 11.3195L7.96754 11.317L7.94954 11.312L7.93154 11.308L7.91304 11.3035L7.89504 11.299L7.87704 11.2945C7.85593 11.2891 7.83493 11.2832 7.81404 11.277C7.73168 11.2474 7.65045 11.2147 7.57054 11.179C7.46041 11.1345 7.35477 11.0796 7.25504 11.015C7.17681 10.9616 7.10215 10.9031 7.03154 10.84C6.94877 10.7629 6.87126 10.6804 6.79954 10.593C6.71103 10.4854 6.63551 10.3678 6.57454 10.2425C6.51261 10.1203 6.46271 9.99236 6.42554 9.8605C6.39259 9.73993 6.37083 9.61657 6.36054 9.492L6.34404 9.306L6.35354 9.3075L6.36254 9.31L6.37154 9.315L6.38054 9.319L6.38954 9.324L6.39854 9.328L6.53854 9.39C6.63154 9.4315 6.74704 9.467 6.88554 9.4965C7.02354 9.5265 7.10604 9.5425 7.13304 9.5455L7.17404 9.55H7.25504L7.25304 9.5475L7.25054 9.5455L7.24804 9.5435L7.24604 9.541L7.24404 9.5385L7.24154 9.5365L7.23854 9.535L7.23704 9.532L7.22804 9.5275L7.21904 9.5235L7.21704 9.5205L7.21454 9.519L7.21154 9.517L7.21004 9.5145L7.20104 9.51L7.19204 9.5055L7.19004 9.503L7.11254 9.446C7.05661 9.40244 7.00473 9.35391 6.95754 9.301C6.90192 9.24028 6.84774 9.17827 6.79504 9.115C6.74098 9.04971 6.69279 8.97977 6.65104 8.906C6.60074 8.81486 6.55616 8.72067 6.51754 8.624C6.42853 8.40599 6.37909 8.17386 6.37154 7.9385C6.36799 7.84224 6.37099 7.74585 6.38054 7.65C6.38954 7.57 6.40754 7.48 6.43454 7.379C6.46154 7.2785 6.50054 7.172 6.55154 7.059L6.62854 6.8905L6.63304 6.8775L6.63754 6.864L6.64004 6.8625L6.64204 6.8595L6.64354 6.857L6.64654 6.855L6.64904 6.857L6.65104 6.8595L6.65254 6.8625L6.65554 6.864L6.65804 6.866L6.66004 6.8685L6.66154 6.871L6.66454 6.873L6.66904 6.882L6.67354 6.8905L6.67604 6.8925L6.67804 6.895L6.79954 7.0285C6.88104 7.117 6.97704 7.216 7.08804 7.3255C7.19954 7.4355 7.26104 7.492 7.27304 7.496C7.28504 7.501 7.30004 7.5145 7.31804 7.537C7.33604 7.559 7.39604 7.6115 7.49804 7.694C7.60054 7.777 7.73454 7.8735 7.89954 7.983C8.06504 8.0925 8.24854 8.2005 8.44954 8.307C8.65104 8.4135 8.86754 8.5095 9.09904 8.5955C9.33054 8.6815 9.49254 8.7375 9.58604 8.764C9.67904 8.791 9.83854 8.825 10.064 8.8665C10.289 8.9075 10.459 8.9345 10.5735 8.9465C10.6875 8.958 10.7655 8.965 10.8075 8.9665L10.871 8.9685L10.869 8.955L10.8665 8.9415L10.8485 8.8305C10.8347 8.7276 10.8287 8.62381 10.8305 8.52C10.8305 8.387 10.8405 8.264 10.862 8.1515C10.883 8.039 10.9145 7.925 10.9565 7.8095C10.9985 7.6945 11.04 7.6015 11.08 7.5315C11.121 7.4625 11.1745 7.3835 11.2405 7.2945C11.3065 7.206 11.3925 7.1145 11.4975 7.0195C11.6025 6.9245 11.7225 6.8405 11.858 6.7665C11.993 6.6925 12.118 6.6365 12.2325 6.5975C12.3465 6.559 12.4425 6.534 12.521 6.5225C12.599 6.5105 12.638 6.5035 12.638 6.502Z" fill="black"/>
</g>
<defs>
<clipPath id="clip0_8_575">
<rect width="20" height="20" fill="white" transform="translate(0.956543 0.5)"/>
</clipPath>
</defs>
</svg>
