<svg width="324" height="360" viewBox="0 0 324 360" fill="none" xmlns="http://www.w3.org/2000/svg">
<g id="Logo/Pink">
<path id="Border" fill-rule="evenodd" clip-rule="evenodd" d="M162 0C154.058 0 146.114 2.0546 138.995 6.16636L23.0201 73.1468C8.77542 81.3729 0 96.5789 0 113.036V246.964C0 263.421 8.77542 278.627 23.0201 286.853L138.995 353.834C146.114 357.945 154.058 360 162 360C169.944 360 177.889 357.945 185.007 353.834L300.982 286.853C315.227 278.627 324 263.421 324 246.964V113.036C324 96.5789 315.227 81.3729 300.982 73.1468L185.007 6.16636C177.889 2.0546 169.944 0 162 0Z" fill="#231F20"/>
<g id="Background">
<path id="Background Mask" fill-rule="evenodd" clip-rule="evenodd" d="M162 7.25122C168.796 7.25122 175.498 9.04995 181.384 12.4478L297.359 79.4283C309.321 86.3366 316.751 99.2143 316.751 113.036V246.964C316.751 260.786 309.321 273.663 297.359 280.572L181.384 347.552C175.498 350.953 168.796 352.749 162 352.749C155.206 352.749 148.504 350.953 142.618 347.552L26.6433 280.572C14.6794 273.663 7.2489 260.786 7.2489 246.964V113.036C7.2489 99.2143 14.6794 86.3366 26.6433 79.4283L142.618 12.4478C148.504 9.04995 155.206 7.25122 162 7.25122Z" fill="#EA0074"/>
<mask id="mask0" mask-type="alpha" maskUnits="userSpaceOnUse" x="7" y="7" width="310" height="346">
<path id="Background Mask_2" fill-rule="evenodd" clip-rule="evenodd" d="M162 7.25122C168.796 7.25122 175.498 9.04995 181.384 12.4478L297.359 79.4283C309.321 86.3366 316.751 99.2143 316.751 113.036V246.964C316.751 260.786 309.321 273.663 297.359 280.572L181.384 347.552C175.498 350.953 168.796 352.749 162 352.749C155.206 352.749 148.504 350.953 142.618 347.552L26.6433 280.572C14.6794 273.663 7.2489 260.786 7.2489 246.964V113.036C7.2489 99.2143 14.6794 86.3366 26.6433 79.4283L142.618 12.4478C148.504 9.04995 155.206 7.25122 162 7.25122Z" fill="white"/>
</mask>
<g mask="url(#mask0)">
<g id="Bavarian Flag">
<path id="Combined Shape" fill-rule="evenodd" clip-rule="evenodd" d="M144 -43.8909L145.952 -45L176.912 -23.5227L179 17L145.96 -5.92217L144 -43.8909ZM214 81L181.079 57.8785L179 17L211.927 40.119L214 81ZM214 81L246.924 104.119L249 145L216.078 121.878L214 81ZM114.952 -28L113 -26.8909L114.946 10.8083L84.9524 -10L83 -8.8884L84.9601 29.0762L118 52L120.078 92.8785L153 116L155.079 156.878L188 180L190.079 220.878L223 244L220.922 203.117L188 180L185.943 139.485L218 162L215.922 121.119L183 98L180.922 57.1215L148 34L145.912 -6.52271L114.952 -28ZM183 98L185.06 138.512L153 116L150.94 75.4837L183 98ZM148 34L150.06 74.5138L118 52L115.923 11.746L148 34ZM53.9524 8L52 9.1091L53.9575 47.0778L87 70L89.0759 110.88L122 134L124.079 174.878L157 198L154.922 157.122L122 134L119.922 93.1199L87 70L84.9092 29.4773L53.9524 8ZM22.9524 26L21 27.1091L22.9601 65.0753L56 88L58.0785 128.878L91 152L88.9215 111.12L56 88L53.9118 47.4747L22.9524 26ZM-41 62.1091L-39.0399 100.078L-6 123L-3.9215 163.877L29 187L31.0785 227.878L64 251L66.0783 291.878L99 315L100.891 355.264L132.796 377L134 376.321L132.182 337.602L99 315L96.9216 274.119L64 251L61.9241 210.122L29 187L26.9215 146.121L-6 123L-8.08821 82.4747L-39.0476 61L-41 62.1091ZM-10 44.1091L-8.04758 43L22.9118 64.4747L25 105L-8.0399 82.0753L-10 44.1091ZM60 169L27.0783 145.878L25 105L57.9216 128.119L60 169ZM95 233L62.0785 209.88L60 169L92.9241 192.12L95 233ZM130 297L97.0785 273.878L95 233L127.922 256.119L130 297ZM130 297L163.181 319.604L165 358.321L163.795 359L131.891 337.264L130 297ZM93.0809 191.878L126 215L128.078 255.877L161 279L158.922 238.121L126 215L123.924 174.119L91 151L93.0809 191.878ZM0.0784988 244.878L33 268L35.0783 308.878L68 332L65.9216 291.119L33 268L30.9215 227.119L-2 204L0.0784988 244.878ZM280 127L247.078 103.876L245 63L277.922 86.119L280 127ZM315 191L282.078 167.878L280 127L312.922 150.122L315 191ZM284 208L316.847 230.374L315 191L348.181 213.602L350 252.318L348.795 253L317.223 231.492L319 269.321L317.793 270L285.891 248.264L284 208ZM284 208L251.943 185.485L254 226L221.078 202.877L219 162L251.06 184.514L249 144L281.924 167.119L284 208ZM245 63L212.079 39.8785L210 -1L242.922 22.119L245 63ZM311 109L278.078 85.8785L276 45L308.922 68.119L311 109ZM346 173L313.078 149.88L311 109L343.922 132.12L346 173ZM346 173L379.179 195.604L381 234.321L379.796 235L347.891 213.264L346 173ZM273.922 4.11895L276 45L243.078 21.8785L241 -19L273.922 4.11895ZM342 91L309.078 67.8785L307 27L339.922 50.119L342 91ZM377 155L374.922 114.119L342 91L344.078 131.878L377 155ZM377 155L378.891 195.265L410.796 217L412 216.324L410.182 177.603L377 155ZM274.078 4.87755L307 28L304.922 -12.8801L272 -36L274.078 4.87755ZM192 261L159.078 237.878L157 197L189.922 220.119L192 261Z" fill="#FF007F"/>
<g id="Group">
<path id="Fill 144" fill-rule="evenodd" clip-rule="evenodd" d="M162.888 319.265L194.793 341L196 340.324L194.179 301.603L161 279L162.888 319.265Z" fill="#219E87"/>
<path id="Fill 145" fill-rule="evenodd" clip-rule="evenodd" d="M193.888 301.265L225.793 323L227 322.321L225.179 283.603L192 261L193.888 301.265Z" fill="#E98B23"/>
<path id="Fill 146" fill-rule="evenodd" clip-rule="evenodd" d="M223.891 284.264L255.796 306L257 305.318L255.182 266.604L222 244L223.891 284.264Z" fill="#4B81B6"/>
<path id="Fill 147" fill-rule="evenodd" clip-rule="evenodd" d="M254.894 266.264L286.796 288L288 287.321L286.182 248.602L253 226L254.894 266.264Z" fill="#EAEAEA"/>
</g>
</g>
</g>
</g>
<path id="JS" fill-rule="evenodd" clip-rule="evenodd" d="M220.68 231.52C215.773 233.28 210.227 234.16 204.04 234.16C197.213 234.16 190.413 232.907 183.64 230.4C176.867 227.893 170.813 224.133 165.48 219.12L178.92 202.96C182.653 206.16 186.787 208.773 191.32 210.8C195.853 212.827 200.307 213.84 204.68 213.84C209.587 213.84 213.24 212.933 215.64 211.12C218.04 209.307 219.24 206.853 219.24 203.76C219.24 202.16 218.893 200.773 218.2 199.6C217.507 198.427 216.493 197.387 215.16 196.48C213.827 195.573 212.227 194.72 210.36 193.92L204.2 191.28L190.6 185.52C187.933 184.453 185.347 183.067 182.84 181.36C180.333 179.653 178.093 177.653 176.12 175.36C174.147 173.067 172.573 170.4 171.4 167.36C170.227 164.32 169.64 160.88 169.64 157.04C169.64 152.773 170.547 148.747 172.36 144.96C174.173 141.173 176.733 137.867 180.04 135.04C183.347 132.213 187.267 130 191.8 128.4C196.333 126.8 201.32 126 206.76 126C212.84 126 218.84 127.173 224.76 129.52C230.68 131.867 235.88 135.28 240.36 139.76L228.36 154.64C224.947 151.973 221.533 149.92 218.12 148.48C214.707 147.04 210.92 146.32 206.76 146.32C202.707 146.32 199.48 147.147 197.08 148.8C194.68 150.453 193.48 152.773 193.48 155.76C193.48 157.36 193.88 158.72 194.68 159.84C195.48 160.96 196.6 161.973 198.04 162.88C199.48 163.787 201.16 164.64 203.08 165.44C205 166.24 207.08 167.12 209.32 168.08L222.76 173.52C229.16 176.08 234.2 179.6 237.88 184.08C241.56 188.56 243.4 194.48 243.4 201.84C243.4 206.213 242.52 210.347 240.76 214.24C239 218.133 236.44 221.547 233.08 224.48C229.72 227.413 225.587 229.76 220.68 231.52ZM129.56 231.28C125.347 233.2 120.36 234.16 114.6 234.16C106.6 234.16 99.9067 232.613 94.52 229.52C89.1333 226.427 84.6267 221.68 81 215.28L97 203.44C98.92 206.96 101.16 209.573 103.72 211.28C106.28 212.987 108.893 213.84 111.56 213.84C115.827 213.84 119.053 212.533 121.24 209.92C123.427 207.307 124.52 202.533 124.52 195.6V127.92H148.04V197.52C148.04 202.533 147.373 207.28 146.04 211.76C144.707 216.24 142.68 220.133 139.96 223.44C137.24 226.747 133.773 229.36 129.56 231.28Z" fill="white"/>
</g>
</svg>
