<?xml version="1.0" encoding="utf-8"?>
<!-- Generator: Adobe Illustrator 21.1.0, SVG Export Plug-In . SVG Version: 6.00 Build 0)  -->
<!DOCTYPE svg PUBLIC "-//W3C//DTD SVG 1.1//EN" "http://www.w3.org/Graphics/SVG/1.1/DTD/svg11.dtd">
<svg version="1.1" id="Ebene_1" xmlns="http://www.w3.org/2000/svg" xmlns:xlink="http://www.w3.org/1999/xlink" x="0px" y="0px"
	 width="600px" height="136.4px" viewBox="0 0 600 136.4" style="enable-background:new 0 0 600 136.4;" xml:space="preserve">
<title>S2_Black_RGB</title>
<path d="M19.7,80.9C7,80.9,0.4,74,0,60.3C0,59.6,0.3,59.1,1,59l9.7-1.6c0.5-0.1,1.1,0.2,1.2,0.7c0,0.1,0,0.2,0,0.3
	c0.3,8.3,2.8,11.6,8.1,11.6c5,0,7.4-2.7,7.4-11.2s-1.6-11.2-7.8-13.7L15,43.2C4.1,38.9,0.8,33.2,0.8,21C0.8,7.5,7,0,19.9,0
	s18.6,6.9,19.3,19.2c0,0.7-0.4,1-1,1.3L29,21.9c-0.7,0.1-1.3-0.2-1.3-0.9c-0.2-6.5-2.3-10.1-7.4-10.1c-4.9,0-7.2,3-7.2,9.5
	c0,7.3,1.4,9.5,7.6,11.9l4.8,1.8c10.3,4.1,14.3,9.6,14.3,23C39.9,72.8,34.7,80.9,19.7,80.9z"/>
<path d="M43.6,2.3c0-0.6,0.4-1.1,1-1.2c0,0,0.1,0,0.1,0h10.1c0.6,0,1.1,0.4,1.2,1c0,0,0,0.1,0,0.1v76.4c0,0.6-0.4,1.1-1,1.2
	c0,0-0.1,0-0.1,0H44.7c-0.6,0-1.1-0.4-1.2-1c0,0,0-0.1,0-0.1V2.3z"/>
<path d="M62.4,2.3c0-0.6,0.4-1.1,1-1.2c0,0,0.1,0,0.1,0h12.3c0.8-0.1,1.5,0.4,1.6,1.2l14.6,54.4h0.6V2.3c0-0.6,0.4-1.1,1-1.2
	c0,0,0.1,0,0.1,0h8.6c0.6,0,1.1,0.4,1.2,1c0,0,0,0.1,0,0.1v76.4c0,0.6-0.4,1.1-1,1.2c0,0-0.1,0-0.1,0H90.9c-0.8,0.1-1.5-0.4-1.6-1.2
	L74,24.3h-0.7v54.4c0,0.6-0.4,1.1-1,1.2c0,0-0.1,0-0.1,0h-8.6c-0.6,0-1.1-0.4-1.2-1c0,0,0-0.1,0-0.1L62.4,2.3z"/>
<path d="M110,2.3c0-0.6,0.4-1.1,1-1.2c0,0,0.1,0,0.1,0h12.2c0.8-0.1,1.5,0.4,1.6,1.2l14.6,54.4h0.6V2.3c0-0.6,0.4-1.1,1-1.2
	c0.1,0,0.1,0,0.2,0h8.6c0.6,0,1.1,0.4,1.2,1c0,0,0,0.1,0,0.1v76.4c0,0.6-0.4,1.1-1,1.2c0,0-0.1,0-0.1,0h-11.5
	c-0.8,0.1-1.5-0.4-1.6-1.2l-15.3-54.4h-0.7v54.4c0,0.6-0.4,1.1-1,1.2c0,0-0.1,0-0.1,0h-8.6c-0.6,0-1.1-0.4-1.2-1c0,0,0-0.1,0-0.1
	L110,2.3L110,2.3z"/>
<path d="M157.6,2.3c0-0.6,0.4-1.1,1-1.2c0,0,0.1,0,0.1,0H191c0.6,0,1.1,0.4,1.2,1c0,0,0,0.1,0,0.1v8.9c0,0.6-0.4,1.1-1,1.2
	c0,0-0.1,0-0.1,0h-20.4c-0.3,0-0.6,0.2-0.7,0.5c0,0.1,0,0.1,0,0.2v20.7c0,0.3,0.2,0.6,0.5,0.7c0.1,0,0.1,0,0.2,0h17.6
	c0.6,0,1.1,0.4,1.2,1c0,0,0,0.1,0,0.1v8.9c0,0.6-0.4,1.1-1,1.2c0,0-0.1,0-0.1,0h-17.6c-0.3,0-0.6,0.2-0.7,0.5c0,0.1,0,0.1,0,0.2
	v21.5c0,0.3,0.2,0.6,0.5,0.7c0.1,0,0.1,0,0.2,0H191c0.6,0,1.1,0.4,1.2,1c0,0,0,0.1,0,0.1v8.9c0,0.6-0.4,1.1-1,1.2c0,0-0.1,0-0.1,0
	h-32.3c-0.6,0-1.1-0.4-1.2-1c0,0,0-0.1,0-0.1V2.3z"/>
<path d="M228.1,79.8c-0.6,0.1-1.1-0.3-1.3-0.8l-9.6-31.4h-5.9c-0.3,0-0.6,0.2-0.7,0.5c0,0.1,0,0.1,0,0.2v30.3c0,0.6-0.4,1.1-1,1.2
	c0,0-0.1,0-0.1,0h-10c-0.6,0-1.1-0.4-1.2-1c0,0,0-0.1,0-0.1V2.3c0-0.6,0.4-1.1,1-1.2c0,0,0.1,0,0.1,0h15.9c14,0,22.5,6.1,22.5,23.4
	c0,10.3-3.5,16.8-9.4,20.1l11.1,34c0.2,0.6,0,1.2-0.6,1.2L228.1,79.8L228.1,79.8z M225.3,24.5c0-9.3-3-12.2-10-12.2h-4
	c-0.3,0-0.6,0.2-0.7,0.5c0,0.1,0,0.1,0,0.2V36c0,0.3,0.2,0.6,0.5,0.7c0.1,0,0.1,0,0.2,0h4C222.3,36.7,225.3,33.9,225.3,24.5z"/>
<path d="M262.3,80.9c-12.7,0-19.3-6.8-19.7-20.6c0-0.7,0.2-1.2,0.9-1.3l9.7-1.6c0.5-0.1,1.1,0.2,1.2,0.7c0,0.1,0,0.2,0,0.3
	c0.4,8.3,2.8,11.6,8.1,11.6c5,0,7.4-2.7,7.4-11.2s-1.6-11.2-7.8-13.7l-4.7-1.8c-10.9-4.3-14.1-10-14.1-22.2c0-13.5,6.1-21,19.1-21
	c13,0,18.6,6.9,19.3,19.2c0,0.7-0.3,1-1,1.3l-9.3,1.4c-0.7,0.1-1.3-0.2-1.3-0.9c-0.2-6.5-2.3-10.1-7.4-10.1c-4.9,0-7.2,3-7.2,9.5
	c0,7.3,1.4,9.5,7.6,11.9l4.8,1.8c10.3,4.1,14.4,9.6,14.4,23C282.5,72.8,277.3,80.9,262.3,80.9z"/>
<path d="M287.1,40.5c0-21.9,0.5-25.1,1.5-28.4c2.4-7.5,8.2-12,17.8-12c11.2,0,18.3,5.8,19,18.9c0.1,0.7-0.1,1.3-0.8,1.4l-9.4,1.6
	c-0.5,0.1-1.1-0.2-1.2-0.7c0-0.1,0-0.2,0-0.3c-0.4-6.7-2.7-9.6-7.2-9.6c-3.5,0-5.3,1.5-6.2,4.4c-0.6,1.8-0.8,3.5-0.8,24.8
	s0.2,22.9,0.8,24.8c0.9,2.9,2.8,4.4,6.2,4.4c4.5,0,6.8-2.9,7.2-9.6c0-0.6,0.4-1,1-1c0.1,0,0.2,0,0.3,0l9.4,1.6
	c0.7,0.1,0.9,0.7,0.8,1.4c-0.7,13.1-7.8,18.9-19,18.9c-9.6,0-15.4-4.5-17.8-12C287.6,65.6,287.1,62.3,287.1,40.5z"/>
<path d="M332.1,2.3c0-0.6,0.4-1.1,1-1.2c0,0,0.1,0,0.1,0h10.1c0.6,0,1.1,0.4,1.2,1c0,0,0,0.1,0,0.1v31c0,0.3,0.2,0.6,0.5,0.7
	c0.1,0,0.1,0,0.2,0h13.3c0.3,0,0.6-0.2,0.7-0.5c0-0.1,0-0.1,0-0.2v-31c0-0.6,0.4-1.1,1-1.2c0.1,0,0.1,0,0.2,0h10
	c0.6,0,1.1,0.4,1.2,1c0,0,0,0.1,0,0.1v76.4c0,0.6-0.4,1.1-1,1.2c0,0-0.1,0-0.1,0h-10c-0.6,0-1.1-0.4-1.2-1c0,0,0-0.1,0-0.1V45.9
	c0-0.3-0.2-0.6-0.5-0.7c-0.1,0-0.1,0-0.2,0h-13.4c-0.3,0-0.6,0.2-0.7,0.5c0,0.1,0,0.1,0,0.2v32.8c0,0.6-0.4,1.1-1,1.2
	c0,0-0.1,0-0.1,0h-10.1c-0.6,0-1.1-0.4-1.2-1c0,0,0-0.1,0-0.1L332.1,2.3z"/>
<path d="M408,79.8c-0.6,0.1-1.1-0.3-1.3-0.8l-9.6-31.4h-5.9c-0.3-0.1-0.6,0.2-0.7,0.5c0,0.1,0,0.1,0,0.2v30.3c0,0.6-0.4,1.1-1,1.2
	c0,0-0.1,0-0.1,0h-10.1c-0.6,0-1.1-0.4-1.2-1c0,0,0-0.1,0-0.1V2.3c0-0.6,0.4-1.1,1-1.2c0,0,0.1,0,0.1,0h15.9
	c14,0,22.5,6.1,22.5,23.4c0,10.3-3.5,16.8-9.4,20.1l11.1,34c0.2,0.6,0,1.2-0.6,1.2L408,79.8L408,79.8z M405.2,24.5
	c0-9.3-3-12.2-10-12.2h-4c-0.3-0.1-0.6,0.2-0.7,0.5c0,0.1,0,0.1,0,0.2V36c0,0.3,0.2,0.6,0.5,0.7c0.1,0,0.1,0,0.2,0h4
	C402.2,36.7,405.2,33.9,405.2,24.5z"/>
<path d="M439.7,2.3c0.2-0.7,0.6-1.2,1.3-1.2h9.7c0.7,0,1.2,0.5,1.3,1.2l16.7,76.4c0.2,0.5-0.1,1-0.6,1.1c-0.1,0-0.2,0.1-0.4,0h-9.8
	c-0.7,0-1.2-0.5-1.3-1.1c0,0,0,0,0-0.1l-3.1-15.9h-15.6l-3.1,15.9c0,0.7-0.6,1.2-1.2,1.2c0,0,0,0-0.1,0h-9.8c-0.5,0-0.9-0.3-1-0.8
	c0-0.1,0-0.2,0-0.4L439.7,2.3z M451.4,52.4l-5.6-29.3h-0.3l-5.8,29.3H451.4z"/>
<path d="M472.6,2.3c0-0.6,0.4-1.1,1-1.2c0,0,0.1,0,0.1,0H492c10.3,0,16.3,4.2,19.1,12.6c1.4,4.3,2,9.6,2,26.7s-0.6,22.5-2,26.7
	c-2.8,8.4-8.8,12.6-19.1,12.6h-18.2c-0.6,0-1.1-0.4-1.2-1c0,0,0-0.1,0-0.1L472.6,2.3z M485.7,68.6h5c4.4,0,7-1.7,8.3-5.7
	c0.9-2.9,1.4-6.7,1.4-22.5S500,20.9,499.1,18c-1.4-3.9-3.9-5.7-8.3-5.7h-5c-0.3,0-0.6,0.2-0.7,0.5c0,0.1,0,0.1,0,0.2v54.9
	c-0.1,0.3,0.2,0.6,0.5,0.7C485.6,68.6,485.7,68.6,485.7,68.6z"/>
<path d="M518.1,2.3c0-0.6,0.4-1.1,1-1.2c0,0,0.1,0,0.1,0h32.3c0.6,0,1.1,0.4,1.2,1c0,0,0,0.1,0,0.1v8.9c0,0.6-0.4,1.1-1,1.2
	c0,0-0.1,0-0.1,0h-20.4c-0.3-0.1-0.6,0.2-0.7,0.5c0,0.1,0,0.1,0,0.2v20.7c0,0.3,0.2,0.6,0.5,0.7c0.1,0,0.1,0,0.2,0h17.6
	c0.6,0,1.1,0.4,1.2,1c0,0,0,0.1,0,0.1v8.9c0,0.6-0.4,1.1-1,1.2c0,0-0.1,0-0.1,0h-17.6c-0.3-0.1-0.6,0.2-0.7,0.5c0,0.1,0,0.1,0,0.2
	v21.5c0,0.3,0.2,0.6,0.5,0.7c0.1,0,0.1,0,0.2,0h20.4c0.6,0,1.1,0.4,1.2,1c0,0,0,0.1,0,0.1v8.9c0,0.6-0.4,1.1-1,1.2c0,0-0.1,0-0.1,0
	h-32.3c-0.6,0-1.1-0.4-1.2-1c0,0,0-0.1,0-0.1L518.1,2.3z"/>
<path d="M588.6,79.8c-0.6,0.1-1.1-0.3-1.3-0.8l-9.6-31.4h-5.9c-0.3,0-0.6,0.2-0.7,0.5c0,0.1,0,0.1,0,0.2v30.3c0,0.6-0.4,1.1-1,1.2
	c0,0-0.1,0-0.1,0h-10.1c-0.6,0-1.1-0.4-1.2-1c0,0,0-0.1,0-0.1V2.3c0-0.6,0.4-1.1,1-1.2c0,0,0.1,0,0.1,0h15.9
	c14,0,22.5,6.1,22.5,23.4c0,10.3-3.5,16.8-9.4,20.1l11.1,34c0.2,0.6,0,1.2-0.6,1.2L588.6,79.8L588.6,79.8z M585.8,24.5
	c0-9.3-3-12.2-10-12.2h-4c-0.3,0-0.6,0.2-0.7,0.5c0,0.1,0,0.1,0,0.2V36c0,0.3,0.2,0.6,0.5,0.7c0.1,0,0.1,0,0.2,0h4
	C582.8,36.7,585.8,33.9,585.8,24.5z"/>
<path d="M0,103.2h9.3c6.3,0,11.5,2.8,11.5,9.6v0.2c0,7-5.2,9.7-11.5,9.7H4V136H0L0,103.2z M9.6,119.5c4.7,0,7.2-2.3,7.2-6.5v-0.2
	c0-4.6-2.8-6.4-7.2-6.4H4v13.1L9.6,119.5z"/>
<path d="M23.8,129.3c0-5.6,5.9-7.4,12-7.4h3.4v-1.7c0-3.8-1.5-5.4-5.1-5.4c-3.3,0-5.1,1.4-5.5,4.3h-3.8c0.5-5.5,4.9-7.5,9.5-7.5
	s8.8,1.9,8.8,8.6V136h-3.8v-3c-1.7,2.3-4.6,3.6-7.5,3.4C27.4,136.4,23.8,134.3,23.8,129.3z M39.3,127.6v-3H36
	c-4.8,0-8.3,1.2-8.3,4.7c0,2.5,1.2,4,4.5,4C36.2,133.4,39.3,131.3,39.3,127.6L39.3,127.6z"/>
<path d="M50.3,112h3.8v4.3c1.5-2.7,3.6-4.6,7.9-4.7v3.6c-4.8,0.2-7.9,1.7-7.9,7.7V136h-3.8V112z"/>
<path d="M68.2,130v-14.8h-3.4V112h3.4v-5.5H72v5.5h5.6v3.2H72v14.4c0,2.3,1.1,3.5,3,3.5c1,0,2-0.1,2.9-0.5v3.2
	c-1,0.4-2.2,0.5-3.3,0.5C70.3,136.3,68.2,133.8,68.2,130z"/>
<path d="M93.4,124.2v-0.4c0-7.2,5-12.2,11.8-12.2s11.8,5,11.8,12.2v0.4c0,7.2-5,12.2-11.8,12.2S93.4,131.2,93.4,124.2z M113,124.2
	v-0.3c0-5.6-3.1-9.1-7.8-9.1s-7.8,3.6-7.8,9.1v0.4c0,5.5,3,9,7.8,9S113,129.6,113,124.2L113,124.2z"/>
<path d="M123.4,115.2H120V112h3.4v-3.9c0-4.9,2.4-7.7,7.1-7.7c1,0,1.9,0.1,2.8,0.5v3.2c-0.9-0.3-1.8-0.5-2.7-0.5
	c-2.5,0-3.5,1.7-3.5,4.1v4.3h5.9v3.2h-5.9V136h-3.8V115.2z"/>
<path d="M159,103.2h5.2l11.1,32.8h-3.9l-3.2-9.5h-13.6l-3.2,9.5h-3.8L159,103.2z M155.7,123.4h11.4l-5.7-16.9L155.7,123.4z"/>
<path d="M178,124.3v-0.4c0-7.3,5.2-12.3,11.6-12.3c5,0,9.7,2.3,10.4,8.4h-3.8c-0.6-3.8-3.4-5.2-6.6-5.2c-4.4,0-7.7,3.5-7.7,9.1v0.4
	c0,5.9,3.2,9,7.8,9c3.4,0,6.5-2,6.9-5.9h3.5c-0.5,5.2-4.7,9-10.5,9C183.1,136.4,178,131.7,178,124.3z"/>
<path d="M203.8,124.3v-0.4c0-7.3,5.2-12.3,11.6-12.3c5,0,9.7,2.3,10.4,8.4h-3.8c-0.6-3.8-3.4-5.2-6.6-5.2c-4.4,0-7.7,3.5-7.7,9.1
	v0.4c0,5.9,3.2,9,7.8,9c3.4,0,6.5-2,6.9-5.9h3.5c-0.5,5.2-4.7,9-10.5,9C208.9,136.4,203.8,131.7,203.8,124.3z"/>
<path d="M229.7,124.3v-0.4c0-7.2,4.6-12.3,11.2-12.3c5.5,0,10.8,3.4,10.8,11.9v1.2h-18.1c0.2,5.5,2.8,8.5,7.7,8.5
	c3.7,0,5.9-1.4,6.4-4.2h3.8c-0.8,4.8-4.8,7.3-10.2,7.3C234.4,136.4,229.7,131.7,229.7,124.3z M247.8,121.7c-0.4-5-2.9-6.9-6.9-6.9
	s-6.5,2.7-7.1,6.9H247.8z"/>
<path d="M257.2,112h3.8v3.8c1.1-2.2,3.8-4.2,7.7-4.2c5,0,8.4,2.7,8.4,9.7V136h-3.8v-15c0-4.2-1.8-6.1-5.6-6.1
	c-3.5,0-6.7,2.2-6.7,6.6V136h-3.8V112z"/>
<path d="M285.1,130v-14.8h-3.4V112h3.4v-5.5h3.8v5.5h5.6v3.2h-5.6v14.4c0,2.3,1.1,3.5,3,3.5c1,0,2-0.1,2.9-0.5v3.2
	c-1,0.4-2.1,0.5-3.2,0.5C287.2,136.3,285.1,133.8,285.1,130z"/>
<path d="M300,127.2V112h3.8v15c0,4.2,1.8,6.1,5.5,6.1c3.5,0.2,6.4-2.5,6.6-6c0-0.2,0-0.4,0-0.6V112h3.8v24h-3.8v-3.8
	c-1.1,2.2-3.8,4.2-7.6,4.2C303.6,136.4,300,133.8,300,127.2z"/>
<path d="M327.1,112h3.8v4.3c1.5-2.7,3.6-4.6,7.9-4.7v3.6c-4.8,0.2-7.9,1.7-7.9,7.7V136h-3.8V112z"/>
<path d="M341.6,124.3v-0.4c0-7.2,4.6-12.3,11.2-12.3c5.5,0,10.8,3.4,10.8,11.9v1.2h-18.1c0.2,5.5,2.8,8.5,7.7,8.5
	c3.7,0,5.9-1.4,6.4-4.2h3.8c-0.8,4.8-4.8,7.3-10.2,7.3C346.4,136.4,341.6,131.7,341.6,124.3z M359.7,121.7c-0.4-5-2.9-6.9-6.9-6.9
	s-6.5,2.7-7.1,6.9H359.7z"/>
<path d="M381.4,103.2h4V136h-4V103.2z"/>
<path d="M393.3,112h3.8v3.8c1.1-2.2,3.8-4.2,7.7-4.2c5,0,8.4,2.7,8.4,9.7V136h-3.8v-15c0-4.2-1.8-6.1-5.6-6.1
	c-3.5,0-6.7,2.2-6.7,6.6V136h-3.8V112z"/>
<path d="M421.2,130v-14.8h-3.4V112h3.4v-5.5h3.8v5.5h5.6v3.2H425v14.4c0,2.3,1.1,3.5,3,3.5c1,0,2-0.1,2.9-0.5v3.2
	c-1,0.4-2.1,0.5-3.2,0.5C423.3,136.3,421.2,133.8,421.2,130z"/>
<path d="M434.5,124.3v-0.4c0-7.2,4.6-12.3,11.2-12.3c5.5,0,10.8,3.4,10.8,11.9v1.2h-18c0.2,5.5,2.8,8.5,7.7,8.5
	c3.7,0,5.9-1.4,6.4-4.2h3.9c-0.8,4.8-4.8,7.3-10.2,7.3C439.4,136.4,434.5,131.7,434.5,124.3z M452.6,121.7c-0.4-5-2.9-6.9-6.9-6.9
	s-6.5,2.7-7.2,6.9H452.6z"/>
<path d="M462,112h3.8v4.3c1.5-2.7,3.6-4.6,7.9-4.7v3.6c-4.8,0.2-7.9,1.7-7.9,7.7V136H462V112z"/>
<path d="M476.8,129.3c0-5.6,5.9-7.4,12-7.4h3.4v-1.7c0-3.8-1.5-5.4-5.1-5.4c-3.3,0-5.1,1.4-5.5,4.3h-3.8c0.5-5.5,4.9-7.5,9.5-7.5
	s8.8,1.9,8.8,8.6V136h-3.8v-3c-1.7,2.3-4.6,3.6-7.5,3.4C480.3,136.4,476.8,134.3,476.8,129.3z M492.2,127.6v-3h-3.3
	c-4.8,0-8.3,1.2-8.3,4.7c0,2.5,1.2,4,4.5,4C489.1,133.4,492.2,131.3,492.2,127.6L492.2,127.6z"/>
<path d="M501.4,124.3v-0.4c0-7.3,5.2-12.3,11.7-12.3c5,0,9.7,2.3,10.4,8.4h-3.8c-0.6-3.8-3.3-5.2-6.7-5.2c-4.4,0-7.7,3.5-7.7,9.1
	v0.4c0,5.9,3.2,9,7.8,9c3.4,0,6.5-2,6.9-5.9h3.5c-0.5,5.2-4.7,9-10.5,9C506.4,136.4,501.4,131.7,501.4,124.3z"/>
<path d="M529.8,130v-14.8h-3.4V112h3.4v-5.5h3.8v5.5h5.6v3.2h-5.6v14.4c0,2.3,1.1,3.5,3,3.5c1,0,2-0.1,2.9-0.5v3.2
	c-1,0.4-2.1,0.5-3.2,0.5C531.9,136.3,529.8,133.8,529.8,130z"/>
<path d="M544.3,104.5c0-1.4,1.1-2.5,2.5-2.5c1.4,0,2.5,1.1,2.5,2.5c0,1.4-1.1,2.5-2.5,2.5C545.5,107,544.4,105.9,544.3,104.5z
	 M545,112h3.8v24H545V112z"/>
<path d="M553.6,112h4.1l7.1,20.1l7-20.1h3.9l-8.6,24h-4.8L553.6,112z"/>
<path d="M578,124.3v-0.4c0-7.2,4.6-12.3,11.2-12.3c5.5,0,10.8,3.4,10.8,11.9v1.2h-18.1c0.2,5.5,2.8,8.5,7.7,8.5
	c3.7,0,5.9-1.4,6.4-4.2h3.8c-0.8,4.8-4.8,7.3-10.2,7.3C582.8,136.4,578,131.7,578,124.3z M596.1,121.7c-0.4-5-2.9-6.9-6.9-6.9
	s-6.5,2.7-7.2,6.9H596.1z"/>
</svg>
