<svg width="324" height="360" viewBox="0 0 324 360" fill="none" xmlns="http://www.w3.org/2000/svg">
    <path fill-rule="evenodd" clip-rule="evenodd"
        d="M162 8.60717e-07C153.923 -0.00156197 145.988 2.12517 138.995 6.166L23.02 73.146C16.0196 77.19 10.2069 83.0054 6.16607 90.0077C2.12525 97.0099 -0.00134118 104.952 6.34591e-07 113.037V246.965C-0.00116565 255.049 2.12551 262.992 6.16632 269.994C10.2071 276.996 16.0197 282.811 23.02 286.855L138.995 353.835C145.988 357.875 153.923 360.002 162 360C170.078 360.002 178.013 357.875 185.007 353.834L300.982 286.854C307.982 282.81 313.795 276.994 317.835 269.992C321.876 262.99 324.002 255.047 324 246.963V113.036C324.002 104.952 321.875 97.0095 317.835 90.0074C313.794 83.0053 307.982 77.19 300.982 73.146L185.007 6.167C178.013 2.12561 170.078 -0.00146802 162 8.60717e-07Z"
        fill="#231F20" />
    <mask id="mask0_18_369" style="mask-type:alpha" maskUnits="userSpaceOnUse" x="7" y="7" width="310" height="346">
        <path
            d="M161.75 7.001C168.555 7.00456 175.24 8.79677 181.134 12.198L297.109 79.178C309.071 86.087 316.501 98.964 316.501 112.786V246.714C316.501 260.536 309.071 273.414 297.109 280.322L181.134 347.302C175.24 350.705 168.555 352.497 161.75 352.5C154.945 352.497 148.261 350.705 142.368 347.303L26.393 280.323C14.43 273.413 7 260.536 7 246.714V112.786C7 98.964 14.43 86.086 26.394 79.178L142.369 12.198C148.262 8.7968 154.946 7.00425 161.75 7"
            fill="#7a0283" />
    </mask>
    <g mask="url(#mask0_18_369)">
        <path
            d="M161.75 7.001C168.555 7.00456 175.24 8.79677 181.134 12.198L297.109 79.178C309.071 86.087 316.501 98.964 316.501 112.786V246.714C316.501 260.536 309.071 273.414 297.109 280.322L181.134 347.302C175.24 350.705 168.555 352.497 161.75 352.5C154.945 352.497 148.261 350.705 142.368 347.303L26.393 280.323C14.43 273.413 7 260.536 7 246.714V112.786C7 98.964 14.43 86.086 26.394 79.178L142.369 12.198C148.262 8.7968 154.946 7.00425 161.75 7"
            fill="#7a0283" />
        <path d="M101 183L99 143L139 163L141 203L101 183Z" fill="#9b03a6" />
        <path d="M139 163.008L137 123.008L177 143.008L179 183.008L139 163.008Z" fill="#9b03a6" />
        <path d="M97 103.008L95 63.0085L135 83.0085L137 123.008L97 103.008Z" fill="#9b03a6" />
        <path d="M59 123.008L57 83.0085L97 103.008L99 143.008L59 123.008Z" fill="#9b03a6" />
        <path d="M219 203L217 163L257 183L259 223L219 203Z" fill="#9b03a6" />
        <path d="M257 183.008L255 143.008L295 163.008L297 203.008L257 183.008Z" fill="#9b03a6" />
        <path d="M215 123.008L213 83.0085L253 103.008L255 143.008L215 123.008Z" fill="#9b03a6" />
        <path d="M177 143.008L175 103.008L215 123.008L217 163.008L177 143.008Z" fill="#9b03a6" />
        <path d="M189 383L187 343L227 363L229 403L189 383Z" fill="#9b03a6" />
        <path d="M227 363.008L225 323.008L265 343.008L267 383.008L227 363.008Z" fill="#9b03a6" />
        <path d="M265 343L263 303L303 323L305 363L265 343Z" fill="#9b03a6" />
        <path d="M303 323.008L301 283.008L341 303.008L343 343.008L303 323.008Z" fill="#9b03a6" />
        <path d="M-21 83L-23 43L17 63L19 103L-21 83Z" fill="#9b03a6" />
        <path d="M17 63.0084L15 23.0084L55 43.0084L57 83.0084L17 63.0084Z" fill="#9b03a6" />
        <path d="M55 43L53 3L93 23L95 63L55 43Z" fill="#9b03a6" />
        <path d="M-25 3.01688L-27 -36.9831L13 -16.9831L15 23.0169L-25 3.01688Z" fill="#9b03a6" />
        <path d="M93 23.0085L91 -16.9915L131 3.00845L133 43.0085L93 23.0085Z" fill="#9b03a6" />
        <path d="M181 223.008L179 183.008L219 203.008L221 243.008L181 223.008Z" fill="#9b03a6" />
        <path d="M143 243.008L141 203.008L181 223.008L183 263.008L143 243.008Z" fill="#9b03a6" />
        <path d="M135 83L133 43L173 63L175 103L135 83Z" fill="#9b03a6" />
        <path d="M173 63.0084L171 23.0084L211 43.0084L213 83.0084L173 63.0084Z" fill="#9b03a6" />
        <path d="M131 3.00845L129 -36.9915L169 -16.9915L171 23.0085L131 3.00845Z" fill="#9b03a6" />
        <path d="M25 223L23 183L63 203L65 243L25 223Z" fill="#9b03a6" />
        <path d="M63 203.008L61 163.008L101 183.008L103 223.008L63 203.008Z" fill="#9b03a6" />
        <path d="M21 143.008L19 103.008L59 123.008L61 163.008L21 143.008Z" fill="#9b03a6" />
        <path d="M-17 163.008L-19 123.008L21 143.008L23 183.008L-17 163.008Z" fill="#9b03a6" />
        <path d="M105 263.008L103 223.008L143 243.008L145 283.008L105 263.008Z" fill="#9b03a6" />
        <path d="M67 283.008L65 243.008L105 263.008L107 303.008L67 283.008Z" fill="#9b03a6" />
        <path d="M-13 243.008L-15 203.008L25 223.008L27 263.008L-13 243.008Z" fill="#9b03a6" />
        <path d="M71 363.008L69 323.008L109 343.008L111 383.008L71 363.008Z" fill="#9b03a6" />
        <path d="M29 303.017L27 263.017L67 283.017L69 323.017L29 303.017Z" fill="#9b03a6" />
        <path d="M211 43.0084L209 3.00842L249 23.0084L251 63.0084L211 43.0084Z" fill="#9b03a6" />
        <path d="M295 163.008L293 123.008L333 143.008L335 183.008L295 163.008Z" fill="#9b03a6" />
        <path d="M291 83.0084L289 43.0084L329 63.0084L331 103.008L291 83.0084Z" fill="#9b03a6" />
        <path d="M253 103.017L251 63.0168L291 83.0168L293 123.017L253 103.017Z" fill="#9b03a6" />
        <path d="M249 23.0169L247 -16.9831L287 3.01688L289 43.0169L249 23.0169Z" fill="#9b03a6" />
        <path d="M299 243.008L297 203.008L337 223.008L339 263.008L299 243.008Z" fill="#006600" />
        <path d="M261 263.008L259 223.008L299 243.008L301 283.008L261 263.008Z" fill="#FF007F" />
        <path d="M223 283.008L221 243.008L261 263.008L263 303.008L223 283.008Z" fill="#EAEAEA" />
        <path d="M185 303L183 263L223 283L225 323L185 303Z" fill="#219E87" />
        <path d="M147 323.008L145 283.008L185 303.008L187 343.008L147 323.008Z" fill="#4B81B6" />
        <path d="M109 343L107 303L147 323L149 363L109 343Z" fill="#E98B23" />
    </g>
    <path
        d="M114.6 234.16C120.36 234.16 125.347 233.2 129.56 231.28C133.773 229.36 137.24 226.747 139.96 223.44C142.68 220.133 144.707 216.24 146.04 211.76C147.373 207.28 148.04 202.533 148.04 197.52V127.92H124.52V195.6C124.52 202.533 123.427 207.307 121.24 209.92C119.053 212.533 115.827 213.84 111.56 213.84C108.893 213.84 106.28 212.987 103.72 211.28C101.16 209.573 98.92 206.96 97 203.44L81 215.28C84.627 221.68 89.133 226.427 94.52 229.52C99.907 232.613 106.6 234.16 114.6 234.16ZM204.04 234.16C210.227 234.16 215.773 233.28 220.68 231.52C225.587 229.76 229.72 227.413 233.08 224.48C236.44 221.547 239 218.133 240.76 214.24C242.52 210.347 243.4 206.213 243.4 201.84C243.4 194.48 241.56 188.56 237.88 184.08C234.2 179.6 229.16 176.08 222.76 173.52L209.32 168.08C207.08 167.12 205 166.24 203.08 165.44C201.16 164.64 199.48 163.787 198.04 162.88C196.6 161.973 195.48 160.96 194.68 159.84C193.88 158.72 193.48 157.36 193.48 155.76C193.48 152.773 194.68 150.453 197.08 148.8C199.48 147.147 202.707 146.32 206.76 146.32C210.92 146.32 214.707 147.04 218.12 148.48C221.533 149.92 224.947 151.973 228.36 154.64L240.36 139.76C235.88 135.28 230.68 131.867 224.76 129.52C218.84 127.173 212.84 126 206.76 126C201.32 126 196.333 126.8 191.8 128.4C187.267 130 183.347 132.213 180.04 135.04C176.733 137.867 174.173 141.173 172.36 144.96C170.547 148.747 169.64 152.773 169.64 157.04C169.64 160.88 170.227 164.32 171.4 167.36C172.573 170.4 174.147 173.067 176.12 175.36C178.086 177.647 180.346 179.664 182.84 181.36C185.347 183.067 187.933 184.453 190.6 185.52L204.2 191.28L210.36 193.92C212.227 194.72 213.827 195.573 215.16 196.48C216.493 197.387 217.507 198.427 218.2 199.6C218.893 200.773 219.24 202.16 219.24 203.76C219.24 206.853 218.04 209.307 215.64 211.12C213.24 212.933 209.587 213.84 204.68 213.84C200.307 213.84 195.853 212.827 191.32 210.8C186.829 208.8 182.652 206.159 178.92 202.96L165.48 219.12C170.813 224.133 176.867 227.893 183.64 230.4C190.413 232.907 197.213 234.16 204.04 234.16Z"
        fill="#fff" />
</svg>