<?xml version="1.0" encoding="UTF-8"?>
<svg width="120px" height="27px" viewBox="0 0 120 27" version="1.1" xmlns="http://www.w3.org/2000/svg" xmlns:xlink="http://www.w3.org/1999/xlink">
    <title>Artboard</title>
    <g id="Artboard" stroke="none" stroke-width="1" fill="none" fill-rule="evenodd">
        <g id="HipSquare" transform="translate(3.000000, 7.000000)" fill-rule="nonzero">
            <path d="M26.8679547,3.60196333 C28.2906803,3.60196333 29.3754923,4.06215652 30.1224233,4.9825567 C30.8693542,5.90295688 31.2428141,7.24213498 31.2428141,9.00013118 C31.2428141,10.707171 30.8499537,12.0304254 30.0642212,12.9699343 C29.2784886,13.9094431 28.2066103,14.3791905 26.848554,14.3791905 C25.2253534,14.3791905 24.0419221,13.7804616 23.2982246,12.5829859 L23.2303221,12.5829859 L23.2594232,13.3855454 C23.2852909,13.8568922 23.2982246,14.3728182 23.2982246,14.9333387 L23.2982246,18.8888103 L22.3378896,18.8888103 L22.3378896,3.80260319 L23.1527193,3.80260319 L23.337026,5.2835165 L23.3952281,5.2835165 C24.1195248,4.16247545 25.2770888,3.60196333 26.8679547,3.60196333 Z M0.963172805,5.5067062e-14 L0.963172805,6.21477428 L9.02738432,6.21477428 L9.02738432,5.5067062e-14 L10,5.5067062e-14 L10,14 L9.02738432,14 L9.02738432,7.11491108 L0.963172805,7.11491108 L0.963172805,14 L-1.20081722e-12,14 L-1.20081722e-12,5.5067062e-14 L0.963172805,5.5067062e-14 Z M17,4 L17,14 L16,14 L16,4 L17,4 Z M26.8679547,4.46184847 C25.6392371,4.46184847 24.7371133,4.79465254 24.1615561,5.46027067 C23.5859989,6.12588879 23.2982246,7.21028866 23.2982246,8.7135028 L23.2982246,8.7135028 L23.2989862,9.16561655 C23.3152335,10.7133054 23.5914372,11.8237551 24.1276048,12.4969974 C24.6805277,13.1912785 25.5810349,13.5384139 26.8291533,13.5384139 L26.8291533,13.5384139 L27.0568403,13.5323694 C28.0272914,13.4799838 28.7872362,13.0870916 29.3366946,12.3536832 C29.9284192,11.5638589 30.224277,10.4587583 30.224277,9.0383483 C30.224277,5.98733316 29.1055141,4.46184847 26.8679547,4.46184847 Z M16.4883721,0 C16.6485796,0 16.7739014,0.0863549223 16.8643411,0.259067358 C16.9547808,0.431779793 17,0.677027772 17,0.994818653 C17,1.30570104 16.9547808,1.55094902 16.8643411,1.73056995 C16.7739014,1.91019088 16.6485796,2 16.4883721,2 C16.1627891,2 16,1.6649429 16,0.994818653 C16,0.331602902 16.1627891,0 16.4883721,0 Z" id="Combined-Shape" fill="#413E66"></path>
            <path d="M44.4536833,10.3090675 C44.4536833,11.5702386 43.9929211,12.5638738 43.071383,13.2900026 C42.1498448,14.0161315 40.8677942,14.3791905 39.2251928,14.3791905 C37.7119301,14.3791905 36.3732947,14.0989344 35.2092465,13.5384139 L35.2092465,10.7867814 C36.1663528,11.2071718 36.9763242,11.5033515 37.639185,11.6753294 C38.3020458,11.8473073 38.9083118,11.933295 39.4580013,11.933295 C40.1176286,11.933295 40.6236587,11.8090906 40.9761066,11.5606781 C41.3285545,11.3122655 41.5047759,10.9428371 41.5047759,10.4523816 C41.5047759,10.1784909 41.4271738,9.93485925 41.2719674,9.72147927 C41.116761,9.5080993 40.8888049,9.30268435 40.5880925,9.10522825 L40.5099307,9.05557641 C40.1873457,8.85657188 39.6006654,8.55783373 38.7498755,8.15935459 C37.8833062,7.75807285 37.2333891,7.37272077 36.8001044,7.00328679 C36.3668198,6.63385281 36.020844,6.20391453 35.7621666,5.71345907 C35.5034892,5.22300361 35.3741525,4.64975258 35.3741525,3.99368878 C35.3741525,2.7579958 35.799347,1.78665378 36.649749,1.07963357 C37.5001509,0.372613361 38.6754986,0.0191085588 40.1758274,0.0191085588 C40.913058,0.0191085588 41.6163266,0.105096213 42.2856543,0.277074102 C42.9549821,0.449051991 43.6550172,0.691091315 44.3857808,1.00319934 L43.4157455,3.30578067 L43.1381477,3.19545818 C42.5047435,2.94814106 41.9716075,2.77153774 41.5387271,2.66564395 C41.0440066,2.54462247 40.5573771,2.48411264 40.0788239,2.48411264 C39.5097337,2.48411264 39.0732221,2.61468649 38.7692762,2.87583809 C38.4653303,3.1369897 38.3133596,3.47775559 38.3133596,3.89814599 C38.3133596,4.1592976 38.3747945,4.38700565 38.4976663,4.58127696 C38.6205381,4.77554828 38.8161599,4.96344723 39.0845377,5.14497945 L39.1476644,5.18609711 C39.3997254,5.34499416 39.8783467,5.59334669 40.5835377,5.93115946 L40.9906571,6.12429309 C42.3163787,6.74850913 43.2249694,7.37430817 43.7164565,8.00170898 C44.2079435,8.6291098 44.4536833,9.3982216 44.4536833,10.3090675 Z M53.1829892,12.0957177 C53.9331537,12.0957177 54.4828349,11.8839333 54.8320493,11.4603581 C55.1812638,11.036783 55.3720355,10.2963337 55.4043702,9.23898816 L55.4043702,8.88547983 C55.4043702,7.73896057 55.2249154,6.91730076 54.8660006,6.42047575 C54.5070857,5.92365073 53.9299204,5.67524195 53.1344875,5.67524195 C51.7440965,5.67524195 51.0489115,6.75168 51.0489115,8.90458839 C51.0489115,9.97467303 51.2218994,10.7740397 51.5678804,11.3027125 C51.9138614,11.8313853 52.4522256,12.0957177 53.1829892,12.0957177 Z M52.1256507,14.3791905 C50.8451976,14.3791905 49.8428378,13.8935195 49.1185411,12.9221629 C48.3942445,11.9508063 48.0321015,10.5988893 48.0321015,8.86637127 C48.0321015,7.12111417 48.402328,5.75805061 49.142792,4.77713969 C49.883256,3.79622877 50.8969328,3.30578067 52.1838528,3.30578067 C52.8693479,3.30578067 53.4675304,3.43316978 53.9784182,3.68795184 C54.4893061,3.9427339 54.9387513,4.33764017 55.3267674,4.87268249 L55.4043702,4.87268249 L55.6662797,3.50642053 L58.1689709,3.50642053 L58.1689709,18.8888103 L55.2006628,18.8888103 L55.2006628,14.4078533 C55.2006628,14.0193107 55.2426972,13.4842764 55.3267674,12.8027344 L55.2006628,12.8027344 C54.883783,13.318668 54.4634385,13.7103896 53.9396168,13.9779107 C53.4157951,14.2454319 52.8111458,14.3791905 52.1256507,14.3791905 Z M70.8463207,14.1881049 L70.4486062,12.8218429 L70.2934005,12.8218429 C69.9765207,13.3186679 69.5270755,13.7024277 68.9450514,13.9731336 C68.3630273,14.2438395 67.7001764,14.3791905 66.956479,14.3791905 C65.6824928,14.3791905 64.7221674,14.0432017 64.075474,13.371214 C63.4287805,12.6992263 63.1054386,11.7326614 63.1054386,10.4714902 L63.1054386,3.50642053 L66.0640464,3.50642053 L66.0640464,9.74536497 C66.0640464,10.5160807 66.2030834,11.0941088 66.4811616,11.4794667 C66.7592398,11.8648245 67.2022182,12.0575006 67.8101101,12.0575006 C68.6378777,12.0575006 69.2360602,11.7852063 69.6046754,11.2406097 C69.9732907,10.696013 70.1575956,9.79314267 70.1575956,8.53197149 L70.1575956,3.50642053 L73.1162034,3.50642053 L73.1162034,14.1881049 L70.8463207,14.1881049 Z M85.0078246,14.1881049 L84.4355037,12.7358544 L84.3579009,12.7358544 C83.8599469,13.3537009 83.34745,13.7820468 82.8203948,14.020905 C82.2933397,14.2597632 81.6062382,14.3791905 80.7590697,14.3791905 C79.7178933,14.3791905 78.8982216,14.0861955 78.3000301,13.5001968 C77.7018387,12.914198 77.4027474,12.0797993 77.4027474,10.9969756 C77.4027474,9.86319542 77.8053081,9.02720433 78.6104414,8.48897723 C79.4155748,7.95075014 80.6297236,7.65297807 82.2529242,7.59565211 L84.1347927,7.53832643 L84.1347927,7.07016674 C84.1347927,5.987343 83.5721779,5.44593925 82.4469312,5.44593925 C81.580362,5.44593925 80.5618351,5.70390221 79.3913199,6.21983588 L78.4115842,4.25165433 C79.6597026,3.60832963 81.0436058,3.28667211 82.5633355,3.28667211 C84.0183958,3.28667211 85.1339253,3.59877545 85.9099574,4.22299149 C86.6859896,4.84720753 87.0739998,5.79625646 87.0739998,7.07016674 L87.0739998,14.1881049 L85.0078246,14.1881049 Z M84.1347927,9.23898816 L82.990151,9.27720528 C82.1300487,9.30268349 81.4898318,9.45555043 81.069481,9.73581069 C80.6491303,10.016071 80.4389581,10.4428245 80.4389581,11.0160841 C80.4389581,11.8377563 80.9175041,12.2485862 81.8746104,12.2485862 C82.5601055,12.2485862 83.1081699,12.0543178 83.5188203,11.6657751 C83.9294706,11.2772325 84.1347927,10.7613066 84.1347927,10.1179819 L84.1347927,9.23898816 Z M98.0731885,3.30578067 C98.4741384,3.30578067 98.8071806,3.33444322 99.0723249,3.39176918 L98.8492167,6.12429309 C98.6099402,6.06059757 98.3189325,6.02875029 97.9761849,6.02875029 C97.0320125,6.02875029 96.2964097,6.26760489 95.7693545,6.74532125 C95.2422993,7.2230376 94.9787757,7.89183047 94.9787757,8.75171992 L94.9787757,14.1881049 L92.0201679,14.1881049 L92.0201679,3.50642053 L94.2609496,3.50642053 L94.6974655,5.30262506 L94.8429708,5.30262506 C95.1792514,4.70388722 95.6335467,4.22140094 96.2058704,3.85515173 C96.7781941,3.48890252 97.4006273,3.30578067 98.0731885,3.30578067 Z M107.035303,5.37905929 C106.40801,5.37905929 105.916531,5.57492006 105.560849,5.96664748 C105.205168,6.35837489 105.001462,6.91410992 104.949727,7.63386923 L109.101478,7.63386923 C109.088544,6.91410992 108.897773,6.35837489 108.529157,5.96664748 C108.160542,5.57492006 107.662596,5.37905929 107.035303,5.37905929 Z M107.452418,14.3791905 C105.706346,14.3791905 104.341843,13.904666 103.358869,12.9556028 C102.375895,12.0065397 101.884415,10.6625845 101.884415,8.92369694 C101.884415,7.13385299 102.338711,5.7500887 103.247315,4.77236255 C104.155919,3.79463641 105.412102,3.30578067 107.015902,3.30578067 C108.548566,3.30578067 109.741697,3.73571894 110.595333,4.59560838 C111.448968,5.45549783 111.875779,6.64340135 111.875779,8.15935459 L111.875779,9.57338794 L104.881824,9.57338794 C104.914159,10.4014296 105.163132,11.0479294 105.628752,11.5129067 C106.094371,11.9778839 106.747522,12.2103691 107.588223,12.2103691 C108.241383,12.2103691 108.858966,12.1434898 109.440991,12.0097292 C110.023015,11.8759686 110.630897,11.6625918 111.264657,11.3695925 L111.264657,13.6244024 C110.747302,13.8791845 110.194388,14.0686758 109.605897,14.192882 C109.017405,14.3170883 108.299586,14.3791905 107.452418,14.3791905 Z" id="Square" fill="#1BCADC"></path>
        </g>
    </g>
</svg>