<svg xmlns="http://www.w3.org/2000/svg" viewBox="0 0 283.46 90.26"><path d="M346.4,178.63a45.13,45.13,0,1,0-45.13-45.13A45.12,45.12,0,0,0,346.4,178.63Z" transform="translate(-301.27 -88.37)" fill="#dfe4e8"/><path d="M346.4,90.23a43.27,43.27,0,1,0,43.27,43.27A43.27,43.27,0,0,0,346.4,90.23Z" transform="translate(-301.27 -88.37)" fill="#002856"/><path d="M370.31,101.72a33.81,33.81,0,0,0-57.72,24V142h0a33.82,33.82,0,0,0,67.62-.07V125.69A33.69,33.69,0,0,0,370.31,101.72Zm-.64,62.87A32.91,32.91,0,0,1,313.5,142a32.34,32.34,0,0,1,1.15-7,34,34,0,0,0,63.38-.05,32.57,32.57,0,0,1,1.27,6.82A32.8,32.8,0,0,1,369.67,164.59Zm-54.51-31.05a32.06,32.06,0,0,1,8.65-13.43,33.16,33.16,0,0,1,22.7-8.86,32.72,32.72,0,0,1,22.45,9,33.44,33.44,0,0,1,8.68,13.28,33.07,33.07,0,0,1-62.48,0Zm64.15,2.69a34.07,34.07,0,0,0-9.8-16.56,33.61,33.61,0,0,0-23.07-9.24,34.09,34.09,0,0,0-23.32,9.1,33.19,33.19,0,0,0-9.63,16.39v-10.2a32.91,32.91,0,1,1,65.82,0Z" transform="translate(-301.27 -88.37)" fill="#dfe4e8"/><path d="M338.77,98.86a32.51,32.51,0,0,1,4.29-.66L346.4,105l3.33-6.84a39.48,39.48,0,0,1,4.29.66l3,8.93.69-7.91a31.89,31.89,0,0,1,6.75,2.83c2.22,1.18,2.6,2.53,2.42,3.91,0,0-.19,1.41-1.84.82,0,0,2.87,1.52,2.23,4.37-.24,1-1.26,1.55-2.8.68a36,36,0,0,0-4.73-2.33,31.69,31.69,0,0,0-5.53-1.64l-.64-1.9a36.44,36.44,0,0,0-4.45-.57l-.76,1.68c-1.12,0-2.85,0-4,0l-.77-1.68a39.55,39.55,0,0,0-4.45.57l-.64,1.9c-1.06.22-2.11.47-3.37.85l.19-.59a19.06,19.06,0,0,1-3.82,2.39c-1.35.66-5,2.51-5.89.72a2.72,2.72,0,0,1-.25-1.27c1.08-.72,2.64-1.52,3.75-2.14,0,0-.55,2.26,1.73,1a4.09,4.09,0,0,0,2-1.83c.53-1.47-1.09-1.18-1.7-1-1,.31-4.85,1.61-4.86-1,0-1.84,2.47-3.72,5.12-4.81,4-1.64,5.35-.14,5.24,1.09-1.61.45-2,.58-3.32,1,0-.46-.31-1.14-2-.46s-2.06,1.45-1.83,2.14c.3.93,2.87-.06,3.51-.19,3.6-.78,3.13,1.65,3.12,1.72S338.76,98.86,338.77,98.86Zm1,6a29.84,29.84,0,0,1,3.1-.44s-1.71-3.75-1.71-3.75Zm20.34,3.24a31.22,31.22,0,0,1,3.33,1.59s.8.6,1.19.08.09-1.2-1.25-1.92a32.37,32.37,0,0,0-3.12-1.45Zm.34-3.74s1.37.57,2.3,1a2.37,2.37,0,0,0,1,.36.52.52,0,0,0,.49-.39c.1-.92-.93-1.33-1.29-1.51a25.15,25.15,0,0,0-2.33-1.06S360.45,104.32,360.45,104.32Zm-10.53.06a23.73,23.73,0,0,1,3.1.44s-1.39-4.19-1.39-4.19Z" transform="translate(-301.27 -88.37)" fill="#e0b347"/><path d="M329.86,132.79a5.26,5.26,0,0,0,2.94.72c2.19-.31,2.83-1.17,4.83-.59a4.3,4.3,0,0,1,1.63,1,4.8,4.8,0,0,0-1.08-.22c-2.13-.12-3.84,1.51-5.93,1A3.39,3.39,0,0,1,329.86,132.79Z" transform="translate(-301.27 -88.37)" fill="#dfe4e8"/><path d="M341.74,133.09c-.69.59-2.22,3.87-6.09,2a4.17,4.17,0,0,0,.75,2.53,3.2,3.2,0,0,0,2.9,1.09h0c-1.19,1.11-.4,2.8-.29,5.3a4.6,4.6,0,0,1,1.89-2,10.62,10.62,0,0,0-1.24,3.42c-.09,1.88,1.85,3.52,3.55,6,.5-2.9.38-4,.91-5.66a29.32,29.32,0,0,1,.77,7.93c2.92-2.33,6.27-2.39,4.79-8.55a12.67,12.67,0,0,1,2,4.63h0c1.38-2.24,4.62-3.67,2.14-9.58,1.35,1.11,1.84,3,2.38,3.74.39-2.84,2-7.16-1.52-10.43l0,0a5.71,5.71,0,0,1,2.63,2c0-2.54,1.6-4-2-8.38a10.12,10.12,0,0,0,1.33-3.71,12.25,12.25,0,0,0-4.11,1,1.18,1.18,0,0,0-1-.66H341.26c-.72,0-1.37,1-1.78,2.81a3.71,3.71,0,0,0-.81-.46c-1.26-.48-4.2-.51-5.07,2.18a8.34,8.34,0,0,0-.1,3.48s3.22-2.42,4.8.38m2.39-2.81c-.52-.31-.88-1.28-.27-1.77.45-.35,1.73.3.77,1.33a.94.94,0,0,0,1.44-.64l.31,0C342.81,129,341.93,130.24,340.69,129.43Z" transform="translate(-301.27 -88.37)" fill="#dfe4e8"/><path d="M351.52,123.21a1.11,1.11,0,0,1,.63.23l4.05-8.79c-4.37,0-2.8,2.91-2.73,3.08s-.22.09-.22.09a1.51,1.51,0,1,0-1,2.6,1.58,1.58,0,0,0,.38,0,3.29,3.29,0,0,1-5.32-.83c-.18-.27.25.33.93.33a1.51,1.51,0,1,0-.86-2.75v0a1.53,1.53,0,0,0,.58-1.19,1.51,1.51,0,0,0-1.51-1.51h0a1.51,1.51,0,0,0-.93,2.7v0a1.51,1.51,0,0,0-2.37,1.24,1.5,1.5,0,0,0,1.5,1.51c.69,0,1.12-.6.94-.32a3.3,3.3,0,0,1-5.32.83,1.58,1.58,0,0,0,.38,0,1.51,1.51,0,1,0-1-2.6s-.29.08-.22-.09,1.64-3.07-2.73-3.07l4,8.78a1.14,1.14,0,0,1,.63-.22Z" transform="translate(-301.27 -88.37)" fill="#e0b347"/><path d="M356.37,133.11c.23-1,.12-2.29-1.94-4.5a19.54,19.54,0,0,1-2.11,2c.26,2.68.37,6.81-1.89,9a8.44,8.44,0,0,0-1-3.66,8,8,0,0,1-3.36,6.34,17,17,0,0,0,.13-4.6,4.1,4.1,0,0,1-2.53,2.63l-.56-3s1.09-.77,1.09-.81.35,1.73.35,1.73c1.15-1.09.24-2.83,1.33-3.22.58-.19.89.25,1.07.61a6.68,6.68,0,0,1,.54,3.09,9,9,0,0,0,.46-5,.86.86,0,0,1,.58-1,1,1,0,0,1,1,.44,8.33,8.33,0,0,1,1.4,3,9.28,9.28,0,0,0,0-5.17c-.06-.3-.16-.61-.16-.61a13.38,13.38,0,0,0,3.84-4.87,27.47,27.47,0,0,0-5.08,2.39l-.6-.63,2.28-1.78c.14-.11.2-.28-.2-.29h-8.42c-.8,0-1.59.26-1.59,1.6l1,.89a2.92,2.92,0,0,1,2.52.37l-.16.72s-.54-.38-.82-.17c-.69,1.79-1.85,2-2.8,1.69s-1.21-1.66-1.37-2.32c-1.81-1-4.63-1.22-4.84,2a3.51,3.51,0,0,1,4.43,1.27l5,1.45c-1.71,1.28-4,5.33-6.83,4,2,2.12,4.15-.53,4.84.58s-2.57,1.49-2,4.5c.48-.5,1.47-1.54,2.14-.92a.77.77,0,0,1,.07,1c-1.42,3-2,4.41.29,6.8.49-3.68.7-4.68,1.67-4.72,1.42,0,1.88,6.19,2,7.73,2.82-1.84,3.25-2.16,2.35-6.68-.19-.81-.06-1.27.49-1.49a1.14,1.14,0,0,1,1.34.57A14.77,14.77,0,0,1,352,147.4c.72-1.2,2.61-2,.55-7-.34-.62-.28-1.14.18-1.43,1-.69,2.42,1,2.91,1.85-.1-1.76.75-4-2-6.76-.45-.54-.45-.94-.08-1.31C354.18,132.11,355.6,132.66,356.37,133.11Z" transform="translate(-301.27 -88.37)" fill="#d51224"/><path d="M343.66,131.41c1.49-.3,1.23,1,2.93,1.37-1.42.53-2.07-1.14-2.93-1.37h0" transform="translate(-301.27 -88.37)" fill="#dfe4e8"/><path d="M352.74,126.92a4.14,4.14,0,0,1-2.47,1.91A3.77,3.77,0,0,1,352.74,126.92Z" transform="translate(-301.27 -88.37)" fill="#dfe4e8"/><path d="M322.46,151.71a6.28,6.28,0,0,1-.88-.85v-1.41a22.15,22.15,0,0,0,2.79,2.45v1.37c-.35-.26-.68-.55-1-.81v8.4l-.89-.73Z" transform="translate(-301.27 -88.37)" fill="#dfe4e8"/><path d="M325.06,152.43a22.64,22.64,0,0,0,2.5,1.66v1.34a15.63,15.63,0,0,1-1.62-1l0,2.58c.59.39,1.07.68,1.48.93v1.13c-.5-.29-.92-.53-1.48-.92v3.32c.55.37,1,.62,1.73,1.07V164c-1.32-.82-1.47-.93-2.65-1.75Z" transform="translate(-301.27 -88.37)" fill="#dfe4e8"/><path d="M331.57,165.49c-2.67,1.45-4.2-4.56-2.89-9.15.25-.87,1-2,2.76,0v1.24c-1.37-2-2-1.38-2.1,1.74-.1,5.54,1.18,5.46,2.22,4.76Z" transform="translate(-301.27 -88.37)" fill="#dfe4e8"/><path d="M332.41,156.55a10.82,10.82,0,0,0,1.07.44v4.29a13,13,0,0,0,1.54.44v-4.21a8.25,8.25,0,0,0,1,.32v9.8l-1-.3,0-4.42c-.52-.15-1.05-.32-1.56-.5v4.36c-.35-.13-.7-.28-1.07-.46Z" transform="translate(-301.27 -88.37)" fill="#dfe4e8"/><path d="M337.54,158.25c.4.11.59.15.92.22.58,1.86,1.3,4.61,1.89,6.46h0v-6.1c.33.06.7.15,1,.19v9.74c-.3,0-.5-.08-.8-.12-.58-1.86-1.42-4.42-2-6.29h0l0,5.91-1.08-.23Z" transform="translate(-301.27 -88.37)" fill="#dfe4e8"/><path d="M348.63,159.23c.38,0,.69-.06,1.11-.12v8.51a19.6,19.6,0,0,0,2.35-.29v1.28c-1.13.19-2.33.33-3.45.41Z" transform="translate(-301.27 -88.37)" fill="#dfe4e8"/><path d="M362.21,164.94c-2.07,2.6-4.45,1.38-4.27-3.41.12-3.16,1.6-6,4.21-5.38v1.3c-3.55-1.6-3.31,5.24-2.88,6.68s1.24,1.1,1.87.68l0-2.91c-.24.11-.5.25-.75.35v-1.17a14.33,14.33,0,0,0,1.81-.85Z" transform="translate(-301.27 -88.37)" fill="#dfe4e8"/><path d="M363.41,155l1-.54,0,9.82-1,.55Z" transform="translate(-301.27 -88.37)" fill="#dfe4e8"/><path d="M365.74,153.66a29.49,29.49,0,0,0,2.51-1.77l0,1.36c-.53.39-1,.74-1.56,1.1v2.73a10,10,0,0,0,1.46-1l0,1.15a13.69,13.69,0,0,1-1.44,1l0,3.25c.67-.43,1.15-.78,1.7-1.2v1.28a24,24,0,0,1-2.65,1.94Z" transform="translate(-301.27 -88.37)" fill="#dfe4e8"/><path d="M369.08,159.48c.59.42,1.61-.7,1.3-2.07s-1.49-2.8-1.34-4.63c0,0,.26-2.57,2-3.17v1.15c-1.15.21-1.19,1.51-1.19,1.56a2.63,2.63,0,0,0,.13.9c.27.7.66,1.47.95,2.15,1.24,2.93-.38,5.39-1.83,5.38Z" transform="translate(-301.27 -88.37)" fill="#dfe4e8"/><path d="M347.24,164.2c0,2.8-.49,5.08-2.31,5.07-1.63,0-2.3-2.27-2.3-5.07s.67-5.08,2.3-5.08S347.24,161.39,347.24,164.2Zm-2.31-3.82c-.84,0-1.27,1.78-1.27,3.86s.43,3.78,1.27,3.77,1.28-1.68,1.28-3.77S345.76,160.37,344.93,160.38Z" transform="translate(-301.27 -88.37)" fill="#dfe4e8"/><path d="M357,163c0,2.77-.49,5-2.3,5-1.64,0-2.31-2.25-2.31-5s.67-5,2.31-5S357,160.25,357,163Zm-2.3-3.78c-.84,0-1.28,1.76-1.28,3.82s.44,3.74,1.28,3.74,1.27-1.67,1.27-3.74S355.49,159.23,354.66,159.24Z" transform="translate(-301.27 -88.37)" fill="#dfe4e8"/><path d="M577.78,132v-.12c2.86-1.06,4.94-4.31,4.94-8.07s-1.69-9.86-11.38-9.86H538.22V148.8l-15-34.89H506.91l-12.86,29.63-12.74-29.63H465l-13.32,30.68a13.14,13.14,0,0,0,.36-3.11c0-7.06-4.48-10.09-11.94-11.37-3.92-.68-14.18-2.19-17.54-2.75-2-.34-3-1.12-3-2.47,0-2.63,2.47-3.92,7-3.92,6.11,0,8.29,1.91,8.69,4.65h15.13c-.84-9.47-9.59-12.94-24.1-12.94-17.54,0-20.79,7.45-20.79,12.72,0,5.94,3.19,10.09,11.43,11.32l13.34,2c4.65.72,6.33,1.45,6.33,3.58,0,3.42-3.64,4.21-7,4.21-6.95,0-8.63-1.91-9-4.94H404.8c.78,11.16,10.59,13.57,24.15,13.57,4.39,0,16.51-.08,21.2-7l-2.52,5.81h14.29l2.41-6.5h17.48l2.41,6.5h19.61l2.41-6.5h17.48l2.41,6.5h44.09c12.27,0,14.51-7.17,14.51-11.93C584.73,136.33,582,132.91,577.78,132Zm-110.31,7.17L473,124h.12l5.55,15.13Zm41.91,0L514.92,124H515l5.55,15.13Zm42.18-16.59h13.28c2.86,0,4.09,1.57,4.09,3.36s-1.23,3.42-4.09,3.42H551.56Zm14.34,22.75H551.56v-8.12H565.9c2.81,0,4.71,1.34,4.71,4S568.71,145.29,565.9,145.29Z" transform="translate(-301.27 -88.37)" fill="#002856"/></svg>