<?xml version="1.0" encoding="utf-8"?>
<!-- Generator: Adobe Illustrator 16.0.0, SVG Export Plug-In . SVG Version: 6.00 Build 0)  -->
<!DOCTYPE svg PUBLIC "-//W3C//DTD SVG 1.1//EN" "http://www.w3.org/Graphics/SVG/1.1/DTD/svg11.dtd">
<svg version="1.1" id="Layer_1" xmlns="http://www.w3.org/2000/svg" xmlns:xlink="http://www.w3.org/1999/xlink" x="0px" y="0px"
	 width="569.826px" height="115.742px" viewBox="0 0 569.826 115.742" enable-background="new 0 0 569.826 115.742"
	 xml:space="preserve">
<g>
	<g>
		<g>
			<path fill="#006EB4" d="M68.343,67.443L99.206,1.085C99.502,0.493,100.192,0,100.882,0h0.986c0.69,0,1.38,0.493,1.676,1.085
				l30.862,66.358c0.592,1.283-0.197,2.564-1.676,2.564h-10.945c-1.775,0-2.563-0.592-3.451-2.465l-3.55-7.79h-26.82l-3.55,7.888
				c-0.493,1.184-1.578,2.367-3.55,2.367H70.02C68.541,70.008,67.752,68.727,68.343,67.443z M108.869,46.344l-7.494-16.27h-0.099
				l-7.395,16.27H108.869z"/>
		</g>
		<g>
			<path fill="#006EB4" d="M156.125,1.578C156.224,0.69,157.111,0,157.9,0h1.578c0.493,0,1.38,0.395,1.676,0.986l22.876,42.596
				h0.197l22.876-42.596C207.398,0.395,208.286,0,208.779,0h1.578c0.789,0,1.676,0.69,1.775,1.578l11.142,66.26
				c0.197,1.283-0.689,2.17-1.873,2.17h-11.635c-0.887,0-1.775-0.789-1.873-1.578l-4.438-30.468h-0.197l-16.565,31.946
				c-0.296,0.592-1.183,1.086-1.676,1.086h-1.775c-0.591,0-1.38-0.494-1.676-1.086l-16.664-31.946h-0.197l-4.338,30.468
				c-0.099,0.789-0.888,1.578-1.874,1.578h-11.635c-1.183,0-2.07-0.887-1.874-2.17L156.125,1.578z"/>
		</g>
		<g>
			<path fill="#006EB4" d="M239.384,2.859c0-0.986,0.789-1.873,1.873-1.873h23.764c12.129,0,22.087,9.86,22.087,21.791
				c0,12.227-9.958,22.186-21.988,22.186h-10.353v23.172c0,0.986-0.889,1.873-1.874,1.873h-11.636c-1.084,0-1.873-0.887-1.873-1.873
				V2.859z M264.134,30.566c4.239,0,7.789-3.352,7.789-7.789c0-4.141-3.55-7.297-7.789-7.297h-9.367v15.086H264.134z"/>
		</g>
		<g>
			<path fill="#006EB4" d="M303.384,2.859c0-0.986,0.887-1.873,1.873-1.873h12.129c1.084,0,1.873,0.887,1.873,1.873v39.934
				c0,6.902,5.127,12.424,12.129,12.424c7.098,0,12.324-5.521,12.324-12.424V2.859c0-0.986,0.789-1.873,1.873-1.873h12.129
				c0.986,0,1.873,0.887,1.873,1.873v40.723c0,14.988-12.621,27.412-28.199,27.412c-15.48,0-28.004-12.424-28.004-27.412V2.859z"/>
		</g>
		<g>
			<path fill="#006EB4" d="M375.384,2.859c0-0.986,0.789-1.873,1.775-1.873h24.059c19.031,0,34.609,15.48,34.609,34.412
				c0,19.129-15.578,34.609-34.609,34.609H377.16c-0.986,0-1.775-0.887-1.775-1.873V2.859z M400.232,55.414
				c11.143,0,19.229-8.775,19.229-20.016c0-11.143-8.086-19.918-19.229-19.918h-9.465v39.934H400.232z"/>
		</g>
		<g>
			<path fill="#006EB4" d="M451.384,2.859c0-0.986,0.887-1.873,1.873-1.873h12.129c1.084,0,1.873,0.887,1.873,1.873v39.934
				c0,6.902,5.127,12.424,12.129,12.424c7.098,0,12.324-5.521,12.324-12.424V2.859c0-0.986,0.789-1.873,1.873-1.873h12.129
				c0.986,0,1.873,0.887,1.873,1.873v40.723c0,14.988-12.621,27.412-28.199,27.412c-15.48,0-28.004-12.424-28.004-27.412V2.859z"/>
		</g>
		<g>
			<path fill="#006EB4" d="M523.878,60.641l4.633-8.184c0.789-1.282,2.662-1.085,3.354-0.592c0.395,0.197,7.494,5.423,14.002,5.423
				c3.943,0,6.803-2.465,6.803-5.916c0-4.142-3.451-7.297-10.156-9.959c-8.48-3.353-19.129-9.959-19.129-21.791
				C523.384,9.86,530.976,0,546.162,0c10.254,0,18.143,5.227,21.102,7.396c1.182,0.69,0.984,2.465,0.592,3.155l-5.029,7.592
				c-0.691,1.085-2.465,1.973-3.354,1.282c-0.887-0.493-8.084-5.916-14.1-5.916c-3.549,0-6.211,2.366-6.211,5.028
				c0,3.648,2.957,6.41,10.746,9.564c7.691,3.057,19.918,9.072,19.918,22.481c0,10.156-8.775,20.411-23.27,20.411
				c-12.818,0-19.918-5.324-22.186-7.593C523.384,62.416,523.089,62.021,523.878,60.641z"/>
		</g>
	</g>
	<g>
		<path fill="#006EB4" d="M278.552,87.906c0-0.402,0.322-0.766,0.727-0.766h9.023c7.773,0,14.139,6.324,14.139,14.059
			c0,7.816-6.365,14.141-14.139,14.141h-9.023c-0.404,0-0.727-0.363-0.727-0.766V87.906z M287.658,112.561
			c6.605,0,11.4-4.714,11.4-11.361c0-6.605-4.795-11.318-11.4-11.318h-6.043v22.68H287.658z"/>
		<path fill="#006EB4" d="M313.482,87.906c0-0.402,0.322-0.766,0.766-0.766h15.873c0.441,0,0.764,0.363,0.764,0.766v1.168
			c0,0.403-0.322,0.766-0.764,0.766h-13.535v9.83h11.561c0.402,0,0.766,0.361,0.766,0.765v1.169c0,0.442-0.363,0.765-0.766,0.765
			h-11.561v10.272h13.535c0.441,0,0.764,0.362,0.764,0.766v1.168c0,0.402-0.322,0.766-0.764,0.766h-15.873
			c-0.443,0-0.766-0.363-0.766-0.766V87.906z"/>
		<path fill="#006EB4" d="M338.341,88.188c-0.242-0.524,0.08-1.048,0.684-1.048h1.611c0.363,0,0.605,0.242,0.686,0.443
			l10.029,22.559h0.162l10.031-22.559c0.08-0.201,0.361-0.443,0.684-0.443h1.611c0.605,0,0.928,0.523,0.686,1.048l-12.246,27.11
			c-0.121,0.242-0.363,0.443-0.686,0.443h-0.402c-0.281,0-0.564-0.201-0.686-0.443L338.341,88.188z"/>
		<path fill="#006EB4" d="M373.753,87.906c0-0.402,0.322-0.766,0.766-0.766h15.871c0.443,0,0.766,0.363,0.766,0.766v1.168
			c0,0.403-0.322,0.766-0.766,0.766h-13.535v9.83h11.561c0.404,0,0.766,0.361,0.766,0.765v1.169c0,0.442-0.361,0.765-0.766,0.765
			h-11.561v10.272h13.535c0.443,0,0.766,0.362,0.766,0.766v1.168c0,0.402-0.322,0.766-0.766,0.766h-15.871
			c-0.443,0-0.766-0.363-0.766-0.766V87.906z"/>
		<path fill="#006EB4" d="M402.437,87.906c0-0.402,0.322-0.766,0.766-0.766h1.572c0.402,0,0.766,0.363,0.766,0.766v24.734h11.602
			c0.441,0,0.764,0.362,0.764,0.766v1.168c0,0.402-0.322,0.766-0.764,0.766h-13.939c-0.443,0-0.766-0.363-0.766-0.766V87.906z"/>
		<path fill="#006EB4" d="M439.058,86.738c8.057,0,14.502,6.486,14.502,14.543s-6.445,14.461-14.502,14.461
			s-14.461-6.404-14.461-14.461S431.001,86.738,439.058,86.738z M439.058,112.922c6.404,0,11.682-5.236,11.682-11.641
			c0-6.406-5.277-11.723-11.682-11.723s-11.643,5.316-11.643,11.723C427.416,107.686,432.654,112.922,439.058,112.922z"/>
		<path fill="#006EB4" d="M464.562,87.906c0-0.402,0.322-0.766,0.766-0.766h8.902c4.955,0,9.023,4.029,9.023,8.902
			c0,4.996-4.068,9.064-8.982,9.064h-6.648v9.467c0,0.402-0.361,0.766-0.764,0.766h-1.531c-0.443,0-0.766-0.363-0.766-0.766V87.906z
			 M474.029,102.127c3.303,0,6.123-2.699,6.123-6.164c0-3.263-2.82-5.76-6.123-5.76h-6.406v11.924H474.029z"/>
		<path fill="#006EB4" d="M493.408,87.906c0-0.402,0.322-0.766,0.766-0.766h15.871c0.443,0,0.766,0.363,0.766,0.766v1.168
			c0,0.403-0.322,0.766-0.766,0.766h-13.535v9.83h11.561c0.404,0,0.766,0.361,0.766,0.765v1.169c0,0.442-0.361,0.765-0.766,0.765
			h-11.561v10.272h13.535c0.443,0,0.766,0.362,0.766,0.766v1.168c0,0.402-0.322,0.766-0.766,0.766h-15.871
			c-0.443,0-0.766-0.363-0.766-0.766V87.906z"/>
		<path fill="#006EB4" d="M522.093,87.906c0-0.402,0.322-0.766,0.766-0.766h10.434c4.834,0,8.781,3.787,8.781,8.58
			c0,3.707-2.457,6.809-5.963,8.219l5.52,10.232c0.281,0.523,0,1.168-0.686,1.168h-2.053c-0.363,0-0.564-0.201-0.645-0.363
			l-5.359-10.675h-7.693v10.272c0,0.402-0.363,0.766-0.766,0.766h-1.57c-0.443,0-0.766-0.363-0.766-0.766V87.906z M533.091,101.643
			c3.102,0,5.801-2.578,5.801-5.881c0-3.062-2.699-5.68-5.801-5.68h-7.816v11.561H533.091z"/>
		<path fill="#006EB4" d="M551.746,111.109c0.201-0.242,0.402-0.523,0.604-0.766c0.402-0.523,0.846-0.846,1.41-0.361
			c0.281,0.24,3.223,3.061,6.809,3.061c3.262,0,5.396-2.055,5.396-4.432c0-2.779-2.416-4.43-7.049-6.363
			c-4.432-1.934-7.09-3.747-7.09-8.34c0-2.738,2.176-7.17,8.58-7.17c3.947,0,6.889,2.055,6.889,2.055
			c0.242,0.121,0.725,0.604,0.242,1.369c-0.162,0.242-0.322,0.523-0.484,0.766c-0.361,0.564-0.766,0.725-1.41,0.363
			c-0.281-0.162-2.818-1.854-5.275-1.854c-4.271,0-5.561,2.738-5.561,4.432c0,2.698,2.055,4.27,5.439,5.68
			c5.438,2.215,8.941,4.27,8.941,8.942c0,4.189-3.986,7.251-8.701,7.251c-4.752,0-7.975-2.779-8.498-3.264
			C551.666,112.197,551.261,111.875,551.746,111.109z"/>
	</g>
	<g>
		<g>
			<path fill="#006EB4" d="M27.622,53.217c-6.558-3.254-10.86-10.139-10.86-18.016c0-11.043,8.184-20.313,19.326-20.313
				c4.832,0,9.663,1.775,13.311,5.029c0.69,0.689,1.775,0.689,2.465,0l7.691-7.986c0.789-0.789,0.789-1.973-0.099-2.762
				C52.752,3.057,45.456,0,35.595,0C15.875,0,0,15.875,0,35.596c0,15.396,9.677,28.328,23.305,33.259L27.622,53.217z"/>
		</g>
		<g>
			<path fill="#91D0F2" d="M51.963,50.583c-0.592-0.69-1.874-0.69-2.564-0.099c-3.392,2.922-8.132,4.564-12.591,4.705l-3.073,15.757
				c0.616,0.031,1.236,0.048,1.86,0.048c8.776,0,17.255-3.057,23.96-9.564c0.69-0.69,0.789-1.973,0.099-2.662L51.963,50.583z"/>
		</g>
	</g>
</g>
</svg>
