<svg width="128" height="128" viewBox="0 0 128 128" fill="none" xmlns="http://www.w3.org/2000/svg">
    <circle cx="64" cy="64" r="63.5" stroke="currentColor" />
    <path
        d="M111.5 64C111.5 81.5754 106.156 97.4677 97.5411 108.955C88.9259 120.442 77.0622 127.5 64 127.5C50.9378 127.5 39.0741 120.442 30.4589 108.955C21.8435 97.4677 16.5 81.5754 16.5 64C16.5 46.4246 21.8435 30.5323 30.4589 19.0452C39.0741 7.55816 50.9378 0.5 64 0.5C77.0622 0.5 88.9259 7.55816 97.5411 19.0452C106.156 30.5323 111.5 46.4246 111.5 64Z"
        stroke="currentColor" />
    <path
        d="M87.5 64C87.5 81.629 84.8196 97.5668 80.5024 109.079C78.3431 114.837 75.784 119.462 72.9678 122.639C70.1509 125.816 67.1194 127.5 64 127.5C60.8806 127.5 57.8491 125.816 55.0322 122.639C52.216 119.462 49.6569 114.837 47.4976 109.079C43.1804 97.5668 40.5 81.629 40.5 64C40.5 46.371 43.1804 30.4332 47.4976 18.9207C49.6569 13.1627 52.216 8.53765 55.0322 5.36114C57.8491 2.18404 60.8806 0.5 64 0.5C67.1194 0.5 70.1509 2.18404 72.9678 5.36114C75.784 8.53765 78.3431 13.1627 80.5024 18.9207C84.8196 30.4332 87.5 46.371 87.5 64Z"
        stroke="currentColor" />
    <path
        d="M127.5 64C127.5 92.3507 99.1721 115.5 64 115.5C28.8279 115.5 0.5 92.3507 0.5 64C0.5 35.6493 28.8279 12.5 64 12.5C99.1721 12.5 127.5 35.6493 127.5 64Z"
        stroke="currentColor" />
    <path
        d="M127.5 64C127.5 72.5451 120.56 80.4159 109.031 86.1802C97.5326 91.9295 81.6123 95.5 64 95.5C46.3877 95.5 30.4674 91.9295 18.9688 86.1802C7.4402 80.4159 0.5 72.5451 0.5 64C0.5 55.4549 7.4402 47.5841 18.9688 41.8198C30.4674 36.0705 46.3877 32.5 64 32.5C81.6123 32.5 97.5326 36.0705 109.031 41.8198C120.56 47.5841 127.5 55.4549 127.5 64Z"
        stroke="currentColor" />
    <line y1="63.5" x2="128" y2="63.5" stroke="currentColor" />
    <line x1="64.5" x2="64.5" y2="128" stroke="currentColor" />
    <rect x="0.5" y="40.5" width="127" height="47" rx="4.5" fill="white" stroke="currentColor" />
    <path
        d="M15.104 76L9.152 52.192H16.16L18.464 63.232C18.656 64.416 18.832 65.584 18.992 66.736C19.152 67.888 19.328 69.072 19.52 70.288H19.712C19.936 69.072 20.144 67.872 20.336 66.688C20.56 65.504 20.816 64.352 21.104 63.232L23.744 52.192H29.84L32.528 63.232C32.816 64.416 33.072 65.584 33.296 66.736C33.552 67.888 33.792 69.072 34.016 70.288H34.208C34.432 69.072 34.608 67.888 34.736 66.736C34.896 65.584 35.088 64.416 35.312 63.232L37.568 52.192H44.096L38.384 76H30.128L27.968 66.496C27.744 65.376 27.52 64.256 27.296 63.136C27.104 62.016 26.896 60.816 26.672 59.536H26.48C26.256 60.816 26.048 62.016 25.856 63.136C25.696 64.256 25.504 65.376 25.28 66.496L23.168 76H15.104ZM52.3696 76L46.4176 52.192H53.4256L55.7296 63.232C55.9216 64.416 56.0976 65.584 56.2576 66.736C56.4176 67.888 56.5936 69.072 56.7856 70.288H56.9776C57.2016 69.072 57.4096 67.872 57.6016 66.688C57.8256 65.504 58.0816 64.352 58.3696 63.232L61.0096 52.192H67.1056L69.7936 63.232C70.0816 64.416 70.3376 65.584 70.5616 66.736C70.8176 67.888 71.0576 69.072 71.2816 70.288H71.4736C71.6976 69.072 71.8736 67.888 72.0016 66.736C72.1616 65.584 72.3536 64.416 72.5776 63.232L74.8336 52.192H81.3616L75.6496 76H67.3936L65.2336 66.496C65.0096 65.376 64.7856 64.256 64.5616 63.136C64.3696 62.016 64.1616 60.816 63.9376 59.536H63.7456C63.5216 60.816 63.3136 62.016 63.1216 63.136C62.9616 64.256 62.7696 65.376 62.5456 66.496L60.4336 76H52.3696ZM89.6353 76L83.6833 52.192H90.6913L92.9953 63.232C93.1873 64.416 93.3633 65.584 93.5233 66.736C93.6833 67.888 93.8593 69.072 94.0513 70.288H94.2433C94.4673 69.072 94.6753 67.872 94.8672 66.688C95.0912 65.504 95.3472 64.352 95.6353 63.232L98.2753 52.192H104.371L107.059 63.232C107.347 64.416 107.603 65.584 107.827 66.736C108.083 67.888 108.323 69.072 108.547 70.288H108.739C108.963 69.072 109.139 67.888 109.267 66.736C109.427 65.584 109.619 64.416 109.843 63.232L112.099 52.192H118.627L112.915 76H104.659L102.499 66.496C102.275 65.376 102.051 64.256 101.827 63.136C101.635 62.016 101.427 60.816 101.203 59.536H101.011C100.787 60.816 100.579 62.016 100.387 63.136C100.227 64.256 100.035 65.376 99.8113 66.496L97.6993 76H89.6353Z"
        fill="currentColor" />
</svg>