<svg id="svg" version="1.1" width="1000" height="213" xmlns="http://www.w3.org/2000/svg" xmlns:xlink="http://www.w3.org/1999/xlink" style="display: block;"><g id="svgg"><path id="path0" d="M393.000 31.596 C 392.120 32.051,389.972 33.767,388.226 35.408 C 386.481 37.050,384.726 38.497,384.326 38.623 C 383.927 38.750,383.600 39.022,383.600 39.227 C 383.600 39.432,383.409 39.600,383.177 39.600 C 382.834 39.600,380.015 41.585,379.200 42.400 C 379.090 42.510,378.370 42.945,377.600 43.367 C 373.052 45.859,371.290 49.281,373.262 51.788 C 373.975 52.694,374.349 52.848,375.420 52.674 C 376.767 52.456,382.000 49.323,382.000 48.735 C 382.000 48.551,382.195 48.400,382.434 48.400 C 382.777 48.400,387.123 45.277,388.000 44.400 C 388.275 44.125,389.532 43.355,391.200 42.441 C 393.749 41.043,395.981 39.219,397.199 37.539 C 400.202 33.392,397.344 29.348,393.000 31.596 " stroke="none" fill="grey" fill-rule="evenodd"></path><path id="path1" d="M349.186 1.100 C 347.924 2.550,346.812 5.975,346.557 9.200 C 346.444 10.630,346.016 13.510,345.605 15.600 C 344.908 19.142,344.220 23.686,343.721 28.040 C 343.336 31.393,344.681 33.600,347.108 33.600 C 350.457 33.600,351.786 31.125,352.386 23.771 C 352.591 21.252,352.849 19.045,352.958 18.868 C 353.067 18.691,353.341 17.075,353.567 15.276 C 353.792 13.477,354.281 11.419,354.653 10.702 C 355.686 8.711,355.676 1.994,354.638 0.844 C 353.440 -0.483,350.442 -0.342,349.186 1.100 M369.260 3.937 C 368.677 4.562,367.956 5.597,367.658 6.237 C 366.668 8.361,366.026 9.789,365.606 10.800 C 365.377 11.350,364.807 12.430,364.339 13.200 C 362.443 16.320,361.618 17.989,359.988 22.000 C 359.050 24.310,357.948 26.678,357.541 27.262 C 357.133 27.846,356.800 28.493,356.800 28.700 C 356.800 28.908,356.520 29.639,356.177 30.326 C 353.986 34.718,356.429 38.614,360.477 37.182 C 362.352 36.519,361.794 37.443,368.321 24.200 C 370.707 19.360,373.366 14.050,374.229 12.400 C 376.360 8.330,376.442 5.708,374.494 3.967 C 372.716 2.379,370.725 2.367,369.260 3.937 M32.128 5.300 C 31.649 6.235,30.777 8.080,30.190 9.400 C 29.070 11.921,28.325 13.546,25.638 19.324 C 24.737 21.262,24.000 22.930,24.000 23.032 C 24.000 23.133,23.299 24.698,22.442 26.508 C 21.584 28.319,20.519 30.610,20.074 31.600 C 19.628 32.590,18.515 35.020,17.600 37.000 C 16.685 38.980,15.609 41.320,15.208 42.200 C 14.259 44.288,12.296 48.561,10.843 51.700 C 10.207 53.075,9.207 55.280,8.622 56.600 C 8.036 57.920,7.216 59.720,6.799 60.600 C 5.577 63.180,2.978 68.837,2.022 71.000 C 1.536 72.100,0.882 73.478,0.569 74.062 C -0.656 76.347,-0.540 76.400,5.711 76.400 L 11.422 76.400 12.576 73.700 C 13.832 70.760,16.093 65.708,17.005 63.800 C 17.321 63.140,17.759 62.105,17.979 61.500 L 18.380 60.400 32.759 60.400 L 47.138 60.400 47.621 61.900 C 47.886 62.725,48.329 63.850,48.604 64.400 C 48.879 64.950,49.512 66.390,50.010 67.600 C 50.508 68.810,51.234 70.520,51.623 71.400 C 52.012 72.280,52.661 73.763,53.065 74.695 L 53.800 76.391 59.700 76.395 C 62.945 76.398,65.600 76.290,65.600 76.154 C 65.600 76.019,65.260 75.254,64.844 74.454 C 64.428 73.655,62.693 69.760,60.989 65.800 C 59.285 61.840,57.672 58.150,57.406 57.600 C 57.139 57.050,56.644 55.970,56.305 55.200 C 55.966 54.430,55.209 52.720,54.623 51.400 C 52.699 47.071,52.506 46.627,51.392 44.000 C 50.786 42.570,49.678 40.050,48.930 38.400 C 47.270 34.741,46.481 32.973,45.805 31.400 C 44.304 27.907,43.085 25.242,42.384 23.921 C 41.953 23.107,41.600 22.247,41.600 22.009 C 41.600 21.624,41.054 20.365,37.953 13.600 C 37.499 12.610,36.856 11.170,36.524 10.400 C 36.192 9.630,35.677 8.460,35.380 7.800 C 35.084 7.140,34.571 5.925,34.241 5.100 C 33.477 3.189,33.195 3.216,32.128 5.300 M141.200 11.571 C 136.169 12.140,129.887 14.860,125.400 18.412 C 123.092 20.239,119.600 23.784,119.600 24.300 C 119.600 24.437,119.254 24.920,118.831 25.374 C 111.606 33.131,111.065 49.667,117.643 61.611 C 119.455 64.900,126.518 72.000,127.979 72.000 C 128.210 72.000,128.400 72.155,128.400 72.344 C 128.400 72.836,134.364 75.497,137.013 76.186 C 158.551 81.797,179.200 66.238,179.200 44.400 C 179.200 24.237,161.836 9.236,141.200 11.571 M65.600 17.200 L 65.600 22.400 73.400 22.400 L 81.200 22.400 81.200 49.400 L 81.200 76.400 86.600 76.400 L 92.000 76.400 92.000 49.400 L 92.000 22.400 99.800 22.400 L 107.600 22.400 107.600 17.200 L 107.600 12.000 86.600 12.000 L 65.600 12.000 65.600 17.200 M204.000 12.806 C 194.526 14.887,189.888 20.729,189.874 30.600 C 189.862 39.428,194.126 44.833,203.000 47.238 C 204.473 47.637,206.810 48.239,211.000 49.297 C 215.666 50.476,219.035 51.945,220.931 53.628 L 222.600 55.109 222.578 57.952 C 222.531 63.850,218.236 66.769,209.600 66.773 C 205.023 66.775,196.919 65.404,193.474 64.044 C 191.442 63.242,191.113 63.721,189.526 69.800 C 188.808 72.547,190.589 73.763,197.976 75.573 C 207.086 77.805,226.800 75.584,226.800 72.326 C 226.800 72.147,227.009 72.000,227.265 72.000 C 227.520 72.000,228.330 71.325,229.065 70.500 C 235.636 63.118,233.909 48.238,225.966 43.800 C 222.851 42.060,216.361 39.600,214.884 39.600 C 214.547 39.600,213.264 39.309,212.035 38.952 C 203.526 36.487,200.400 34.143,200.400 30.228 C 200.400 21.601,210.624 19.501,227.129 24.739 C 228.798 25.269,230.267 22.142,230.536 17.484 C 230.760 13.590,213.936 10.624,204.000 12.806 M258.359 12.776 C 251.995 14.197,248.097 17.028,245.732 21.948 C 244.131 25.278,244.037 35.970,245.584 38.800 C 246.611 40.680,249.508 44.000,250.122 44.000 C 250.317 44.000,250.954 44.331,251.538 44.736 C 253.387 46.017,256.940 47.214,264.800 49.204 C 275.592 51.935,278.652 54.969,276.454 60.754 C 274.077 67.011,263.181 68.686,250.200 64.788 C 245.356 63.334,245.715 63.301,245.186 65.259 C 244.927 66.216,244.357 68.024,243.919 69.275 C 242.965 71.996,243.065 72.205,245.951 73.494 C 254.599 77.360,271.148 77.614,278.571 73.996 C 287.832 69.482,290.564 55.238,283.796 46.746 C 282.873 45.587,279.115 42.800,278.475 42.800 C 278.239 42.800,277.450 42.469,276.723 42.065 C 275.401 41.330,272.856 40.549,265.481 38.615 C 256.814 36.341,254.126 33.694,255.008 28.300 C 256.131 21.432,267.432 19.796,280.750 24.572 C 283.153 25.434,283.087 25.471,283.608 22.962 C 283.863 21.731,284.326 20.117,284.636 19.375 C 285.720 16.780,284.987 15.960,279.800 13.972 C 274.961 12.117,264.040 11.508,258.359 12.776 M383.770 18.500 C 381.689 20.080,380.800 20.965,380.800 21.456 C 380.800 21.718,380.665 21.993,380.500 22.067 C 380.335 22.140,379.583 23.010,378.829 24.000 C 376.699 26.796,376.755 26.734,371.946 31.593 C 365.015 38.595,364.437 39.756,366.599 42.326 C 369.293 45.528,373.424 43.071,380.996 33.762 C 381.874 32.683,384.139 30.180,386.030 28.200 C 390.924 23.073,391.658 21.053,389.518 18.592 C 388.347 17.245,385.483 17.199,383.770 18.500 M150.794 21.799 C 157.245 23.156,163.345 27.715,166.315 33.400 C 170.677 41.749,169.840 52.043,164.302 58.183 C 163.698 58.852,163.203 59.527,163.202 59.683 C 163.201 59.838,161.985 60.935,160.500 62.119 C 140.094 78.398,113.330 54.741,126.424 32.000 C 130.751 24.485,141.725 19.891,150.794 21.799 M34.767 31.900 C 35.692 34.045,36.637 36.250,36.866 36.800 C 37.096 37.350,37.522 38.340,37.813 39.000 C 40.911 46.031,41.728 47.958,42.012 48.900 L 42.344 50.000 32.785 50.000 C 23.853 50.000,23.241 49.954,23.472 49.300 C 23.911 48.050,25.217 45.019,25.644 44.257 C 25.873 43.848,27.385 40.518,29.003 36.857 C 31.818 30.490,32.950 28.010,33.043 28.003 C 33.066 28.001,33.842 29.755,34.767 31.900 M308.546 34.868 C 303.711 37.209,308.575 48.129,315.475 50.425 C 320.411 52.067,322.688 47.875,319.520 42.978 C 318.817 41.890,317.826 40.125,317.318 39.056 C 315.597 35.429,311.463 33.455,308.546 34.868 M342.995 38.046 C 341.399 38.822,340.401 40.878,340.384 43.425 C 340.339 50.003,337.895 51.897,327.200 53.639 C 320.914 54.663,319.600 55.496,319.600 58.456 C 319.600 60.289,321.879 64.547,323.638 66.000 C 323.771 66.110,324.725 67.946,325.759 70.080 C 328.368 75.464,329.034 75.906,338.853 78.758 C 341.335 79.479,343.287 80.624,347.558 83.866 C 352.440 87.572,357.195 85.397,363.400 76.618 C 363.840 75.996,366.270 73.332,368.800 70.699 C 374.193 65.087,374.794 64.258,374.797 62.426 C 374.801 60.782,373.358 57.631,372.449 57.297 C 369.794 56.322,366.968 53.240,364.800 48.957 C 362.144 43.711,360.364 42.143,354.949 40.280 C 347.043 37.560,344.840 37.148,342.995 38.046 M392.300 47.457 C 390.815 48.473,389.600 49.461,389.600 49.652 C 389.600 49.844,389.339 50.000,389.020 50.000 C 388.701 50.000,388.296 50.239,388.120 50.531 C 387.944 50.823,387.080 51.421,386.200 51.860 C 385.320 52.299,383.546 53.185,382.257 53.829 C 378.451 55.731,377.241 58.379,379.300 60.301 C 380.944 61.836,381.923 61.768,385.600 59.866 C 398.421 53.235,399.995 52.017,399.998 48.723 C 400.002 45.001,396.686 44.455,392.300 47.457 " stroke="none" fill="grey" fill-rule="evenodd"></path></g></svg>