<svg id="svg" version="1.1" width="1000" height="128" xmlns="http://www.w3.org/2000/svg" xmlns:xlink="http://www.w3.org/1999/xlink" style="display: block;"><g id="svgg">

  <path id="logo" d="M31.800 0.665 C 25.368 2.050,22.232 4.629,24.500 6.671 C 26.054 8.070,26.342 8.079,28.924 6.808 C 43.448 -0.342,56.966 18.756,45.182 29.778 C 41.197 33.506,40.092 33.781,28.574 33.924 C 17.280 34.065,16.667 33.928,16.667 31.267 C 16.667 28.576,16.987 28.489,27.529 28.329 C 40.005 28.138,42.345 27.013,42.726 21.019 C 43.180 13.903,40.582 12.684,25.368 12.868 L 14.536 13.000 11.168 14.680 C -7.978 24.230,-0.851 52.070,20.501 51.133 C 23.642 50.995,24.622 50.773,26.994 49.662 C 31.588 47.511,32.020 46.790,29.915 44.779 C 28.522 43.447,28.582 43.445,24.890 44.990 C 7.620 52.215,-3.233 27.156,13.585 18.889 C 16.842 17.288,35.747 16.933,37.157 18.446 C 38.220 19.587,38.239 21.361,37.200 22.400 C 36.447 23.153,35.867 23.200,27.279 23.200 C 18.237 23.200,18.139 23.209,16.052 24.249 C 10.474 27.029,10.101 34.353,15.364 37.765 L 16.960 38.800 27.642 38.800 C 41.809 38.800,45.836 37.453,50.593 31.125 C 60.886 17.432,48.344 -2.897,31.800 0.665 M4.283 34.895 C 4.187 35.393,4.105 35.080,4.101 34.200 C 4.096 33.320,4.175 32.913,4.275 33.295 C 4.375 33.678,4.379 34.398,4.283 34.895 M1.082 35.700 C 0.987 36.195,0.909 35.790,0.909 34.800 C 0.909 33.810,0.987 33.405,1.082 33.900 C 1.178 34.395,1.178 35.205,1.082 35.700 M3.144 40.800 C 3.144 41.178,3.017 41.104,2.800 40.600 C 2.611 40.160,2.456 39.530,2.456 39.200 C 2.456 38.822,2.583 38.896,2.800 39.400 C 2.989 39.840,3.144 40.470,3.144 40.800 M5.355 43.788 C 5.862 44.561,5.881 44.729,5.441 44.560 C 5.132 44.442,4.788 43.997,4.677 43.572 C 4.408 42.545,4.576 42.599,5.355 43.788 M18.100 47.082 C 17.605 47.178,16.795 47.178,16.300 47.082 C 15.805 46.987,16.210 46.909,17.200 46.909 C 18.190 46.909,18.595 46.987,18.100 47.082 M17.300 50.282 C 16.805 50.378,15.995 50.378,15.500 50.282 C 15.005 50.187,15.410 50.109,16.400 50.109 C 17.390 50.109,17.795 50.187,17.300 50.282 M23.100 50.276 C 22.715 50.376,22.085 50.376,21.700 50.276 C 21.315 50.175,21.630 50.093,22.400 50.093 C 23.170 50.093,23.485 50.175,23.100 50.276 " stroke="none" fill="grey" fill-rule="evenodd"></path>
  <path id="path2" d="M156.267 1.067 C 156.120 1.213,156.000 3.302,156.000 5.709 L 156.000 10.084 154.300 9.846 C 140.603 7.926,136.770 11.496,137.308 25.675 C 137.612 33.703,139.131 36.681,143.731 38.272 C 149.036 40.106,160.192 38.321,160.943 35.518 C 161.263 34.326,161.276 2.263,160.957 1.433 C 160.708 0.784,156.850 0.483,156.267 1.067 M312.650 1.414 C 312.512 1.772,312.400 3.842,312.400 6.014 L 312.400 9.963 309.700 10.082 L 307.000 10.200 307.000 12.400 L 307.000 14.600 309.600 14.800 L 312.200 15.000 312.427 23.200 C 312.782 36.022,314.066 38.213,321.672 38.986 C 325.219 39.347,326.000 38.928,326.000 36.666 C 326.000 34.476,325.482 34.000,323.100 34.000 C 318.333 34.000,317.800 32.877,317.800 22.841 L 317.800 15.000 321.800 14.800 L 325.800 14.600 325.920 12.513 C 326.062 10.059,326.065 10.060,321.000 9.901 L 317.800 9.800 317.600 5.400 L 317.400 1.000 315.150 0.882 C 313.367 0.788,312.848 0.898,312.650 1.414 M76.351 9.963 C 70.669 11.780,69.200 14.661,69.200 23.987 C 69.200 31.476,69.723 33.467,72.361 36.026 C 78.546 42.024,93.885 38.160,93.106 30.800 C 92.934 29.173,89.769 28.231,88.855 29.535 C 84.631 35.562,77.197 36.321,74.955 30.953 C 74.084 28.869,74.188 19.024,75.101 17.208 C 77.412 12.607,85.163 12.725,87.642 17.397 C 89.601 21.089,94.184 19.130,92.579 15.287 C 90.479 10.261,83.044 7.822,76.351 9.963 M110.271 9.802 C 107.644 10.524,105.423 12.073,104.102 14.104 C 102.396 16.729,102.168 30.100,103.773 33.381 C 107.349 40.690,121.944 41.027,126.029 33.895 C 127.600 31.153,127.523 17.090,125.923 14.369 C 123.449 10.159,116.426 8.110,110.271 9.802 M179.998 9.769 C 173.652 11.522,172.000 14.532,172.000 24.344 C 172.000 34.988,174.264 38.121,182.600 39.011 C 190.475 39.851,199.975 33.244,194.586 30.674 C 192.634 29.743,192.583 29.759,190.467 31.931 C 186.907 35.587,179.169 35.214,177.685 31.315 C 175.585 25.798,175.901 25.600,186.800 25.600 C 197.312 25.600,196.800 25.792,196.800 21.846 C 196.800 12.405,189.487 7.148,179.998 9.769 M214.000 9.771 C 207.720 11.514,206.000 14.616,206.000 24.200 C 206.000 31.457,206.543 33.487,209.161 36.026 C 215.185 41.868,228.663 38.885,229.871 31.442 C 230.367 28.382,226.623 27.895,224.740 30.775 C 221.443 35.816,213.047 35.636,211.619 30.492 C 210.895 27.886,211.087 18.827,211.901 17.208 C 214.212 12.607,221.947 12.734,224.594 17.417 C 225.910 19.746,230.000 19.532,230.000 17.135 C 230.000 11.826,221.196 7.774,214.000 9.771 M246.873 9.939 C 241.734 11.536,239.589 15.088,239.283 22.509 C 238.842 33.229,241.261 37.477,248.578 38.830 C 254.738 39.969,262.443 36.956,263.430 33.023 C 264.121 30.271,260.524 29.201,258.457 31.544 C 253.697 36.942,245.212 34.952,244.523 28.276 C 244.239 25.523,243.908 25.612,254.467 25.605 C 264.856 25.599,264.002 25.988,263.991 21.257 C 263.970 11.865,256.522 6.941,246.873 9.939 M281.200 9.801 C 274.366 11.184,274.800 10.136,274.800 25.254 L 274.800 37.985 275.803 38.236 C 276.354 38.375,277.434 38.370,278.203 38.226 L 279.600 37.964 279.600 27.156 C 279.600 14.862,279.558 15.046,282.546 14.377 C 291.502 12.373,293.198 14.587,293.199 28.282 L 293.200 37.964 294.661 38.238 C 295.464 38.388,296.589 38.347,297.161 38.145 L 298.200 37.779 298.200 26.989 L 298.200 16.200 297.090 14.200 C 294.650 9.802,288.968 8.229,281.200 9.801 M342.400 9.645 C 338.738 10.409,337.138 10.934,336.181 11.686 L 335.200 12.458 335.200 25.211 L 335.200 37.964 336.661 38.238 C 337.464 38.388,338.589 38.347,339.161 38.146 L 340.200 37.781 340.306 26.478 L 340.413 15.175 341.506 14.747 C 342.108 14.511,344.310 14.202,346.400 14.059 L 350.200 13.800 350.200 11.600 L 350.200 9.400 347.200 9.335 C 345.550 9.300,343.390 9.439,342.400 9.645 M383.070 9.802 C 380.414 10.532,378.151 12.201,376.875 14.372 C 375.246 17.142,375.209 30.671,376.821 33.805 C 380.819 41.577,396.464 40.489,399.184 32.250 C 400.228 29.086,395.681 27.308,394.408 30.382 C 392.431 35.154,384.575 35.933,381.708 31.641 C 380.454 29.764,380.326 19.070,381.531 16.825 C 383.976 12.266,392.990 13.327,394.588 18.361 C 394.930 19.440,395.607 19.592,397.369 18.986 C 399.668 18.196,399.823 17.898,399.022 15.803 C 396.962 10.409,390.165 7.852,383.070 9.802 M359.803 10.395 C 359.298 11.212,359.592 37.748,360.110 38.076 C 360.962 38.618,363.517 38.426,364.171 37.771 C 364.993 36.950,365.133 11.293,364.320 10.480 C 363.743 9.903,360.149 9.836,359.803 10.395 M186.921 14.027 C 189.795 14.825,192.343 18.688,191.479 20.938 C 191.147 21.804,177.229 21.961,177.159 21.100 C 176.711 15.566,181.075 12.403,186.921 14.027 M256.200 14.800 C 257.923 15.865,258.739 17.339,258.888 19.657 L 259.000 21.400 251.805 21.400 C 243.731 21.400,243.966 21.499,244.790 18.437 C 245.966 14.068,251.937 12.165,256.200 14.800 M118.644 14.648 C 121.734 16.114,122.000 16.871,122.000 24.202 L 122.000 30.743 120.690 32.132 C 117.127 35.910,109.624 34.739,108.070 30.161 C 107.220 27.656,107.574 18.578,108.588 16.899 C 110.180 14.263,115.381 13.099,118.644 14.648 M153.927 14.615 L 156.000 15.231 156.000 24.167 L 156.000 33.103 154.718 33.634 C 150.866 35.230,145.469 34.184,143.425 31.446 C 142.252 29.876,142.178 18.973,143.327 16.869 C 144.755 14.251,149.386 13.267,153.927 14.615 M4.101 34.200 C 4.105 35.080,4.187 35.393,4.283 34.895 C 4.379 34.398,4.375 33.678,4.275 33.295 C 4.175 32.913,4.096 33.320,4.101 34.200 M0.909 34.800 C 0.909 35.790,0.987 36.195,1.082 35.700 C 1.178 35.205,1.178 34.395,1.082 33.900 C 0.987 33.405,0.909 33.810,0.909 34.800 M2.456 39.200 C 2.456 39.530,2.611 40.160,2.800 40.600 C 3.017 41.104,3.144 41.178,3.144 40.800 C 3.144 40.470,2.989 39.840,2.800 39.400 C 2.583 38.896,2.456 38.822,2.456 39.200 M4.677 43.572 C 4.788 43.997,5.132 44.442,5.441 44.560 C 5.881 44.729,5.862 44.561,5.355 43.788 C 4.576 42.599,4.408 42.545,4.677 43.572 M16.300 47.082 C 16.795 47.178,17.605 47.178,18.100 47.082 C 18.595 46.987,18.190 46.909,17.200 46.909 C 16.210 46.909,15.805 46.987,16.300 47.082 M15.500 50.282 C 15.995 50.378,16.805 50.378,17.300 50.282 C 17.795 50.187,17.390 50.109,16.400 50.109 C 15.410 50.109,15.005 50.187,15.500 50.282 M21.700 50.276 C 22.085 50.376,22.715 50.376,23.100 50.276 C 23.485 50.175,23.170 50.093,22.400 50.093 C 21.630 50.093,21.315 50.175,21.700 50.276 " stroke="none" fill="grey" fill-rule="evenodd"></path></g></svg>