<svg id="Ebene_3" data-name="Ebene 3" xmlns="http://www.w3.org/2000/svg" viewBox="0 0 273.997 67.2128">
  <title>gutefrage</title>
  <g id="LOGO">
    <path
      d="M11.5345,42.7926c3.2167,0,4.8385,1.3578,4.8385,3.8944,0,1.9466-1.0623,4.5435-8.29,4.5435C2.0047,51.23.5,49.6959,0.5,47.9553c0-1.6522,1.5349-2.2714,2.9521-2.4184v-0.06c-1.5949-.2944-2.4795-0.8838-2.4795-2.6841A2.7829,2.7829,0,0,1,3.6868,39.99V39.9314a4.06,4.06,0,0,1-2.2115-3.9823c0-3.5995,3.1866-5.2218,6.43-5.2218a8.7966,8.7966,0,0,1,5.0161,1.4457,3.6667,3.6667,0,0,1,3.066-1.4457A2.847,2.847,0,0,1,18.97,33.6186a1.8137,1.8137,0,0,1-1.89,2.0939,1.5858,1.5858,0,0,1-1.7994-1.5633,1.64,1.64,0,0,1,1.357-1.71c0.0605-.1179-0.1472-0.4425-1.0017-0.4425a2.6118,2.6118,0,0,0-1.977,1.2976,5.1838,5.1838,0,0,1,.8244,2.6554c0,3.7753-3.2436,5.1622-6.5777,5.1622A9.1111,9.1111,0,0,1,4.7792,40.61a1.323,1.323,0,0,0-.7977,1.1208c0,0.5314.4726,1.062,2.5065,1.062h5.0465Zm-4.9257,2.98c-2.0373,0-3.1.796-3.1,1.9759,0,1.0617,1.1526,1.829,4.4833,1.829,3.2169,0,4.9593-.6192,4.9593-2.0947a1.7326,1.7326,0,0,0-1.86-1.71H6.6088ZM7.9658,39.46c1.7088,0,2.5667-1.1808,2.5667-3.3926,0-2.5073-.8579-3.6873-2.5667-3.6873-1.6821,0-2.5366,1.18-2.5366,3.54S6.2837,39.46,7.9658,39.46ZM31.33,44.9756v-2.33H31.27a5.2529,5.2529,0,0,1-4.9859,2.7724c-2.7412,0-4.3361-1.386-4.3361-4.13V34.2969a1.0028,1.0028,0,0,0-1.18-1.18H19.2634V31.17h6.1656v9.7943a2.0775,2.0775,0,0,0,2.2717,2.1527,3.8014,3.8014,0,0,0,3.629-3.8052v-5.015c0-.8261-0.5028-1.18-1.4442-1.18H28.29V31.17h6.5209V41.8485c0,0.8562.3518,1.1808,1.6821,1.1808h1.1793v1.9464H31.33ZM38.0837,33.117V31.259c3.0092-.2069,3.7765-2.8623,4.0445-5.5757h1.8261V31.17h3.8971V33.117H44.045V41.82a0.9347,0.9347,0,0,0,1.1191.9731c0.9148,0,1.27-.5016,1.27-1.6813V38.4857h1.9466v2.4787c0,3.097-1.7122,4.4537-4.041,4.4537-2.2115,0-3.7762-.9142-3.7762-3.2741V33.117h-2.48Zm15.8148,5.31c-0.09,2.3008.62,4.7794,3.3607,4.7794,2.1246,0,3.1869-1.0921,3.5723-3.1272h2.4459c-0.3819,3.3624-2.4158,5.3389-6.34,5.3389-4.5736,0-6.9932-2.5668-6.9932-7.345,0-4.3068,2.7745-7.3458,6.846-7.3458,4.835,0,6.8724,4.3369,6.5473,7.7H53.8985ZM59.3837,36.48c0.03-1.8583-.56-3.6873-2.654-3.6873-2.0069,0-2.7441,1.8291-2.8313,3.6873h5.4853Zm5.784-5.31h2.8012V30.4027c0-3.7753,2.0072-5.5756,5.1033-5.5756,1.89,0,4.1318,1.1211,4.1318,3.2749a1.8394,1.8394,0,0,1-1.89,2.0359,1.7862,1.7862,0,0,1-1.9165-1.7113,1.6155,1.6155,0,0,1,1.5044-1.6224,0.1489,0.1489,0,0,1-.0568-0.0887,2.7527,2.7527,0,0,0-1.4476-.4126c-1.5346,0-1.9469,1.0318-1.9469,2.36V31.17H74.46V33.117H71.45v8.7315a1.0042,1.0042,0,0,0,1.18,1.1808h1.7994v1.9464H65.1978V43.0293H66.79a1.003,1.003,0,0,0,1.1794-1.1808V33.117H65.1677V31.17Zm18.1433,2.2417h0.0571c1.1793-1.77,2.0941-2.6844,3.6893-2.6844,1.8864,0,3.5685,1.0921,3.5685,3.2448a2.2656,2.2656,0,0,1-2.2417,2.4786A1.9013,1.9013,0,0,1,86.29,34.5626a1.8017,1.8017,0,0,1,1.9466-1.77,1.5962,1.5962,0,0,0-1.24-.4126c-2.4192,0-3.6592,2.4187-3.6592,4.5424v4.9263a1.0052,1.0052,0,0,0,1.1828,1.1808h1.8563v1.9464H77.0554V43.0293h1.6215a1.0053,1.0053,0,0,0,1.183-1.1808V34.2969a1.0051,1.0051,0,0,0-1.183-1.18H77.0554V31.17h6.2557v2.2417Zm24.84,6.4307v0.8853c0,3.3045-1.33,4.69-3.8066,4.69-1.4743,0-2.7443-.62-2.9791-2.1831a5.5011,5.5011,0,0,1-4.8385,2.1831c-2.3019,0-4.1014-1.0909-4.1014-3.7464,0-5.7226,8.85-2.95,8.85-7.1091,0-1.8881-1.592-2.2419-3.1567-2.2419a3.8379,3.8379,0,0,0-2.7443.9731,1.5023,1.5023,0,0,1,1.9469,1.5346c0,1.3268-.9116,1.74-2.0643,1.74a2.0946,2.0946,0,0,1-2.1242-2.1828c0-3.0092,3.5986-3.6586,5.9309-3.6586,3.984,0,5.693,1.7994,5.693,4.2778v7.227c0,0.6494.2646,0.9742,0.707,0.9742,0.4459,0,.7977-0.4138.7977-2.2419v-1.122h1.89Zm-6.8758-2.1529-3.1266,1.4157A2.3394,2.3394,0,0,0,96.38,41.3469a1.5928,1.5928,0,0,0,1.7693,1.8594c2.0072,0,3.1266-1.7116,3.1266-3.6V37.6895Zm18.8226,5.1031c3.2167,0,4.8385,1.3578,4.8385,3.8944,0,1.9466-1.0623,4.5435-8.29,4.5435-6.0787,0-7.5828-1.5346-7.5828-3.2752,0-1.6522,1.5346-2.2714,2.9521-2.4184v-0.06c-1.5954-.2944-2.48-0.8838-2.48-2.6841A2.7826,2.7826,0,0,1,112.25,39.99V39.9314a4.06,4.06,0,0,1-2.2112-3.9823c0-3.5995,3.1863-5.2218,6.43-5.2218a8.7962,8.7962,0,0,1,5.0164,1.4457,3.6667,3.6667,0,0,1,3.0657-1.4457,2.8471,2.8471,0,0,1,2.9825,2.8913,1.8138,1.8138,0,0,1-1.89,2.0939,1.5859,1.5859,0,0,1-1.8-1.5633,1.64,1.64,0,0,1,1.3572-1.71c0.06-.1179-0.1475-0.4425-1.002-0.4425a2.6128,2.6128,0,0,0-1.977,1.2976,5.1809,5.1809,0,0,1,.8247,2.6554c0,3.7753-3.2436,5.1622-6.578,5.1622a9.1108,9.1108,0,0,1-3.126-.5016,1.323,1.323,0,0,0-.7977,1.1208c0,0.5314.4723,1.062,2.5062,1.062h5.0468Zm-4.9257,2.98c-2.0373,0-3.1.796-3.1,1.9759,0,1.0617,1.1524,1.829,4.4832,1.829,3.2167,0,4.959-.6192,4.959-2.0947a1.7325,1.7325,0,0,0-1.8594-1.71h-4.4833Zm1.3567-6.3131c1.709,0,2.567-1.1808,2.567-3.3926,0-2.5073-.8579-3.6873-2.567-3.6873-1.6821,0-2.5366,1.18-2.5366,3.54S114.8471,39.46,116.5292,39.46Zm16.4317-1.0328c-0.09,2.3008.62,4.7794,3.3613,4.7794,2.124,0,3.1863-1.0921,3.572-3.1272H142.34c-0.3822,3.3624-2.4161,5.3389-6.34,5.3389-4.5739,0-6.9929-2.5668-6.9929-7.345,0-4.3068,2.7742-7.3458,6.8454-7.3458,4.8351,0,6.8724,4.3369,6.5475,7.7h-9.4394Zm5.4853-1.9472c0.03-1.8583-.56-3.6873-2.6537-3.6873-2.0069,0-2.7443,1.8291-2.8316,3.6873h5.4853Zm9.7384,4.5725A2.1829,2.1829,0,1,1,146,43.235,2.142,2.142,0,0,1,148.1846,41.0522Zm11.8291-7.3157H160.07a5.9394,5.9394,0,0,1,5.1334-3.0092c2.5969,0,4.1889,1.5635,4.1889,4.75v6.3717c0,0.8562.3552,1.1808,1.7728,1.1808h1.0617v1.9464h-8.6147V43.0293H164.32c1.24,0,1.5948-.3246,1.5948-1.1808V35.7124c0-2.2118-1.1828-2.6844-2.5968-2.6844a3.634,3.634,0,0,0-3.3039,3.3929v5.4276a1.0029,1.0029,0,0,0,1.1793,1.1808h1.15v1.9464H153.67V43.0293h1.6821a1.0043,1.0043,0,0,0,1.18-1.1808V34.71c0-1.2678-.3552-1.5926-1.89-1.5926H153.67V31.17h6.3432v2.5665Zm17.789,4.69c-0.0907,2.3008.62,4.7794,3.3607,4.7794,2.1245,0,3.1868-1.0921,3.5719-3.1272h2.4465c-0.3822,3.3624-2.4161,5.3389-6.34,5.3389-4.5739,0-6.9935-2.5668-6.9935-7.345,0-4.3068,2.7748-7.3458,6.846-7.3458,4.835,0,6.8724,4.3369,6.5475,7.7h-9.4394Zm5.4853-1.9472c0.03-1.8583-.56-3.6873-2.6537-3.6873-2.0075,0-2.7444,1.8291-2.8316,3.6873h5.4853Zm5.8411-3.3627V31.259c3.009-.2069,3.7762-2.8623,4.0443-5.5757h1.8261V31.17h3.8973V33.117H195.09V41.82a0.9347,0.9347,0,0,0,1.1191.9731c0.9148,0,1.27-.5016,1.27-1.6813V38.4857h1.9466v2.4787c0,3.097-1.7119,4.4537-4.0407,4.4537-2.2118,0-3.7768-.9142-3.7768-3.2741V33.117H189.129Z"
      transform="translate(-0.5 -37)" fill="grey"/>
  </g>
</svg>