<svg id="svg" version="1.1" width="1000" height="372" xmlns="http://www.w3.org/2000/svg"
     xmlns:xlink="http://www.w3.org/1999/xlink" style="display: block;">
  <g id="svgg">
    <path id="the q"
          d="M252.400 63.986 C 252.400 126.838,252.414 127.979,253.174 128.386 C 253.635 128.633,257.249 128.800,262.112 128.800 C 272.528 128.800,271.599 127.897,271.604 138.031 C 271.607 142.304,271.720 146.475,271.857 147.300 L 272.105 148.800 336.052 148.800 L 400.000 148.800 400.000 84.633 L 400.000 20.465 390.861 20.333 C 379.230 20.164,380.401 21.270,380.395 10.451 C 380.392 5.693,380.281 1.395,380.148 0.900 L 379.907 0.000 316.153 0.000 L 252.400 0.000 252.400 63.986 M325.267 10.591 C 327.980 11.137,331.086 12.037,332.168 12.592 C 333.250 13.146,334.420 13.609,334.768 13.619 C 335.780 13.649,341.582 17.120,344.172 19.244 C 345.764 20.549,350.800 25.703,350.800 26.026 C 350.800 26.170,351.428 27.078,352.196 28.044 C 352.964 29.010,353.594 30.003,353.596 30.251 C 353.598 30.499,353.893 30.946,354.252 31.243 C 355.016 31.877,357.393 36.945,357.803 38.816 C 357.960 39.527,358.498 40.939,359.001 41.954 C 359.503 42.969,360.113 44.754,360.357 45.920 C 360.601 47.086,361.062 48.547,361.382 49.166 C 363.434 53.134,363.398 84.990,361.335 89.878 C 360.982 90.715,360.442 92.468,360.134 93.773 C 359.827 95.078,359.240 96.698,358.831 97.373 C 358.421 98.048,357.960 99.198,357.805 99.929 C 357.441 101.647,355.305 106.389,354.472 107.327 C 354.117 107.727,353.461 108.651,353.013 109.381 C 350.671 113.201,347.985 116.216,343.400 120.174 L 342.200 121.210 343.600 122.424 C 348.342 126.537,354.053 128.510,361.800 128.713 C 369.325 128.910,370.347 129.435,368.204 132.000 C 367.928 132.330,367.409 133.500,367.049 134.600 C 366.690 135.700,365.800 137.770,365.071 139.200 L 363.746 141.800 359.125 142.979 L 354.504 144.158 349.631 143.040 C 345.081 141.996,341.152 140.669,338.800 139.382 C 338.250 139.081,337.035 138.447,336.100 137.973 C 335.165 137.500,334.400 136.981,334.400 136.820 C 334.400 136.660,333.905 136.307,333.300 136.037 C 332.275 135.579,331.073 134.847,328.257 132.964 C 327.629 132.544,326.532 131.840,325.819 131.400 C 325.106 130.960,324.090 130.296,323.561 129.925 C 322.770 129.370,321.257 129.215,315.000 129.050 C 307.900 128.862,307.152 128.768,303.633 127.624 C 301.561 126.951,299.689 126.400,299.473 126.400 C 299.075 126.400,295.437 124.765,293.600 123.761 C 293.050 123.460,291.979 122.923,291.219 122.568 C 289.999 121.997,284.187 117.525,283.562 116.677 C 283.432 116.500,282.172 115.089,280.762 113.542 C 279.353 111.995,277.522 109.465,276.693 107.919 C 275.864 106.374,274.829 104.655,274.393 104.101 C 273.957 103.546,273.600 102.891,273.600 102.646 C 273.600 102.401,273.080 101.102,272.445 99.760 C 271.810 98.418,271.160 96.528,271.001 95.560 C 270.841 94.592,270.442 93.170,270.114 92.400 C 269.786 91.630,269.282 89.560,268.994 87.800 C 268.705 86.040,268.146 83.250,267.752 81.600 C 266.715 77.265,266.723 61.253,267.764 56.600 C 268.158 54.840,268.727 51.960,269.029 50.200 C 269.330 48.440,269.937 46.010,270.376 44.800 C 270.815 43.590,271.180 42.177,271.187 41.659 C 271.194 41.141,271.648 39.881,272.196 38.859 C 272.744 37.837,273.474 36.370,273.818 35.600 C 274.162 34.830,274.928 33.375,275.522 32.367 C 276.115 31.358,276.990 29.828,277.468 28.967 C 278.228 27.594,283.256 21.831,284.738 20.635 C 285.034 20.396,285.726 19.787,286.275 19.281 C 287.645 18.021,291.202 15.600,291.683 15.600 C 291.899 15.600,292.554 15.260,293.138 14.845 C 293.722 14.429,295.130 13.814,296.266 13.476 C 297.402 13.139,298.790 12.563,299.352 12.195 C 300.197 11.641,306.313 10.250,311.400 9.454 C 313.804 9.078,320.451 9.623,325.267 10.591 M308.400 25.391 C 307.850 25.700,306.500 26.171,305.400 26.436 C 302.240 27.199,296.297 32.437,294.521 36.024 C 292.608 39.888,291.480 42.699,290.997 44.800 C 290.719 46.010,290.186 48.080,289.812 49.400 C 288.339 54.603,288.577 84.581,290.127 89.003 C 290.434 89.881,290.814 91.465,290.971 92.523 C 291.128 93.581,291.783 95.561,292.428 96.923 C 293.072 98.285,293.600 99.691,293.600 100.046 C 293.600 100.401,293.922 101.121,294.316 101.646 C 294.710 102.171,295.232 103.050,295.478 103.600 C 300.318 114.459,320.238 117.588,330.497 109.100 C 333.201 106.863,337.975 99.271,338.009 97.155 C 338.014 96.850,338.383 95.794,338.830 94.809 C 341.836 88.183,341.666 53.298,338.582 43.800 C 335.600 34.616,329.028 26.400,324.664 26.400 C 324.347 26.400,323.303 26.044,322.344 25.609 C 320.122 24.600,310.084 24.444,308.400 25.391 "
          stroke="none" fill="grey" fill-rule="evenodd"></path>

    <path id="inno"
          d="M311.400 9.454 M7.802 24.281 C 5.133 24.888,3.128 26.475,2.174 28.736 C 1.864 29.471,1.248 30.167,0.805 30.283 C -0.436 30.607,-0.423 37.396,0.819 37.721 C 1.307 37.848,1.894 38.586,2.269 39.538 C 4.405 44.976,13.833 45.477,18.283 40.390 C 22.165 35.951,19.909 26.343,14.590 24.661 C 12.137 23.886,10.057 23.769,7.802 24.281 M322.344 25.609 M15.400 53.850 C 14.960 53.936,13.250 54.275,11.600 54.603 C 9.950 54.932,7.340 55.432,5.800 55.715 L 3.000 56.230 2.898 90.993 C 2.829 114.337,2.930 125.890,3.206 126.166 C 4.078 127.038,16.514 126.983,17.308 126.103 C 17.977 125.363,18.011 123.316,17.908 89.844 C 17.797 53.333,17.798 53.371,16.400 53.653 C 16.290 53.675,15.840 53.763,15.400 53.850 M44.600 54.415 C 43.280 54.840,41.120 55.396,39.800 55.651 C 35.468 56.488,35.197 57.062,36.648 62.335 L 37.600 65.794 37.600 95.648 C 37.600 122.930,37.657 125.549,38.261 126.051 C 38.762 126.466,40.498 126.600,45.400 126.600 C 50.302 126.600,52.038 126.466,52.539 126.051 C 53.141 125.551,53.200 123.221,53.200 99.815 L 53.200 74.129 54.549 72.901 C 55.291 72.226,56.506 71.365,57.249 70.988 C 57.992 70.612,58.870 70.069,59.200 69.782 C 61.625 67.674,64.579 66.670,68.462 66.635 L 72.323 66.600 73.929 68.200 C 76.929 71.190,76.916 71.062,77.071 100.188 L 77.207 125.775 78.103 126.274 C 79.516 127.059,89.963 126.981,91.111 126.177 L 92.000 125.555 91.993 99.277 C 91.984 66.600,91.722 64.223,87.600 59.376 C 81.139 51.780,67.159 51.595,57.400 58.977 C 52.219 62.896,51.459 62.956,50.988 59.480 C 50.276 54.224,48.809 53.061,44.600 54.415 M118.800 54.241 C 117.810 54.563,115.474 55.172,113.609 55.594 C 108.964 56.644,108.389 57.551,110.100 61.122 L 111.000 63.000 111.114 94.262 C 111.217 122.491,111.290 125.577,111.875 126.062 C 112.581 126.649,124.362 126.862,125.700 126.313 C 126.356 126.043,126.400 124.450,126.400 100.839 C 126.400 73.483,126.325 74.344,128.861 72.463 C 135.278 67.702,137.738 66.628,142.262 66.613 L 145.924 66.600 147.494 68.200 C 150.640 71.406,150.582 70.833,150.707 100.000 C 150.808 123.554,150.875 125.844,151.485 126.300 C 152.383 126.972,162.950 126.956,164.532 126.280 L 165.664 125.796 165.617 98.206 C 165.563 66.807,165.439 65.508,162.009 60.344 C 157.111 52.968,141.471 51.237,133.855 57.228 C 133.315 57.653,132.677 58.000,132.437 58.000 C 132.197 58.000,131.626 58.374,131.170 58.830 C 127.600 62.400,124.403 62.781,124.398 59.638 C 124.394 57.360,123.660 55.305,122.532 54.418 C 121.324 53.468,121.189 53.461,118.800 54.241 M205.800 53.963 C 202.521 54.600,198.634 56.149,196.300 57.750 C 192.324 60.477,191.741 60.942,190.546 62.349 C 189.916 63.091,189.012 64.085,188.539 64.559 C 186.937 66.160,182.837 75.138,182.226 78.382 C 181.913 80.042,181.444 82.210,181.184 83.200 C 180.456 85.972,180.542 96.923,181.313 99.600 C 181.661 100.810,182.152 102.959,182.404 104.375 C 182.656 105.791,183.196 107.591,183.604 108.375 C 184.011 109.159,185.122 111.381,186.073 113.314 C 187.855 116.940,191.459 121.173,194.412 123.111 C 195.175 123.612,196.486 124.469,197.324 125.015 C 204.304 129.564,220.002 129.684,226.776 125.240 C 227.339 124.870,228.089 124.395,228.441 124.184 C 232.381 121.825,237.600 116.578,237.600 114.976 C 237.600 114.693,238.025 113.953,238.545 113.331 C 239.065 112.709,239.624 111.750,239.787 111.200 C 239.950 110.650,240.489 109.480,240.984 108.600 C 243.023 104.979,244.181 90.721,243.031 83.400 C 242.720 81.420,242.343 78.677,242.194 77.305 C 242.041 75.898,241.614 74.415,241.216 73.905 C 240.828 73.407,240.373 72.550,240.206 72.000 C 239.875 70.912,237.654 66.950,235.722 64.000 C 235.362 63.450,234.197 62.280,233.134 61.400 C 232.070 60.520,230.885 59.508,230.500 59.151 C 230.115 58.794,229.170 58.187,228.400 57.803 C 227.630 57.418,226.730 56.885,226.400 56.619 C 223.782 54.504,211.299 52.895,205.800 53.963 M216.761 65.711 C 217.510 66.090,218.320 66.401,218.561 66.403 C 220.213 66.414,223.930 71.796,225.466 76.400 L 226.600 79.800 226.600 91.200 L 226.600 102.600 225.456 106.000 C 223.817 110.869,220.786 115.073,218.400 115.785 C 217.850 115.949,216.966 116.358,216.436 116.693 C 213.682 118.434,206.376 117.031,203.838 114.272 C 202.458 112.773,200.113 108.694,199.806 107.258 C 199.648 106.520,199.147 105.080,198.693 104.058 C 196.832 99.868,197.283 81.179,199.388 75.285 C 201.637 68.989,203.368 67.182,209.200 65.043 C 210.434 64.590,215.417 65.030,216.761 65.711 "
          stroke="none" fill="grey" fill-rule="evenodd"></path>
  </g>
</svg>