<svg id="svg" version="1.1" width="1000" height="412" xmlns="http://www.w3.org/2000/svg" xmlns:xlink="http://www.w3.org/1999/xlink" style="display: block;"><g id="svgg">
  <path id="path1" d="M291.010 26.326 C 287.833 26.526,288.000 25.754,288.000 40.249 C 288.000 54.038,287.976 54.184,286.108 51.964 C 278.971 43.482,263.811 41.966,253.800 48.734 C 237.342 59.860,237.682 84.120,254.449 94.925 C 263.955 101.052,278.210 99.552,285.775 91.630 C 287.635 89.682,288.000 89.967,288.000 93.371 C 288.000 97.121,288.402 97.600,291.552 97.600 C 295.591 97.600,295.207 101.345,295.212 61.876 C 295.215 42.778,295.126 27.004,295.015 26.824 C 294.726 26.356,293.311 26.180,291.010 26.326 M310.122 27.182 C 307.333 28.883,307.466 33.543,310.359 35.487 C 312.438 36.883,314.112 36.697,316.092 34.850 C 320.602 30.644,315.400 23.964,310.122 27.182 M294.026 27.614 C 294.984 28.127,295.271 94.969,294.320 95.920 C 294.056 96.184,292.815 96.400,291.563 96.400 C 288.882 96.400,288.803 96.287,288.794 92.467 C 288.784 88.267,288.260 88.131,284.734 91.414 C 271.345 103.882,249.305 97.322,243.618 79.177 C 241.586 72.693,243.388 60.459,246.929 56.699 C 247.188 56.424,248.106 55.321,248.969 54.248 C 257.570 43.553,274.989 42.374,284.592 51.837 C 288.847 56.028,288.566 56.748,288.813 41.000 C 288.931 33.520,289.066 27.355,289.113 27.300 C 289.369 27.005,293.366 27.261,294.026 27.614 M315.876 28.696 C 317.100 30.173,317.319 31.410,316.600 32.800 C 314.688 36.496,309.461 35.729,308.920 31.672 C 308.424 27.952,313.469 25.794,315.876 28.696 M335.400 43.264 C 329.915 43.807,329.790 44.174,329.838 59.600 C 329.874 71.264,330.958 77.122,334.383 84.165 C 341.121 98.023,358.573 103.259,372.278 95.537 C 374.914 94.052,375.253 93.120,373.739 91.526 C 371.217 88.870,370.651 88.656,368.741 89.630 C 357.777 95.223,342.664 89.787,340.165 79.351 C 340.014 78.718,339.690 77.947,339.445 77.639 C 338.687 76.682,338.906 67.245,339.720 65.800 C 340.091 65.140,340.396 64.361,340.398 64.068 C 340.407 61.981,347.939 54.015,349.920 53.998 C 350.074 53.996,350.700 53.734,351.310 53.416 C 357.542 50.165,367.435 52.245,373.191 58.016 C 377.589 62.427,378.600 65.040,378.600 72.000 C 378.600 77.513,378.452 78.222,376.578 81.662 C 375.702 83.270,375.880 84.039,377.564 85.931 C 379.999 88.667,381.901 87.717,383.832 82.800 C 383.962 82.470,384.312 81.570,384.610 80.800 C 387.035 74.533,386.187 64.561,382.728 58.682 C 382.108 57.628,381.600 56.607,381.600 56.414 C 381.600 54.794,373.686 48.466,369.600 46.819 C 368.390 46.331,366.809 45.677,366.086 45.366 C 365.364 45.055,364.407 44.800,363.960 44.800 C 363.513 44.800,362.794 44.611,362.363 44.380 C 359.943 43.085,343.911 42.422,335.400 43.264 M308.895 43.665 C 308.286 44.274,308.177 95.828,308.783 96.786 C 309.328 97.647,314.338 97.857,315.400 97.063 C 316.359 96.346,316.771 46.200,315.833 44.314 C 315.294 43.229,309.841 42.719,308.895 43.665 M359.338 44.802 C 364.031 45.753,367.656 46.754,368.180 47.244 C 368.389 47.440,368.808 47.600,369.110 47.600 C 369.413 47.600,370.888 48.317,372.389 49.194 C 384.424 56.223,388.593 71.461,381.993 84.300 C 380.537 87.134,379.996 87.324,378.474 85.541 C 376.828 83.612,376.719 83.296,377.360 82.309 C 384.126 71.893,377.657 55.811,365.177 52.020 C 355.375 49.043,342.390 54.793,339.790 63.262 C 339.632 63.778,339.361 64.380,339.188 64.600 C 338.689 65.236,338.000 69.536,338.000 72.019 C 338.000 87.369,353.272 97.270,367.567 91.187 C 370.656 89.872,371.042 89.916,372.787 91.781 C 374.570 93.688,370.856 96.139,363.982 97.589 C 342.250 102.176,327.909 82.644,330.804 52.400 C 331.416 46.002,331.584 45.237,332.477 44.759 C 334.944 43.439,352.746 43.467,359.338 44.802 M315.003 44.900 C 315.123 45.395,315.171 57.140,315.110 71.000 L 315.000 96.200 313.027 96.325 C 311.941 96.394,310.636 96.345,310.127 96.217 L 309.200 95.985 309.200 70.472 C 309.200 51.163,309.317 44.843,309.680 44.480 C 310.616 43.544,314.753 43.870,315.003 44.900 M30.200 44.648 C 26.395 45.211,21.833 48.551,20.161 52.000 C 19.788 52.770,19.317 53.731,19.116 54.135 C 18.914 54.539,18.745 56.363,18.740 58.187 C 18.721 64.949,21.940 68.973,31.400 74.016 C 35.000 75.935,37.945 77.852,38.718 78.779 C 45.490 86.899,33.783 95.654,24.800 89.186 C 23.590 88.315,22.174 87.297,21.653 86.924 C 20.572 86.150,16.800 89.439,16.800 91.155 C 16.800 93.105,21.932 96.665,26.711 98.032 C 42.669 102.595,54.866 85.012,43.660 73.601 C 41.809 71.717,35.079 67.200,34.123 67.200 C 33.984 67.200,32.954 66.629,31.835 65.931 C 26.559 62.641,24.659 59.268,26.178 55.887 C 28.596 50.506,35.358 50.119,41.231 55.026 C 43.333 56.782,43.356 56.779,45.660 54.376 C 47.955 51.982,48.000 51.691,46.300 50.149 C 41.530 45.822,35.708 43.833,30.200 44.648 M79.724 44.796 C 78.362 44.989,76.889 45.338,76.450 45.573 C 76.012 45.808,75.331 46.000,74.937 46.000 C 69.890 46.000,57.200 58.546,57.200 63.536 C 57.200 63.818,56.908 64.941,56.552 66.031 C 54.147 73.383,57.734 85.261,64.109 91.063 C 74.244 100.285,91.145 101.442,102.000 93.656 C 108.370 89.086,109.430 86.661,106.022 84.453 C 103.405 82.757,103.133 82.817,99.911 85.800 C 98.366 87.230,96.914 88.400,96.683 88.400 C 96.452 88.400,95.979 88.647,95.631 88.948 C 91.936 92.158,77.664 92.158,73.969 88.948 C 73.621 88.647,73.128 88.400,72.872 88.400 C 72.072 88.400,67.444 83.488,66.465 81.600 C 63.850 76.556,62.921 68.847,64.549 65.699 C 64.907 65.006,65.200 64.151,65.200 63.798 C 65.200 61.772,69.928 56.636,74.000 54.240 C 82.203 49.413,95.246 51.409,101.156 58.396 C 102.831 60.376,103.609 60.405,106.305 58.589 C 108.705 56.973,108.781 56.682,107.360 54.556 C 102.654 47.512,90.605 43.257,79.724 44.796 M140.600 44.663 C 138.338 44.921,134.416 46.172,132.785 47.157 C 132.023 47.617,131.130 48.113,130.800 48.258 C 127.759 49.603,120.016 58.254,119.998 60.329 C 119.996 60.478,119.727 61.114,119.400 61.742 C 118.026 64.376,117.318 71.374,118.005 75.535 C 121.446 96.387,144.075 105.742,160.404 93.062 C 161.722 92.038,162.800 91.021,162.800 90.800 C 162.800 90.580,163.070 90.400,163.400 90.400 C 163.876 90.400,164.000 90.978,164.000 93.200 C 164.000 96.889,164.634 97.600,167.924 97.600 C 171.966 97.600,171.623 100.109,171.504 71.400 L 171.400 46.200 168.208 46.082 C 164.253 45.935,164.000 46.187,164.000 50.276 C 164.000 53.475,163.743 53.757,162.336 52.095 C 157.714 46.639,149.103 43.695,140.600 44.663 M36.583 45.812 C 40.508 46.835,46.400 50.500,46.400 51.920 C 46.400 52.413,43.754 55.200,43.286 55.200 C 43.105 55.200,42.185 54.632,41.241 53.938 C 34.795 49.197,28.400 49.772,25.348 55.365 C 23.330 59.063,26.734 64.589,32.800 67.460 C 33.570 67.825,35.343 68.815,36.741 69.662 C 38.138 70.508,39.401 71.200,39.548 71.200 C 40.131 71.200,44.123 75.011,45.008 76.412 C 49.366 83.316,46.435 92.762,38.835 96.308 C 30.268 100.305,14.147 94.214,19.278 88.919 C 20.876 87.271,20.800 87.264,23.312 89.254 C 33.988 97.712,48.219 86.761,38.534 77.540 C 37.245 76.312,30.107 72.000,29.364 72.000 C 28.974 72.000,25.515 69.487,23.858 68.000 C 13.569 58.761,23.021 42.280,36.583 45.812 M92.278 46.219 C 101.052 48.209,109.661 55.535,105.903 57.814 C 103.430 59.313,103.244 59.308,101.650 57.698 C 98.579 54.596,96.925 53.544,92.000 51.563 C 89.787 50.673,80.451 50.795,77.400 51.754 C 68.946 54.412,61.415 64.892,62.612 72.332 C 65.751 91.840,86.321 99.395,100.621 86.292 L 103.276 83.859 104.628 84.587 C 108.132 86.474,107.767 88.091,102.990 91.852 C 93.773 99.111,75.838 99.588,67.472 92.796 C 49.202 77.963,55.879 49.895,78.600 46.019 C 79.920 45.794,81.450 45.530,82.000 45.433 C 83.704 45.134,89.421 45.571,92.278 46.219 M150.934 46.231 C 153.203 46.816,157.566 48.829,158.659 49.794 C 158.912 50.017,160.223 51.252,161.572 52.538 C 164.716 55.535,165.124 55.307,165.285 50.464 L 165.400 47.000 168.103 46.882 L 170.806 46.763 170.703 71.482 L 170.600 96.200 168.000 96.200 L 165.400 96.200 165.200 92.804 C 164.946 88.490,164.640 88.411,160.768 91.655 C 148.357 102.056,130.119 98.790,122.072 84.726 C 110.660 64.779,128.837 40.534,150.934 46.231 M216.148 45.987 C 218.020 46.465,220.042 47.328,221.312 48.188 C 228.855 53.299,229.665 56.297,229.743 79.400 L 229.800 96.200 227.466 96.321 C 223.757 96.513,224.000 97.682,224.000 79.635 C 224.000 62.759,223.855 61.177,221.956 57.271 C 217.082 47.251,200.354 49.165,194.610 60.400 C 192.396 64.729,192.301 65.525,192.100 81.303 L 191.913 96.007 191.024 96.230 C 190.536 96.352,189.340 96.396,188.368 96.326 L 186.600 96.200 186.600 71.600 L 186.600 47.000 189.200 47.000 L 191.800 47.000 192.000 50.596 C 192.250 55.087,192.574 55.210,195.852 52.053 C 201.793 46.334,209.038 44.168,216.148 45.987 M141.400 51.047 C 123.500 55.610,118.670 77.614,133.174 88.516 C 150.704 101.694,173.014 81.222,162.845 61.288 C 159.266 54.274,148.644 49.201,141.400 51.047 M265.200 51.054 C 247.132 54.625,242.572 79.197,258.113 89.242 C 274.314 99.713,294.446 83.250,288.076 64.739 C 284.827 55.295,274.624 49.191,265.200 51.054 M149.668 52.245 C 160.128 54.911,166.308 65.400,163.949 76.480 C 160.219 93.990,135.966 97.032,127.908 81.000 C 120.185 65.635,133.446 48.111,149.668 52.245 M273.518 52.273 C 288.066 55.921,293.304 75.221,282.618 85.800 C 273.020 95.300,257.673 92.704,251.649 80.561 C 244.126 65.400,257.399 48.231,273.518 52.273 " stroke="none" fill="grey" fill-rule="evenodd"></path>

  <path id="path1" d="M291.010 26.326 C 287.833 26.526,288.000 25.754,288.000 40.249 C 288.000 54.038,287.976 54.184,286.108 51.964 C 278.971 43.482,263.811 41.966,253.800 48.734 C 237.342 59.860,237.682 84.120,254.449 94.925 C 263.955 101.052,278.210 99.552,285.775 91.630 C 287.635 89.682,288.000 89.967,288.000 93.371 C 288.000 97.121,288.402 97.600,291.552 97.600 C 295.591 97.600,295.207 101.345,295.212 61.876 C 295.215 42.778,295.126 27.004,295.015 26.824 C 294.726 26.356,293.311 26.180,291.010 26.326 M310.122 27.182 C 307.333 28.883,307.466 33.543,310.359 35.487 C 312.438 36.883,314.112 36.697,316.092 34.850 C 320.602 30.644,315.400 23.964,310.122 27.182 M294.026 27.614 C 294.984 28.127,295.271 94.969,294.320 95.920 C 294.056 96.184,292.815 96.400,291.563 96.400 C 288.882 96.400,288.803 96.287,288.794 92.467 C 288.784 88.267,288.260 88.131,284.734 91.414 C 271.345 103.882,249.305 97.322,243.618 79.177 C 241.586 72.693,243.388 60.459,246.929 56.699 C 247.188 56.424,248.106 55.321,248.969 54.248 C 257.570 43.553,274.989 42.374,284.592 51.837 C 288.847 56.028,288.566 56.748,288.813 41.000 C 288.931 33.520,289.066 27.355,289.113 27.300 C 289.369 27.005,293.366 27.261,294.026 27.614 M315.876 28.696 C 317.100 30.173,317.319 31.410,316.600 32.800 C 314.688 36.496,309.461 35.729,308.920 31.672 C 308.424 27.952,313.469 25.794,315.876 28.696 M335.400 43.264 C 329.915 43.807,329.790 44.174,329.838 59.600 C 329.874 71.264,330.958 77.122,334.383 84.165 C 341.121 98.023,358.573 103.259,372.278 95.537 C 374.914 94.052,375.253 93.120,373.739 91.526 C 371.217 88.870,370.651 88.656,368.741 89.630 C 357.777 95.223,342.664 89.787,340.165 79.351 C 340.014 78.718,339.690 77.947,339.445 77.639 C 338.687 76.682,338.906 67.245,339.720 65.800 C 340.091 65.140,340.396 64.361,340.398 64.068 C 340.407 61.981,347.939 54.015,349.920 53.998 C 350.074 53.996,350.700 53.734,351.310 53.416 C 357.542 50.165,367.435 52.245,373.191 58.016 C 377.589 62.427,378.600 65.040,378.600 72.000 C 378.600 77.513,378.452 78.222,376.578 81.662 C 375.702 83.270,375.880 84.039,377.564 85.931 C 379.999 88.667,381.901 87.717,383.832 82.800 C 383.962 82.470,384.312 81.570,384.610 80.800 C 387.035 74.533,386.187 64.561,382.728 58.682 C 382.108 57.628,381.600 56.607,381.600 56.414 C 381.600 54.794,373.686 48.466,369.600 46.819 C 368.390 46.331,366.809 45.677,366.086 45.366 C 365.364 45.055,364.407 44.800,363.960 44.800 C 363.513 44.800,362.794 44.611,362.363 44.380 C 359.943 43.085,343.911 42.422,335.400 43.264 M308.895 43.665 C 308.286 44.274,308.177 95.828,308.783 96.786 C 309.328 97.647,314.338 97.857,315.400 97.063 C 316.359 96.346,316.771 46.200,315.833 44.314 C 315.294 43.229,309.841 42.719,308.895 43.665 M359.338 44.802 C 364.031 45.753,367.656 46.754,368.180 47.244 C 368.389 47.440,368.808 47.600,369.110 47.600 C 369.413 47.600,370.888 48.317,372.389 49.194 C 384.424 56.223,388.593 71.461,381.993 84.300 C 380.537 87.134,379.996 87.324,378.474 85.541 C 376.828 83.612,376.719 83.296,377.360 82.309 C 384.126 71.893,377.657 55.811,365.177 52.020 C 355.375 49.043,342.390 54.793,339.790 63.262 C 339.632 63.778,339.361 64.380,339.188 64.600 C 338.689 65.236,338.000 69.536,338.000 72.019 C 338.000 87.369,353.272 97.270,367.567 91.187 C 370.656 89.872,371.042 89.916,372.787 91.781 C 374.570 93.688,370.856 96.139,363.982 97.589 C 342.250 102.176,327.909 82.644,330.804 52.400 C 331.416 46.002,331.584 45.237,332.477 44.759 C 334.944 43.439,352.746 43.467,359.338 44.802 M315.003 44.900 C 315.123 45.395,315.171 57.140,315.110 71.000 L 315.000 96.200 313.027 96.325 C 311.941 96.394,310.636 96.345,310.127 96.217 L 309.200 95.985 309.200 70.472 C 309.200 51.163,309.317 44.843,309.680 44.480 C 310.616 43.544,314.753 43.870,315.003 44.900 M30.200 44.648 C 26.395 45.211,21.833 48.551,20.161 52.000 C 19.788 52.770,19.317 53.731,19.116 54.135 C 18.914 54.539,18.745 56.363,18.740 58.187 C 18.721 64.949,21.940 68.973,31.400 74.016 C 35.000 75.935,37.945 77.852,38.718 78.779 C 45.490 86.899,33.783 95.654,24.800 89.186 C 23.590 88.315,22.174 87.297,21.653 86.924 C 20.572 86.150,16.800 89.439,16.800 91.155 C 16.800 93.105,21.932 96.665,26.711 98.032 C 42.669 102.595,54.866 85.012,43.660 73.601 C 41.809 71.717,35.079 67.200,34.123 67.200 C 33.984 67.200,32.954 66.629,31.835 65.931 C 26.559 62.641,24.659 59.268,26.178 55.887 C 28.596 50.506,35.358 50.119,41.231 55.026 C 43.333 56.782,43.356 56.779,45.660 54.376 C 47.955 51.982,48.000 51.691,46.300 50.149 C 41.530 45.822,35.708 43.833,30.200 44.648 M79.724 44.796 C 78.362 44.989,76.889 45.338,76.450 45.573 C 76.012 45.808,75.331 46.000,74.937 46.000 C 69.890 46.000,57.200 58.546,57.200 63.536 C 57.200 63.818,56.908 64.941,56.552 66.031 C 54.147 73.383,57.734 85.261,64.109 91.063 C 74.244 100.285,91.145 101.442,102.000 93.656 C 108.370 89.086,109.430 86.661,106.022 84.453 C 103.405 82.757,103.133 82.817,99.911 85.800 C 98.366 87.230,96.914 88.400,96.683 88.400 C 96.452 88.400,95.979 88.647,95.631 88.948 C 91.936 92.158,77.664 92.158,73.969 88.948 C 73.621 88.647,73.128 88.400,72.872 88.400 C 72.072 88.400,67.444 83.488,66.465 81.600 C 63.850 76.556,62.921 68.847,64.549 65.699 C 64.907 65.006,65.200 64.151,65.200 63.798 C 65.200 61.772,69.928 56.636,74.000 54.240 C 82.203 49.413,95.246 51.409,101.156 58.396 C 102.831 60.376,103.609 60.405,106.305 58.589 C 108.705 56.973,108.781 56.682,107.360 54.556 C 102.654 47.512,90.605 43.257,79.724 44.796 M140.600 44.663 C 138.338 44.921,134.416 46.172,132.785 47.157 C 132.023 47.617,131.130 48.113,130.800 48.258 C 127.759 49.603,120.016 58.254,119.998 60.329 C 119.996 60.478,119.727 61.114,119.400 61.742 C 118.026 64.376,117.318 71.374,118.005 75.535 C 121.446 96.387,144.075 105.742,160.404 93.062 C 161.722 92.038,162.800 91.021,162.800 90.800 C 162.800 90.580,163.070 90.400,163.400 90.400 C 163.876 90.400,164.000 90.978,164.000 93.200 C 164.000 96.889,164.634 97.600,167.924 97.600 C 171.966 97.600,171.623 100.109,171.504 71.400 L 171.400 46.200 168.208 46.082 C 164.253 45.935,164.000 46.187,164.000 50.276 C 164.000 53.475,163.743 53.757,162.336 52.095 C 157.714 46.639,149.103 43.695,140.600 44.663 M36.583 45.812 C 40.508 46.835,46.400 50.500,46.400 51.920 C 46.400 52.413,43.754 55.200,43.286 55.200 C 43.105 55.200,42.185 54.632,41.241 53.938 C 34.795 49.197,28.400 49.772,25.348 55.365 C 23.330 59.063,26.734 64.589,32.800 67.460 C 33.570 67.825,35.343 68.815,36.741 69.662 C 38.138 70.508,39.401 71.200,39.548 71.200 C 40.131 71.200,44.123 75.011,45.008 76.412 C 49.366 83.316,46.435 92.762,38.835 96.308 C 30.268 100.305,14.147 94.214,19.278 88.919 C 20.876 87.271,20.800 87.264,23.312 89.254 C 33.988 97.712,48.219 86.761,38.534 77.540 C 37.245 76.312,30.107 72.000,29.364 72.000 C 28.974 72.000,25.515 69.487,23.858 68.000 C 13.569 58.761,23.021 42.280,36.583 45.812 M92.278 46.219 C 101.052 48.209,109.661 55.535,105.903 57.814 C 103.430 59.313,103.244 59.308,101.650 57.698 C 98.579 54.596,96.925 53.544,92.000 51.563 C 89.787 50.673,80.451 50.795,77.400 51.754 C 68.946 54.412,61.415 64.892,62.612 72.332 C 65.751 91.840,86.321 99.395,100.621 86.292 L 103.276 83.859 104.628 84.587 C 108.132 86.474,107.767 88.091,102.990 91.852 C 93.773 99.111,75.838 99.588,67.472 92.796 C 49.202 77.963,55.879 49.895,78.600 46.019 C 79.920 45.794,81.450 45.530,82.000 45.433 C 83.704 45.134,89.421 45.571,92.278 46.219 M150.934 46.231 C 153.203 46.816,157.566 48.829,158.659 49.794 C 158.912 50.017,160.223 51.252,161.572 52.538 C 164.716 55.535,165.124 55.307,165.285 50.464 L 165.400 47.000 168.103 46.882 L 170.806 46.763 170.703 71.482 L 170.600 96.200 168.000 96.200 L 165.400 96.200 165.200 92.804 C 164.946 88.490,164.640 88.411,160.768 91.655 C 148.357 102.056,130.119 98.790,122.072 84.726 C 110.660 64.779,128.837 40.534,150.934 46.231 M216.148 45.987 C 218.020 46.465,220.042 47.328,221.312 48.188 C 228.855 53.299,229.665 56.297,229.743 79.400 L 229.800 96.200 227.466 96.321 C 223.757 96.513,224.000 97.682,224.000 79.635 C 224.000 62.759,223.855 61.177,221.956 57.271 C 217.082 47.251,200.354 49.165,194.610 60.400 C 192.396 64.729,192.301 65.525,192.100 81.303 L 191.913 96.007 191.024 96.230 C 190.536 96.352,189.340 96.396,188.368 96.326 L 186.600 96.200 186.600 71.600 L 186.600 47.000 189.200 47.000 L 191.800 47.000 192.000 50.596 C 192.250 55.087,192.574 55.210,195.852 52.053 C 201.793 46.334,209.038 44.168,216.148 45.987 M141.400 51.047 C 123.500 55.610,118.670 77.614,133.174 88.516 C 150.704 101.694,173.014 81.222,162.845 61.288 C 159.266 54.274,148.644 49.201,141.400 51.047 M265.200 51.054 C 247.132 54.625,242.572 79.197,258.113 89.242 C 274.314 99.713,294.446 83.250,288.076 64.739 C 284.827 55.295,274.624 49.191,265.200 51.054 M149.668 52.245 C 160.128 54.911,166.308 65.400,163.949 76.480 C 160.219 93.990,135.966 97.032,127.908 81.000 C 120.185 65.635,133.446 48.111,149.668 52.245 M273.518 52.273 C 288.066 55.921,293.304 75.221,282.618 85.800 C 273.020 95.300,257.673 92.704,251.649 80.561 C 244.126 65.400,257.399 48.231,273.518 52.273 " stroke="none" fill="blue" fill-rule="evenodd"></path>

  <path id="n" d="M207.800 44.681 C 203.874 45.207,198.135 48.312,195.066 51.571 C 192.972 53.796,192.848 53.697,192.716 49.700 L 192.600 46.200 189.408 46.082 C 186.750 45.983,186.131 46.079,185.708 46.658 C 184.718 48.013,184.996 95.796,186.000 96.800 C 186.882 97.682,189.938 97.908,191.735 97.225 L 192.723 96.849 192.917 82.725 C 193.160 64.983,193.486 63.140,197.265 58.152 C 203.782 49.551,216.975 49.319,221.267 57.731 C 222.766 60.670,223.184 65.853,223.192 81.638 C 223.201 98.609,222.954 97.600,227.103 97.600 C 231.028 97.600,230.802 98.553,230.787 82.071 C 230.772 66.153,230.439 60.926,229.197 57.081 C 226.318 48.170,217.951 43.321,207.800 44.681 " stroke="none" fill="red" fill-rule="evenodd"></path>



  <path id="circle" d="M355.921 68.114 C 352.515 70.908,353.737 75.944,358.079 77.011 C 360.814 77.683,364.000 74.985,364.000 71.996 C 364.000 68.074,358.936 65.641,355.921 68.114 M361.497 68.714 C 362.801 69.549,363.456 72.017,362.796 73.610 C 361.042 77.845,355.000 76.599,355.000 72.002 C 355.000 68.383,358.339 66.694,361.497 68.714" stroke="none" fill="grey" fill-rule="evenodd"></path>
</g></svg>