<svg id="svg" version="1.1" width="1000" height="412" xmlns="http://www.w3.org/2000/svg" xmlns:xlink="http://www.w3.org/1999/xlink" style="display: block;"> <g id="svgg">
        <path id="path1" d="m 291.01,26.326 c -3.177,0.2 -3.01,-0.572 -3.01,13.923 0,13.789 -0.024,13.935 -1.892,11.715 -7.137,-8.482 -22.297,-9.998 -32.308,-3.23 -16.458,11.126 -16.118,35.386 0.649,46.191 9.506,6.127 23.761,4.627 31.326,-3.295 1.86,-1.948 2.225,-1.663 2.225,1.741 0,3.75 0.402,4.229 3.552,4.229 4.039,0 3.655,3.745 3.66,-35.724 0.003,-19.098 -0.086,-34.872 -0.197,-35.052 -0.289,-0.468 -1.704,-0.644 -4.005,-0.498 m 19.112,0.856 c -2.789,1.701 -2.656,6.361 0.237,8.305 2.079,1.396 3.753,1.21 5.733,-0.637 4.51,-4.206 -0.692,-10.886 -5.97,-7.668 m -16.096,0.432 c 0.958,0.513 1.245,67.355 0.294,68.306 -0.264,0.264 -1.505,0.48 -2.757,0.48 -2.681,0 -2.76,-0.113 -2.769,-3.933 -0.01,-4.2 -0.534,-4.336 -4.06,-1.053 -13.389,12.468 -35.429,5.908 -41.116,-12.237 -2.032,-6.484 -0.23,-18.718 3.311,-22.478 0.259,-0.275 1.177,-1.378 2.04,-2.451 8.601,-10.695 26.02,-11.874 35.623,-2.411 4.255,4.191 3.974,4.911 4.221,-10.837 0.118,-7.48 0.253,-13.645 0.3,-13.7 0.256,-0.295 4.253,-0.039 4.913,0.314 m 21.85,1.082 c 1.224,1.477 1.443,2.714 0.724,4.104 -1.912,3.696 -7.139,2.929 -7.68,-1.128 -0.496,-3.72 4.549,-5.878 6.956,-2.976 M 335.4,43.264 c -5.485,0.543 -5.61,0.91 -5.562,16.336 0.036,11.664 1.12,17.522 4.545,24.565 6.738,13.858 24.19,19.094 37.895,11.372 2.636,-1.485 2.975,-2.417 1.461,-4.011 -2.522,-2.656 -3.088,-2.87 -4.998,-1.896 -10.964,5.593 -26.077,0.157 -28.576,-10.279 -0.151,-0.633 -0.475,-1.404 -0.72,-1.712 -0.758,-0.957 -0.539,-10.394 0.275,-11.839 0.371,-0.66 0.676,-1.439 0.678,-1.732 0.009,-2.087 7.541,-10.053 9.522,-10.07 0.154,-0.002 0.78,-0.264 1.39,-0.582 6.232,-3.251 16.125,-1.171 21.881,4.6 4.398,4.411 5.409,7.024 5.409,13.984 0,5.513 -0.148,6.222 -2.022,9.662 -0.876,1.608 -0.698,2.377 0.986,4.269 2.435,2.736 4.337,1.786 6.268,-3.131 0.13,-0.33 0.48,-1.23 0.778,-2 2.425,-6.267 1.577,-16.239 -1.882,-22.118 -0.62,-1.054 -1.128,-2.075 -1.128,-2.268 0,-1.62 -7.914,-7.948 -12,-9.595 -1.21,-0.488 -2.791,-1.142 -3.514,-1.453 -0.722,-0.311 -1.679,-0.566 -2.126,-0.566 -0.447,0 -1.166,-0.189 -1.597,-0.42 -2.42,-1.295 -18.452,-1.958 -26.963,-1.116 m -26.505,0.401 c -0.609,0.609 -0.718,52.163 -0.112,53.121 0.545,0.861 5.555,1.071 6.617,0.277 0.959,-0.717 1.371,-50.863 0.433,-52.749 -0.539,-1.085 -5.992,-1.595 -6.938,-0.649 m 50.443,1.137 c 4.693,0.951 8.318,1.952 8.842,2.442 0.209,0.196 0.628,0.356 0.93,0.356 0.303,0 1.778,0.717 3.279,1.594 12.035,7.029 16.204,22.267 9.604,35.106 -1.456,2.834 -1.997,3.024 -3.519,1.241 -1.646,-1.929 -1.755,-2.245 -1.114,-3.232 6.766,-10.416 0.297,-26.498 -12.183,-30.289 -9.802,-2.977 -22.787,2.773 -25.387,11.242 -0.158,0.516 -0.429,1.118 -0.602,1.338 -0.499,0.636 -1.188,4.936 -1.188,7.419 0,15.35 15.272,25.251 29.567,19.168 3.089,-1.315 3.475,-1.271 5.22,0.594 1.783,1.907 -1.931,4.358 -8.805,5.808 -21.732,4.587 -36.073,-14.945 -33.178,-45.189 0.612,-6.398 0.78,-7.163 1.673,-7.641 2.467,-1.32 20.269,-1.292 26.861,0.043 M 315.003,44.9 c 0.12,0.495 0.168,12.24 0.107,26.1 l -0.11,25.2 -1.973,0.125 c -1.086,0.069 -2.391,0.02 -2.9,-0.108 l -0.927,-0.232 0,-25.513 c 0,-19.309 0.117,-25.629 0.48,-25.992 0.936,-0.936 5.073,-0.61 5.323,0.42 M 30.2,44.648 c -3.805,0.563 -8.367,3.903 -10.039,7.352 -0.373,0.77 -0.844,1.731 -1.045,2.135 -0.202,0.404 -0.371,2.228 -0.376,4.052 -0.019,6.762 3.2,10.786 12.66,15.829 3.6,1.919 6.545,3.836 7.318,4.763 6.772,8.12 -4.935,16.875 -13.918,10.407 -1.21,-0.871 -2.626,-1.889 -3.147,-2.262 -1.081,-0.774 -4.853,2.515 -4.853,4.231 0,1.95 5.132,5.51 9.911,6.877 15.958,4.563 28.155,-13.02 16.949,-24.431 -1.851,-1.884 -8.581,-6.401 -9.537,-6.401 -0.139,0 -1.169,-0.571 -2.288,-1.269 -5.276,-3.29 -7.176,-6.663 -5.657,-10.044 2.418,-5.381 9.18,-5.768 15.053,-0.861 2.102,1.756 2.125,1.753 4.429,-0.65 C 47.955,51.982 48,51.691 46.3,50.149 41.53,45.822 35.708,43.833 30.2,44.648 m 49.524,0.148 C 78.362,44.989 76.889,45.338 76.45,45.573 76.012,45.808 75.331,46 74.937,46 69.89,46 57.2,58.546 57.2,63.536 c 0,0.282 -0.292,1.405 -0.648,2.495 -2.405,7.352 1.182,19.23 7.557,25.032 10.135,9.222 27.036,10.379 37.891,2.593 6.37,-4.57 7.43,-6.995 4.022,-9.203 -2.617,-1.696 -2.889,-1.636 -6.111,1.347 -1.545,1.43 -2.997,2.6 -3.228,2.6 -0.231,0 -0.704,0.247 -1.052,0.548 -3.695,3.21 -17.967,3.21 -21.662,0 -0.348,-0.301 -0.841,-0.548 -1.097,-0.548 -0.8,0 -5.428,-4.912 -6.407,-6.8 -2.615,-5.044 -3.544,-12.753 -1.916,-15.901 0.358,-0.693 0.651,-1.548 0.651,-1.901 0,-2.026 4.728,-7.162 8.8,-9.558 8.203,-4.827 21.246,-2.831 27.156,4.156 1.675,1.98 2.453,2.009 5.149,0.193 2.4,-1.616 2.476,-1.907 1.055,-4.033 -4.706,-7.044 -16.755,-11.299 -27.636,-9.76 M 140.6,44.663 c -2.262,0.258 -6.184,1.509 -7.815,2.494 -0.762,0.46 -1.655,0.956 -1.985,1.101 -3.041,1.345 -10.784,9.996 -10.802,12.071 -0.002,0.149 -0.271,0.785 -0.598,1.413 -1.374,2.634 -2.082,9.632 -1.395,13.793 3.441,20.852 26.07,30.207 42.399,17.527 1.318,-1.024 2.396,-2.041 2.396,-2.262 0,-0.22 0.27,-0.4 0.6,-0.4 0.476,0 0.6,0.578 0.6,2.8 0,3.689 0.634,4.4 3.924,4.4 4.042,0 3.699,2.509 3.58,-26.2 L 171.4,46.2 168.208,46.082 C 164.253,45.935 164,46.187 164,50.276 c 0,3.199 -0.257,3.481 -1.664,1.819 -4.622,-5.456 -13.233,-8.4 -21.736,-7.432 M 36.583,45.812 c 3.925,1.023 9.817,4.688 9.817,6.108 0,0.493 -2.646,3.28 -3.114,3.28 -0.181,0 -1.101,-0.568 -2.045,-1.262 -6.446,-4.741 -12.841,-4.166 -15.893,1.427 -2.018,3.698 1.386,9.224 7.452,12.095 0.77,0.365 2.543,1.355 3.941,2.202 1.397,0.846 2.66,1.538 2.807,1.538 0.583,0 4.575,3.811 5.46,5.212 4.358,6.904 1.427,16.35 -6.173,19.896 -8.567,3.997 -24.688,-2.094 -19.557,-7.389 1.598,-1.648 1.522,-1.655 4.034,0.335 C 33.988,97.712 48.219,86.761 38.534,77.54 37.245,76.312 30.107,72 29.364,72 28.974,72 25.515,69.487 23.858,68 13.569,58.761 23.021,42.28 36.583,45.812 m 55.695,0.407 c 8.774,1.99 17.383,9.316 13.625,11.595 -2.473,1.499 -2.659,1.494 -4.253,-0.116 -3.071,-3.102 -4.725,-4.154 -9.65,-6.135 -2.213,-0.89 -11.549,-0.768 -14.6,0.191 -8.454,2.658 -15.985,13.138 -14.788,20.578 3.139,19.508 23.709,27.063 38.009,13.96 l 2.655,-2.433 1.352,0.728 c 3.504,1.887 3.139,3.504 -1.638,7.265 -9.217,7.259 -27.152,7.736 -35.518,0.944 C 49.202,77.963 55.879,49.895 78.6,46.019 c 1.32,-0.225 2.85,-0.489 3.4,-0.586 1.704,-0.299 7.421,0.138 10.278,0.786 m 58.656,0.012 c 2.269,0.585 6.632,2.598 7.725,3.563 0.253,0.223 1.564,1.458 2.913,2.744 3.144,2.997 3.552,2.769 3.713,-2.074 L 165.4,47 l 2.703,-0.118 2.703,-0.119 -0.103,24.719 -0.103,24.718 -2.6,0 -2.6,0 -0.2,-3.396 c -0.254,-4.314 -0.56,-4.393 -4.432,-1.149 -12.411,10.401 -30.649,7.135 -38.696,-6.929 -11.412,-19.947 6.765,-44.192 28.862,-38.495 m 65.214,-0.244 c 1.872,0.478 3.894,1.341 5.164,2.201 7.543,5.111 8.353,8.109 8.431,31.212 l 0.057,16.8 -2.334,0.121 C 223.757,96.513 224,97.682 224,79.635 c 0,-16.876 -0.145,-18.458 -2.044,-22.364 -4.874,-10.02 -21.602,-8.106 -27.346,3.129 -2.214,4.329 -2.309,5.125 -2.51,20.903 l -0.187,14.704 -0.889,0.223 c -0.488,0.122 -1.684,0.166 -2.656,0.096 L 186.6,96.2 l 0,-24.6 0,-24.6 2.6,0 2.6,0 0.2,3.596 c 0.25,4.491 0.574,4.614 3.852,1.457 5.941,-5.719 13.186,-7.885 20.296,-6.066 m -74.748,5.06 c -17.9,4.563 -22.73,26.567 -8.226,37.469 17.53,13.178 39.84,-7.294 29.671,-27.228 C 159.266,54.274 148.644,49.201 141.4,51.047 m 123.8,0.007 c -18.068,3.571 -22.628,28.143 -7.087,38.188 16.201,10.471 36.333,-5.992 29.963,-24.503 C 284.827,55.295 274.624,49.191 265.2,51.054 m -115.532,1.191 c 10.46,2.666 16.64,13.155 14.281,24.235 -3.73,17.51 -27.983,20.552 -36.041,4.52 -7.723,-15.365 5.538,-32.889 21.76,-28.755 m 123.85,0.028 c 14.548,3.648 19.786,22.948 9.1,33.527 -9.598,9.5 -24.945,6.904 -30.969,-5.239 -7.523,-15.161 5.75,-32.33 21.869,-28.288"
          stroke="none" fill="grey" fill-rule="evenodd"></path>
        <path
           d="m 291.01,26.326 c -3.177,0.2 -3.01,-0.572 -3.01,13.923 0,13.789 -0.024,13.935 -1.892,11.715 -7.137,-8.482 -22.297,-9.998 -32.308,-3.23 -16.458,11.126 -16.118,35.386 0.649,46.191 9.506,6.127 23.761,4.627 31.326,-3.295 1.86,-1.948 2.225,-1.663 2.225,1.741 0,3.75 0.402,4.229 3.552,4.229 4.039,0 3.655,3.745 3.66,-35.724 0.003,-19.098 -0.086,-34.872 -0.197,-35.052 -0.289,-0.468 -1.704,-0.644 -4.005,-0.498 m 19.112,0.856 c -2.789,1.701 -2.656,6.361 0.237,8.305 2.079,1.396 3.753,1.21 5.733,-0.637 4.51,-4.206 -0.692,-10.886 -5.97,-7.668 M 335.4,43.264 c -5.485,0.543 -5.61,0.91 -5.562,16.336 0.036,11.664 1.12,17.522 4.545,24.565 6.738,13.858 24.19,19.094 37.895,11.372 2.636,-1.485 2.975,-2.417 1.461,-4.011 -2.522,-2.656 -3.088,-2.87 -4.998,-1.896 -10.964,5.593 -26.077,0.157 -28.576,-10.279 -0.151,-0.633 -0.475,-1.404 -0.72,-1.712 -0.758,-0.957 -0.539,-10.394 0.275,-11.839 0.371,-0.66 0.676,-1.439 0.678,-1.732 0.009,-2.087 7.541,-10.053 9.522,-10.07 0.154,-0.002 0.78,-0.264 1.39,-0.582 6.232,-3.251 16.125,-1.171 21.881,4.6 4.398,4.411 5.409,7.024 5.409,13.984 0,5.513 -0.148,6.222 -2.022,9.662 -0.876,1.608 -0.698,2.377 0.986,4.269 2.435,2.736 4.337,1.786 6.268,-3.131 0.13,-0.33 0.48,-1.23 0.778,-2 2.425,-6.267 1.577,-16.239 -1.882,-22.118 -0.62,-1.054 -1.128,-2.075 -1.128,-2.268 0,-1.62 -7.914,-7.948 -12,-9.595 -1.21,-0.488 -2.791,-1.142 -3.514,-1.453 -0.722,-0.311 -1.679,-0.566 -2.126,-0.566 -0.447,0 -1.166,-0.189 -1.597,-0.42 -2.42,-1.295 -18.452,-1.958 -26.963,-1.116 m -26.505,0.401 c -0.609,0.609 -0.718,52.163 -0.112,53.121 0.545,0.861 5.555,1.071 6.617,0.277 0.959,-0.717 1.371,-50.863 0.433,-52.749 -0.539,-1.085 -5.992,-1.595 -6.938,-0.649 M 30.2,44.648 c -3.805,0.563 -8.367,3.903 -10.039,7.352 -0.373,0.77 -0.844,1.731 -1.045,2.135 -0.202,0.404 -0.371,2.228 -0.376,4.052 -0.019,6.762 3.2,10.786 12.66,15.829 3.6,1.919 6.545,3.836 7.318,4.763 6.772,8.12 -4.935,16.875 -13.918,10.407 -1.21,-0.871 -2.626,-1.889 -3.147,-2.262 -1.081,-0.774 -4.853,2.515 -4.853,4.231 0,1.95 5.132,5.51 9.911,6.877 15.958,4.563 28.155,-13.02 16.949,-24.431 -1.851,-1.884 -8.581,-6.401 -9.537,-6.401 -0.139,0 -1.169,-0.571 -2.288,-1.269 -5.276,-3.29 -7.176,-6.663 -5.657,-10.044 2.418,-5.381 9.18,-5.768 15.053,-0.861 2.102,1.756 2.125,1.753 4.429,-0.65 C 47.955,51.982 48,51.691 46.3,50.149 41.53,45.822 35.708,43.833 30.2,44.648 m 49.524,0.148 C 65.90175,46.180842 55.197795,59.41871 55.748429,71.656 56.215427,82.034575 62.689225,94.090628 75.091143,97.223714 83.863648,99.439905 93.734286,99.031286 102,93.656 c 6.37,-4.57 7.43,-6.995 4.022,-9.203 -2.617,-1.696 -2.889,-1.636 -6.111,1.347 -1.545,1.43 -2.997,2.6 -3.228,2.6 -6.523911,3.547238 -15.733791,3.486561 -22.714,0.548 C 70.022434,87.286556 66.878169,83.492269 65.215,79.546429 63.420116,75.288099 62.763897,69.961439 64.549,65.699 66.95249,59.959988 72.441039,54.817831 78.464286,53.257857 85.971964,51.313427 95.246,51.409 101.156,58.396 c 1.675,1.98 2.453,2.009 5.149,0.193 2.4,-1.616 2.476,-1.907 1.055,-4.033 C 102.654,47.512 90.426429,43.167714 79.545429,44.706714 M 140.6,44.663 c -2.262,0.258 -6.184,1.509 -7.815,2.494 -0.762,0.46 -1.655,0.956 -1.985,1.101 -3.041,1.345 -10.784,9.996 -10.802,12.071 -0.002,0.149 -0.271,0.785 -0.598,1.413 -1.374,2.634 -2.082,9.632 -1.395,13.793 3.441,20.852 26.07,30.207 42.399,17.527 1.318,-1.024 2.396,-2.041 2.396,-2.262 0,-0.22 0.27,-0.4 0.6,-0.4 0.476,0 0.6,0.578 0.6,2.8 0,3.689 0.634,4.4 3.924,4.4 4.042,0 3.699,2.509 3.58,-26.2 L 171.4,46.2 168.208,46.082 C 164.253,45.935 164,46.187 164,50.276 c 0,3.199 -0.257,3.481 -1.664,1.819 -4.622,-5.456 -13.233,-8.4 -21.736,-7.432 m 75.548,1.324 c 1.872,0.478 3.894,1.341 5.164,2.201 7.543,5.111 8.353,8.109 8.431,31.212 l 0.057,16.8 -2.334,0.121 C 223.757,96.513 224,97.682 224,79.635 c 0,-16.876 -0.145,-18.458 -2.044,-22.364 -4.874,-10.02 -21.602,-8.106 -27.346,3.129 -2.214,4.329 -2.309,5.125 -2.51,20.903 l -0.187,14.704 -0.889,0.223 c -0.488,0.122 -1.684,0.166 -2.656,0.096 L 186.6,96.2 l 0,-24.6 0,-24.6 2.6,0 2.6,0 0.2,3.596 c 0.25,4.491 0.574,4.614 3.852,1.457 5.941,-5.719 13.186,-7.885 20.296,-6.066 m -66.48,6.258 c 10.46,2.666 16.64,13.155 14.281,24.235 -3.73,17.51 -27.983,20.552 -36.041,4.52 -7.723,-15.365 5.538,-32.889 21.76,-28.755 m 123.85,0.028 c 14.548,3.648 19.786,22.948 9.1,33.527 -9.598,9.5 -24.945,6.904 -30.969,-5.239 -7.523,-15.161 5.75,-32.33 21.869,-28.288"
           id="path3390"
           stroke="none" fill="grey" fill-rule="evenodd"></path>
        <path
           id="n"
           d="m 207.8,44.681 c -3.926,0.526 -9.665,3.631 -12.734,6.89 -2.094,2.225 -2.218,2.126 -2.35,-1.871 l -0.116,-3.5 -3.192,-0.118 c -2.658,-0.099 -3.277,-0.003 -3.7,0.576 -0.99,1.355 -0.712,49.138 0.292,50.142 0.882,0.882 3.938,1.108 5.735,0.425 l 0.988,-0.376 0.194,-14.124 c 0.243,-17.742 0.569,-19.585 4.348,-24.573 6.517,-8.601 19.71,-8.833 24.002,-0.421 1.499,2.939 1.917,8.122 1.925,23.907 0.009,16.971 -0.238,15.962 3.911,15.962 3.925,0 3.699,0.953 3.684,-15.529 -0.015,-15.918 -0.348,-21.145 -1.59,-24.99 -2.879,-8.911 -11.246,-13.76 -21.397,-12.4"
           stroke="none" fill="grey" fill-rule="evenodd"></path>
        <path
           id="circle"
           d="m 355.921,68.114 c -3.406,2.794 -2.184,7.83 2.158,8.897 2.735,0.672 5.921,-2.026 5.921,-5.015 0,-3.922 -5.064,-6.355 -8.079,-3.882"
           stroke="none" fill="grey" fill-rule="evenodd"></path>
      </g>
</svg>
