<svg id="svg" version="1.1" width="1000" height="177" xmlns="http://www.w3.org/2000/svg" xmlns:xlink="http://www.w3.org/1999/xlink" style="display: block;"><g id="svgg"><path id="path0" d="M272.800 28.303 C 272.800 51.249,272.865 52.278,274.469 54.618 C 276.271 57.248,282.941 59.151,283.356 57.153 C 284.079 53.673,284.055 53.271,283.112 52.986 C 278.608 51.627,278.805 52.802,278.802 27.300 L 278.800 6.000 275.800 6.000 L 272.800 6.000 272.800 28.303 M333.600 31.157 L 333.600 56.313 336.500 57.009 C 343.176 58.611,351.430 58.250,355.841 56.163 C 368.314 50.262,367.672 27.869,354.885 22.854 C 351.977 21.714,344.779 21.722,342.600 22.868 C 341.940 23.215,340.995 23.624,340.500 23.776 L 339.600 24.054 339.600 15.027 L 339.600 6.000 336.600 6.000 L 333.600 6.000 333.600 31.157 M147.743 8.397 C 145.503 9.301,144.836 12.873,146.582 14.618 C 148.834 16.871,153.207 15.350,153.195 12.318 C 153.181 8.933,150.749 7.184,147.743 8.397 M119.845 22.041 C 113.346 22.990,109.787 27.873,110.976 34.210 C 111.467 36.829,115.427 40.130,119.600 41.400 C 122.489 42.279,127.349 45.025,128.050 46.175 C 131.392 51.656,123.576 55.106,114.300 52.243 L 111.200 51.287 111.200 53.999 L 111.200 56.711 113.757 57.403 C 121.959 59.624,132.198 57.052,134.196 52.270 C 136.950 45.680,133.313 40.611,123.378 37.193 C 116.371 34.782,114.385 30.189,119.161 27.439 C 120.905 26.435,126.882 26.391,129.550 27.363 C 132.018 28.261,132.000 28.276,132.000 25.427 C 132.000 22.435,132.193 22.571,127.146 21.991 C 123.392 21.559,123.136 21.561,119.845 22.041 M302.800 21.848 C 301.810 21.925,300.055 22.184,298.900 22.423 L 296.800 22.857 296.800 25.392 L 296.800 27.928 298.900 27.369 C 307.379 25.111,313.083 27.757,313.771 34.266 C 314.089 37.274,314.157 37.230,310.088 36.693 C 297.596 35.043,289.408 41.843,292.841 51.018 C 295.172 57.247,303.786 59.513,316.500 57.241 L 319.600 56.687 319.600 44.563 C 319.600 37.348,319.424 31.619,319.165 30.413 C 317.817 24.124,312.085 21.124,302.800 21.848 M384.316 22.032 C 372.140 23.817,371.913 37.723,384.000 41.400 C 386.889 42.279,391.749 45.025,392.450 46.175 C 395.815 51.693,388.039 55.125,378.700 52.243 L 375.600 51.287 375.600 53.999 L 375.600 56.711 378.157 57.403 C 386.183 59.576,396.350 57.169,398.448 52.600 C 401.459 46.041,398.029 40.852,388.416 37.421 C 382.026 35.141,379.833 32.501,381.595 29.209 C 382.906 26.759,389.562 25.764,393.950 27.363 C 396.418 28.261,396.400 28.276,396.400 25.427 C 396.400 22.435,396.593 22.571,391.546 21.991 C 387.802 21.560,387.525 21.562,384.316 22.032 M171.400 22.622 C 169.860 22.948,168.195 23.305,167.700 23.415 L 166.800 23.615 166.800 40.408 L 166.800 57.200 169.795 57.200 L 172.790 57.200 172.895 42.529 L 173.000 27.857 174.200 27.533 C 177.411 26.665,181.366 26.677,183.410 27.560 C 187.456 29.309,188.000 31.552,188.000 46.473 L 188.000 57.200 191.029 57.200 L 194.059 57.200 193.860 44.300 C 193.750 37.205,193.602 30.864,193.530 30.208 C 193.296 28.065,199.945 26.121,203.810 27.203 C 208.614 28.548,209.200 30.566,209.200 45.762 L 209.200 57.200 212.229 57.200 L 215.259 57.200 215.105 44.300 C 214.911 28.133,214.252 25.822,209.057 23.106 C 205.296 21.139,194.905 22.076,191.969 24.647 C 191.136 25.376,190.220 25.347,189.576 24.571 C 187.596 22.186,178.216 21.180,171.400 22.622 M235.800 22.206 C 235.580 22.285,234.005 22.649,232.300 23.015 L 229.200 23.680 229.200 46.640 L 229.200 69.600 232.200 69.600 L 235.200 69.600 235.200 62.753 C 235.200 56.419,235.252 55.923,235.900 56.118 C 236.285 56.235,237.675 56.721,238.989 57.200 C 242.425 58.451,248.044 58.242,251.248 56.743 C 264.832 50.390,263.244 27.229,248.921 22.805 C 246.541 22.070,237.355 21.651,235.800 22.206 M146.400 39.782 L 146.400 57.200 149.404 57.200 L 152.408 57.200 152.304 39.900 L 152.200 22.600 149.300 22.482 L 146.400 22.365 146.400 39.782 M246.977 27.872 C 251.583 29.371,254.180 33.845,254.156 40.241 C 254.114 51.217,245.995 56.262,236.700 51.088 L 235.200 50.253 235.200 39.150 C 235.200 32.157,235.349 27.955,235.601 27.799 C 237.280 26.762,243.690 26.803,246.977 27.872 M351.706 27.599 C 356.114 29.248,358.085 32.617,358.325 38.911 C 358.730 49.526,352.414 54.846,342.000 52.661 L 339.800 52.200 339.694 40.950 L 339.588 29.700 340.494 29.112 C 343.801 26.964,348.363 26.348,351.706 27.599 M313.609 42.000 C 314.588 43.551,314.068 52.394,312.974 52.810 C 311.330 53.435,304.392 53.285,302.322 52.580 C 296.718 50.670,296.903 43.345,302.600 41.606 C 304.631 40.986,313.162 41.292,313.609 42.000 " stroke="none" fill="#666666" fill-rule="evenodd"></path><path id="path1" d="M33.500 1.082 C 33.995 1.178,34.805 1.178,35.300 1.082 C 35.795 0.987,35.390 0.909,34.400 0.909 C 33.410 0.909,33.005 0.987,33.500 1.082 M272.428 28.300 C 272.444 40.785,272.579 51.309,272.728 51.686 C 272.878 52.064,272.949 41.939,272.888 29.186 L 272.775 6.000 275.784 6.000 L 278.793 6.000 278.900 27.700 L 279.007 49.400 279.104 27.500 L 279.200 5.600 275.800 5.600 L 272.400 5.600 272.428 28.300 M333.200 30.986 C 333.200 59.691,332.843 56.925,336.600 57.344 C 338.564 57.562,338.554 57.555,336.100 56.949 L 333.600 56.331 333.600 31.165 L 333.600 6.000 336.600 6.000 L 339.600 6.000 339.600 15.000 C 339.600 19.950,339.686 24.000,339.792 24.000 C 340.284 24.000,343.213 22.679,343.060 22.526 C 342.964 22.431,342.237 22.624,341.443 22.956 L 340.000 23.559 340.000 14.580 L 340.000 5.600 336.600 5.600 L 333.200 5.600 333.200 30.986 M147.368 8.058 C 142.893 10.229,145.830 17.219,150.675 15.929 C 152.919 15.332,154.837 10.812,153.260 9.837 C 153.073 9.722,153.005 10.507,153.108 11.584 C 153.458 15.226,149.179 17.216,146.582 14.618 C 143.581 11.617,147.352 6.620,151.178 8.529 C 151.850 8.864,152.400 9.001,152.400 8.834 C 152.400 7.840,148.922 7.304,147.368 8.058 M120.200 21.561 C 119.540 21.707,121.160 21.830,123.800 21.835 C 126.440 21.840,128.060 21.720,127.400 21.569 C 125.871 21.219,121.762 21.214,120.200 21.561 M301.600 21.579 C 300.817 21.732,302.491 21.845,305.400 21.835 C 308.260 21.826,310.060 21.700,309.400 21.556 C 307.842 21.217,303.389 21.229,301.600 21.579 M346.200 21.600 C 345.401 21.803,346.271 21.905,348.800 21.905 C 351.329 21.905,352.199 21.803,351.400 21.600 C 350.740 21.432,349.570 21.295,348.800 21.295 C 348.030 21.295,346.860 21.432,346.200 21.600 M384.600 21.561 C 383.940 21.707,385.560 21.830,388.200 21.835 C 390.840 21.840,392.460 21.720,391.800 21.569 C 390.271 21.219,386.162 21.214,384.600 21.561 M177.516 21.897 C 178.899 21.975,181.059 21.974,182.316 21.895 C 183.572 21.816,182.440 21.752,179.800 21.753 C 177.160 21.753,176.132 21.818,177.516 21.897 M200.512 21.895 C 201.564 21.977,203.184 21.976,204.112 21.892 C 205.040 21.808,204.180 21.741,202.200 21.742 C 200.220 21.743,199.460 21.812,200.512 21.895 M239.300 21.896 C 240.565 21.975,242.635 21.975,243.900 21.896 C 245.165 21.816,244.130 21.751,241.600 21.751 C 239.070 21.751,238.035 21.816,239.300 21.896 M114.698 23.579 C 111.020 25.911,108.872 32.715,110.965 35.400 C 111.549 36.148,111.561 36.115,111.150 34.885 C 109.736 30.649,111.566 25.754,115.381 23.566 C 116.491 22.929,117.210 22.406,116.978 22.404 C 116.746 22.402,115.720 22.930,114.698 23.579 M146.096 39.900 L 146.000 57.600 149.400 57.600 L 152.800 57.600 152.800 40.000 C 152.800 30.320,152.665 22.400,152.500 22.400 C 152.335 22.400,152.249 30.230,152.308 39.800 L 152.417 57.200 149.412 57.200 L 146.408 57.200 146.300 39.700 L 146.191 22.200 146.096 39.900 M168.565 22.777 C 167.886 22.939,167.121 23.202,166.865 23.360 C 166.523 23.571,166.400 28.154,166.400 40.624 L 166.400 57.600 169.800 57.600 L 173.200 57.600 173.200 42.833 C 173.200 33.148,173.341 27.997,173.610 27.863 C 173.836 27.752,173.791 27.706,173.510 27.763 C 173.110 27.844,172.977 31.034,172.895 42.533 L 172.790 57.200 169.795 57.200 L 166.800 57.200 166.800 40.408 L 166.800 23.615 167.700 23.430 C 170.515 22.852,171.723 22.483,170.800 22.482 C 170.250 22.482,169.244 22.615,168.565 22.777 M187.629 23.191 C 188.414 23.606,189.291 24.228,189.577 24.573 C 190.255 25.389,191.360 25.372,192.051 24.535 C 192.550 23.930,192.516 23.914,191.680 24.359 C 190.877 24.787,190.527 24.695,188.912 23.625 C 187.895 22.951,186.869 22.408,186.631 22.418 C 186.394 22.427,186.843 22.775,187.629 23.191 M194.200 23.207 C 193.320 23.639,193.038 23.882,193.574 23.746 C 195.074 23.366,197.073 22.432,196.400 22.426 C 196.070 22.423,195.080 22.775,194.200 23.207 M209.259 23.206 C 214.238 25.837,214.913 28.273,215.105 44.300 L 215.259 57.200 212.229 57.200 L 209.200 57.200 209.172 45.500 C 209.156 39.002,208.975 33.444,208.764 33.000 C 208.432 32.303,208.410 32.328,208.586 33.200 C 208.698 33.750,208.792 39.465,208.795 45.900 L 208.800 57.600 212.229 57.600 L 215.657 57.600 215.519 44.300 C 215.370 29.876,215.211 28.784,212.816 25.723 C 211.854 24.494,208.940 22.390,208.240 22.418 C 207.998 22.427,208.457 22.782,209.259 23.206 M231.186 22.769 C 230.409 22.921,229.554 23.181,229.286 23.347 C 228.914 23.577,228.800 29.058,228.800 46.816 L 228.800 69.985 229.717 70.215 C 230.221 70.341,231.706 70.390,233.017 70.322 L 235.400 70.200 235.509 63.300 C 235.570 59.505,235.683 56.400,235.761 56.400 C 235.839 56.400,236.549 56.670,237.338 57.000 C 239.366 57.847,239.725 57.691,237.800 56.800 C 235.094 55.547,235.200 55.302,235.200 62.800 L 235.200 69.600 232.200 69.600 L 229.200 69.600 229.200 46.635 L 229.200 23.669 231.700 23.081 C 234.214 22.490,233.823 22.252,231.186 22.769 M248.800 22.678 C 249.130 22.797,250.165 23.222,251.100 23.624 C 252.035 24.026,252.800 24.266,252.800 24.158 C 252.800 23.847,249.466 22.415,248.800 22.440 C 248.267 22.461,248.267 22.487,248.800 22.678 M296.566 22.945 C 296.451 23.244,296.422 24.549,296.503 25.845 L 296.649 28.200 296.724 25.529 C 296.786 23.361,296.932 22.824,297.500 22.676 C 298.156 22.504,298.155 22.490,297.487 22.446 C 297.096 22.421,296.681 22.645,296.566 22.945 M314.200 23.479 C 318.979 26.162,319.600 28.588,319.600 44.582 L 319.600 56.725 317.574 57.004 C 316.460 57.157,315.639 57.372,315.749 57.482 C 315.859 57.592,316.871 57.555,317.998 57.400 L 320.048 57.118 319.924 43.659 C 319.772 27.124,318.828 24.175,313.200 22.631 C 312.650 22.480,313.100 22.862,314.200 23.479 M356.279 23.461 C 358.156 24.374,360.978 26.978,362.306 29.022 C 362.584 29.450,362.555 29.254,362.241 28.587 C 361.492 26.998,357.952 23.706,356.204 22.976 C 353.974 22.044,354.024 22.363,356.279 23.461 M379.139 23.552 C 377.477 24.607,375.600 26.668,375.600 27.439 C 375.600 27.613,376.022 27.183,376.538 26.484 C 377.588 25.061,378.819 24.028,380.600 23.074 C 381.260 22.721,381.610 22.425,381.378 22.416 C 381.146 22.407,380.139 22.919,379.139 23.552 M255.022 26.239 C 256.135 27.318,257.355 28.650,257.734 29.200 C 258.369 30.121,258.388 30.126,257.979 29.265 C 257.387 28.020,254.879 25.269,253.834 24.718 C 253.376 24.476,253.910 25.161,255.022 26.239 M121.400 26.762 C 119.544 27.089,118.366 27.671,117.567 28.655 C 117.229 29.071,117.539 28.959,118.336 28.376 C 119.581 27.466,120.005 27.400,124.613 27.400 C 127.331 27.400,129.250 27.289,128.878 27.154 C 127.669 26.715,123.043 26.472,121.400 26.762 M385.692 26.768 C 384.753 26.926,383.767 27.273,383.501 27.539 C 383.124 27.916,383.308 27.921,384.343 27.560 C 385.175 27.270,387.245 27.168,389.912 27.287 C 392.247 27.391,393.807 27.348,393.378 27.192 C 392.071 26.715,387.501 26.463,385.692 26.768 M176.200 27.193 C 175.137 27.379,176.068 27.471,178.974 27.468 C 181.380 27.465,183.000 27.326,182.574 27.159 C 181.638 26.793,178.392 26.810,176.200 27.193 M198.400 27.186 C 197.770 27.380,198.732 27.492,201.000 27.490 C 203.171 27.489,204.282 27.362,203.800 27.172 C 202.792 26.774,199.717 26.782,198.400 27.186 M239.000 27.200 C 237.490 27.407,238.078 27.478,241.400 27.491 C 244.710 27.504,245.404 27.426,244.200 27.177 C 242.407 26.806,241.854 26.809,239.000 27.200 M299.600 27.160 C 299.050 27.314,300.970 27.432,303.866 27.420 C 309.605 27.398,310.283 27.620,312.157 30.129 C 313.182 31.503,313.603 36.284,312.750 36.867 C 312.335 37.151,312.396 37.210,313.000 37.109 C 314.191 36.909,313.920 32.458,312.575 30.138 C 310.876 27.209,304.580 25.764,299.600 27.160 M344.856 27.259 C 342.911 27.819,343.470 27.996,345.800 27.559 C 346.900 27.353,348.610 27.279,349.600 27.395 C 350.896 27.547,351.176 27.501,350.600 27.231 C 349.570 26.749,346.579 26.763,344.856 27.259 M206.167 28.825 C 206.934 29.498,207.677 30.412,207.817 30.855 C 207.958 31.298,208.160 31.573,208.266 31.467 C 208.628 31.106,207.244 28.921,206.235 28.259 C 204.666 27.232,204.636 27.481,206.167 28.825 M235.467 27.867 C 235.320 28.013,235.200 33.110,235.200 39.193 L 235.200 50.253 236.754 51.126 C 237.609 51.607,238.464 51.997,238.654 51.993 C 238.845 51.990,238.280 51.579,237.400 51.081 L 235.800 50.175 235.694 39.118 C 235.595 28.835,235.637 28.048,236.294 27.877 C 236.853 27.731,236.868 27.683,236.367 27.646 C 236.018 27.621,235.613 27.720,235.467 27.867 M352.852 28.402 C 354.188 29.109,355.421 30.337,356.708 32.246 C 357.139 32.886,357.147 32.849,356.759 32.000 C 355.899 30.119,352.945 27.550,351.720 27.618 C 351.544 27.627,352.053 27.981,352.852 28.402 M185.179 28.978 C 185.707 29.540,186.200 30.000,186.273 30.000 C 186.634 30.000,185.339 28.385,184.818 28.186 C 184.488 28.059,184.651 28.416,185.179 28.978 M194.300 28.629 C 192.749 29.470,192.925 29.761,194.500 28.959 C 196.008 28.193,196.275 27.994,195.767 28.016 C 195.565 28.025,194.905 28.301,194.300 28.629 M248.935 29.200 C 249.975 29.859,251.203 31.037,251.663 31.817 C 252.123 32.596,252.586 33.147,252.693 33.040 C 253.289 32.444,248.676 28.000,247.462 28.000 C 247.232 28.000,247.895 28.540,248.935 29.200 M341.194 28.747 L 339.800 29.495 339.800 40.842 C 339.800 50.642,339.882 52.195,340.400 52.233 C 340.745 52.258,340.787 52.206,340.500 52.109 C 340.116 51.980,340.000 49.367,340.000 40.849 L 340.000 29.758 341.700 28.904 C 342.635 28.434,343.217 28.038,342.994 28.025 C 342.770 28.011,341.960 28.336,341.194 28.747 M374.919 29.100 C 374.536 30.518,374.620 33.749,375.059 34.534 C 375.267 34.906,375.400 33.750,375.400 31.572 C 375.400 27.672,375.360 27.465,374.919 29.100 M116.674 30.439 C 116.553 30.900,116.598 31.665,116.773 32.138 C 117.015 32.794,117.091 32.595,117.091 31.299 C 117.091 29.401,116.996 29.206,116.674 30.439 M363.440 31.868 C 364.055 33.911,364.670 34.856,364.253 33.118 C 363.907 31.672,363.261 30.000,363.049 30.000 C 362.955 30.000,363.131 30.841,363.440 31.868 M186.406 30.420 C 186.409 30.519,186.682 31.410,187.011 32.400 L 187.610 34.200 187.374 32.600 C 187.192 31.367,186.376 29.529,186.406 30.420 M258.822 31.200 C 258.816 31.310,259.174 32.480,259.617 33.800 C 260.265 35.733,260.373 35.890,260.175 34.608 C 259.974 33.306,258.858 30.495,258.822 31.200 M193.925 44.354 L 194.051 57.165 190.925 57.302 L 187.800 57.439 191.100 57.520 L 194.400 57.600 194.360 45.500 C 194.338 38.845,194.203 32.982,194.060 32.471 C 193.917 31.960,193.856 37.307,193.925 44.354 M381.225 31.920 C 381.138 33.720,383.441 35.674,387.225 37.009 C 390.008 37.991,389.427 37.415,386.460 36.252 C 383.613 35.134,382.330 34.108,381.649 32.400 C 381.430 31.850,381.239 31.634,381.225 31.920 M117.534 33.875 C 118.005 34.757,123.029 37.504,123.432 37.101 C 123.551 36.982,122.789 36.557,121.739 36.156 C 120.689 35.755,119.208 34.881,118.448 34.213 C 117.323 33.226,117.153 33.163,117.534 33.875 M357.507 34.400 C 357.881 36.189,357.888 43.427,357.517 45.000 C 357.253 46.114,357.278 46.100,357.857 44.804 C 358.603 43.134,358.487 35.109,357.697 33.800 C 357.283 33.115,357.256 33.201,357.507 34.400 M253.117 34.600 C 253.272 35.260,253.400 37.780,253.400 40.200 C 253.400 42.620,253.272 45.140,253.117 45.800 C 252.852 46.919,252.876 46.906,253.471 45.600 C 254.367 43.636,254.373 36.727,253.481 34.800 C 252.873 33.487,252.851 33.474,253.117 34.600 M187.728 37.200 C 187.728 38.630,187.801 39.215,187.889 38.500 C 187.978 37.785,187.978 36.615,187.889 35.900 C 187.801 35.185,187.728 35.770,187.728 37.200 M376.109 36.600 C 376.903 38.153,381.266 41.268,381.841 40.692 C 381.933 40.600,381.272 40.193,380.372 39.787 C 379.472 39.381,378.006 38.228,377.116 37.225 C 375.810 35.754,375.615 35.633,376.109 36.600 M302.476 36.340 C 301.968 36.483,303.914 36.600,306.800 36.600 C 309.686 36.600,311.632 36.483,311.124 36.340 C 310.616 36.197,308.670 36.080,306.800 36.080 C 304.930 36.080,302.984 36.197,302.476 36.340 M111.824 36.918 C 112.242 38.008,116.965 41.169,117.450 40.683 C 117.547 40.587,117.035 40.264,116.313 39.966 C 115.591 39.668,114.230 38.717,113.289 37.851 C 112.348 36.986,111.689 36.566,111.824 36.918 M260.540 40.000 C 260.540 41.870,260.609 42.635,260.693 41.700 C 260.777 40.765,260.777 39.235,260.693 38.300 C 260.609 37.365,260.540 38.130,260.540 40.000 M297.700 37.796 C 296.985 38.107,296.400 38.462,296.400 38.586 C 296.400 38.809,299.186 37.747,299.546 37.387 C 299.901 37.032,298.997 37.233,297.700 37.796 M364.934 40.000 C 364.934 41.650,365.005 42.325,365.091 41.500 C 365.178 40.675,365.178 39.325,365.091 38.500 C 365.005 37.675,364.934 38.350,364.934 40.000 M127.845 38.948 C 129.410 39.693,131.470 41.000,132.424 41.851 C 133.378 42.703,133.886 43.002,133.552 42.515 C 132.442 40.895,128.574 38.505,126.000 37.849 C 125.450 37.708,126.280 38.203,127.845 38.948 M392.241 38.932 C 393.804 39.682,395.864 40.994,396.820 41.848 C 397.776 42.701,398.286 43.002,397.952 42.515 C 396.848 40.904,393.033 38.540,390.400 37.836 C 389.850 37.689,390.678 38.182,392.241 38.932 M294.575 40.100 L 293.400 41.400 294.700 40.225 C 295.415 39.579,296.000 38.994,296.000 38.925 C 296.000 38.616,295.670 38.888,294.575 40.100 M119.600 41.736 C 120.150 42.046,121.050 42.419,121.600 42.565 L 122.600 42.829 121.600 42.264 C 121.050 41.954,120.150 41.581,119.600 41.435 L 118.600 41.171 119.600 41.736 M302.600 41.622 C 299.471 42.535,297.708 45.522,298.421 48.700 C 298.754 50.186,300.722 52.401,301.706 52.399 C 301.978 52.398,301.611 52.038,300.890 51.598 C 296.252 48.771,298.616 42.643,304.743 41.608 C 306.377 41.332,306.432 41.293,305.200 41.283 C 304.430 41.277,303.260 41.430,302.600 41.622 M309.800 41.366 C 310.020 41.459,310.875 41.647,311.700 41.785 L 313.200 42.036 313.200 47.194 L 313.200 52.351 311.351 52.628 C 310.335 52.781,307.860 52.815,305.851 52.704 C 303.843 52.594,302.560 52.647,303.000 52.824 C 304.148 53.283,311.757 53.273,312.974 52.810 C 313.999 52.420,314.000 52.415,313.994 47.510 C 313.987 41.757,313.903 41.562,311.349 41.355 C 310.277 41.268,309.580 41.273,309.800 41.366 M384.000 41.736 C 384.550 42.046,385.450 42.419,386.000 42.565 L 387.000 42.829 386.000 42.264 C 385.450 41.954,384.550 41.581,384.000 41.435 L 383.000 41.171 384.000 41.736 M292.559 43.037 C 292.228 43.828,292.013 44.640,292.081 44.842 C 292.148 45.044,292.495 44.397,292.852 43.405 C 293.625 41.256,293.414 40.991,292.559 43.037 M123.770 43.552 C 123.890 43.745,124.395 44.006,124.894 44.132 C 125.768 44.352,125.773 44.340,125.024 43.780 C 124.164 43.138,123.432 43.004,123.770 43.552 M388.576 43.813 C 389.004 44.136,389.544 44.394,389.776 44.387 C 390.009 44.380,389.851 44.110,389.424 43.787 C 388.996 43.464,388.456 43.206,388.224 43.213 C 387.991 43.220,388.149 43.490,388.576 43.813 M134.236 44.200 C 134.874 45.951,134.888 50.614,134.260 52.118 C 133.520 53.889,133.730 54.081,134.590 52.420 C 135.410 50.833,135.390 45.757,134.558 44.400 C 134.169 43.765,134.051 43.692,134.236 44.200 M398.605 44.200 C 399.280 45.871,399.301 50.582,398.641 52.218 C 398.117 53.519,398.109 53.663,398.597 53.031 C 399.803 51.465,399.964 44.960,398.822 43.901 C 398.377 43.488,398.339 43.541,398.605 44.200 M126.000 44.511 C 126.000 44.588,126.563 45.179,127.252 45.825 C 128.295 46.805,128.427 46.852,128.043 46.109 C 127.657 45.364,126.000 44.067,126.000 44.511 M259.352 47.215 C 258.886 48.737,258.659 49.887,258.847 49.771 C 259.263 49.514,260.514 45.333,260.331 44.816 C 260.259 44.613,259.819 45.692,259.352 47.215 M390.400 44.511 C 390.400 44.588,390.963 45.179,391.652 45.825 C 392.695 46.805,392.827 46.852,392.443 46.109 C 392.057 45.364,390.400 44.067,390.400 44.511 M363.463 47.411 C 363.096 48.517,362.316 50.137,361.731 51.011 C 360.898 52.255,360.846 52.443,361.489 51.879 C 362.452 51.033,364.531 46.592,364.295 45.886 C 364.205 45.619,363.831 46.305,363.463 47.411 M356.633 47.070 C 356.286 48.124,354.422 50.087,352.800 51.107 C 352.030 51.591,351.598 51.990,351.840 51.993 C 353.203 52.014,357.787 47.253,357.082 46.549 C 356.967 46.434,356.765 46.668,356.633 47.070 M128.501 48.600 C 128.505 49.480,128.587 49.793,128.683 49.295 C 128.779 48.798,128.775 48.078,128.675 47.695 C 128.575 47.313,128.496 47.720,128.501 48.600 M251.848 48.300 C 251.160 49.622,249.828 50.877,248.200 51.735 C 247.540 52.083,247.144 52.375,247.320 52.384 C 248.499 52.443,252.800 48.687,252.800 47.599 C 252.800 46.900,252.438 47.167,251.848 48.300 M392.800 48.764 C 392.800 50.020,392.557 50.533,391.569 51.364 C 390.892 51.934,390.541 52.400,390.788 52.400 C 391.808 52.400,393.200 50.288,393.200 48.742 C 393.200 47.894,393.110 47.200,393.000 47.200 C 392.890 47.200,392.800 47.904,392.800 48.764 M292.225 50.400 C 292.549 52.133,293.599 53.904,295.075 55.205 L 296.200 56.197 295.078 54.953 C 294.460 54.269,293.507 52.650,292.959 51.355 C 292.207 49.578,292.027 49.344,292.225 50.400 M279.212 50.284 C 279.198 50.856,280.768 52.400,281.364 52.400 C 281.592 52.400,281.383 52.124,280.901 51.786 C 280.418 51.448,279.844 50.863,279.624 50.486 C 279.404 50.109,279.219 50.018,279.212 50.284 M127.400 51.200 C 127.002 51.640,126.878 52.000,127.124 52.000 C 127.370 52.000,127.765 51.640,128.000 51.200 C 128.235 50.760,128.360 50.400,128.276 50.400 C 128.192 50.400,127.798 50.760,127.400 51.200 M257.436 51.530 C 256.587 53.173,253.821 55.534,251.456 56.635 C 250.325 57.161,249.670 57.592,250.000 57.592 C 251.747 57.593,258.400 52.179,258.400 50.757 C 258.400 50.093,258.023 50.395,257.436 51.530 M111.200 51.031 C 111.200 51.301,113.278 52.056,113.476 51.857 C 113.567 51.767,113.092 51.501,112.420 51.267 C 111.749 51.033,111.200 50.927,111.200 51.031 M375.820 51.155 C 376.029 51.350,376.650 51.628,377.200 51.772 L 378.200 52.033 377.200 51.431 C 376.086 50.759,375.209 50.584,375.820 51.155 M110.928 54.000 C 110.928 55.430,111.001 56.015,111.089 55.300 C 111.178 54.585,111.178 53.415,111.089 52.700 C 111.001 51.985,110.928 52.570,110.928 54.000 M375.328 54.000 C 375.328 55.430,375.401 56.015,375.489 55.300 C 375.578 54.585,375.578 53.415,375.489 52.700 C 375.401 51.985,375.328 52.570,375.328 54.000 M116.315 52.872 C 116.692 53.021,118.620 53.144,120.600 53.144 C 122.580 53.144,124.508 53.021,124.884 52.872 C 125.259 52.722,123.331 52.600,120.598 52.600 C 117.865 52.600,115.937 52.722,116.315 52.872 M241.900 52.905 C 243.058 53.183,244.142 53.183,245.300 52.905 C 246.879 52.525,246.758 52.496,243.600 52.496 C 240.442 52.496,240.321 52.525,241.900 52.905 M282.911 52.869 C 283.920 53.237,284.001 53.409,283.788 54.737 C 283.301 57.780,283.202 57.999,282.292 58.046 C 281.586 58.083,281.550 58.132,282.119 58.279 C 283.286 58.582,283.893 57.720,284.191 55.334 C 284.490 52.938,284.188 52.387,282.600 52.438 C 281.982 52.457,282.053 52.556,282.911 52.869 M343.000 52.823 C 344.988 53.234,347.878 53.223,349.200 52.800 C 349.827 52.599,348.561 52.482,345.800 52.486 C 342.444 52.491,341.780 52.571,343.000 52.823 M380.715 52.872 C 381.092 53.021,383.020 53.144,385.000 53.144 C 386.980 53.144,388.908 53.021,389.284 52.872 C 389.659 52.722,387.731 52.600,384.998 52.600 C 382.265 52.600,380.337 52.722,380.715 52.872 M273.212 52.938 C 273.191 53.515,274.552 55.600,274.948 55.600 C 275.155 55.600,275.051 55.285,274.718 54.900 C 274.385 54.515,273.912 53.840,273.668 53.400 C 273.424 52.960,273.219 52.752,273.212 52.938 M132.669 54.565 C 132.550 54.875,131.315 55.695,129.926 56.385 C 127.713 57.485,127.859 57.696,130.200 56.780 C 131.278 56.359,133.918 54.037,133.343 54.016 C 133.091 54.007,132.788 54.254,132.669 54.565 M393.800 56.609 C 392.700 57.127,392.003 57.562,392.251 57.575 C 392.929 57.612,395.509 56.470,395.796 56.006 C 396.106 55.505,396.209 55.474,393.800 56.609 M275.600 56.196 C 275.600 56.470,278.049 57.684,278.232 57.501 C 278.319 57.414,277.762 57.044,276.995 56.678 C 276.228 56.312,275.600 56.095,275.600 56.196 M296.590 56.384 C 296.845 56.796,299.574 57.759,299.812 57.521 C 299.900 57.433,299.161 57.062,298.170 56.694 C 297.180 56.327,296.469 56.188,296.590 56.384 M354.400 56.800 C 353.410 57.215,352.831 57.565,353.113 57.578 C 353.760 57.606,356.400 56.516,356.400 56.220 C 356.400 55.944,356.529 55.907,354.400 56.800 M111.800 57.200 C 112.240 57.389,112.870 57.544,113.200 57.544 C 113.578 57.544,113.504 57.417,113.000 57.200 C 112.560 57.011,111.930 56.856,111.600 56.856 C 111.222 56.856,111.296 56.983,111.800 57.200 M376.200 57.200 C 376.640 57.389,377.270 57.544,377.600 57.544 C 377.978 57.544,377.904 57.417,377.400 57.200 C 376.960 57.011,376.330 56.856,376.000 56.856 C 375.622 56.856,375.696 56.983,376.200 57.200 M312.305 57.883 C 312.802 57.979,313.522 57.975,313.905 57.875 C 314.287 57.775,313.880 57.696,313.000 57.701 C 312.120 57.705,311.807 57.787,312.305 57.883 M118.515 58.296 C 119.788 58.376,121.768 58.375,122.915 58.294 C 124.062 58.214,123.020 58.149,120.600 58.150 C 118.180 58.151,117.242 58.216,118.515 58.296 M242.900 58.291 C 243.725 58.378,245.075 58.378,245.900 58.291 C 246.725 58.205,246.050 58.134,244.400 58.134 C 242.750 58.134,242.075 58.205,242.900 58.291 M304.500 58.294 C 305.545 58.376,307.255 58.376,308.300 58.294 C 309.345 58.212,308.490 58.144,306.400 58.144 C 304.310 58.144,303.455 58.212,304.500 58.294 M344.115 58.296 C 345.388 58.376,347.368 58.375,348.515 58.294 C 349.662 58.214,348.620 58.149,346.200 58.150 C 343.780 58.151,342.842 58.216,344.115 58.296 M382.915 58.296 C 384.188 58.376,386.168 58.375,387.315 58.294 C 388.462 58.214,387.420 58.149,385.000 58.150 C 382.580 58.151,381.642 58.216,382.915 58.296 " stroke="none" fill="#aaaaaa" fill-rule="evenodd"></path><path id="path2" d="M0.000 35.400 L 0.000 70.800 200.000 70.800 L 400.000 70.800 400.000 35.400 L 400.000 0.000 200.000 0.000 L 0.000 0.000 0.000 35.400 M42.875 1.783 C 58.307 4.991,69.685 19.280,69.622 35.371 C 69.505 65.297,33.483 80.619,12.189 59.800 C -12.249 35.908,9.474 -5.162,42.875 1.783 M279.200 27.831 L 279.200 50.062 280.369 51.231 C 281.012 51.874,281.957 52.403,282.469 52.406 C 284.211 52.418,284.495 52.900,284.191 55.334 C 283.818 58.318,283.484 58.543,280.260 57.981 C 276.883 57.393,274.643 55.945,273.489 53.603 C 272.606 51.811,272.599 51.655,272.491 28.700 L 272.381 5.600 275.791 5.600 L 279.200 5.600 279.200 27.831 M340.000 14.529 L 340.000 23.459 342.900 22.464 C 356.625 17.758,367.859 29.309,364.604 44.783 C 362.758 53.556,356.476 58.313,346.651 58.377 C 342.914 58.401,335.146 57.413,333.921 56.758 C 333.238 56.392,333.200 55.037,333.200 30.986 L 333.200 5.600 336.600 5.600 L 340.000 5.600 340.000 14.529 M151.310 8.059 C 154.671 9.858,154.259 14.976,150.675 15.929 C 146.778 16.966,143.818 13.064,145.868 9.592 C 146.960 7.744,149.424 7.049,151.310 8.059 M128.700 21.854 L 132.000 22.509 132.000 25.482 C 132.000 28.383,131.978 28.447,131.100 28.165 C 118.619 24.161,110.901 31.971,122.800 36.564 C 133.235 40.592,135.200 42.471,135.200 48.419 C 135.200 56.255,126.184 60.346,114.428 57.845 C 111.005 57.117,110.814 56.922,110.806 54.133 C 110.796 50.841,110.890 50.752,113.433 51.646 C 120.724 54.208,128.400 52.668,128.400 48.643 C 128.400 45.919,127.062 44.909,118.800 41.394 C 111.964 38.486,110.226 36.367,110.459 31.230 C 110.807 23.581,118.215 19.773,128.700 21.854 M311.905 22.191 C 318.922 24.201,319.766 26.457,319.924 43.645 L 320.048 57.090 318.524 57.323 C 299.394 60.244,291.578 57.014,292.062 46.385 C 292.411 38.696,302.897 33.649,312.348 36.620 C 313.295 36.918,313.297 36.913,313.136 34.072 C 312.792 27.986,308.888 26.274,298.681 27.731 L 296.362 28.062 296.481 25.331 L 296.600 22.600 299.800 21.911 C 303.677 21.076,308.394 21.185,311.905 22.191 M393.100 21.854 L 396.400 22.509 396.400 25.482 C 396.400 28.383,396.378 28.447,395.500 28.165 C 382.379 23.956,375.435 31.953,387.965 36.843 C 397.609 40.606,399.600 42.555,399.600 48.234 C 399.600 56.253,390.701 60.371,378.828 57.845 C 375.380 57.112,375.212 56.933,375.212 54.000 C 375.212 51.037,375.550 50.547,377.055 51.325 C 380.957 53.343,389.620 53.248,391.839 51.164 C 395.039 48.157,392.557 45.349,383.200 41.387 C 376.974 38.751,374.721 36.221,374.657 31.791 C 374.545 24.036,382.500 19.750,393.100 21.854 M185.775 22.173 C 186.822 22.487,188.362 23.220,189.199 23.799 L 190.721 24.854 192.689 23.856 C 199.460 20.425,208.175 20.937,212.119 24.997 C 215.154 28.122,215.359 29.289,215.517 44.300 L 215.657 57.600 212.229 57.600 L 208.800 57.600 208.790 45.900 C 208.779 31.667,208.573 30.559,205.509 28.272 C 203.886 27.060,198.330 27.207,195.423 28.538 L 193.254 29.531 193.822 31.665 C 194.252 33.280,194.392 36.700,194.395 45.700 L 194.400 57.600 191.200 57.600 L 188.000 57.600 187.988 55.500 C 187.830 27.627,187.687 27.242,177.600 27.562 C 175.950 27.614,174.285 27.746,173.900 27.855 C 173.250 28.040,173.200 29.100,173.200 42.827 L 173.200 57.600 169.800 57.600 L 166.400 57.600 166.400 40.591 L 166.400 23.583 167.300 23.186 C 170.379 21.829,182.436 21.168,185.775 22.173 M247.973 22.218 C 257.419 24.445,262.223 33.186,260.382 44.800 C 258.718 55.295,248.221 61.121,237.984 57.231 C 236.783 56.774,235.759 56.400,235.709 56.400 C 235.660 56.400,235.570 59.505,235.509 63.300 L 235.400 70.200 233.017 70.322 C 231.706 70.390,230.221 70.341,229.717 70.215 L 228.800 69.985 228.800 46.816 C 228.800 28.713,228.909 23.580,229.300 23.338 C 231.600 21.915,243.628 21.194,247.973 22.218 M152.800 40.000 L 152.800 57.600 149.400 57.600 L 146.000 57.600 146.000 40.000 L 146.000 22.400 149.400 22.400 L 152.800 22.400 152.800 40.000 M345.482 27.569 C 344.648 27.740,343.073 28.298,341.982 28.808 L 340.000 29.737 340.000 40.822 L 340.000 51.907 340.900 52.148 C 345.627 53.415,352.682 51.986,355.120 49.268 C 359.006 44.935,358.975 34.318,355.063 30.061 C 353.138 27.967,348.913 26.868,345.482 27.569 M236.294 27.877 C 235.637 28.048,235.595 28.836,235.694 39.131 L 235.800 50.200 237.972 51.300 C 242.048 53.365,248.112 52.715,250.663 49.939 C 254.827 45.408,254.561 33.772,250.208 30.097 C 247.579 27.877,240.578 26.760,236.294 27.877 M304.743 41.585 C 299.558 42.525,297.300 46.012,299.307 49.978 C 300.440 52.218,305.971 53.435,311.351 52.628 L 313.200 52.351 313.200 47.219 C 313.200 42.092,313.199 42.086,312.210 41.838 C 310.361 41.374,306.607 41.247,304.743 41.585 " stroke="none" fill="#ffffff" fill-rule="evenodd"></path><path id="path3" d="M30.788 1.565 C 12.194 4.177,-0.808 22.735,2.780 41.543 C 3.257 44.041,3.804 46.381,3.996 46.743 C 4.188 47.104,5.007 48.770,5.816 50.444 C 10.880 60.932,21.476 68.187,33.037 69.086 L 35.875 69.306 36.137 66.794 C 36.282 65.413,36.400 57.649,36.400 49.541 C 36.400 39.060,36.528 34.800,36.841 34.800 C 37.206 34.800,58.058 46.124,63.879 49.482 L 65.558 50.451 66.323 48.926 C 70.365 40.869,70.140 29.335,65.764 20.287 C 59.470 7.273,45.060 -0.440,30.788 1.565 " stroke="none" fill="#3399db" fill-rule="evenodd"></path><path id="path4" d="M37.000 1.180 C 38.234 1.515,41.064 1.718,40.767 1.450 C 40.675 1.368,39.520 1.200,38.200 1.077 C 36.622 0.930,36.211 0.965,37.000 1.180 M43.600 2.153 C 43.600 2.272,44.331 2.566,45.225 2.807 C 46.119 3.047,47.154 3.336,47.525 3.448 C 47.896 3.559,47.750 3.391,47.200 3.073 C 46.114 2.445,43.600 1.803,43.600 2.153 M49.738 4.447 C 50.584 4.893,51.368 5.165,51.481 5.052 C 51.676 4.857,48.980 3.580,48.451 3.618 C 48.313 3.627,48.892 4.000,49.738 4.447 M52.000 5.374 C 52.000 5.485,53.016 6.225,54.258 7.020 C 57.334 8.987,60.533 12.081,62.718 15.200 C 64.840 18.230,65.504 19.002,64.784 17.600 C 62.733 13.606,52.000 3.342,52.000 5.374 M6.214 18.235 C 5.841 18.804,5.627 19.361,5.739 19.472 C 5.850 19.583,6.229 19.118,6.581 18.437 C 7.359 16.933,7.144 16.815,6.214 18.235 M65.218 19.100 C 65.245 19.544,67.161 23.052,67.182 22.696 C 67.205 22.305,65.562 18.800,65.356 18.800 C 65.270 18.800,65.208 18.935,65.218 19.100 M4.465 21.645 C 3.677 23.749,3.659 24.497,4.436 22.864 C 4.890 21.909,5.163 21.029,5.042 20.909 C 4.921 20.788,4.661 21.119,4.465 21.645 M67.479 24.200 C 67.614 24.860,67.966 26.030,68.261 26.800 L 68.798 28.200 68.552 26.800 C 68.417 26.030,68.064 24.860,67.770 24.200 L 67.233 23.000 67.479 24.200 M2.879 26.297 C 2.631 27.124,2.342 28.880,2.236 30.200 C 2.130 31.520,2.136 32.150,2.250 31.600 C 3.658 24.796,3.875 22.966,2.879 26.297 M69.200 35.200 C 69.200 37.693,69.299 39.634,69.420 39.514 C 69.703 39.230,69.699 31.166,69.415 30.882 C 69.297 30.763,69.200 32.707,69.200 35.200 M1.693 35.200 C 1.693 35.970,1.775 36.285,1.876 35.900 C 1.976 35.515,1.976 34.885,1.876 34.500 C 1.775 34.115,1.693 34.430,1.693 35.200 M36.400 49.541 C 36.400 68.171,36.317 69.105,34.645 69.314 C 33.960 69.400,35.110 69.386,37.200 69.283 C 51.514 68.577,64.885 58.107,68.392 44.860 C 69.088 42.229,68.572 42.402,67.800 45.058 C 67.430 46.333,66.774 48.068,66.342 48.914 L 65.558 50.451 63.879 49.482 C 58.058 46.124,37.206 34.800,36.841 34.800 C 36.528 34.800,36.400 39.060,36.400 49.541 M2.047 39.280 C 1.991 40.570,2.860 44.775,3.062 44.195 C 3.140 43.973,2.953 42.533,2.648 40.995 C 2.343 39.458,2.072 38.686,2.047 39.280 M3.600 46.529 C 3.600 50.634,12.970 61.985,18.883 65.043 C 20.804 66.036,20.109 65.382,17.345 63.595 C 12.192 60.262,6.813 53.748,4.799 48.400 C 4.281 47.024,3.600 45.962,3.600 46.529 M20.400 65.795 C 20.400 66.005,23.135 67.211,23.549 67.183 C 23.870 67.162,21.101 65.639,20.700 65.617 C 20.535 65.608,20.400 65.688,20.400 65.795 M25.013 67.782 C 25.679 68.084,26.939 68.433,27.813 68.558 L 29.400 68.784 27.800 68.254 C 26.920 67.962,25.660 67.613,25.000 67.478 L 23.800 67.233 25.013 67.782 " stroke="none" fill="#6fbeef" fill-rule="evenodd"></path></g></svg>