<svg id="svg" version="1.1" width="1000" height="160" xmlns="http://www.w3.org/2000/svg" xmlns:xlink="http://www.w3.org/1999/xlink" style="display: block;">
  <g id="svgg">
    <path id="path1" d="M121.600 3.955 C 114.560 6.234,109.920 10.797,108.134 17.200 C 106.120 24.420,107.279 46.680,109.905 51.200 C 117.576 64.404,140.141 63.936,146.985 50.430 C 148.879 46.691,149.325 44.027,149.364 36.200 L 149.400 29.000 139.887 28.893 L 130.374 28.785 130.487 33.293 L 130.600 37.800 134.400 38.000 L 138.200 38.200 138.325 40.166 C 139.011 50.995,123.914 55.402,119.512 45.657 C 117.274 40.702,117.781 21.033,120.247 17.125 C 124.283 10.733,134.940 12.056,137.501 19.267 L 138.188 21.200 143.694 21.200 C 150.043 21.200,149.748 21.459,148.396 17.082 C 145.137 6.531,132.607 0.392,121.600 3.955 M217.803 3.991 C 217.201 5.887,217.845 6.400,220.827 6.400 L 223.600 6.400 223.600 15.200 L 223.600 24.000 225.200 24.000 L 226.800 24.000 226.800 15.218 L 226.800 6.437 229.500 6.318 L 232.200 6.200 232.200 4.800 L 232.200 3.400 225.130 3.291 C 218.336 3.186,218.050 3.213,217.803 3.991 M236.000 13.590 L 236.000 24.000 242.600 24.000 L 249.200 24.000 249.200 22.600 L 249.200 21.200 244.200 21.200 L 239.200 21.200 239.200 18.200 L 239.200 15.200 243.400 15.200 L 247.600 15.200 247.600 13.814 L 247.600 12.428 243.500 12.314 L 239.400 12.200 239.283 9.312 L 239.165 6.425 244.083 6.312 L 249.000 6.200 249.000 4.800 L 249.000 3.400 242.500 3.290 L 236.000 3.180 236.000 13.590 M256.748 4.002 C 253.305 5.822,252.619 7.817,252.857 15.320 C 252.993 19.604,253.067 19.951,254.154 21.376 C 257.829 26.194,265.564 24.903,267.200 19.198 C 267.734 17.339,264.747 17.368,263.784 19.232 C 262.533 21.651,258.848 22.042,256.960 19.956 C 255.697 18.561,255.828 8.860,257.128 7.477 C 259.007 5.477,262.533 5.949,263.784 8.368 C 264.630 10.006,267.200 10.225,267.200 8.660 C 267.200 4.782,260.730 1.899,256.748 4.002 M271.886 3.448 C 271.729 3.605,271.600 8.293,271.600 13.867 L 271.600 24.000 273.186 24.000 L 274.773 24.000 274.886 19.700 L 275.000 15.400 279.100 15.286 L 283.200 15.172 283.200 19.586 L 283.200 24.000 284.807 24.000 L 286.414 24.000 286.307 13.700 L 286.200 3.400 284.800 3.400 L 283.400 3.400 283.287 7.696 C 283.154 12.717,283.381 12.511,278.199 12.319 L 275.000 12.200 274.800 7.800 L 274.600 3.400 273.386 3.281 C 272.718 3.216,272.043 3.291,271.886 3.448 M291.801 4.076 C 291.676 4.584,291.625 9.230,291.687 14.400 L 291.800 23.800 293.300 23.924 L 294.800 24.048 294.800 17.191 C 294.800 13.110,294.951 10.387,295.174 10.467 C 295.380 10.540,297.541 13.626,299.977 17.324 L 304.407 24.048 305.903 23.924 L 307.400 23.800 307.507 14.050 C 307.622 3.568,307.534 3.059,305.634 3.280 L 304.600 3.400 304.400 10.391 C 304.235 16.163,304.110 17.280,303.682 16.791 C 303.398 16.466,301.238 13.320,298.882 9.800 C 294.297 2.947,292.444 1.450,291.801 4.076 M316.200 3.952 C 312.350 5.720,310.484 13.851,312.580 19.726 C 314.725 25.743,324.112 25.843,326.373 19.874 C 327.602 16.631,326.767 7.495,325.073 5.647 C 322.961 3.343,319.124 2.610,316.200 3.952 M331.886 3.448 C 331.729 3.605,331.600 8.298,331.600 13.877 L 331.600 24.020 338.100 23.910 L 344.600 23.800 344.600 22.600 L 344.600 21.400 339.708 21.288 L 334.815 21.175 334.708 12.288 L 334.600 3.400 333.386 3.281 C 332.718 3.216,332.043 3.291,331.886 3.448 M351.000 3.865 C 347.453 5.735,346.800 7.273,346.800 13.761 C 346.800 20.390,347.495 22.027,351.000 23.644 C 354.697 25.350,359.229 23.782,360.838 20.240 C 361.905 17.889,361.912 9.717,360.848 7.400 C 359.195 3.802,354.391 2.077,351.000 3.865 M369.800 3.865 C 366.253 5.735,365.600 7.273,365.600 13.761 C 365.600 20.390,366.295 22.027,369.800 23.644 C 375.438 26.246,380.400 22.555,380.400 15.759 L 380.400 12.770 376.700 12.885 L 373.000 13.000 373.000 14.200 C 373.000 15.347,373.089 15.409,375.000 15.600 C 376.959 15.796,377.002 15.829,377.119 17.221 C 377.422 20.823,372.467 22.826,369.932 20.127 C 368.400 18.497,368.509 8.910,370.076 7.342 C 372.104 5.314,376.177 6.206,377.020 8.863 C 377.264 9.633,380.400 9.990,380.400 9.249 C 380.400 5.167,373.743 1.786,369.800 3.865 M382.618 3.571 C 382.492 3.775,383.741 6.544,385.394 9.724 L 388.400 15.507 388.400 19.753 L 388.400 24.000 390.000 24.000 L 391.600 24.000 391.600 19.763 L 391.600 15.526 394.588 9.705 C 397.815 3.420,397.854 3.200,395.750 3.200 C 394.356 3.200,394.334 3.228,392.303 7.580 C 389.916 12.693,390.088 12.701,387.578 7.354 C 385.629 3.201,383.738 1.758,382.618 3.571 M2.488 8.496 L 2.600 13.400 9.900 13.509 L 17.200 13.618 17.200 37.020 L 17.200 60.423 22.700 60.311 L 28.200 60.200 28.303 36.909 L 28.406 13.618 35.703 13.509 L 43.000 13.400 43.000 8.600 L 43.000 3.800 22.688 3.696 L 2.375 3.593 2.488 8.496 M52.184 4.100 C 52.079 4.375,52.040 17.110,52.096 32.400 L 52.200 60.200 57.700 60.311 L 63.200 60.423 63.200 43.678 C 63.200 34.468,63.322 26.811,63.471 26.662 C 63.621 26.513,64.763 27.968,66.010 29.895 C 67.256 31.823,71.301 38.080,74.999 43.800 C 78.696 49.520,82.623 55.595,83.727 57.300 L 85.733 60.400 90.667 60.400 L 95.600 60.400 95.600 31.989 L 95.600 3.577 90.174 3.689 L 84.748 3.800 84.786 20.469 C 84.826 37.885,84.740 38.710,83.155 36.102 C 82.265 34.639,79.239 29.945,73.418 21.000 C 71.843 18.580,68.675 13.677,66.377 10.105 L 62.200 3.609 57.287 3.605 C 53.722 3.601,52.323 3.737,52.184 4.100 M166.739 6.000 L 166.600 8.000 184.861 8.000 L 203.123 8.000 203.261 6.000 L 203.400 4.000 185.139 4.000 L 166.877 4.000 166.739 6.000 M322.400 7.447 C 323.811 8.817,323.956 18.622,322.585 19.992 C 318.834 23.744,315.202 20.741,315.201 13.887 C 315.200 6.860,318.632 3.790,322.400 7.447 M356.726 6.917 C 358.538 8.378,359.163 16.271,357.699 19.200 C 356.490 21.622,353.051 22.029,351.015 19.992 C 349.682 18.660,349.787 8.904,351.150 7.454 C 352.508 6.008,355.270 5.742,356.726 6.917 M166.800 19.000 L 166.800 21.200 185.000 21.200 L 203.200 21.200 203.200 19.000 L 203.200 16.800 185.000 16.800 L 166.800 16.800 166.800 19.000 M166.730 31.899 L 166.861 34.200 185.000 34.200 L 203.139 34.200 203.270 31.899 L 203.400 29.599 185.000 29.599 L 166.600 29.599 166.730 31.899 M222.638 40.507 C 219.184 42.481,218.027 47.045,219.062 54.602 C 220.073 61.976,231.713 62.703,233.425 55.500 C 233.768 54.060,230.657 53.760,230.203 55.190 C 229.389 57.756,225.367 58.453,223.375 56.374 C 221.788 54.717,221.552 46.132,223.038 44.129 C 224.840 41.702,228.889 42.119,230.020 44.847 C 230.582 46.205,233.600 46.633,233.600 45.354 C 233.600 41.116,226.817 38.117,222.638 40.507 M241.921 40.394 C 238.675 42.157,238.200 43.381,238.200 49.968 C 238.200 55.282,238.278 55.926,239.080 57.215 C 242.148 62.148,250.301 61.528,252.428 56.200 C 253.334 53.932,253.070 45.189,252.041 43.358 C 250.136 39.969,245.307 38.554,241.921 40.394 M258.667 39.867 C 258.520 40.013,258.400 44.693,258.400 50.267 L 258.400 60.400 260.000 60.400 L 261.600 60.400 261.614 53.500 L 261.629 46.600 262.575 47.757 C 263.095 48.393,265.203 51.497,267.260 54.655 C 270.979 60.365,271.008 60.397,272.507 60.398 L 274.014 60.400 273.907 50.100 L 273.800 39.800 272.400 39.800 L 271.000 39.800 270.890 46.500 C 270.830 50.185,270.650 53.200,270.490 53.200 C 270.331 53.199,268.177 50.139,265.704 46.400 C 261.152 39.517,260.045 38.489,258.667 39.867 M282.435 40.319 C 276.608 43.226,278.450 50.058,285.420 51.391 C 288.907 52.058,290.000 52.796,290.000 54.480 C 290.000 57.407,285.628 58.651,281.946 56.772 C 279.225 55.384,277.511 57.628,280.093 59.198 C 285.053 62.214,292.167 60.383,293.013 55.872 C 293.785 51.756,292.073 49.649,287.157 48.663 C 283.381 47.906,282.400 47.226,282.400 45.367 C 282.400 42.812,286.052 41.493,288.946 43.002 C 290.450 43.787,290.934 43.757,291.777 42.825 C 293.843 40.543,286.133 38.475,282.435 40.319 M298.286 39.848 C 297.701 40.433,297.963 55.014,298.585 56.503 C 300.810 61.828,308.940 62.108,311.898 56.962 C 312.755 55.471,312.792 55.047,312.698 47.600 L 312.600 39.800 311.200 39.800 L 309.800 39.800 309.600 47.736 L 309.400 55.671 308.278 56.636 C 306.556 58.115,303.889 57.994,302.369 56.367 L 301.217 55.134 301.109 47.467 L 301.000 39.800 299.786 39.681 C 299.118 39.616,298.443 39.691,298.286 39.848 M319.086 39.848 C 318.929 40.005,318.800 44.693,318.800 50.267 L 318.800 60.400 325.400 60.400 L 332.000 60.400 332.000 59.000 L 332.000 57.600 327.008 57.600 L 322.015 57.600 321.908 48.700 L 321.800 39.800 320.586 39.681 C 319.918 39.616,319.243 39.691,319.086 39.848 M332.148 40.192 C 331.452 42.004,332.281 42.758,335.103 42.882 L 337.800 43.000 337.908 51.724 L 338.016 60.447 339.508 60.324 L 341.000 60.200 341.108 51.518 L 341.216 42.836 343.908 42.718 L 346.600 42.600 346.600 41.200 L 346.600 39.800 339.491 39.691 C 333.420 39.597,332.348 39.671,332.148 40.192 M351.486 39.848 C 351.329 40.005,351.200 44.693,351.200 50.267 L 351.200 60.400 352.807 60.400 L 354.414 60.400 354.307 50.100 L 354.200 39.800 352.986 39.681 C 352.318 39.616,351.643 39.691,351.486 39.848 M360.580 40.108 C 360.473 40.387,360.434 45.022,360.493 50.408 L 360.600 60.200 362.100 60.324 L 363.600 60.448 363.600 53.591 C 363.600 49.399,363.749 46.785,363.983 46.867 C 364.193 46.940,366.356 50.026,368.788 53.724 L 373.210 60.448 374.705 60.324 L 376.200 60.200 376.307 50.450 C 376.423 39.959,376.359 39.600,374.394 39.600 C 372.862 39.600,372.757 40.086,372.822 46.877 C 372.853 50.134,372.725 52.835,372.539 52.878 C 372.353 52.921,370.554 50.446,368.541 47.378 C 363.643 39.910,363.380 39.600,361.957 39.600 C 361.307 39.600,360.687 39.828,360.580 40.108 M385.600 40.376 C 381.138 42.736,379.760 54.179,383.468 58.080 C 388.917 63.813,397.195 59.692,396.720 51.482 L 396.600 49.400 392.900 49.285 L 389.200 49.170 389.200 50.564 L 389.200 51.958 391.300 52.079 L 393.400 52.200 393.347 53.780 C 393.164 59.265,385.666 58.867,384.975 53.336 C 383.823 44.121,388.828 38.455,392.767 44.513 C 393.862 46.197,396.407 46.749,396.393 45.300 C 396.355 41.160,389.784 38.163,385.600 40.376 M166.800 44.900 L 166.800 47.200 185.100 47.201 L 203.400 47.201 203.270 44.901 L 203.139 42.600 184.970 42.600 L 166.800 42.600 166.800 44.900 M248.378 43.796 C 249.588 45.004,250.143 52.924,249.180 55.248 C 247.537 59.215,242.032 58.156,241.371 53.747 C 240.054 44.963,243.974 39.396,248.378 43.796 M166.731 57.901 L 166.600 60.001 185.011 60.001 L 203.422 60.000 203.211 57.900 L 203.000 55.800 184.931 55.800 L 166.862 55.800 166.731 57.901 " stroke="none" fill="grey" fill-rule="evenodd"></path>
  </g>
</svg>