<svg id="svg" version="1.1" width="400" height="291" xmlns="http://www.w3.org/2000/svg"
     xmlns:xlink="http://www.w3.org/1999/xlink" style="display: block;">
  <g id="svgg">
    <path id="path0"
          d="M85.500 7.579 C 34.321 12.756,6.046 28.048,6.010 50.572 C 5.990 62.555,11.101 71.955,21.967 79.923 C 32.521 87.662,34.211 88.497,66.000 101.683 C 67.925 102.482,70.400 103.536,71.500 104.025 C 72.600 104.514,78.900 107.003,85.500 109.555 C 92.100 112.107,104.177 117.547,112.339 121.645 C 130.672 130.848,128.922 129.839,143.731 139.750 C 160.728 151.126,159.135 153.479,158.791 117.499 C 158.631 100.724,158.725 87.006,159.000 87.015 C 161.062 87.081,163.737 92.102,165.650 99.500 C 165.934 100.600,166.564 102.400,167.050 103.500 C 168.417 106.599,173.041 119.991,174.472 125.000 C 175.179 127.475,177.556 134.900,179.754 141.500 L 183.751 153.500 196.125 153.789 C 212.093 154.162,212.655 154.004,214.062 148.740 C 214.685 146.408,215.541 144.050,215.964 143.500 C 216.386 142.950,216.975 141.375,217.272 140.000 C 217.569 138.625,218.712 135.025,219.814 132.000 C 220.915 128.975,223.458 121.325,225.465 115.000 C 227.472 108.675,229.380 102.825,229.705 102.000 C 238.566 79.503,238.806 80.555,224.737 80.218 L 212.975 79.936 211.943 82.650 C 211.376 84.142,209.560 90.569,207.908 96.932 C 204.783 108.967,203.845 112.146,200.954 120.500 C 198.256 128.294,197.704 127.297,190.983 102.500 C 189.194 95.900,187.024 88.138,186.159 85.250 L 184.588 80.000 172.994 80.000 C 158.351 80.000,159.000 80.704,159.000 64.819 C 159.000 49.157,153.254 50.874,204.500 51.222 L 245.500 51.500 245.754 58.500 C 246.206 70.940,245.244 70.106,258.777 69.782 L 270.500 69.500 270.794 61.032 C 271.140 51.057,271.161 51.036,280.750 51.015 C 289.736 50.996,289.725 50.621,280.571 44.800 C 260.695 32.159,239.716 23.435,211.500 16.079 C 178.388 7.446,123.453 3.740,85.500 7.579 M293.678 51.823 C 291.100 52.320,291.635 53.064,298.989 59.219 C 310.303 68.687,329.000 95.961,329.000 102.997 C 329.000 103.879,329.424 105.028,329.943 105.550 C 332.082 107.706,335.871 127.608,335.947 137.091 C 336.444 198.925,288.262 224.376,223.000 196.753 C 210.134 191.307,187.022 176.165,176.500 166.288 C 168.132 158.434,161.009 152.876,160.061 153.462 C 158.312 154.543,158.603 281.425,160.358 282.882 C 161.351 283.706,192.796 283.940,277.608 283.754 L 393.500 283.500 393.754 167.750 C 393.957 75.496,393.754 51.990,392.754 51.951 C 386.268 51.696,294.949 51.578,293.678 51.823 M246.468 81.223 C 246.196 81.931,246.092 98.483,246.237 118.005 L 246.500 153.500 258.500 153.500 L 270.500 153.500 270.500 117.000 L 270.500 80.500 258.731 80.218 C 249.848 80.005,246.841 80.252,246.468 81.223 "
          stroke="none" fill="grey" fill-rule="evenodd"></path>
  </g>
</svg>