<?xml version="1.0" encoding="UTF-8"?>
<svg id="Layer_1" xmlns="http://www.w3.org/2000/svg" xmlns:xlink="http://www.w3.org/1999/xlink" version="1.1" viewBox="0 0 180 200">
  <!-- Generator: Adobe Illustrator 30.0.0, SVG Export Plug-In . SVG Version: 2.1.1 Build 123)  -->
  <defs>
    <style>
      .st0 {
        mask: url(#mask);
      }

      .st1 {
        fill: #9b03a6;
      }

      .st1, .st2, .st3, .st4, .st5, .st6, .st7, .st8, .st9, .st10, .st11, .st12 {
        fill-rule: evenodd;
      }

      .st2 {
        fill: #4b81b6;
      }

      .st3 {
        fill: #fff;
      }

      .st4 {
        fill: #e98b23;
      }

      .st5 {
        fill: #231f20;
      }

      .st6 {
        fill: #fdbb12;
      }

      .st7 {
        fill: #d1a8ff;
      }

      .st8 {
        fill: #219e87;
      }

      .st9 {
        fill: #b06bff;
      }

      .st10 {
        fill: #eaeaea;
      }

      .st11 {
        fill: #ff007f;
      }

      .st12 {
        fill: #060;
      }
    </style>
    <mask id="mask" x="-5.7" y="-25" width="200" height="234.4" maskUnits="userSpaceOnUse">
      <g id="mask0_907_609">
        <path class="st3" d="M89.9,4c3.8,0,7.5,1,10.8,2.9l64.4,37.2c6.6,3.8,10.8,11,10.8,18.7v74.4c0,7.7-4.1,14.8-10.8,18.7l-64.4,37.2c-3.3,1.9-7,2.9-10.8,2.9s-7.5-1-10.8-2.9L14.7,155.8c-6.6-3.8-10.8-11-10.8-18.7V62.8c0-7.7,4.1-14.8,10.8-18.7L79.1,6.9c3.3-1.9,7-2.9,10.8-2.9Z"/>
      </g>
    </mask>
  </defs>
  <path class="st5" d="M90,0c-4.4,0-8.8,1.1-12.8,3.4L12.8,40.6C4.9,45.2,0,53.7,0,62.8v74.4c0,9.1,4.9,17.6,12.8,22.2l64.4,37.2c4,2.3,8.4,3.4,12.8,3.4s8.8-1.1,12.8-3.4l64.4-37.2c7.9-4.6,12.8-13,12.8-22.2V62.8c0-9.1-4.9-17.6-12.8-22.2L102.8,3.4c-4-2.3-8.4-3.4-12.8-3.4"/>
  <path class="st7" d="M89.9,4c3.8,0,7.5,1,10.8,2.9l64.4,37.2c6.6,3.8,10.8,11,10.8,18.7v74.4c0,7.7-4.1,14.8-10.8,18.7l-64.4,37.2c-3.3,1.9-7,2.9-10.8,2.9s-7.5-1-10.8-2.9L14.7,155.8c-6.6-3.8-10.8-11-10.8-18.7V62.8c0-7.7,4.1-14.8,10.8-18.7L79.1,6.9c3.3-1.9,7-2.9,10.8-2.9"/>
  <g class="st0">
    <g>
      <path class="st9" d="M12.6,14.4l-1.1.6,1.1,21.1,18.4,12.7-1.2-22.5L12.6,14.4Z"/>
      <path class="st9" d="M-4.6,23.8l-1.1.6,1.1,21.1,18.4,12.7-1.2-22.5L-4.6,23.8Z"/>
      <path class="st9" d="M29.9,4.4l-1.1.6,1.1,21.1,18.4,12.7-1.2-22.5L29.9,4.4Z"/>
      <path class="st9" d="M47.1-5.6l-1.1.6,1.1,21.1,18.4,12.7-1.2-22.5-17.2-11.9Z"/>
      <path class="st9" d="M63.8-15.6l-1.1.6,1.1,21.1,18.4,12.7-1.2-22.5-17.2-11.9Z"/>
      <path class="st9" d="M81-25l-1.1.6,1.1,21.1,18.4,12.7-1.2-22.5-17.2-11.9Z"/>
      <path class="st9" d="M51.6,106.6l18.3,12.8-1.2-22.7-18.3-12.8,1.2,22.7Z"/>
      <path class="st9" d="M32.2,71.6l18.3,12.8-1.2-22.7-18.3-12.8,1.2,22.7Z"/>
      <path class="st9" d="M17.2,126.6l18.3,12.8-1.2-22.7-18.3-12.8,1.2,22.7Z"/>
      <path class="st9" d="M-2.3,91l18.3,12.8-1.2-22.7-18.3-12.8,1.2,22.7Z"/>
      <path class="st9" d="M34.4,116.6l18.3,12.8-1.2-22.7-18.3-12.8,1.2,22.7Z"/>
      <path class="st9" d="M14.9,81l18.3,12.8-1.2-22.7-18.3-12.8,1.2,22.7Z"/>
      <path class="st9" d="M0,136l18.3,12.8-1.2-22.7L-1.2,113.3,0,136Z"/>
      <path class="st9" d="M68.8,97.1l18.3,12.8-1.2-22.7-18.3-12.8,1.2,22.7Z"/>
      <path class="st9" d="M49.4,61.6l18.3,12.8-1.2-22.7-18.3-12.8,1.2,22.7Z"/>
      <path class="st9" d="M86,87.1l18.3,12.8-1.2-22.7-18.3-12.8,1.2,22.7Z"/>
      <path class="st9" d="M66.6,51.6l18.3,12.8-1.2-22.7-18.3-12.8,1.2,22.7Z"/>
      <path class="st9" d="M102.7,77.1l18.3,12.8-1.2-22.7-18.3-12.8,1.2,22.7Z"/>
      <path class="st9" d="M83.3,41.6l18.3,12.8-1.2-22.7-18.3-12.8,1.2,22.7Z"/>
      <path class="st9" d="M119.9,67.7l18.3,12.8-1.2-22.7-18.3-12.8,1.2,22.7Z"/>
      <path class="st9" d="M100.5,32.1l18.3,12.8-1.2-22.7-18.3-12.8,1.2,22.7Z"/>
      <path class="st9" d="M137.2,57.7l18.3,12.8-1.2-22.7-18.3-12.8,1.2,22.7Z"/>
      <path class="st9" d="M117.7,22.1l18.3,12.8-1.2-22.7L116.6-.6l1.2,22.7Z"/>
      <path class="st6" d="M154.4,47.7l18.3,12.8-1.2-22.7-18.3-12.8,1.2,22.7Z"/>
      <path class="st9" d="M134.9,12.1l18.3,12.8-1.2-22.7-18.3-12.8,1.2,22.7Z"/>
      <path class="st9" d="M171.6,37.7l18.3,12.8-1.2-22.7-18.3-12.8,1.2,22.7Z"/>
      <path class="st9" d="M152.2,2.7l18.3,12.8-1.2-22.7-18.3-12.8,1.2,22.7Z"/>
      <path class="st9" d="M71,142.1l18.3,12.8-1.2-22.7-18.3-12.8,1.2,22.7Z"/>
      <path class="st9" d="M36.6,162.1l18.3,12.8-1.2-22.7-18.3-12.8,1.2,22.7Z"/>
      <path class="st9" d="M53.8,152.1l18.3,12.8-1.2-22.7-18.3-12.8,1.2,22.7Z"/>
      <path class="st9" d="M19.4,171.6l18.3,12.8-1.2-22.7-18.3-12.8,1.2,22.7Z"/>
      <path class="st9" d="M88.3,132.1l18.3,12.8-1.2-22.7-18.3-12.8,1.2,22.7Z"/>
      <path class="st9" d="M105.5,122.7l18.3,12.8-1.2-22.7-18.3-12.8,1.2,22.7Z"/>
      <path class="st9" d="M122.7,112.7l18.3,12.8-1.2-22.7-18.3-12.8,1.2,22.7Z"/>
      <path class="st9" d="M139.4,102.7l18.3,12.8-1.2-22.7-18.3-12.8,1.2,22.7Z"/>
      <path class="st1" d="M156.6,93.2l18.3,12.8-1.2-22.7-18.3-12.8,1.2,22.7Z"/>
      <path class="st9" d="M173.8,83.2l18.3,12.8-1.2-22.7-18.3-12.8,1.2,22.7Z"/>
      <path class="st9" d="M55.9,197.3l17.7,12.1.7-.4-1-21.5-18.4-12.6,1.1,22.4Z"/>
      <path class="st4" d="M73.2,187.3l17.7,12.1.7-.4-1-21.5-18.4-12.6,1.1,22.4Z"/>
      <path class="st12" d="M158.7,137.9l17.7,12.1.7-.4-1-21.5-18.4-12.6,1,22.4Z"/>
      <path class="st9" d="M175.9,128.4l17.7,12.1.7-.4-1-21.5-18.4-12.6,1,22.4Z"/>
      <path class="st2" d="M90.4,177.3l17.7,12.1.7-.4-1-21.5-18.4-12.6,1,22.4Z"/>
      <path class="st8" d="M107.6,167.3l17.7,12.1.7-.4-1-21.5-18.4-12.6,1.1,22.4Z"/>
      <path class="st10" d="M124.3,157.9l17.7,12.1.7-.4-1-21.5-18.4-12.6,1.1,22.4Z"/>
      <path class="st11" d="M141.5,147.9l17.7,12.1.7-.4-1-21.5-18.4-12.6,1.1,22.4Z"/>
    </g>
  </g>
  <path class="st5" d="M122.5,128.6c-2.7,1-5.8,1.5-9.2,1.5s-7.6-.7-11.3-2.1c-3.8-1.4-7.1-3.5-10.1-6.3l7.5-9c2.1,1.8,4.4,3.2,6.9,4.4,2.5,1.1,5,1.7,7.4,1.7s4.8-.5,6.1-1.5c1.3-1,2-2.4,2-4.1s-.2-1.7-.6-2.3c-.4-.7-.9-1.2-1.7-1.7-.7-.5-1.6-1-2.7-1.4l-3.4-1.5-7.6-3.2c-1.5-.6-2.9-1.4-4.3-2.3-1.4-.9-2.6-2.1-3.7-3.3s-2-2.8-2.6-4.4c-.7-1.7-1-3.6-1-5.7s.5-4.6,1.5-6.7,2.4-3.9,4.3-5.5c1.8-1.6,4-2.8,6.5-3.7,2.5-.9,5.3-1.3,8.3-1.3s6.7.7,10,2c3.3,1.3,6.2,3.2,8.7,5.7l-6.7,8.3c-1.9-1.5-3.8-2.6-5.7-3.4-1.9-.8-4-1.2-6.3-1.2s-4,.5-5.4,1.4c-1.3.9-2,2.2-2,3.9s.2,1.6.7,2.3c.4.6,1.1,1.2,1.9,1.7.8.5,1.7,1,2.8,1.4,1.1.4,2.2.9,3.5,1.5l7.5,3c3.6,1.4,6.4,3.4,8.4,5.9,2,2.5,3.1,5.8,3.1,9.9s-.5,4.7-1.5,6.9c-1,2.2-2.4,4.1-4.3,5.7-1.9,1.6-4.2,2.9-6.9,3.9ZM71.9,128.4c-2.3,1.1-5.1,1.6-8.3,1.6s-8.2-.9-11.2-2.6c-3-1.7-5.5-4.4-7.5-7.9l8.9-6.6c1.1,2,2.3,3.4,3.7,4.4s2.9,1.4,4.4,1.4c2.4,0,4.2-.7,5.4-2.2,1.2-1.5,1.8-4.1,1.8-8v-37.6h13.1v38.7c0,2.8-.4,5.4-1.1,7.9-.7,2.5-1.9,4.7-3.4,6.5-1.5,1.8-3.4,3.3-5.8,4.4Z"/>
</svg>