<svg version="1.2" baseProfile="tiny" xmlns="http://www.w3.org/2000/svg" viewBox="0 0 1235 550"><path d="M235.4 240.8c-9.7 0-17.6 3.4-23.4 10.1v-8h-22.3v121l22.7-6.4v-41.4c5.8 6.4 13.6 9.6 23 9.6 22.3 0 39.2-18.3 39.2-42.5s-16.9-42.4-39.2-42.4zm16.2 42.5c0 12.7-8.3 21.6-20.2 21.6-11.8 0-20.1-8.9-20.1-21.6 0-12.7 8.3-21.6 20.1-21.6 11.9.1 20.2 8.9 20.2 21.6zM324.6 241.4c-24 0-40.7 17.5-40.7 42.6 0 25.2 16.8 42.1 41.8 42.1 13.9 0 25.4-4.1 34.2-12.2l.3-.3-13.2-14.5-.3.3c-5.6 4.7-13 7.5-19.8 7.5-10.6 0-17.7-5.5-19.9-15.6h56.3l.1-.4c.2-1.8.4-4.8.4-7.3-.1-25.3-15.8-42.2-39.2-42.2zm-.1 19.4c8.8 0 14.7 5.3 16.8 15h-34.1c2-9.9 8-15 17.3-15zM413.8 241.4c-24 0-40.7 17.5-40.7 42.6 0 25.2 16.8 42.1 41.8 42.1 13.9 0 25.4-4.1 34.2-12.2l.3-.3-13.2-14.5-.3.3c-5.6 4.7-13 7.5-19.8 7.5-10.6 0-17.7-5.5-19.9-15.6h56.3l.1-.4c.2-1.8.4-4.8.4-7.3-.1-24.9-16.2-42.2-39.2-42.2zm-.1 19.4c8.8 0 14.7 5.3 16.8 15h-34.1c2-9.9 8-15 17.3-15zM510.9 241.4c-9.7 0-17 3.3-22 9.9v-7.7h-21.7V324h22.4v-43.8c0-10.9 6.1-17.4 16.3-17.4 4.3 0 9.4 1 12.8 2.5l.6.2 3.3-21.9.1-.4-.4-.1c-3.4-1.2-7.1-1.7-11.4-1.7zM530.6 243.5H553V324h-22.4zM628.6 251.5c-5.9-6.7-14.2-10.2-24.2-10.2-21.2 0-37.1 17.7-37.1 41.1 0 23.4 15.9 41 37.1 41 10.1 0 18.2-3.3 24-10v4.3c0 12.7-8.5 20.6-22.2 20.6-9.2 0-17.9-2.7-26-8.1l-.5-.3-8 18.3.3.2c8.6 6.1 21.7 9.7 35.1 9.7 26.8 0 43.4-15.9 43.4-41.4v-73.5h-21.9v8.3zm.7 31c0 11.8-8.2 20.4-19.5 20.4s-19.6-8.6-19.6-20.4c0-11.9 8.2-20.5 19.6-20.5 11.3 0 19.5 8.6 19.5 20.5zM705 241.4c-24.8 0-43.4 18.2-43.4 42.3S680.3 326 705 326c24.8 0 43.6-18.2 43.6-42.3s-18.7-42.3-43.6-42.3zm0 63.8c-12 0-20.6-9-20.6-21.5 0-12.4 8.7-21.5 20.6-21.5 12 0 20.7 9 20.7 21.5 0 12.4-8.7 21.5-20.7 21.5zM807.6 241.4c-9.9 0-17.8 3.6-22.9 10.5v-8.4h-21.8V324h22.4v-44.1c0-10.6 6.4-17.5 16.4-17.5 9.6 0 15.1 6.3 15.1 17.4V324H839v-51.1c0-18.6-12.9-31.5-31.4-31.5zM541.7 204.2c-7.6 0-13.5 6-13.5 13.7 0 7.7 5.8 13.5 13.5 13.5 7.6 0 13.6-5.9 13.6-13.5 0-7.7-6-13.7-13.6-13.7z"/><g><ellipse fill="#46E1C8" cx="965.4" cy="271.3" rx="91.4" ry="91.3"/><path fill="#FFF" d="M1017.4 282.4c-7.4-7.3-15.9-10.8-28.6-4.4-2.8 1.4-8.5 5.9-11.3 7.8l-6.9-11.6c4.6-2.4 15.8-8.1 21.6-17.7 7.1-11.8 2.6-28.7-7.1-37.4-4.6-4-10.8-7.4-16.9-7.9-6.7-.8-13.7 1-18.3 2.9-2.3 1-6.2 3.1-8.6 4.4l-1 .5c-.3.2-.5.3-.7.4-4.3 2.4-38 22.7-38 22.7l44.6 83.5s18.1-13.4 28-20.9c7.8-5.9 12.8-10 15.3-11.9 12.5-9.3 23-.4 21.5 8.7-1.6 9.1-11.5 12.8-19 8.8-3.5-1.8-6.1-3.7-6.1-3.7l-6.6 11c2.7 1.7 9.6 6.7 16.4 7.3 9.8.8 19-5 23.5-10.9 8.2-11 5.8-23.5-1.8-31.6-.1-.1 0 0 0 0zm-63.8-12.7l13.6 23.9-16.7 11.9-31.6-58.2 32.2-19.1c2.1-1.1 4.1-2 6-2.7.2-.1.3-.1.5-.1 1.3-.5 2.6-.7 3.9-1 3.8-.7 7.5.5 10.6 2 6.7 3 11.2 12.3 9.7 19.5-.5 2.5-.8 8.4-10.7 14.3-8.1 4.8-17.5 9.5-17.5 9.5z"/></g></svg>