<svg width="1512" height="473" viewBox="0 0 1512 473" fill="none" xmlns="http://www.w3.org/2000/svg">
<path d="M1515.87 287.15C1515.87 355.058 1515.8 398.183 1516 466.092C1516.01 471.46 1515.27 473.011 1509.34 473C1007.78 472.81 506.229 472.81 4.67564 473C-1.25165 473 -2.02186 471.482 -1.99954 466.092C-1.78745 402.603 -1.86559 363.908 -1.86559 300.419C6.7407 304.091 3.33614 314.592 9.56481 320.585C12.3554 314.168 14.8558 308.209 17.546 302.316C21.4678 293.73 26.4909 293.265 32.6154 300.921C37.6162 307.193 44.0793 306.613 48.4103 299.794C52.6297 293.154 57.1729 286.726 61.6267 280.231C62.8323 278.467 63.7364 275.934 66.3708 276.191C69.7084 276.514 69.6191 279.583 70.1325 281.972C71.193 286.86 71.4497 293.377 77.2989 293.89C82.1434 294.314 81.2615 287.63 83.2485 284.293C84.5433 282.117 85.5145 279.527 88.4055 279.248C91.3748 278.969 93.3059 281.045 93.931 283.545C96.0965 292.317 98.2955 291.591 103.151 284.762C105.931 280.856 109.19 275.7 115.542 275.811C117.785 275.856 118.578 274.204 119.571 272.474C124.784 263.379 124.996 263.334 130.142 272.552C133.301 278.222 136.136 278.724 139.362 272.854C142.086 267.899 144.944 262.988 147.265 257.844C149.665 252.52 150.659 244.061 156.887 244.418C162.033 244.719 163.005 252.598 163.797 258.424C164.266 261.85 166.655 266.247 170.662 266.548C175.127 266.883 176.4 262.308 177.706 258.803C178.587 256.46 178.755 253.837 179.67 251.516C180.887 248.402 181.255 243.927 185.352 243.559C189.694 243.168 191.357 247.588 193.612 250.478C194.527 251.65 195.097 253.346 195.22 254.853C196.224 267.151 205.366 255.991 209.586 259.83C211.93 261.962 214.464 259.942 215.424 257.263C216.942 253.011 218.884 250.4 224.253 250.857C228.071 251.181 227.423 246.918 228.138 244.34C230.493 243.648 232.391 240.088 234.813 241.628C242.057 246.237 242.928 240.959 245.094 236.149C246.467 233.113 249.279 230.702 251.612 228.158C253.443 226.171 255.251 225.971 256.903 228.671C262.317 237.566 264.036 230.669 266.883 226.506C268.68 223.873 268.099 218.56 272.788 219.029C276.873 219.442 278.525 223.761 280.255 226.986C282.823 231.752 282.901 240.2 291.753 233.08C292.222 232.711 294.097 233.693 295.057 234.396C301.542 239.173 306.298 235.423 310.841 231.182C312.627 229.508 313.921 225.803 316.4 226.763C323.454 229.519 331.636 228.705 337.441 235.847C345.377 245.635 358.125 244.519 365.939 234.642C373.295 225.346 373.496 225.368 379.345 235.669C382.147 240.59 384.937 245.635 389.347 236.751C390.987 233.437 392.93 235.245 394.459 236.941C396.569 239.273 399.036 241.516 400.364 244.262C402.764 249.262 402.139 258.279 411.828 251.148C412.33 250.779 414.719 252.219 415.634 253.313C418.19 256.359 421.483 256.75 425.044 256.627C429.565 261.772 430.369 273.401 441.978 266.303C442.402 266.046 443.607 267.073 444.445 267.508C446.521 268.568 448.541 268.144 448.988 265.935C450.171 260.053 455.339 256.549 457.315 251.203C457.817 250.958 458.331 250.735 458.844 250.523C465.732 255.5 467.227 263.624 470.677 270.633C471.625 272.552 472.652 274.985 475.175 275.086C478.1 275.197 478.144 272.285 479.015 270.399C481.259 265.533 483.58 260.678 485.523 255.69C487.253 251.237 488.537 249.753 492.265 254.496C498.293 262.151 501.597 271.269 506.687 279.427C510.27 285.174 512.167 287.005 515.918 280.108C517.403 277.385 520.361 273.099 522.839 276.481C528.163 283.768 537.674 285.13 542.719 291.815C546.95 297.428 548.49 296.468 551.783 291.257C556.561 283.701 558.369 284.092 562.488 291.714C564.352 295.163 564.095 301.446 568.694 301.334C573.438 301.223 574.041 295.096 575.995 291.279C576.419 290.442 576.564 289.471 576.91 288.589C578.417 284.806 580.504 284.36 582.971 287.719C587.626 294.069 592.549 300.263 596.724 306.914C601.546 314.592 608.332 315.217 613.534 307.907C614.818 306.111 616.023 304.258 617.419 302.551C621.18 297.941 624.239 296.948 626.371 303.99C627.733 308.51 629.72 312.851 631.55 317.215C632.51 319.503 633.314 322.404 636.227 322.672C639.532 322.973 639.933 319.692 640.893 317.527C643.193 312.338 645.247 307.037 647.368 301.769C648.473 299.013 651.141 296.669 652.793 299.649C658.14 309.325 670.307 313.409 672.885 325.373C673.946 330.25 672.885 338.664 678.411 338.988C683.791 339.3 685.142 330.93 688.122 326.254C690.154 323.063 689.953 316.925 695.456 317.84C700.155 318.621 701.673 323.676 703.169 327.85C703.805 329.614 703.872 331.578 704.386 333.397C704.955 335.439 706.484 337.158 708.516 336.064C714.198 332.995 716.14 336.801 719.991 340.059C724.713 344.055 730.796 346.688 735.027 352.224C735.161 346.722 733.743 341.03 740.15 339.814C745.631 338.776 745.095 344.323 746.424 347.559C747.428 349.992 748.667 352.213 751.625 352.425C754.751 352.648 756.012 350.438 756.861 347.894C757.854 344.903 758.468 341.254 762.71 341.733C766.483 342.169 767.074 345.517 768.168 348.597C770.903 356.331 774.285 363.73 781.117 369.008C784.577 371.687 786.932 371.999 789.388 367.758C790.828 365.259 792.971 359.902 795.539 362.011C804.156 369.098 802.995 360.482 805.484 356.944C807.94 353.463 809.514 348.251 814.415 347.949C818.232 347.715 818.065 352.469 819.538 355.07C822.552 360.404 822.999 370.136 828.959 370.113C836.036 370.08 835.456 359.958 838.782 354.567C840.903 351.13 841.897 336.7 848.471 352.592C848.951 353.742 850.916 354.668 852.345 354.969C857.089 355.962 858.919 359.243 860.159 363.462C861.219 367.089 862.759 370.571 864.199 374.075C865.226 376.586 865.327 380.191 869.089 380.191C872.348 380.191 873.9 377.356 875.15 374.823C877.505 370.002 879.793 365.136 881.724 360.136C883.376 355.851 885.151 354.947 887.953 359.076C889.728 361.687 891.849 364.187 892.987 367.055C894.986 372.066 894.238 380.191 903.726 374.276C905.311 373.294 906.941 375.671 907.923 377.345C908.838 378.918 909.273 381.418 911.584 381.128C920.771 379.945 931.018 379.956 936.89 371.631C941.522 365.058 943.732 365.247 947.014 372.01C949.47 377.077 952.305 377.468 954.381 371.743C955.933 367.491 958.612 364.076 961.168 360.449C965.332 354.556 968.189 353.485 970.779 361.542C972.911 368.171 976.159 367.803 979.519 362.19C981.383 359.076 983.951 357.29 987.299 359.779C993.305 364.243 996.218 360.103 999.723 356.096C1002 353.496 1004.2 347.938 1008.34 350.762C1015.5 355.639 1021.5 349.211 1028.4 349.969C1033.78 350.561 1038.23 340.193 1046.69 345.182C1048.31 346.142 1049.37 342.224 1050.55 340.439C1053.22 336.365 1053.84 330.852 1059.25 327.973C1060.11 329.48 1060.95 330.741 1061.6 332.08C1064.63 338.33 1067.39 344.099 1072.17 332.95C1073.99 328.698 1077.37 330.015 1079.54 333.096C1082.36 337.113 1086.56 338.62 1090.26 336.522C1100.35 330.819 1109.92 324.346 1120.36 319.034C1125.97 316.177 1127.03 316.947 1130.6 320.083C1134.57 323.565 1139.51 327.326 1144.94 323.587C1151.38 319.134 1156.56 320.585 1162.12 324.804C1166.13 327.85 1172.17 329.904 1175.11 325.998C1182.01 316.791 1189.76 323.096 1193.89 326.121C1199.03 329.87 1205.37 332.18 1209.71 337.359C1214.6 343.173 1220.64 342.849 1226.24 337.928C1229.37 335.182 1231.58 335.071 1236.03 336.711C1243.71 339.535 1252.33 332.348 1260.67 336.856C1260.76 336.901 1261.46 335.964 1261.77 335.428C1265.75 328.553 1269.38 328.553 1272.96 335.807C1275.44 340.818 1278 340.963 1280.66 335.74C1282.8 331.533 1285.1 327.359 1287.72 323.42C1293.91 314.101 1293.98 314.168 1299.1 323.978C1300.22 326.121 1300.54 329.491 1303.48 329.614C1306.71 329.748 1306.48 326.143 1307.67 324.089C1309.39 321.11 1310.92 314.86 1315.23 319.257C1324.17 328.386 1327.7 322.136 1332.4 315.273C1335.13 311.289 1338.03 303.053 1344.31 312.673C1344.78 313.387 1347.07 313.889 1347.59 313.432C1353.69 308.075 1362.3 311.769 1368.88 307.16C1371.77 305.129 1375.84 299.883 1380.92 305.508C1382.14 306.858 1384.03 304.269 1384.91 302.573C1386.52 299.493 1388.04 296.368 1389.76 293.355C1394.11 285.732 1396.36 285.487 1400.46 293.109C1404.29 300.229 1407.01 300.307 1409.87 292.841C1412.82 285.085 1416.65 286.112 1419.99 292.183C1422.29 296.379 1427.2 298.343 1429.18 296.413C1436.58 289.181 1449.53 289.002 1453.26 277.396C1454.38 277.307 1455.51 277.217 1456.64 277.128L1457.2 277.731C1460.31 279.706 1462.41 278.3 1464.01 275.599C1466.82 270.823 1469.63 272.039 1472.5 275.51C1472.68 282.161 1475.17 285.074 1481.81 281.246C1488.16 287.607 1489.79 280.264 1492.96 277.407C1496.56 278.757 1500.24 278.724 1503.96 278.054C1507.93 281.079 1511.89 284.103 1515.87 287.116V287.15Z" fill="#141414"/>
<path d="M459.471 250.421C458.958 250.633 458.445 250.857 457.943 251.102C447.198 252.91 436.442 254.718 425.697 256.525C422.138 256.648 418.836 256.257 416.292 253.211C415.377 252.118 412.989 250.678 412.487 251.046C402.791 258.177 403.416 249.16 401.028 244.161C399.712 241.405 397.235 239.162 395.126 236.841C393.597 235.156 391.656 233.337 390.016 236.651C385.608 245.545 382.819 240.501 380.018 235.569C374.172 225.269 373.982 225.247 366.618 234.542C358.808 244.418 346.066 245.534 338.133 235.748C332.342 228.606 324.164 229.421 317.101 226.664C314.635 225.705 313.341 229.409 311.545 231.083C307.004 235.324 302.25 239.073 295.768 234.297C294.808 233.594 292.923 232.601 292.465 232.98C283.617 240.088 283.539 231.652 280.973 226.887C279.233 223.663 277.592 219.344 273.509 218.931C268.823 218.463 269.414 223.774 267.606 226.408C264.761 230.57 263.043 237.466 257.632 228.572C255.98 225.872 254.184 226.062 252.343 228.059C250.011 230.592 247.188 233.014 245.827 236.049C243.651 240.858 242.792 246.136 235.551 241.528C233.13 239.988 231.244 243.548 228.879 244.228C225.766 243.681 222.686 242.867 219.562 242.633C195.763 240.814 174.508 233.371 158.095 215.115C154.926 211.6 151.657 212.582 147.786 213.776C136.539 217.224 127.133 225.091 115.942 228.026C77.6606 238.035 38.5758 242.789 -1 243.447V93.6734C8.774 93.2717 18.5815 93.2494 28.322 92.3679C40.2159 91.2855 51.4292 95.2803 63.0219 96.1842C69.6383 96.6975 76.4667 97.3001 80.1264 89.6005C81.0525 87.6477 83.1389 87.0116 84.8014 88.8305C94.6535 99.6769 107.518 96.5301 118.542 93.8408C131.061 90.7945 141.861 92.7807 152.193 98.4717C163.574 104.732 173.727 107.488 186.335 100.346C196.466 94.6108 201.665 97.3224 209.007 106.885C213.046 112.141 216.661 117.732 220.89 122.82C228.633 132.138 234.413 132.238 242.245 123.032C246.764 117.721 250.982 117.319 255.701 122.251C257.877 124.528 260.421 126.759 261.671 129.527C264.694 136.177 269.76 137.449 276.354 136.97C282.881 136.501 289.475 135.452 295.891 138.577C311.21 146.042 326.819 152.916 342.038 160.593C348.164 163.684 354.166 165.916 360.995 165.079C374.417 163.45 385.787 167.623 397.569 174.318C446.964 202.383 447.22 202.818 499.181 199.615C535.287 197.383 572.787 200.05 604.776 177.253C610.6 173.102 616.826 173.113 622.962 178.291C627.347 181.996 633.372 183.067 639.074 183.089C652.854 183.134 666.109 186.002 678.929 190.51C690.399 194.538 701.623 195.107 713.26 191.826C719.073 190.186 725.188 189.316 730.99 191.648C743.252 196.591 754.722 193.634 766.895 190.275C788.875 184.216 809.885 172.957 833.94 176.293C836.741 176.684 839.943 174.686 842.855 173.548C865.204 164.822 887.563 156.129 909.845 147.258C924.673 141.355 936.701 130.877 949.8 122.151C951.139 121.258 951.73 119.696 951.239 117.966C959.753 118.167 964.584 111.673 970.598 107.332C974.793 105.647 978.363 103.058 981.61 99.967L981.889 99.7438C988.662 96.173 995.044 92.0666 1000.51 86.6322L1000.79 86.4314C1004.19 85.1704 1006.65 82.6708 1009.06 80.1043L1009.64 79.6022C1013.03 77.8391 1016.03 75.5738 1018.41 72.5386L1018.75 72.3155C1028.85 64.3927 1038.99 56.5257 1049.01 48.5137C1052.07 46.0699 1054.66 44.9206 1059.04 46.0364C1069.6 48.7369 1080.44 50.3326 1091.18 52.3635C1092.52 52.7206 1093.85 53.0888 1095.18 53.4459C1107.26 55.5326 1118.85 62.8751 1131.67 56.7377L1131.1 56.4476C1133.75 56.7266 1136.06 56.0682 1137.82 53.9369L1138.46 53.8699C1141.49 53.4905 1144.1 52.2631 1146.27 50.1317C1153.85 47.13 1161.03 43.4141 1167.71 38.7162C1168.35 38.7832 1168.87 38.5489 1169.22 38.0021C1173.9 35.8931 1178.38 33.4716 1182.28 30.057C1194.5 26.2853 1207.09 28.6845 1219.48 27.8029C1222.94 27.5574 1227.25 29.3428 1229.21 24.4888V24.5222C1239.71 19.0209 1251.48 15.0595 1260.41 7.67241C1275.82 -5.0598 1287.38 -0.294989 1301.56 9.98228C1313.7 18.7866 1326.11 29.2536 1342.47 29.9008C1354.92 30.3918 1364.55 35.2793 1372.64 44.742C1377.06 49.9085 1382.03 54.93 1388.18 58.3558H1388.24C1390.7 61.7369 1393.65 64.3257 1398.13 64.4262C1403.87 70.5412 1412.51 73.0073 1417 81.0305C1420.49 87.2683 1419.17 99.1189 1426.94 99.0408C1433.28 98.9739 1439.92 90.9953 1445.73 85.7507C1451.73 80.3387 1454.68 82.5369 1457.68 88.585C1460.61 94.4992 1464.1 100.146 1467.36 105.904C1475.77 120.689 1475.93 121.046 1491.3 113.86C1498.03 110.713 1501.57 112.376 1505 118.279C1508.12 123.668 1510.95 129.404 1516 133.443V287C1512.03 283.976 1508.07 280.952 1504.09 277.928C1500.73 272.761 1497.01 273.286 1493.1 277.281C1489.94 280.137 1488.31 287.48 1481.96 281.119C1479.65 277.928 1475.55 277.615 1472.65 275.384C1469.79 271.913 1466.97 270.708 1464.16 275.473C1462.57 278.185 1460.47 279.591 1457.34 277.604L1457.46 276.979L1456.79 277.002C1455.66 277.091 1454.53 277.18 1453.41 277.27C1436.05 273.754 1422.2 265.497 1411.79 250.477C1402.22 236.674 1388.96 227.512 1370.78 230.503C1337.9 235.915 1309.03 228.762 1284.25 205.507C1274.81 196.647 1263.07 193.623 1249.96 198.689C1244.15 200.943 1237.7 201.579 1231.52 202.862C1210.55 207.214 1189.63 214.501 1168.03 210.283C1145.39 205.864 1123.42 209.948 1101.2 212.08C1086.5 213.497 1073.84 219.88 1063 229.409C1053.29 237.957 1043.29 239.977 1031.71 234.163C1026.45 231.518 1021.54 231.842 1016.6 235.357C991.373 253.312 962.799 257.184 932.852 254.751C924.06 254.037 915.424 252.832 906.464 253.691C876.205 256.603 846.604 262.997 816.992 269.403C777.606 277.928 740.362 277.024 709.054 246.75C702.27 240.189 693.824 237.265 684.005 237.488C671.732 237.767 659.28 234.978 650.153 227.166C633.428 212.872 615.375 209.792 594.901 215.282C592.469 215.929 589.892 216.008 587.448 216.588C579.482 218.507 571.906 218.217 564.575 213.932C559.041 210.685 553.239 210.908 547.314 213.575C531.783 220.56 516.241 227.535 500.542 234.118C486.952 239.809 473.128 244.954 459.415 250.343L459.471 250.421Z" fill="#2B2B2B"/>
<path d="M52.7839 52.0225C54.6483 52.2247 56.5128 52.4269 58.3661 52.629C65.1429 66.2321 65.3774 66.3669 79.1878 62.177C81.7221 61.4019 84.4239 60.9302 86.5675 62.3006C99.9648 70.8264 112.759 66.1984 125.319 60.4921C133.96 56.5606 141.932 57.1334 150.875 60.0877C180.025 69.7031 208.249 84.0699 240.447 79.8351C285.149 99.942 330.533 118.375 376.642 134.944C380.75 136.415 385.395 138.156 389.492 137.583C411.754 134.528 431.102 142.987 450.037 152.579C461.581 158.432 472.946 159.589 485.707 157.758C521.657 152.624 557.829 149.03 593.779 143.885C607.12 141.976 617.939 147.424 629.036 152.445C635.936 155.567 642.054 155.814 648.998 153.096C658.7 149.299 668.681 146.188 678.55 142.818C684.903 140.65 691.244 138.887 697.876 141.976C703.391 144.548 707.812 141.515 711.776 138.403C719.68 132.192 728.456 129.687 738.336 130.765C753.676 132.428 767.52 128.754 780.56 120.285C790.619 113.759 801.471 108.468 811.977 102.627C817.86 99.3579 822.371 98.4144 826.58 106.075C832.776 117.364 846.129 117.78 856.311 122.947C862.228 125.946 866.76 120.038 871.606 117.465C876.072 115.095 880.805 112.871 884.545 109.58C895.855 99.6275 907.667 99.8409 920.272 106.457C930.007 111.568 942.076 110.759 950.829 118.454C951.32 120.206 950.728 121.779 949.388 122.666C936.281 131.45 924.246 141.998 909.409 147.94C887.113 156.87 864.74 165.632 842.377 174.405C839.452 175.551 836.248 177.561 833.457 177.168C809.386 173.81 788.364 185.155 766.37 191.243C754.19 194.624 742.712 197.59 730.443 192.625C724.637 190.277 718.519 191.153 712.702 192.804C701.047 196.107 689.815 195.534 678.349 191.479C665.51 186.941 652.258 184.054 638.47 184.009C632.765 183.987 626.736 182.908 622.349 179.179C616.197 173.956 609.979 173.956 604.151 178.134C572.142 201.083 534.607 198.398 498.49 200.645C446.498 203.869 446.23 203.431 396.816 175.18C385.026 168.44 373.65 164.239 360.219 165.879C353.386 166.71 347.38 164.464 341.251 161.364C326.033 153.635 310.403 146.716 295.074 139.201C288.655 136.056 282.057 137.1 275.526 137.583C268.916 138.067 263.859 136.786 260.833 130.091C259.572 127.305 257.026 125.059 254.86 122.767C250.138 117.802 245.906 118.207 241.396 123.554C233.558 132.821 227.786 132.72 220.027 123.34C215.796 118.218 212.167 112.59 208.137 107.3C200.802 97.673 195.599 94.9434 185.451 100.717C172.835 107.906 162.675 105.132 151.288 98.83C140.949 93.1124 130.142 91.1017 117.616 94.1683C106.574 96.8755 93.7127 100.043 83.8545 89.1248C82.191 87.2938 80.1144 87.9341 79.1766 89.8998C75.5147 97.6505 68.682 97.0552 62.0615 96.5272C50.4617 95.6174 39.2526 91.596 27.3401 92.6856C17.6047 93.573 7.79121 93.5954 -2 93.9998V80.6439C1.28234 80.4979 3.92831 78.9028 6.38449 76.9033C12.3463 73.9266 18.3304 70.9499 24.3034 67.9732C25.7548 67.3104 27.2062 66.6477 28.6575 65.985C34.53 65.0751 39.755 62.8847 43.6402 58.1219L43.9417 57.9085C47.3691 56.6392 50.5063 54.9206 52.862 52L52.7839 52.0225Z" fill="#212121"/>
<path d="M-1.97772 243.824C37.5311 243.166 76.5386 238.415 114.766 228.413C125.939 225.491 135.328 217.618 146.556 214.173C150.421 212.991 153.685 211.998 156.848 215.511C173.222 233.743 194.452 241.192 218.211 243.01C221.33 243.244 224.415 244.058 227.512 244.604C226.799 247.18 227.445 251.44 223.636 251.116C218.278 250.659 216.34 253.269 214.825 257.517C213.867 260.204 211.35 262.212 208.999 260.082C204.789 256.257 195.667 267.397 194.664 255.108C194.542 253.603 193.973 251.908 193.06 250.737C190.81 247.849 189.15 243.422 184.817 243.824C180.741 244.192 180.362 248.652 179.148 251.774C178.246 254.105 178.067 256.714 177.188 259.056C175.884 262.557 174.614 267.14 170.159 266.795C166.16 266.494 163.777 262.1 163.309 258.677C162.518 252.856 161.549 244.983 156.414 244.682C150.199 244.325 149.207 252.778 146.812 258.097C144.496 263.238 141.644 268.133 138.926 273.095C135.707 278.961 132.878 278.448 129.726 272.794C124.602 263.583 124.379 263.628 119.177 272.716C118.186 274.456 117.395 276.095 115.156 276.05C108.83 275.939 105.566 281.091 102.792 284.993C97.9471 291.818 95.7528 292.543 93.5919 283.778C92.9793 281.28 91.0412 279.206 88.0783 279.485C85.1934 279.764 84.2243 282.351 82.9322 284.525C80.9495 287.859 81.8295 294.539 76.9953 294.115C71.1587 293.602 70.9025 287.09 69.8443 282.206C69.3319 279.83 69.421 276.753 66.0906 276.429C63.4507 276.173 62.5596 278.704 61.3567 280.466C56.9235 286.956 52.39 293.39 48.1685 300.014C43.8356 306.827 37.3974 307.407 32.4073 301.14C26.3256 293.513 21.3132 293.977 17.3701 302.534C14.6857 308.411 12.1906 314.377 9.40598 320.788C3.19061 314.8 6.57676 304.307 -2 300.638V243.801L-1.97772 243.824Z" fill="#1D1D1D"/>
<path d="M459.037 250.204C472.744 244.802 486.562 239.657 500.145 233.941C515.848 227.342 531.372 220.351 546.897 213.349C552.819 210.676 558.618 210.463 564.15 213.707C571.466 218.002 579.049 218.293 587.012 216.369C589.466 215.776 592.042 215.709 594.462 215.06C614.916 209.546 632.972 212.633 649.69 226.973C658.812 234.791 671.27 237.599 683.526 237.319C693.341 237.095 701.783 240.026 708.564 246.603C739.847 276.948 777.085 277.854 816.453 269.309C846.052 262.877 875.64 256.468 905.885 253.56C914.841 252.699 923.473 253.907 932.261 254.623C962.194 257.061 990.756 253.18 1015.97 235.183C1020.91 231.659 1025.82 231.335 1031.07 233.986C1042.64 239.813 1052.64 237.778 1062.36 229.221C1073.2 219.669 1085.84 213.26 1100.53 211.85C1122.74 209.703 1144.71 205.62 1167.33 210.049C1188.91 214.277 1209.84 206.973 1230.79 202.611C1236.97 201.325 1243.42 200.687 1249.23 198.428C1262.33 193.35 1274.06 196.37 1283.5 205.262C1308.26 228.572 1337.12 235.742 1370 230.317C1388.18 227.319 1401.41 236.503 1410.98 250.339C1421.4 265.394 1435.23 273.671 1452.58 277.194C1448.85 288.827 1435.92 289.006 1428.53 296.254C1426.55 298.189 1421.65 296.221 1419.35 292.015C1416.02 285.93 1412.19 284.901 1409.23 292.675C1406.38 300.158 1403.66 300.08 1399.83 292.943C1395.74 285.304 1393.5 285.55 1389.15 293.189C1387.43 296.209 1385.9 299.341 1384.3 302.428C1383.4 304.14 1381.53 306.724 1380.31 305.37C1375.24 299.733 1371.17 304.99 1368.28 307.026C1361.71 311.645 1353.1 307.943 1347.01 313.312C1346.5 313.77 1344.2 313.267 1343.73 312.551C1337.47 302.909 1334.57 311.153 1331.83 315.157C1327.13 322.036 1323.61 328.3 1314.68 319.15C1310.38 314.743 1308.85 321.018 1307.13 323.994C1305.94 326.063 1306.17 329.665 1302.94 329.53C1299.99 329.407 1299.68 326.04 1298.57 323.882C1293.45 314.061 1293.38 313.983 1287.19 323.322C1284.58 327.26 1282.28 331.443 1280.14 335.671C1277.48 340.906 1274.91 340.771 1272.45 335.738C1268.87 328.468 1265.24 328.468 1261.27 335.358C1260.96 335.895 1260.26 336.845 1260.17 336.79C1251.84 332.271 1243.23 339.474 1235.55 336.644C1231.1 335 1228.91 335.112 1225.77 337.863C1220.16 342.796 1214.13 343.132 1209.26 337.293C1204.92 332.103 1198.58 329.788 1193.45 326.029C1189.32 322.998 1181.58 316.678 1174.68 325.906C1171.76 329.821 1165.72 327.763 1161.7 324.709C1156.15 320.481 1150.97 319.027 1144.54 323.49C1139.12 327.249 1134.18 323.468 1130.22 319.978C1126.65 316.846 1125.59 316.063 1119.98 318.927C1109.55 324.251 1100 330.738 1089.91 336.454C1086.21 338.557 1082.02 337.058 1079.2 333.02C1077.03 329.933 1073.65 328.613 1071.83 332.875C1067.07 344.049 1064.31 338.266 1061.27 332.002C1060.62 330.649 1059.79 329.385 1058.93 327.886C1053.53 330.772 1052.91 336.286 1050.23 340.38C1049.06 342.17 1048 346.084 1046.38 345.134C1037.94 340.134 1033.48 350.525 1028.11 349.932C1021.21 349.16 1015.21 355.614 1008.06 350.726C1003.93 347.896 1001.73 353.467 999.455 356.073C995.953 360.088 993.042 364.227 987.042 359.764C983.697 357.27 981.131 359.059 979.269 362.18C975.912 367.806 972.667 368.175 970.537 361.531C967.949 353.467 965.094 354.541 960.934 360.435C958.38 364.059 955.693 367.493 954.153 371.755C952.068 377.493 949.246 377.101 946.793 372.023C943.503 365.245 941.306 365.055 936.677 371.643C930.811 379.987 920.573 379.976 911.395 381.161C909.086 381.463 908.651 378.947 907.737 377.37C906.755 375.692 905.116 373.298 903.543 374.294C894.064 380.222 894.811 372.09 892.815 367.057C891.666 364.171 889.547 361.666 887.785 359.059C884.986 354.921 883.212 355.816 881.562 360.122C879.643 365.133 877.357 370.021 874.993 374.842C873.755 377.381 872.194 380.222 868.937 380.222C865.179 380.222 865.078 376.609 864.052 374.092C862.614 370.58 861.075 367.079 860.015 363.455C858.777 359.216 856.948 355.939 852.208 354.943C850.781 354.641 848.807 353.724 848.338 352.561C841.769 336.644 840.777 351.095 838.658 354.541C835.334 359.943 835.914 370.088 828.844 370.122C822.888 370.155 822.442 360.402 819.431 355.044C817.959 352.427 818.126 347.673 814.312 347.908C809.427 348.21 807.843 353.422 805.39 356.923C802.903 360.469 804.063 369.104 795.453 362.001C792.888 359.887 790.747 365.256 789.308 367.762C786.854 372.012 784.512 371.699 781.044 369.014C774.219 363.724 770.851 356.308 768.107 348.556C767.014 345.469 766.434 342.103 762.654 341.677C758.416 341.197 757.791 344.854 756.81 347.852C755.962 350.402 754.713 352.606 751.579 352.393C748.635 352.18 747.386 349.955 746.382 347.516C745.055 344.272 745.59 338.702 740.114 339.754C733.713 340.973 735.129 346.677 734.995 352.192C730.768 346.644 724.69 344.004 719.973 340C716.125 336.734 714.185 332.908 708.508 335.995C706.478 337.092 704.95 335.369 704.382 333.322C703.869 331.499 703.79 329.541 703.166 327.763C701.671 323.58 700.155 318.513 695.46 317.73C689.961 316.813 690.173 322.965 688.132 326.164C685.155 330.85 683.794 339.239 678.43 338.926C672.92 338.602 673.969 330.168 672.909 325.28C670.322 313.3 658.177 309.196 652.835 299.498C651.184 296.511 648.519 298.86 647.414 301.623C645.295 306.903 643.243 312.216 640.946 317.417C639.987 319.575 639.597 322.864 636.284 322.573C633.373 322.316 632.57 319.408 631.611 317.103C629.782 312.73 627.797 308.379 626.437 303.849C624.306 296.791 621.251 297.787 617.492 302.406C616.098 304.117 614.894 305.974 613.611 307.775C608.414 315.101 601.622 314.464 596.815 306.78C592.644 300.113 587.737 293.905 583.076 287.541C580.611 284.174 578.525 284.621 577.02 288.413C576.674 289.297 576.529 290.27 576.105 291.109C574.153 294.934 573.551 301.086 568.811 301.187C564.217 301.288 564.473 294.99 562.611 291.545C558.495 283.906 556.689 283.514 551.915 291.087C548.625 296.299 547.086 297.261 542.859 291.646C537.83 284.946 528.317 283.581 522.997 276.277C520.521 272.877 517.566 277.172 516.082 279.912C512.335 286.825 510.439 284.991 506.859 279.23C501.774 271.054 498.472 261.904 492.45 254.242C488.725 249.489 487.443 250.976 485.714 255.439C483.773 260.439 481.443 265.305 479.212 270.181C478.342 272.072 478.298 274.991 475.376 274.879C472.855 274.79 471.818 272.34 470.881 270.416C467.435 263.403 465.929 255.26 459.059 250.26L459.037 250.204Z" fill="#1D1D1D"/>
<path d="M423.817 256.687C434.882 254.902 445.959 253.116 457.024 251.331C454.99 256.61 449.681 260.07 448.452 265.878C447.992 268.071 445.913 268.49 443.775 267.432C442.914 267.002 441.673 265.988 441.236 266.242C429.286 273.24 428.459 261.767 423.805 256.687H423.817Z" fill="#1D1D1D"/>
</svg>
