<svg width="1437" height="292"
    xmlns="http://www.w3.org/2000/svg">
    <defs>
        <linearGradient id="Gradient1" x1="0" x2="0" y1="0" y2="1">
            <stop stop-color="#ccc" offset="0%" />
            <stop stop-color="#f2f2f2" offset="100%" />
        </linearGradient>
    </defs>
    <path d="M1437 292H-1v-16.672c4.307-2.06 7.473-5.264 11.78-7.322v4.069c3.612-1.68 7.21-3.358 9.755-6.105.273-8.945-.537-18.972.405-27.248 3.663-.695 7.11.953 10.564 0 1.638-.447 2.68-2.415 4.474-2.845 5.323-1.281 11.06.928 18.285 0 .256-7.33-.538-15.712.406-22.365h6.497c.256-1.241-.52-3.508.405-4.071h11.79c.148 1.614-.373 3.897.404 4.882 2.099 1.159 5.506.994 8.126 1.629v8.134h39.82v-73.208c5.863-4.022 10.698-9.085 22.347-7.314v79.3h28.445c.96-7.992-1.323-14.052 0-20.735.554-2.796 3.233-6.685 4.878-9.763 4.895-9.152 10.374-18.675 15.442-27.652h12.186c1.306-3.04 2.489-6.18 4.472-8.538h16.253v7.727h20.725v50.835h20.31c-1.397-3.615-4.406-5.617-5.686-9.358 7.953-2.796 19.467-4.766 16.253-18.707-1.422-1.828-4.673-1.828-4.474-5.287 3.763-2.605 8.556-4.181 12.598-6.503 1.217-6.645-2.14-8.705-4.059-12.205 2.38-1.45 3.168-2.978 5.689-4.475 1.934-1.142 5.82-1.657 6.497-3.658 1.638-4.84-4.315-4.709-4.06-8.539.3-4.558 7.243-4.393 10.972-6.918.95-5.013-4.324-3.806-4.472-7.727 4.133-4.674 11.836-5.776 12.598-13.825l.612.81h1.007c.455 4.022 3.225 5.725 4.878 8.546 3.505.555 6.258 1.87 7.316 4.874-.486 3.584-5.654 2.474-4.471 7.73 4.679 1.611 10.953 2.465 10.968 6.915.017 3.442-5.885 3.245-4.059 8.54 4.184 2.6 9.342 4.211 12.186 8.132-2.24 3.046-5.166 5.403-4.06 11.8 1.613 1.862 12.476 4.402 12.6 7.727.099 2.773-6.276 1.879-4.473 7.312 2.646-.826 4.862-3.952 7.316-6.5 1.736-1.812 6.258-5.379 6.904-7.728 1.198-4.376 0-11.319 0-17.085 0-15.83.322-35.413-.406-50.016 1.125-.372 3.82.827 3.663-.82-.134-3.524.603-7.925-1.223-9.753 2.62-4.336.082-10.924 4.876-15.457 2.505-2.374 5.82-1.861 8.532-4.475v-1.623l2 .2.843-1.83c1.373-.257 3.78.52 4.474-.405l1.214.199 1.223.205h4.464l1.322 1.424 1.937-.2v2.03c5.322 2.978 11.208 4.675 12.183 11.798.415 3.003-1.157 6.115 1.224 8.538-2.14 1.515-.891 6.429-1.224 9.763.307 1.175 3.348-.37 3.664.811-.944 21.563-.142 44.862-.415 67.103 2.614 2.813 5.16 5.685 8.127 8.134h72.326c.555-6.497 1.827-12.27 1.223-19.924 3.96-3.226 2.29-12.088 4.06-17.491l1.629-.134 1.223-1.082c2.512 4.425.265 9.241 1.215 13.825.438 2.118 2.87 3.633 3.248 5.692.845 4.545-1.974 9.302.82 13.42 2.247-3.98 3.794-8.67 6.497-12.203h8.126c1.206-6.38-.396-15.579.81-21.96h4.472c.39 1.639-1.157 5.22 1.63 4.477 1.826-1.158.313-5.642.81-8.133.24-1.606-2.812.1-2.44-1.631V94.349c.33-1.968 2.754-1.845 2.44-4.467l1.016.199 1.016.205c1.143 1.028 1.092 3.237 3.655 2.847-.942-6.107 2.273-16.373-2.438-18.707 2.728-.795 2.207-4.84 2.842-7.728l.438.727.788-.322c2.95-3.277 1.8-10.656 2.025-16.672.925-.299 3.174.729 2.842-.811 2.002-4.51 1.39-11.625 2.44-17.085l1.835.205 1.826.2c.777 5.46.52 11.948 2.026 16.68-.017 1.506 3.034-.057 2.852 1.622-.017 5.982-.497 12.42 2.026 15.861.637-1.663.387-4.22 1.223-5.694.578 4.974-.222 11.345 3.248 13.421-5.009-.157-2.71 14.48-2.033 18.303 1.686-.347 2.563-1.506 2.844-3.251l1.016.199 1.018.205c3.851 4.535 2.438 16.664 2.438 26.841v22.366c.074 1.159-2.663-.49-2.034 1.224.654 2.457-1.405 7.643 1.223 8.134 1.994.1-.14-3.94 1.217-4.478h4.876v21.961h8.937c.86 2.398 1.943 4.567 3.249 6.511-.148-3.221 2.349-5.238 2.852-8.538.993-6.536 0-15.564 0-23.996 0-8-1.456-17.384 0-23.995.578-2.639 3.374-3.664 4.06-6.511.486-2.01-.265-4.277 0-6.503.181-1.565 1.032-3.21 1.223-4.882.611-5.617-.754-11.824 0-17.896.182-1.523 1.024-2.947 1.214-4.47 1.15-9.307-1.106-18.73 0-26.847.265-1.921 1.38-3.516 1.63-5.279.552-4.088.504-9.508 0-13.42-.29-2.218-1.422-4.196-1.63-6.107C580.18 10.334 589.721 1.78 602.401 0l.2.612.61-.205c12.434.595 21.718 10.482 20.726 23.183-.216 2.713-1.977 5.36-2.438 8.538-.705 4.808.586 10.98 1.215 16.672 1.04 9.358-1.01 20.04 0 28.472.205 1.703 1.058 3.292 1.223 4.88.925 9.037-.671 17.749.81 25.617 1.116.894 3.306 4.692 4.068 3.26 2.529-7.288-.629-17.87.808-26.84.333-2.051 1.67-3.187 2.034-5.7 1.249-8.764-1.405-19.09 0-28.465.538-3.607 2.415-9.116 1.621-15.05-.264-1.992-1.405-3.854-1.62-5.693-1.637-13.924 6.274-21.867 20.716-24.399l.611.208.612.197c10.88.671 19.336 8.159 20.312 18.707.595 6.414-3.249 13.057-2.025 21.15.307 2.019 1.744 3.798 2.025 5.692 1.365 9.076-1.562 19.105 0 28.876.29 1.763 1.405 3.212 1.63 4.883 1.132 8.547-1.465 16.985 0 24.399.734 3.707 4.332 7.314 5.686 10.98h130.028c15.656 20.519 30.04 42.319 45.913 62.623 1.231-2.702 2.554-5.303 4.067-7.724h8.531c-1.985-32.294 3.539-56.413 8.53-81.335l1.48.199 1.365-.604c3.934 21.133 10.118 40.023 8.531 66.688 3.331 5.893 5.854 12.586 9.35 18.305 2.836-4.438 1.62-10.724 1.62-16.672v-17.896c0-15.374 1.546-32.823-2.429-42.702.885-5.073 6.557-5.363 5.689-12.197-.959-1.084-3.397-.671-4.472-1.63-1.124-12.51 6.614-16.151 15.03-19.113 4.38-6.197.487-15.399.413-23.185 3.058-3.707 6.58-6.958 6.497-13.825l1.63.208 1.62.197c1.372 2.929.48 5.337 2.034 8.133 1.513 2.722 4.39 3.377 4.878 6.514.942 6.047-4.818 14.784 0 21.552 8.076 3.575 16.61 6.693 15.443 19.519-2.216 1.207-4.101.421-4.878 2.442-1.77 4.615 6.25 7.354 6.093 11.391-3.911 8.11-2.438 23.715-2.438 37.415v30.5c10.903 5.469 21.914 10.772 33.323 16.267 3.547 1.711 7.828 4.31 11.375 4.88 5.507.886 10.326-.644 16.253 0 .322-9.678 2.068-24.284-2.438-30.495h4.878v-10.574c-3.885-.993-8.672-3.251-9.34-6.106h32.91c1.718-4.379 3.265-8.937 5.282-13.016 1.579 1.68 1.86 4.651 3.655 6.106 2.918-4.533 5.134-9.78 8.945-13.42 2.538 4.643 5.126 9.235 8.127 13.42 1.115-2.135 2.116-4.393 3.248-6.511 1.736 4.493 3.638 8.828 5.283 13.42h33.315c-1.992 3.286-5.604 4.966-9.746 6.107v10.574c1.496.256 4.042-.53 4.87.403-.686 1.995-2.455 3.93-2.845 6.1-2.537 14.166 1.9 33.697 0 48.798h6.102c6.994-8.316 13.358-17.257 20.312-25.617 3.456 4.181 7.654 8.299 12.194 13.018 3.043 3.158 10.772 9.367 11.78 13.42 2.323 9.323-1.713 19.784 0 30.904 8.911.513 16.384-.415 22.352-2.846v-14.637c4.15-7.102 7.705-14.793 12.185-21.565 25.868.276 52.825-.538 78.013.416.273 3.524-.537 8.123.405 10.98 6.977-2.516 15.03-3.938 21.94-6.511.645-5.088.122-7.9.964-12.957.421-2.465 1.169-6.918 1.473-9.002.654-4.402.222-9.227.413-13.42.537-12.354.199-37.077.81-50.125-1.413-2.442-5.506-2.846-6.505-6.098-.827-2.707.595 2.366 0-1.696 2.885-.24 1.175 1.29 1.63-1.373-2.142-.58-2.953-.356-3.977-2.036 1.158-1.952 2.597-1.522 4.787-2.442-.578.043-1.15.068-1.223-.404l.611-1.788-.198-1.87c.23-1.597-3.812-.297-3.985-2.845 1.57-1.557 3.783-1.722 6.486-2.127 0 0-5.107-2.652-6.495-5.486-.427-.872-1.555-13.378.883-15.445 2.347-1.991 6.677-2.417 7.112-2.648-.264-8.413.585-13.349-.349-21.084.347-.877 2.588.157 2.845-.811l1.422.207 1.422.197c1.257-.173 2.345-.243 2.438.812.364 4.1-.506 14.371-.117 20.238.064.945 4.82.793 6.654 2.208 2.62 2.022.603 14.926.794 16.504.199 1.663-6.241 4.59-5.365 5.39 2.338.778 5.037.374 6.078 2.45-.976 1.736-4.44 1.016-4.39 2.44l-.198 1.961 1.016 1.697c-.091.586-1.215.14-1.224.81 2.81.314 4.01.107 4.796 2.441-1.545 1.307-3.018.555-3.977 2.44.058 2.921-.645.256 1.621.968v1.284c-1.809 2.656-5.216 3.723-6.903 6.51.165 5.04-.23 10.418 0 15.449.546 12.052-.669 37.305.81 48.096.595 4.368 2.026 18.295 2.026 18.295 7.589-1.836 14.856-4.03 22.352-6.098 7.126-1.972 14.723-5.255 22.346-6.098 8.076-.905 16.046.654 25.603 0v51.647c1.215.82 3.829.228 5.689.402v-36.602c13.409.274 27.901-.538 40.63.403v52.062h22.347v7.322c2.446.265 5.95-.538 7.72.405V292zM922.995 52.06c-3.504.265-1.513 6.206-2.033 10.576h4.471c-.353-4.569 1.291-10.864-2.438-10.576zm124.333 126.477c-12.334 1.699-6.332 22.853-7.72 36.19h19.51c-1.044-14.71 4.935-38.499-11.79-36.19zm-19.906 13.016c-13.549-4.848-9.125 15.878-9.754 23.173h13.813c-.942-8.272 2.736-20.75-4.059-23.173zm49.972 0c-12.74-4.56-9.572 13.073-9.745 23.173h13.813c-.942-8.272 2.736-20.741-4.068-23.173z" fill="url(#Gradient1)" fill-rule="evenodd"/>
</svg>
