<?xml version="1.0" encoding="utf-8"?>
<!-- Generator: Adobe Illustrator 26.0.1, SVG Export Plug-In . SVG Version: 6.00 Build 0)  -->
<svg version="1.1" xmlns="http://www.w3.org/2000/svg" xmlns:xlink="http://www.w3.org/1999/xlink" x="0px" y="0px"
	 viewBox="0 0 2850 1140" style="enable-background:new 0 0 2850 1140;" xml:space="preserve">
<style type="text/css">
	.st0{fill:#28EBCF;}
	.st1{fill:#101112;}
	.st2{display:none;}
	.st3{display:inline;}
	.st4{fill:none;stroke:#28EBCF;stroke-miterlimit:10;}
</style>
<g id="Logomark">
	<g id="Logomark_00000045587885035829354890000015561008041149036185_">
		<path class="st0" d="M229.3,440.7c-39.1-39.1-39.1-102.4,0-141.4s102.4-39.1,141.4,0l270,270c39.1,39.1,39.1,102.4,0,141.4
			s-102.4,39.1-141.4,0L229.3,440.7z"/>
		<path class="st0" d="M200,533.3L406.9,740H250c-27.6,0-50-22.4-50-50V533.3z"/>
		<path class="st0" d="M463.3,270L670,476.7V320c0-27.6-22.4-50-50-50H463.3z"/>
	</g>
</g>
<g id="Logotype">
	<g id="Logotype_00000129181594027433739730000010240531963850890385_">
		<path id="E" class="st1" d="M2529,745.8c54.1,0,89.6-21.5,111.1-72.1h-21.5c-14,30.8-40.7,51.2-78.5,51.2
			c-11.1,0-27.9-2.9-37.2-8.7c-20.9-13.4-34.3-37.8-34.3-88.4v-23.8h133.2c32,0,49.4-22.7,48.3-49.4c-2.3-50-41.3-99.5-111.7-99.5
			c-91.3,0-133.2,80.8-133.2,148.3C2405.1,695.2,2467.3,745.8,2529,745.8 M2468.5,553.3c0-56.4,29.7-83.7,69.2-83.7
			c40.7,0,51.8,46,51.8,75c0,17.4-6.4,43-30.8,43h-90.2V553.3z"/>
		<path id="L_00000078765240971832859190000015778794865446624679_" class="st1" d="M2397.9,724.3h-17.5c-7.6,0-9.9-11.1-9.9-23.8
			V240.1c0-40.1-29.7-40.7-88.4-40.1v15.1h30.2v483.6c0,16.3-4.6,25.6-14,25.6h-18V740h117.5V724.3z"/>
		<path id="AB" class="st1" d="M2157.8,455c-25,0-47.7,12.2-64,29.7v-193c0-39.5-26.8-39.5-87.8-39v15.1h30.2v456.5h-23h-7.3h-21.2
			v-178c0-25-12.8-91.3-108.2-91.3c-44.8,0-89.6,14.5-114.6,57.6c-12.8,22.1-5.2,53.5,23.9,53.5c16.9,0,30.8-9.9,30.8-31.4
			c0.6-40.1,23.8-65.7,59.3-65.1c42.5,1.2,49.4,34.3,49.4,93.1c-93.1-3.5-172.7,32-172.7,100c0,78,80.3,82,112.8,82
			c19.8,0,48.9-7,65.1-27.9c9.3,23.3,19.4,23.4,82.6,23.3h28.2c23.3,0,47.1,1.2,50.6-15.7c18.6,13.4,39,20.4,62.8,20.4
			c57.6,0,121-37.2,121-143.1C2275.9,502.7,2216,455,2157.8,455 M1925.4,689.9c-8.7,23.9-34.3,39-59.9,39
			c-22.1,0-50.6-17.4-50.6-66.3c0-60.5,48.9-85.5,110.5-86.1V689.9z M2212.5,634.1c0,65.1-27.9,87.8-62.2,89.6
			c-16.9,0.6-34.3-4.7-56.4-24.4V509c22.1-27.9,44.8-34.9,62.8-34.9c37.2,0.6,55.8,35.5,55.8,98.9V634.1z"/>
		<path id="CAL" class="st1" d="M1702.1,700.4V341.2c0-40.1-29.7-40.7-88.4-40.1v15.1h30.2v382.4c0,16.3-4.7,25.6-14,25.6h-51.3
			v-178c0-25-12.8-91.3-108.2-91.3c-44.8,0-89.6,14.5-114.6,57.6c-12.8,22.1-5.2,53.5,23.9,53.5c16.9,0,30.8-9.9,30.8-31.4
			c0.6-40.1,23.8-65.7,59.3-65.1c42.5,1.2,49.4,34.3,49.4,93.1c-74.8-2.8-140.6,17.8-163.8,62.7c0,0-0.9,1.7-1,1.8
			c-29.5,64.3-82.4,98.3-119.8,98.3c-11.1,0-27.3-2.3-37.2-8.7c-24.4-16.3-35.5-41.9-35.5-104.1v-46.5c0-74.4,15.8-96.6,48.9-96.6
			c29.7,0,58.2,23.9,55.3,66.3c-1.2,20.4,11.6,33.2,26.8,33.2c17.5,0,32.6-13.4,29.1-34.9c-8.7-55.3-64.6-80.2-113.4-79.1
			c-62.2,1.7-110,41.9-110,148.9c0,91.9,58.7,142.5,123.9,142.5c70.4,0,105.2-21.1,127.3-58.1c15.4,53.2,81,56.3,109.5,56.3
			c19.8,0,48.9-7,65.1-27.9c9,28.3,44.6,23.7,101.7,23.3h103.2v-15.7H1712C1704.4,724.3,1702.1,713.2,1702.1,700.4 M1519.3,689.9
			c-8.7,23.9-34.3,39-59.9,39c-22.1,0-50.6-17.4-50.6-66.3c0-60.5,48.9-85.5,110.5-86.1V689.9z"/>
		<path id="S" class="st1" d="M991.5,569c-22.1-8.1-75.6-19.2-75.6-49.4c0-34.9,39.6-50,66.3-50c32.6,0,50,22.1,46,54.7
			c-2.3,17.4,11.6,29.1,27.3,28.5c23.8-1.2,29.7-25.6,25-41.9c-7-22.7-28.5-54.1-87.8-55.8c-69.8-2.3-116.3,35.5-116.3,80.2
			c0,41.3,35.5,69.2,91.3,87.3c46,15.1,78.5,30.8,78.5,54.1c0,36.1-40.1,54.7-65.7,54.7c-37.2,0-65.1-23.3-59.9-78.5
			c1.7-19.2-12.2-29.1-26.8-29.1c-19.2,0-31.4,14-28.5,37.2c7,55.8,61.6,83.2,104.1,84.9c77.4,2.9,116.9-35.5,116.9-79.7
			C1086.3,618.4,1056,593.4,991.5,569"/>
		<polygon id="L" class="st1" points="2583.4,915.2 2583.4,812.5 2559.9,812.5 2559.9,936.9 2647.3,936.9 2647.3,915.2 		"/>
		<path id="A_00000105402725823879548520000003605329920918803868_" class="st1" d="M2451.4,812.5l-55.8,124.4h25.4l10.7-23.5h65
			l10.5,23.5h25.6L2477,812.5H2451.4z M2441.1,891.6l23.1-53l23.1,53H2441.1z"/>
		<polygon id="T" class="st1" points="2287.7,833.8 2327.1,833.8 2327.1,936.9 2350.6,936.9 2350.6,833.8 2390,833.8 2390,812.5 
			2287.7,812.5 		"/>
		<rect id="I" x="2231.3" y="812.5" class="st1" width="23.3" height="124.4"/>
		<path id="P" class="st1" d="M2154.6,812.3c-19.6,0-39.1,0.2-58.7,0.2v124.4h23.5v-36.6h35.2
			C2215.5,900.3,2215.3,812.3,2154.6,812.3 M2154.6,878.8h-35.2v-44.1h35.2C2184.4,834.7,2184.6,878.8,2154.6,878.8"/>
		<path id="A" class="st1" d="M1988,812.5l-55.8,124.4h25.4l10.7-23.5h65l10.5,23.5h25.6l-55.8-124.4H1988z M1977.7,891.6l23.1-53
			l23.1,53H1977.7z"/>
		<path id="C" class="st1" d="M1872.3,917.7c-30.7,0-42.7-21.5-42.8-42.1c-0.2-20.8,12.8-43.2,42.8-43.2c10.8,0,21.9,3.7,30,11.7
			L1918,829c-12.8-12.6-28.8-19-45.7-19c-45,0-66.1,33.1-65.9,65.6c0.2,32.3,19.7,64.2,65.9,64.2c18,0,34.5-5.9,47.3-18.5l-16-16.2
			C1895.4,913.3,1883.2,917.7,1872.3,917.7"/>
		<path id="dot" class="st1" d="M1772.6,925.8c0,7.7-6.2,13.9-13.9,13.9s-13.9-6.2-13.9-13.9c0-7.7,6.2-13.9,13.9-13.9
			S1772.6,918.1,1772.6,925.8"/>
	</g>
</g>
<g id="Guides">
</g>
<g id="Safe_space" class="st2">
	<g id="Corners" class="st3">
		<g id="Bottom_right">
			<path class="st0" d="M100,1c54.6,0,99,44.4,99,99s-44.4,99-99,99S1,154.6,1,100S45.4,1,100,1 M100,0C44.8,0,0,44.8,0,100
				s44.8,100,100,100s100-44.8,100-100S155.2,0,100,0L100,0z"/>
		</g>
		<g id="Bottom_left">
			<path class="st0" d="M100,941c54.6,0,99,44.4,99,99c0,54.6-44.4,99-99,99s-99-44.4-99-99C1,985.4,45.4,941,100,941 M100,940
				C44.8,940,0,984.8,0,1040c0,55.2,44.8,100,100,100s100-44.8,100-100C200,984.8,155.2,940,100,940L100,940z"/>
		</g>
		<g id="Top_right">
			<path class="st0" d="M2750,1c54.6,0,99,44.4,99,99s-44.4,99-99,99s-99-44.4-99-99S2695.4,1,2750,1 M2750,0
				c-55.2,0-100,44.8-100,100s44.8,100,100,100s100-44.8,100-100S2805.2,0,2750,0L2750,0z"/>
		</g>
		<g id="top_left">
			<path class="st0" d="M2750,941c54.6,0,99,44.4,99,99c0,54.6-44.4,99-99,99s-99-44.4-99-99C2651,985.4,2695.4,941,2750,941
				 M2750,940c-55.2,0-100,44.8-100,100c0,55.2,44.8,100,100,100s100-44.8,100-100C2850,984.8,2805.2,940,2750,940L2750,940z"/>
		</g>
	</g>
	<g id="Bounds" class="st3">
		<line id="Safespace_top" class="st4" x1="0" y1="0" x2="2850" y2="0"/>
		<line id="Safespace_left" class="st4" x1="0" y1="0" x2="0" y2="1140"/>
		<line id="Safespace_bottom" class="st4" x1="0" y1="1140" x2="2850" y2="1140"/>
		<line id="Safespace_right" class="st4" x1="2850" y1="0" x2="2850" y2="1140"/>
	</g>
</g>
</svg>
