<?xml version="1.0" encoding="utf-8"?>
<!-- Generator: Adobe Illustrator 27.2.0, SVG Export Plug-In . SVG Version: 6.00 Build 0)  -->
<svg version="1.1" id="Ebene_1" xmlns="http://www.w3.org/2000/svg" xmlns:xlink="http://www.w3.org/1999/xlink" x="0px" y="0px"
	 viewBox="0 0 234.3 60.9" style="enable-background:new 0 0 234.3 60.9;" xml:space="preserve">
<style type="text/css">
	.st0{fill-rule:evenodd;clip-rule:evenodd;fill:#B1B2B3;}
	.st1{fill-rule:evenodd;clip-rule:evenodd;fill:#0D3174;}
	.st2{fill-rule:evenodd;clip-rule:evenodd;fill:#FBBA00;}
</style>
<g>
	<path class="st0" d="M166.6,17.9c-3.3,0-6.8,2.3-9,4.8c-0.7-3.2-3.3-4.8-6.5-4.8c-3.5,0-6.4,1.9-8.6,4.5h-0.1l0.1-3.8h-4.2l-0.3,26
		h4.2l0.3-18.6c2.1-2.5,4.3-4.3,7.4-4.3c2.2,0,4.1,1.3,4.1,4.1c0,2.6-0.1,4.8-0.1,7.1l-0.1,11.7h4.1l0.3-18.6
		c2.1-2.5,4.3-4.3,7.4-4.3c2.2,0,4.1,1.3,4.1,4.1c0,2.6-0.1,4.8-0.1,7.1l-0.1,11.7h4.2l0.1-12.9c0-2,0.1-4,0.1-5.9
		C173.9,21,172,17.9,166.6,17.9L166.6,17.9z"/>
	<path class="st0" d="M191.6,17.9c-7,0-11.9,6.6-11.9,13.7c0,8.5,4.2,13.7,11.4,13.7c3.9,0,7.2-2,9.9-4.6l-2-2.2
		c-2.2,2-4.4,3.8-7.4,3.8c-5.3,0-7.4-4.8-7.4-10.3v-0.9h17.4v-0.8C201.6,23.3,198.6,17.9,191.6,17.9L191.6,17.9z M184.6,28.3
		c0.7-3.5,3.2-7.2,7.1-7.2c4.2,0,5.8,3.5,5.8,7.2H184.6L184.6,28.3z"/>
	<path class="st0" d="M224.5,5.5l-0.2,15.8h-0.1c-1-1.8-3.6-3.4-6.7-3.4c-5.9,0-11.7,6-11.7,13.9c0,10.2,6,13.6,10.4,13.6
		c3.6,0,6.7-2,7.9-4.2h0.1l-0.1,3.5h4.2l0.4-39.1H224.5L224.5,5.5z M224.2,37.1c-1,2.2-3.7,4.8-7,4.8c-3.5,0-6.9-3.2-6.9-10.3
		c0-5.2,3.1-10.3,7.8-10.3c2.5,0,4.5,1.1,6.3,4.2L224.2,37.1L224.2,37.1z"/>
	<path class="st1" d="M14.8,22.4c1.9,0,4.3,0.9,5.8,2.1l2.7-4c-2.3-2-5.9-2.9-8.9-2.9c-5.1,0-9.7,2.7-9.7,8.1
		c0,10.5,12.3,6.5,12.3,11.7c0,2.1-1.7,3.1-3.6,3.1c-2.4,0-4.5-1-6.6-2.2l-2.3,4.5c2.7,1.6,5.8,2.5,9,2.5c5.1,0,9.9-2.8,9.9-8.4
		c0-9.5-12.6-6.4-12.6-11.4C10.7,23.4,12.9,22.4,14.8,22.4L14.8,22.4z"/>
	<path class="st1" d="M39.3,17.6c-7.7,0-12,7-12,14c0,8.2,4.8,13.8,11.5,13.8c4.3,0,7.9-2.1,10.7-5.2l-3.6-3.3
		c-1.6,1.7-3.6,3.4-6.1,3.4c-4.4,0-6-4.4-6-8h16.5C50.1,23.1,46.7,17.6,39.3,17.6L39.3,17.6z M33.9,27.8c0.3-2.6,2.5-5.7,5.3-5.7
		c3.3,0,4.6,2.9,4.8,5.7H33.9L33.9,27.8z"/>
	<path class="st1" d="M67.3,17.6c-2.8,0-5.3,1.5-6.6,3.5h-0.1v-2.8h-6.1l-0.2,38.9h6.4l0.2-14.5H61c1.5,1.9,3.8,2.5,5.9,2.5
		c7.5,0,11.6-7,11.6-14.1C78.5,23.2,73.9,17.6,67.3,17.6L67.3,17.6z M65.5,39.8c-2.3,0-3.6-1.3-4.5-2.4V27.2c0.4-2.2,2-4.1,4.7-4.1
		c3.8,0,6.5,3.4,6.5,8.4C72.1,36.7,68.7,39.8,65.5,39.8L65.5,39.8z"/>
	<path class="st1" d="M96.3,17.6c-2.8,0-5.3,1.5-6.6,3.5h-0.1v-2.8h-6.1l-0.2,38.9h6.4l0.2-14.5h0.1c1.5,1.9,3.8,2.5,5.9,2.5
		c7.5,0,11.6-7,11.6-14.1C107.5,23.2,102.9,17.6,96.3,17.6L96.3,17.6z M94.5,39.8c-2.3,0-3.6-1.3-4.5-2.4V27.2
		c0.4-2.2,2-4.1,4.7-4.1c3.8,0,6.5,3.4,6.5,8.4C101.1,36.7,97.7,39.8,94.5,39.8L94.5,39.8z"/>
	<polygon class="st2" points="115,31.6 127.9,31.6 127.9,44.6 115,44.6 115,31.6 	"/>
</g>
</svg>
