<?xml version="1.0" encoding="UTF-8"?><svg id="Ebene_1" xmlns="http://www.w3.org/2000/svg" viewBox="0 0 182.38 42.638"><defs><style>.cls-1{fill:#575756;}.cls-2{fill:#d50c2d;}</style></defs><g><path class="cls-1" d="M4.789,38.283c-.356-.249-.697-.41-1.263-.679l-.454-.217c-.834-.406-1.385-.675-1.385-1.489,0-.687,.451-1.425,1.44-1.425,.391,0,1.111,.124,1.542,.958,.017,.033,.049,.058,.086,.064,.035,.009,.076,0,.104-.026l.404-.338c.046-.038,.058-.104,.03-.155-.434-.796-1.218-1.252-2.154-1.252-1.499,0-2.283,1.106-2.283,2.199,0,.367,.093,.699,.284,1.015,.315,.517,.787,.761,1.591,1.147,.689,.335,1.18,.584,1.416,.72,.511,.307,.76,.701,.76,1.204,0,1.026-.82,1.8-1.907,1.8-.585,0-1.152-.255-1.481-.667-.114-.137-.324-.452-.432-.761-.012-.033-.037-.061-.07-.074-.032-.014-.069-.013-.102,.002l-.479,.225c-.058,.027-.086,.095-.064,.155,.079,.221,.223,.56,.566,.952,.343,.395,.929,.918,2.05,.918,1.542,0,2.75-1.125,2.75-2.562,0-.956-.542-1.437-.949-1.715Z"/><path class="cls-1" d="M13.966,33.837h-4.038c-.069,0-.125,.056-.125,.125v8.335c0,.069,.056,.125,.125,.125h4.038c.069,0,.125-.056,.125-.125v-.5c0-.069-.056-.125-.125-.125h-3.358v-3.562h3.282c.069,0,.125-.056,.125-.125v-.5c0-.069-.056-.125-.125-.125h-3.282v-2.773h3.358c.069,0,.125-.056,.125-.125v-.5c0-.069-.056-.125-.125-.125Z"/><path class="cls-1" d="M19.927,38.478c.296-.019,.578-.073,.84-.162,.952-.317,1.499-1.099,1.499-2.143,0-.573-.161-1.366-.926-1.891-.609-.412-1.248-.446-1.849-.446h-1.211c-.069,0-.125,.056-.125,.125v8.335c0,.069,.056,.125,.125,.125h.555c.069,0,.125-.056,.125-.125v-3.812h.062l2.688,3.883c.023,.033,.062,.054,.103,.054h.631c.046,0,.089-.026,.111-.067s.018-.091-.008-.129l-2.619-3.747Zm-.285-.743h-.683v-3.148h.569c.375,0,.921,.062,1.229,.235,.159,.085,.678,.433,.678,1.339,0,1-.653,1.574-1.793,1.574Z"/><path class="cls-1" d="M31.54,33.837h-.605c-.054,0-.101,.034-.119,.085l-2.281,6.753-2.354-6.754c-.018-.051-.065-.084-.118-.084h-.605c-.041,0-.079,.02-.102,.053s-.029,.076-.016,.114l3.079,8.673c.018,.05,.065,.083,.118,.083h0c.053,0,.1-.034,.118-.084l3.003-8.673c.013-.038,.007-.081-.016-.113-.023-.033-.062-.053-.102-.053Z"/><path class="cls-1" d="M39.387,33.837h-4.038c-.069,0-.125,.056-.125,.125v8.335c0,.069,.056,.125,.125,.125h4.038c.069,0,.125-.056,.125-.125v-.5c0-.069-.056-.125-.125-.125h-3.358v-3.562h3.282c.069,0,.125-.056,.125-.125v-.5c0-.069-.056-.125-.125-.125h-3.282v-2.773h3.358c.069,0,.125-.056,.125-.125v-.5c0-.069-.056-.125-.125-.125Z"/><path class="cls-1" d="M45.349,38.478c.296-.019,.578-.073,.84-.162,.952-.317,1.499-1.099,1.499-2.143,0-.573-.161-1.366-.926-1.891-.609-.412-1.248-.446-1.849-.446h-1.211c-.069,0-.125,.056-.125,.125v8.335c0,.069,.056,.125,.125,.125h.555c.069,0,.125-.056,.125-.125v-3.812h.062l2.688,3.883c.023,.033,.062,.054,.103,.054h.631c.046,0,.089-.026,.111-.067s.018-.091-.008-.129l-2.619-3.747Zm-.285-.743h-.683v-3.148h.569c.375,0,.921,.062,1.229,.235,.159,.085,.678,.433,.678,1.339,0,1-.653,1.574-1.793,1.574Z"/><path class="cls-1" d="M53.112,37.323c-.41,0-.73,.318-.73,.725s.321,.726,.73,.726,.731-.318,.731-.726-.321-.725-.731-.725Z"/><path class="cls-1" d="M62.801,33.724c-2.519,0-4.491,1.943-4.491,4.424s1.984,4.411,4.516,4.411c1.072,0,2.096-.379,2.883-1.068,.027-.023,.043-.058,.043-.094v-.725c0-.052-.031-.098-.079-.116-.049-.021-.103-.008-.138,.031-.709,.765-1.732,1.222-2.734,1.222-1.52,0-3.661-1.128-3.661-3.637,0-2.074,1.603-3.699,3.648-3.699,1.051,0,2.051,.463,2.744,1.269,.034,.04,.091,.054,.138,.036,.049-.019,.082-.064,.082-.117v-.725c0-.034-.014-.067-.039-.091-.358-.337-1.358-1.121-2.912-1.121Z"/><path class="cls-1" d="M72.845,41.672h-2.222v-7.71c0-.069-.056-.125-.125-.125h-.555c-.069,0-.125,.056-.125,.125v8.335c0,.069,.056,.125,.125,.125h2.902c.069,0,.125-.056,.125-.125v-.5c0-.069-.056-.125-.125-.125Z"/><path class="cls-1" d="M80.174,33.724c-2.519,0-4.491,1.943-4.491,4.424s1.973,4.411,4.491,4.411,4.491-1.938,4.491-4.411-1.973-4.424-4.491-4.424Zm0,8.085c-2.087,0-3.661-1.574-3.661-3.661s1.574-3.675,3.661-3.675,3.661,1.58,3.661,3.675-1.574,3.661-3.661,3.661Z"/><path class="cls-1" d="M94.585,33.837h-.555c-.069,0-.125,.056-.125,.125v5.211c0,.832-.048,1.28-.334,1.733-.524,.838-1.548,.903-1.85,.903s-1.326-.065-1.85-.903c-.286-.453-.334-.901-.334-1.733v-5.211c0-.069-.056-.125-.125-.125h-.555c-.069,0-.125,.056-.125,.125v5.211c0,.865,.036,1.529,.501,2.208,.674,.975,1.725,1.179,2.488,1.179s1.814-.204,2.488-1.18c.465-.678,.501-1.342,.501-2.207v-5.211c0-.069-.056-.125-.125-.125Z"/><path class="cls-1" d="M101.02,33.837h-1.666c-.069,0-.125,.056-.125,.125v8.335c0,.069,.056,.125,.125,.125h1.666c1.315,0,2.389-.403,3.191-1.198,.782-.773,1.249-1.928,1.249-3.088,0-1.168-.467-2.327-1.249-3.101-.803-.795-1.876-1.198-3.191-1.198Zm-.986,.75h.973c2.133,0,3.623,1.459,3.623,3.549s-1.49,3.536-3.623,3.536h-.973v-7.085Z"/><path class="cls-1" d="M110.659,37.323c-.409,0-.73,.318-.73,.725s.321,.726,.73,.726,.731-.318,.731-.726-.321-.725-.731-.725Z"/><path class="cls-1" d="M122.645,33.837h-.555c-.069,0-.125,.056-.125,.125v3.411h-4.849v-3.411c0-.069-.056-.125-.125-.125h-.556c-.069,0-.125,.056-.125,.125v8.335c0,.069,.056,.125,.125,.125h.556c.069,0,.125-.056,.125-.125v-4.174h4.849v4.174c0,.069,.056,.125,.125,.125h.555c.069,0,.125-.056,.125-.125v-8.335c0-.069-.056-.125-.125-.125Z"/><path class="cls-1" d="M131.326,33.724c-2.519,0-4.492,1.943-4.492,4.424s1.974,4.411,4.492,4.411,4.49-1.938,4.49-4.411-1.973-4.424-4.49-4.424Zm0,8.085c-2.088,0-3.662-1.574-3.662-3.661s1.574-3.675,3.662-3.675,3.66,1.58,3.66,3.675-1.573,3.661-3.66,3.661Z"/><path class="cls-1" d="M143.852,38.283c-.356-.249-.699-.412-1.268-.682l-.449-.214c-.834-.406-1.385-.675-1.385-1.489,0-.687,.451-1.425,1.44-1.425,.391,0,1.111,.124,1.542,.958,.018,.033,.05,.058,.087,.065,.036,.004,.076-.003,.104-.027l.403-.338c.046-.038,.059-.104,.029-.155-.433-.796-1.218-1.252-2.153-1.252-1.499,0-2.283,1.106-2.283,2.199,0,.367,.093,.699,.284,1.015,.314,.517,.786,.761,1.591,1.147,.687,.333,1.177,.582,1.416,.72,.512,.307,.76,.7,.76,1.204,0,1.026-.819,1.8-1.906,1.8-.586,0-1.153-.255-1.482-.667-.099-.118-.315-.431-.431-.761-.012-.033-.037-.061-.069-.074-.033-.015-.07-.013-.102,.002l-.48,.225c-.059,.027-.087,.095-.065,.155,.08,.222,.225,.561,.566,.952,.344,.395,.93,.918,2.051,.918,1.542,0,2.749-1.125,2.749-2.562,0-.956-.542-1.438-.949-1.715Z"/><path class="cls-1" d="M152.436,33.837h-4.922c-.069,0-.125,.056-.125,.125v.5c0,.069,.056,.125,.125,.125h2.059v7.71c0,.069,.056,.125,.125,.125h.555c.069,0,.125-.056,.125-.125v-7.71h2.059c.069,0,.125-.056,.125-.125v-.5c0-.069-.056-.125-.125-.125Z"/><rect class="cls-1" x="156.119" y="33.837" width=".805" height="8.585" rx=".125" ry=".125"/><path class="cls-1" d="M169.188,33.837h-.555c-.069,0-.125,.056-.125,.125v6.926l-6.852-7.101c-.034-.036-.087-.047-.137-.029-.047,.02-.078,.065-.078,.116v8.423c0,.069,.056,.125,.125,.125h.555c.069,0,.125-.056,.125-.125v-6.801l6.852,7.101c.023,.024,.057,.038,.09,.038,.016,0,.031-.003,.047-.009,.047-.02,.078-.065,.078-.116v-8.548c0-.069-.056-.125-.125-.125Z"/><path class="cls-1" d="M181.883,38.173h-3.533c-.069,0-.125,.056-.125,.125v.5c0,.069,.056,.125,.125,.125h2.845c-.051,.522-.251,1.109-.526,1.53-.413,.626-1.4,1.356-2.823,1.356-2.072,0-3.636-1.563-3.636-3.637s1.613-3.699,3.674-3.699c1.135,0,1.947,.53,2.33,.847,.114,.094,.506,.437,.779,.893,.019,.03,.05,.052,.085,.059,.035,.005,.071-.003,.1-.025l.442-.35c.053-.041,.063-.116,.024-.171-.31-.431-.618-.752-1.034-1.076-.565-.431-1.385-.925-2.715-.925-2.574,0-4.516,1.901-4.516,4.424s1.926,4.411,4.479,4.411c1.365,0,2.524-.514,3.265-1.446,.771-.972,.886-2.181,.886-2.815,0-.069-.056-.125-.125-.125Z"/></g><g id="HETZNER"><path class="cls-2" d="M174.52,14.116c1.332-.3,2.742-.606,4.531-1.978,.014-.011,.023-.021,.035-.033,1.238-1.051,1.737-3.045,1.681-4.789-.049-1.53-.383-2.896-1.138-4.053-1.274-1.984-3.061-3.051-5.309-3.169-.011-.001-1.097-.029-1.097-.029-.699-.02-1.847-.038-2.548-.04L159.136,0c-.703-.002-.99,.287-.99,.987V21.218c0,.702,.288,.992,.99,.992h2.981c.703,0,.99-.29,.99-.992l-.006-6.693h3.679c.703,0,1.675,.411,2.161,.916l5.826,5.849c.487,.503,1.295,.915,1.994,.915h4.473c.699,.001,.87-.406,.378-.905,0,0-6.922-7.012-7.091-7.185Zm-.752-4.3l-10.651,.006V4.724l10.651-.009c1.03,0,1.87,1.129,1.87,2.158v.786c0,1.028-.84,2.156-1.87,2.156Z"/><path class="cls-2" d="M153.439,17.52h-16.499v-4.167l13.191-.006c.7,0,.99-.291,.994-.992l.007-2.435c.003-.701-.285-.993-.986-.993l-13.205-.003V4.756l16.496-.003c.702,0,.992-.291,.992-.993V1.024c0-.701-.29-.99-.992-.99h-20.58c-.701,0-.99,.29-.99,.99V21.24c0,.701,.289,.991,.99,.991h20.58c.702,0,.99-.289,.992-.991v-2.73c.001-.7-.289-.99-.99-.99Z"/><path class="cls-2" d="M128.209,7.303c-.003-1.525-.386-2.884-1.138-4.036-1.274-1.984-3.104-3.12-5.352-3.239-3.134-.003-14.405-.024-15.168-.024-.701,0-.993,.29-.993,.989V21.22c0,.703,.292,.99,.993,.99l3.268,.003c.693,0,.975-.278,.988-.97V4.727s8.782,.028,8.782,.028c1.87,0,3.683,1.246,3.683,3.117l.003,13.37c0,.701,.29,.99,.991,.99h2.954c.702,0,.99-.29,.99-.99,0,0-.003-13.762,0-13.94Z"/><path class="cls-2" d="M100.942,17.389s-14.002,.031-14.249,.031l14.284-12.585c.527-.463,.952-1.13,.949-1.832V1.019c-.004-.699-.297-.99-.995-.99h-20.629c-.701,0-.992,.291-.992,.99V3.768c0,.701,.291,.988,.992,.988,.029,0,13.257-.003,13.257-.003-.17,.148-13.29,12.491-13.29,12.491-.527,.464-.957,1.131-.959,1.832v2.176c0,.701,.289,.988,.989,.988l20.643-.033c.701,0,.989-.289,.989-.989v-2.837c0-.702-.288-.991-.989-.991Z"/><path class="cls-2" d="M74.662,.036h-20.64c-.702,0-.99,.287-.99,.988V3.76c0,.702,.288,.99,.99,.99h7.787V21.238c-.001,.702,.286,.991,.987,.991h3.302c.702,0,.991-.289,.991-.991l.003-16.487h7.57c.702,0,.991-.288,.991-.99V1.024c0-.701-.289-.988-.991-.988Z"/><path class="cls-2" d="M48.385,17.52H31.886v-4.167l13.191-.006c.7,0,.99-.291,.994-.992l.007-2.435c.003-.701-.285-.993-.986-.993l-13.205-.003V4.756l16.496-.003c.702,0,.992-.291,.992-.993V1.024c0-.701-.29-.99-.992-.99H27.802c-.701,0-.99,.29-.99,.99V21.24c0,.701,.289,.991,.99,.991h20.58c.702,0,.99-.289,.992-.991v-2.73c.001-.7-.289-.99-.99-.99Z"/><path class="cls-2" d="M22.105,.025h-3.109c-.701,0-.991,.291-.991,.99l-.003,7.85-12.398,.003-.005-7.878C5.6,.29,5.308,.002,4.608,.002H1.465C.764,.002,.475,.29,.475,.99V21.255c0,.701,.289,.989,.99,.989h3.143c.7,0,.992-.289,.992-.989l.002-7.964h12.401l.003,7.961c0,.701,.29,.989,.991,.988l3.109-.004c.703-.001,.991-.29,.991-.992V1.016c0-.699-.288-.99-.991-.99Z"/></g></svg>