<svg id="Ebene_1" data-name="Ebene 1" xmlns="http://www.w3.org/2000/svg" viewBox="0 0 120 120"><defs><style>.cls-1{fill:#051c59;fill-rule:evenodd;}</style></defs><polygon class="cls-1" points="37.15 43.1 60.02 20.22 63.92 36.72 37.15 43.1 37.15 43.1"/><polygon class="cls-1" points="83.92 46.06 61.09 68.94 57.2 52.49 83.92 46.06 83.92 46.06"/><polygon class="cls-1" points="62.02 21.19 84.9 44.07 68.44 47.96 62.02 21.19 62.02 21.19"/><polygon class="cls-1" points="59.05 67.97 36.22 45.14 52.67 41.25 59.05 67.97 59.05 67.97"/><polygon class="cls-1" points="1.76 80.28 3.61 82.18 5.75 80.28 5.75 100.19 1.76 100.19 1.76 80.28 1.76 80.28"/><polygon class="cls-1" points="1.76 80.28 5.75 80.28 3.61 84.76 1.76 80.28 1.76 80.28"/><polygon class="cls-1" points="1.37 74.05 1.37 73.96 1.42 73.86 1.42 73.71 1.42 73.61 1.47 73.52 1.47 73.37 1.52 73.27 1.57 73.18 1.57 73.08 1.61 72.98 1.66 72.89 1.76 72.79 1.81 72.69 1.86 72.59 1.96 72.5 2 72.4 2.1 72.35 2.2 72.25 2.3 72.16 2.39 72.11 2.49 72.06 2.59 72.01 2.69 71.91 2.78 71.91 2.88 71.86 3.03 71.81 3.12 71.77 3.27 71.77 3.37 71.77 3.51 71.72 3.61 71.72 3.76 71.72 3.9 71.72 4 71.72 4.1 71.72 4.24 71.77 4.34 71.77 4.44 71.81 4.54 71.86 4.63 71.86 4.73 71.91 4.88 71.96 4.97 72.01 5.02 72.06 5.12 72.16 5.22 72.2 5.31 72.3 5.41 72.35 5.46 72.45 5.56 72.54 5.66 72.64 5.7 72.74 5.75 72.84 5.8 72.93 5.9 73.03 5.9 73.13 5.95 73.23 6 73.37 6.04 73.47 6.04 73.57 6.09 73.71 6.09 73.81 6.09 73.96 6.09 74.1 6.09 74.2 6.09 74.34 6.09 74.44 6.04 74.59 6.04 74.69 6 74.78 5.95 74.88 5.9 75.03 5.9 75.12 5.8 75.22 5.75 75.32 5.7 75.42 5.66 75.51 5.56 75.61 5.46 75.66 5.41 75.76 5.31 75.85 5.22 75.95 5.12 76 5.02 76.05 4.92 76.15 4.83 76.19 4.73 76.24 4.63 76.29 4.54 76.34 4.44 76.34 4.29 76.39 4.2 76.39 4.1 76.44 3.95 76.44 3.85 76.44 3.71 76.44 3.61 76.44 3.46 76.44 3.37 76.44 3.27 76.39 3.12 76.39 3.03 76.34 2.93 76.34 2.83 76.29 2.73 76.24 2.64 76.19 2.49 76.15 2.39 76.05 2.35 76 2.25 75.95 2.15 75.85 2.05 75.76 2 75.66 1.91 75.61 1.86 75.51 1.76 75.42 1.71 75.32 1.66 75.22 1.61 75.12 1.57 74.98 1.52 74.88 1.47 74.78 1.47 74.69 1.42 74.54 1.42 74.44 1.42 74.3 1.37 74.2 1.37 74.05 1.37 74.05"/><polygon class="cls-1" points="11.35 100.19 11.35 80.28 15.29 80.28 15.29 83.01 15.44 82.81 15.59 82.62 15.73 82.42 15.93 82.28 16.07 82.08 16.22 81.94 16.36 81.79 16.56 81.65 16.7 81.5 16.9 81.35 17.09 81.21 17.24 81.11 17.43 80.97 17.63 80.87 17.77 80.77 17.97 80.67 18.16 80.58 18.36 80.48 18.55 80.38 18.8 80.33 18.99 80.23 19.19 80.19 19.38 80.14 19.63 80.09 19.82 80.04 20.06 79.99 20.31 79.94 20.5 79.94 20.74 79.89 20.99 79.89 21.23 79.84 21.47 79.84 21.62 79.84 21.86 79.89 22.01 79.89 22.2 79.89 22.4 79.94 22.59 79.94 22.74 79.99 22.93 79.99 23.13 80.04 23.27 80.09 23.47 80.14 23.62 80.19 23.76 80.23 23.96 80.28 24.1 80.33 24.25 80.43 24.39 80.48 24.54 80.58 24.69 80.62 24.83 80.72 24.98 80.82 25.13 80.92 25.27 81.01 25.42 81.11 25.56 81.21 25.66 81.31 25.81 81.4 25.9 81.55 26.05 81.65 26.15 81.79 26.29 81.89 26.39 82.04 26.49 82.18 26.63 82.33 26.73 82.47 26.83 82.62 26.93 82.77 27.02 82.91 27.12 83.06 27.17 83.25 27.27 83.4 27.36 83.55 27.41 83.74 27.51 83.89 27.56 84.08 27.66 84.28 27.7 84.42 27.75 84.62 27.8 84.81 27.85 85 27.9 85.2 27.95 85.39 28 85.59 28.05 85.78 28.05 85.98 28.09 86.17 28.09 86.42 28.14 86.61 28.14 86.86 28.19 87.05 28.19 87.49 28.19 87.97 28.19 100.19 24.25 100.19 24.25 87.92 24.25 87.63 24.25 87.34 24.2 87.1 24.15 86.86 24.15 86.61 24.1 86.37 24.05 86.12 24 85.88 23.91 85.69 23.86 85.44 23.76 85.25 23.66 85.05 23.57 84.86 23.47 84.66 23.37 84.52 23.23 84.32 23.13 84.18 22.98 84.03 22.84 83.89 22.69 83.79 22.55 83.64 22.35 83.55 22.2 83.45 22.01 83.35 21.82 83.3 21.62 83.2 21.43 83.16 21.23 83.11 21.04 83.06 20.79 83.06 20.6 83.06 20.36 83.01 20.21 83.06 20.06 83.06 19.87 83.06 19.72 83.06 19.58 83.11 19.38 83.16 19.23 83.16 19.09 83.2 18.89 83.25 18.75 83.3 18.6 83.35 18.46 83.45 18.26 83.5 18.12 83.59 17.97 83.69 17.82 83.74 17.63 83.84 17.48 83.93 17.34 84.03 17.19 84.13 17 84.28 16.85 84.37 16.7 84.52 16.56 84.66 16.41 84.81 16.22 84.91 16.07 85.1 15.93 85.25 15.78 85.39 15.63 85.54 15.44 85.73 15.29 85.93 15.29 100.19 11.35 100.19 11.35 100.19"/><polygon class="cls-1" points="42.06 98.49 43.09 96.98 43.33 96.98 43.52 96.98 43.72 96.98 43.91 96.98 44.11 96.93 44.3 96.93 44.45 96.88 44.64 96.88 44.84 96.83 45.03 96.78 45.18 96.78 45.37 96.73 45.52 96.69 45.71 96.64 45.86 96.59 46.01 96.49 46.15 96.44 46.35 96.39 46.49 96.3 46.64 96.25 46.78 96.15 46.93 96.1 47.08 96 47.17 95.91 47.32 95.81 47.47 95.71 47.56 95.62 47.71 95.52 47.81 95.42 47.95 95.32 48.05 95.23 48.2 95.08 48.29 94.98 48.39 94.84 48.49 94.74 48.59 94.59 48.68 94.45 48.78 94.35 48.88 94.2 48.98 94.06 49.02 93.91 49.12 93.77 49.17 93.62 49.27 93.47 49.32 93.33 49.41 93.18 49.46 93.04 49.51 92.89 49.56 92.69 49.61 92.55 49.66 92.4 49.7 92.21 49.75 92.06 49.8 91.92 49.8 91.72 49.85 91.53 49.9 91.19 49.95 90.85 49.95 90.46 49.95 90.07 49.95 89.87 49.95 89.73 49.95 89.53 49.95 89.39 49.9 89.19 49.9 89.05 49.85 88.85 49.85 88.7 49.8 88.51 49.75 88.36 49.7 88.22 49.7 88.02 49.66 87.88 49.61 87.73 49.51 87.58 49.46 87.44 49.41 87.29 49.32 87.15 49.27 87 49.17 86.86 49.12 86.71 49.02 86.56 48.93 86.47 48.83 86.32 48.73 86.17 48.63 86.08 48.54 85.93 48.44 85.78 48.34 85.69 48.24 85.54 48.1 85.44 48 85.3 47.86 85.2 47.71 85.1 47.61 85 47.47 84.91 47.37 84.81 47.22 84.71 47.08 84.62 46.93 84.52 46.78 84.42 46.69 84.32 46.54 84.28 46.4 84.18 46.25 84.13 46.1 84.08 45.96 83.98 45.76 83.93 45.62 83.89 45.47 83.84 45.33 83.79 45.18 83.74 44.98 83.69 44.84 83.64 44.69 83.59 44.5 83.59 44.35 83.55 44.16 83.55 44.01 83.5 43.82 83.5 43.62 83.5 43.48 83.5 43.28 83.45 43.09 83.45 42.11 81.4 43.18 79.84 43.48 79.84 43.77 79.89 44.06 79.89 44.3 79.89 44.59 79.94 44.89 79.99 45.13 79.99 45.42 80.04 45.66 80.09 45.96 80.14 46.2 80.19 46.44 80.28 46.69 80.33 46.93 80.43 47.17 80.48 47.42 80.58 47.66 80.67 47.9 80.77 48.15 80.87 48.39 81.01 48.59 81.11 48.83 81.21 49.07 81.35 49.27 81.5 49.46 81.65 49.7 81.79 49.9 81.94 50.09 82.08 50.34 82.23 50.53 82.42 50.73 82.57 50.92 82.77 51.12 82.91 51.26 83.11 51.46 83.3 51.65 83.5 51.8 83.69 51.94 83.89 52.09 84.08 52.24 84.28 52.38 84.47 52.53 84.71 52.67 84.91 52.77 85.15 52.92 85.35 53.02 85.54 53.11 85.78 53.21 86.03 53.31 86.27 53.41 86.47 53.5 86.71 53.55 86.95 53.65 87.19 53.7 87.44 53.74 87.68 53.79 87.92 53.84 88.22 53.89 88.46 53.94 88.7 53.94 89 53.99 89.24 53.99 89.53 53.99 89.78 53.99 90.07 53.99 90.36 53.99 90.65 53.99 90.94 53.94 91.23 53.94 91.53 53.89 91.82 53.84 92.11 53.79 92.36 53.74 92.65 53.7 92.89 53.65 93.13 53.55 93.43 53.5 93.67 53.41 93.91 53.31 94.16 53.21 94.4 53.11 94.64 53.02 94.89 52.92 95.13 52.82 95.32 52.67 95.57 52.53 95.76 52.43 96 52.28 96.2 52.14 96.39 51.94 96.59 51.8 96.78 51.65 96.98 51.46 97.17 51.31 97.37 51.12 97.56 50.92 97.76 50.73 97.9 50.53 98.1 50.34 98.24 50.14 98.39 49.95 98.58 49.7 98.73 49.51 98.88 49.32 98.97 49.07 99.12 48.88 99.27 48.63 99.36 48.39 99.46 48.2 99.56 47.95 99.7 47.71 99.8 47.47 99.9 47.22 99.95 46.98 100.05 46.74 100.09 46.49 100.19 46.2 100.24 45.96 100.29 45.71 100.34 45.42 100.39 45.18 100.44 44.89 100.48 44.59 100.53 44.35 100.53 44.06 100.58 43.77 100.58 43.48 100.58 43.18 100.58 42.06 98.49 42.06 98.49"/><polygon class="cls-1" points="44.2 98.49 43.18 100.58 42.89 100.58 42.6 100.58 42.31 100.58 42.06 100.53 41.77 100.48 41.48 100.48 41.24 100.44 40.94 100.39 40.7 100.34 40.46 100.29 40.16 100.24 39.92 100.19 39.68 100.09 39.44 100.05 39.19 99.95 38.95 99.85 38.7 99.75 38.46 99.66 38.22 99.56 38.02 99.41 37.78 99.31 37.59 99.17 37.34 99.07 37.15 98.93 36.9 98.78 36.71 98.63 36.52 98.49 36.32 98.34 36.13 98.15 35.88 98 35.74 97.81 35.54 97.66 35.35 97.47 35.15 97.27 35.01 97.08 34.81 96.88 34.66 96.69 34.52 96.49 34.37 96.25 34.23 96.05 34.08 95.86 33.94 95.62 33.84 95.42 33.69 95.18 33.59 94.98 33.5 94.74 33.4 94.5 33.3 94.25 33.2 94.01 33.11 93.77 33.01 93.52 32.96 93.28 32.91 93.04 32.81 92.79 32.77 92.55 32.72 92.26 32.67 92.01 32.67 91.72 32.62 91.48 32.57 91.19 32.57 90.94 32.57 90.65 32.52 90.36 32.52 90.07 32.52 89.82 32.57 89.53 32.57 89.29 32.57 89.05 32.62 88.75 32.67 88.51 32.67 88.27 32.72 88.02 32.77 87.78 32.81 87.54 32.91 87.29 32.96 87.05 33.06 86.81 33.11 86.56 33.2 86.32 33.3 86.12 33.4 85.88 33.5 85.69 33.59 85.44 33.74 85.25 33.84 85 33.98 84.81 34.08 84.62 34.23 84.37 34.37 84.18 34.52 83.98 34.71 83.79 34.86 83.59 35.01 83.4 35.2 83.2 35.4 83.01 35.59 82.81 35.74 82.67 35.93 82.47 36.13 82.28 36.37 82.13 36.56 81.99 36.76 81.84 36.95 81.69 37.2 81.55 37.39 81.4 37.63 81.26 37.83 81.16 38.07 81.01 38.27 80.92 38.51 80.82 38.75 80.72 39 80.62 39.24 80.53 39.48 80.43 39.73 80.38 39.97 80.28 40.21 80.23 40.46 80.19 40.75 80.09 40.99 80.04 41.24 79.99 41.53 79.99 41.77 79.94 42.06 79.89 42.36 79.89 42.6 79.89 42.89 79.84 43.18 79.84 44.25 81.69 43.09 83.45 42.74 83.5 42.4 83.5 42.21 83.5 42.06 83.55 41.87 83.55 41.72 83.59 41.53 83.59 41.38 83.64 41.24 83.69 41.09 83.74 40.9 83.79 40.75 83.84 40.6 83.89 40.46 83.93 40.31 83.98 40.16 84.08 40.02 84.13 39.87 84.18 39.78 84.28 39.63 84.37 39.48 84.42 39.34 84.52 39.24 84.62 39.09 84.71 38.95 84.81 38.85 84.91 38.7 85 38.61 85.1 38.51 85.25 38.36 85.35 38.27 85.44 38.17 85.59 38.07 85.69 37.98 85.83 37.88 85.93 37.78 86.08 37.68 86.22 37.59 86.32 37.49 86.47 37.44 86.61 37.34 86.76 37.29 86.86 37.2 87 37.15 87.15 37.1 87.29 37 87.44 36.95 87.58 36.9 87.73 36.85 87.88 36.81 88.02 36.76 88.22 36.76 88.36 36.71 88.51 36.66 88.66 36.66 88.85 36.61 89 36.61 89.14 36.61 89.34 36.61 89.48 36.56 89.68 36.56 89.82 36.56 90.02 36.56 90.21 36.56 90.41 36.61 90.6 36.61 90.8 36.61 90.99 36.61 91.14 36.66 91.33 36.66 91.53 36.71 91.72 36.76 91.87 36.76 92.06 36.81 92.21 36.85 92.4 36.9 92.55 36.95 92.74 37 92.89 37.1 93.04 37.15 93.18 37.2 93.33 37.29 93.52 37.34 93.67 37.44 93.81 37.49 93.96 37.59 94.06 37.68 94.2 37.78 94.35 37.88 94.5 37.98 94.59 38.07 94.74 38.17 94.89 38.27 94.98 38.36 95.13 38.51 95.23 38.61 95.32 38.7 95.42 38.85 95.57 38.95 95.67 39.09 95.76 39.24 95.86 39.34 95.91 39.48 96 39.63 96.1 39.78 96.2 39.87 96.25 40.02 96.35 40.16 96.39 40.31 96.44 40.46 96.54 40.6 96.59 40.75 96.64 40.9 96.69 41.09 96.73 41.24 96.78 41.38 96.78 41.53 96.83 41.72 96.88 41.87 96.88 42.06 96.93 42.21 96.93 42.4 96.98 42.55 96.98 42.74 96.98 42.94 96.98 43.09 96.98 44.2 98.49 44.2 98.49"/><polygon class="cls-1" points="65.28 92.5 70.49 80.28 74.67 80.28 65.96 100.58 64.6 100.58 55.55 80.28 59.88 80.28 65.28 92.5 65.28 92.5"/><polygon class="cls-1" points="79.64 89.43 80.86 88.22 90.83 88.22 90.83 87.97 90.83 87.73 90.79 87.49 90.74 87.29 90.69 87.05 90.64 86.81 90.59 86.61 90.54 86.42 90.45 86.17 90.35 85.98 90.25 85.78 90.15 85.59 90.01 85.39 89.86 85.2 89.76 85.05 89.57 84.86 89.42 84.71 89.28 84.52 89.08 84.37 88.94 84.28 88.74 84.13 88.55 84.03 88.3 83.93 88.11 83.84 87.92 83.74 87.67 83.69 87.43 83.59 87.23 83.55 86.99 83.5 86.7 83.5 86.45 83.5 86.21 83.45 85.14 81.31 86.16 79.84 86.41 79.84 86.65 79.89 86.89 79.89 87.19 79.89 87.43 79.94 87.67 79.99 87.87 79.99 88.11 80.04 88.35 80.09 88.55 80.14 88.79 80.19 88.99 80.28 89.23 80.33 89.42 80.43 89.62 80.48 89.86 80.58 90.01 80.67 90.25 80.77 90.4 80.87 90.59 81.01 90.79 81.11 90.98 81.21 91.13 81.35 91.32 81.5 91.47 81.65 91.61 81.79 91.81 81.94 91.95 82.08 92.1 82.23 92.25 82.42 92.39 82.57 92.54 82.77 92.69 82.91 92.78 83.11 92.93 83.3 93.03 83.5 93.17 83.69 93.27 83.93 93.37 84.13 93.51 84.32 93.61 84.57 93.71 84.76 93.76 85 93.85 85.25 93.95 85.49 94.05 85.69 94.1 85.98 94.19 86.22 94.24 86.47 94.29 86.71 94.39 87 94.44 87.24 94.49 87.54 94.53 87.83 94.53 88.07 94.58 88.36 94.63 88.66 94.63 88.95 94.68 89.29 94.68 89.58 94.73 89.87 94.73 90.21 94.73 90.5 94.73 90.85 80.81 90.85 79.64 89.43 79.64 89.43"/><polygon class="cls-1" points="80.81 89.58 80.81 90.85 80.86 91.23 80.95 91.58 81.05 91.92 81.15 92.26 81.25 92.6 81.34 92.94 81.49 93.23 81.64 93.52 81.78 93.81 81.93 94.06 82.07 94.35 82.22 94.59 82.42 94.84 82.61 95.03 82.8 95.28 83 95.42 83.19 95.62 83.44 95.81 83.68 95.96 83.92 96.1 84.12 96.25 84.41 96.39 84.65 96.49 84.95 96.59 85.24 96.69 85.48 96.78 85.77 96.83 86.11 96.88 86.41 96.93 86.75 96.98 87.09 96.98 87.43 96.98 87.62 96.98 87.82 96.98 88.01 96.98 88.25 96.93 88.45 96.93 88.64 96.88 88.89 96.83 89.08 96.83 89.33 96.78 89.52 96.73 89.72 96.69 89.96 96.59 90.15 96.54 90.4 96.49 90.59 96.39 90.79 96.3 91.03 96.25 91.22 96.15 91.47 96.05 91.66 95.96 91.91 95.81 92.1 95.71 92.34 95.62 92.54 95.47 92.78 95.37 93.03 95.23 93.22 95.08 93.46 94.93 93.71 94.79 93.9 94.64 94.14 94.45 94.34 94.3 94.34 98.2 93.95 98.44 93.56 98.68 93.17 98.88 92.73 99.12 92.34 99.31 91.91 99.51 91.47 99.7 90.98 99.9 90.79 99.95 90.54 100.05 90.3 100.14 90.06 100.19 89.81 100.24 89.57 100.29 89.28 100.34 89.03 100.39 88.74 100.44 88.45 100.48 88.16 100.53 87.87 100.53 87.57 100.58 87.28 100.58 86.99 100.58 86.65 100.58 86.36 100.58 86.11 100.58 85.82 100.53 85.58 100.53 85.33 100.48 85.04 100.48 84.8 100.44 84.56 100.39 84.31 100.34 84.07 100.29 83.83 100.24 83.58 100.14 83.34 100.09 83.14 100 82.9 99.9 82.66 99.8 82.46 99.7 82.22 99.61 82.03 99.51 81.83 99.41 81.64 99.27 81.39 99.17 81.2 99.02 81 98.88 80.81 98.73 80.61 98.58 80.47 98.44 80.27 98.24 80.08 98.1 79.93 97.9 79.74 97.76 79.59 97.56 79.4 97.37 79.25 97.17 79.11 96.98 78.96 96.78 78.81 96.54 78.67 96.35 78.52 96.15 78.42 95.96 78.28 95.71 78.18 95.52 78.03 95.28 77.94 95.03 77.84 94.84 77.74 94.59 77.64 94.35 77.55 94.16 77.5 93.91 77.4 93.67 77.35 93.43 77.25 93.18 77.21 92.94 77.16 92.65 77.11 92.4 77.06 92.16 77.01 91.87 76.96 91.63 76.96 91.38 76.91 91.09 76.91 90.8 76.91 90.55 76.91 90.26 76.87 89.97 76.91 89.73 76.91 89.43 76.91 89.19 76.91 88.9 76.96 88.66 76.96 88.36 77.01 88.12 77.06 87.88 77.11 87.63 77.16 87.39 77.21 87.15 77.25 86.9 77.3 86.66 77.4 86.42 77.45 86.17 77.55 85.98 77.6 85.73 77.69 85.49 77.79 85.3 77.89 85.1 77.98 84.86 78.08 84.66 78.18 84.47 78.33 84.23 78.42 84.03 78.57 83.84 78.72 83.64 78.86 83.45 78.96 83.25 79.11 83.11 79.3 82.91 79.44 82.72 79.59 82.57 79.79 82.38 79.93 82.23 80.13 82.04 80.27 81.89 80.47 81.74 80.61 81.6 80.81 81.5 81 81.35 81.2 81.21 81.39 81.11 81.59 80.97 81.78 80.87 81.98 80.77 82.17 80.67 82.42 80.58 82.61 80.48 82.8 80.43 83.05 80.33 83.24 80.28 83.48 80.19 83.73 80.14 83.92 80.09 84.17 80.04 84.41 79.99 84.65 79.99 84.9 79.94 85.14 79.89 85.38 79.89 85.63 79.89 85.87 79.84 86.16 79.84 87.23 81.31 86.21 83.45 85.92 83.45 85.63 83.5 85.38 83.5 85.09 83.55 84.85 83.59 84.61 83.64 84.36 83.69 84.17 83.74 83.92 83.84 83.73 83.93 83.53 84.03 83.29 84.13 83.1 84.28 82.95 84.37 82.75 84.52 82.56 84.66 82.42 84.81 82.27 84.96 82.12 85.15 81.98 85.35 81.83 85.54 81.73 85.73 81.59 85.93 81.49 86.12 81.39 86.37 81.3 86.61 81.2 86.86 81.1 87.1 81.05 87.39 80.95 87.63 80.91 87.92 80.86 88.22 80.81 89.58 80.81 89.58"/><polygon class="cls-1" points="96.43 100.19 104.81 90.07 96.43 80.28 101.5 80.28 107.34 87.05 112.98 80.28 118.04 80.28 109.87 90.07 118.63 100.19 113.61 100.19 107.29 93.04 101.5 100.19 96.43 100.19 96.43 100.19"/></svg>