<svg xmlns="http://www.w3.org/2000/svg" viewBox="0 0 441.8 100.7"><path fill="#333" d="M278.9 34.2c1 1.5 1.5 3.9 1.5 7.4v35.2h16.7V41.2c0-14.1-7.3-21.3-21.8-21.3-1.5 0-2.8.2-4.2.5-1.4.1-2.8.5-4.2.9-1.4.5-2.8 1.2-4.4 2.2-1.6 1-3.3 2.3-5.2 3.9-1.7-2.4-4-4.2-7-5.5-3.1-1.2-6.7-2-11.1-2-2.7 0-5.2.5-7.5 1.2-2.4.7-4.9 1.9-7.1 3.4v-3.2H208v55.6h16.5V38.6c4.5-4.4 8.8-6.6 12.8-6.6 2.4 0 4.2.7 5.3 2.2 1 1.5 1.5 3.9 1.5 7.4v35.2h16.5V38.6c4.5-4.4 8.9-6.6 12.9-6.6 2.6.1 4.3.8 5.4 2.2z"/><path fill="#EF7D00" d="M430.1 32.8h9.9V21.3h-9.9V7.5h-16.9v13.8h-7.5v11.5h7.5v27.4c0 3 .3 5.6.7 7.8.3 2.3 1 4.2 2.3 5.7.3.4.8.8 1.2 1.2 1.1.9 2.4 1.6 4 2.2 2.3.7 5.4 1.1 9.4 1.1 1.4 0 3.1-.1 4.9-.3 1.7-.2 3.6-.6 5.7-.9V65.7c-1.7.4-3.2.5-4.6.7-1.4.2-2.7.2-3.7.2-.6 0-.9 0-1.3-.2-.5-.2-.8-.4-1-.8-.3-.5-.5-1-.6-1.8-.2-.8-.2-1.9-.2-3.2V32.8zM379 21.3v11.3h16.9V21.3H379zm16.9 13.2H379v42.4h16.9V34.5z"/><path fill="#333" d="M155.9 37.7c.7-2.3 2-3.9 4-4.9 2-.7 4.5-1.2 7.9-1.2 2.7 0 4.8.3 6.4.7 1.6.4 2.8 1 3.7 1.8.8.8 1.4 1.8 1.6 2.9.3 1.1.5 2.4.5 3.9h-2.6c-26.7 0-40.1 6.7-40.1 20.1 0 2.6.6 4.9 1.9 6.9 1.1 2.1 2.9 3.8 5.1 5.4.7.6 1.6 1 2.4 1.5 1.5.8 3.2 1.5 5.1 2.1 2.8.8 6 1.2 9.4 1.2 3.7 0 7-.4 10.2-1.1 2.3-.6 4.5-1.2 6.6-2.2.7-.4 1.5-.7 2.2-1v3h16.5V41.6c0-4.3-.7-7.9-1.9-10.7-1.3-2.8-3.2-5-5.6-6.6-2.4-1.7-5.3-2.8-8.7-3.5-3.6-.7-7.5-1-11.7-1-17.6 0-27.5 6-29.4 17.8h16.5zM175 52.1h4.9v8.4c-1.7 1.9-4 3.4-6.8 4.5-2.8 1-5.8 1.5-8.9 1.5-3.2 0-5.5-.5-7.4-1.6-1.8-1.1-2.7-2.5-2.7-4.4-.1-5.6 6.9-8.4 20.9-8.4zm-48.5-19.5V21.2h-18.3v11.4h18.3zm213.7-12.7c-5.5 0-10.5 1.4-14.9 4.2V.1h-16.5v76.7h16.5V75c2.1 1 4.3 1.8 6.7 2.3 2.2.5 4.7.7 7.5.7 4.1 0 8-.7 11.5-2.2.8-.3 1.7-.7 2.5-1.1 2.4-1.3 4.7-2.8 6.7-4.8 2.5-2.6 4.6-5.7 6.1-9.4 1.4-3.6 2.2-7.7 2.2-12.2 0-4.3-.7-8.2-1.9-11.7-1.3-3.5-3.2-6.5-5.5-8.9-2.4-2.5-5.4-4.5-8.9-5.9-3.6-1.2-7.5-1.9-12-1.9zm-14.9 19c4.5-4.9 9.1-7.3 14-7.3 3.7 0 6.7 1.4 8.9 4.3 2.2 2.8 3.3 7 3.3 12.6 0 5.9-1.1 10.4-3.4 13.4-2.2 3.1-5.3 4.6-9.3 4.6-2.4 0-4.9-.5-7-1.3-2.2-.7-4.4-2-6.5-3.7V38.9zM102.8 91c-1.3.3-3 .5-5 .5-1.8 0-3.5-.1-5.2-.2h-2.3v8.2c2.8.2 6 .3 9.7.3 4 0 7.7-.3 11-.7 2.6-.5 5-1.2 7-2.2.5-.2.9-.5 1.3-.7 2.3-1.4 4.1-3.4 5.2-6 1.3-2.5 1.9-5.8 1.9-9.8V34.5h-18.3v45.3c0 2.3-.2 4.2-.5 5.7s-.9 2.6-1.7 3.6c-.5 1-1.6 1.5-3.1 1.9z"/><path fill="#EF7D00" d="M37.3 78.2c-9.8 0-18.2-3.5-25-10.5C5.5 60.9 2.1 52.5 2.1 42.9c0-9.8 3.5-18.2 10.3-25C19.3 11 27.7 7.5 37.3 7.5 47 7.5 55.5 11 62.4 18c6.8 6.8 10.3 15.2 10.3 25 0 9.5-3.5 17.9-10.3 24.8-6.8 6.9-15.2 10.4-25.1 10.4zm0-63.9c-7.8 0-14.6 2.8-20.2 8.4-5.5 5.5-8.3 12.3-8.3 20.2 0 7.9 2.7 14.4 8.3 20 5.5 5.6 12.3 8.4 20.2 8.4 8.1 0 14.7-2.8 20.2-8.4 5.5-5.6 8.3-12.4 8.3-20.1 0-7.8-2.8-14.6-8.3-20.2-5.5-5.4-12.3-8.3-20.2-8.3z"/><path d="M49.4 23c1.9 1.9-3.8 10.5-12.6 19.4S19.4 56.8 17.5 54.9c-1.9-1.9-.6-14.9 8.2-23.7S47.6 21.1 49.4 23zM25.3 62.7c-1.9-1.9 3.8-10.5 12.6-19.4s17.5-14.5 19.4-12.6c1.9 1.9.6 14.9-8.2 23.7s-21.9 10.2-23.8 8.3z" fill="#333"/></svg>