<?xml version="1.0" encoding="UTF-8"?>
<svg id="a" data-name="Ebene 1" xmlns="http://www.w3.org/2000/svg" viewBox="0 0 800 189.48">
  <defs>
    <style>
      .b {
        fill: #ff5959;
      }

      .c {
        fill: #171d26;
      }
    </style>
  </defs>
  <g>
    <path class="c" d="m531.52,98.27c8.07-7.16,13.17-17.6,13.17-29.21,0-21.53-17.52-39.05-39.05-39.05s-39.05,17.52-39.05,39.05c0,11.61,5.1,22.05,13.17,29.21-11.57,8.16-19.16,21.62-19.16,36.83h18.12c0-14.84,12.08-26.92,26.92-26.92s26.92,12.08,26.92,26.92h18.12c0-15.21-7.58-28.67-19.16-36.83Zm-25.88-50.14c11.54,0,20.93,9.39,20.93,20.93s-9.39,20.93-20.93,20.93-20.93-9.39-20.93-20.93,9.39-20.93,20.93-20.93Z"/>
    <path class="c" d="m29.18,93.85c-6,0-10.1-3.63-10.1-11.04v-33.6h21.61v-16.56h-21.45V10.57L0,12.62v70.19C0,102.21,11.04,111.83,27.92,111.2c5.84-.16,10.41-1.1,15.93-3.31l-5.36-16.4c-2.84,1.42-6.31,2.37-9.31,2.37Z"/>
    <polygon class="c" points="99.68 66.56 91.63 88.02 84.22 66.09 72.39 32.49 49.99 32.49 81.06 108.99 66.55 142.75 87.69 142.75 135.17 32.49 113.87 32.49 99.68 66.56"/>
    <path class="c" d="m189.73,30.76c-8.83,0-19.24,3.79-25.24,12.46l-1.26-10.73h-17.98v110.26h19.24v-41.64c5.52,8.52,17.67,11.04,25.87,11.04,24.92,0,39.28-17.98,39.28-40.7s-15.93-40.7-39.91-40.7Zm-1.42,62.78c-13.09,0-22.08-9.94-22.08-22.08s8.2-22.08,22.08-22.08,22.08,9.94,22.08,22.08-8.99,22.08-22.08,22.08Z"/>
    <path class="c" d="m281.68,30.13c-25.24,0-41.33,17.04-41.33,40.7,0,24.92,15.93,41.48,42.75,41.48,11.83,0,25.24-4.1,33.44-12.62l-12.3-12.15c-4.42,4.58-13.72,7.26-20.82,7.26-13.57,0-21.93-6.94-23.19-16.56h60.73c3-32.02-13.25-48.11-39.28-48.11Zm-21.14,32.18c2.84-10.1,11.36-15.14,21.77-15.14,11.04,0,18.93,5.05,20.19,15.14h-41.96Z"/>
    <path class="c" d="m397.29,43.06c-4.57-8.04-17.35-12.46-25.55-12.46-22.71,0-39.59,13.88-39.59,40.7s17.19,40.7,40.06,40.7c9.46,0,19.09-3.15,25.08-12.46l1.26,10.73h17.98V0h-19.24v43.06Zm-23.82,51.11c-12.3,0-22.08-9.31-22.08-22.87s9.78-22.71,22.08-22.71,22.56,9.15,22.56,22.71-10.41,22.87-22.56,22.87Z"/>
    <rect class="c" x="433.25" y="32.18" width="19.24" height="78.08"/>
    <rect class="c" x="557.68" y="32.18" width="19.24" height="78.08"/>
    <path class="c" d="m621.37,93.85c-5.99,0-10.09-3.63-10.09-11.04v-33.6h21.61v-16.56h-21.45V10.57l-19.24,2.05v70.19c0,19.4,11.04,29.02,27.92,28.39,5.84-.16,10.41-1.1,15.93-3.31l-5.36-16.4c-2.84,1.42-6.31,2.37-9.31,2.37Z"/>
    <path class="c" d="m707,43.22c-4.42-7.73-14.35-12.62-24.76-12.62-22.71-.16-40.54,13.88-40.54,40.7s17.04,41.48,40.07,41.33c8.67-.16,20.82-4.58,25.24-13.72l.95,11.36h18.14V32.49h-18.45l-.63,10.73Zm-23.03,51.74c-12.78,0-23.03-8.83-23.03-23.66s10.25-23.5,23.03-23.5c30.28,0,30.28,47.16,0,47.16Z"/>
    <rect class="c" x="742.32" y="0" width="19.09" height="110.26"/>
  </g>
  <g>
    <g>
      <path class="c" d="m287.77,151.88h3.31l11.83,26.37h-3.16l-2.71-6.1h-15.22l-2.71,6.1h-3.17l11.83-26.37Zm8.06,17.56l-6.4-14.54-6.4,14.54h12.81Z"/>
      <path class="c" d="m309.22,188.48c-1.44-.67-2.56-1.59-3.33-2.77-.78-1.18-1.16-2.52-1.13-4.03h2.75c-.02,1,.24,1.9.79,2.69.55.79,1.34,1.41,2.37,1.85,1.03.44,2.21.66,3.54.66,2.03,0,3.67-.43,4.92-1.28,1.24-.85,1.86-1.97,1.86-3.35s-.61-2.49-1.83-3.31c-1.22-.83-2.86-1.24-4.92-1.24s-3.72-.37-5.2-1.11c-1.48-.74-2.62-1.8-3.43-3.18-.8-1.38-1.21-3-1.21-4.86,0-1.76.42-3.33,1.26-4.73.84-1.39,2-2.49,3.48-3.28,1.48-.79,3.15-1.19,5.01-1.19,1.03,0,2.02.13,2.98.38.95.25,1.78.6,2.49,1.06l2.41-2.9,2,1.58-2.52,2.94c.88,1.05,1.51,2.05,1.88,2.98.38.93.56,1.98.56,3.16,0,1.81-.48,3.39-1.43,4.75-.95,1.36-2.27,2.34-3.96,2.94,1.66.5,2.94,1.27,3.84,2.32.9,1.04,1.36,2.28,1.36,3.71s-.4,2.69-1.19,3.79c-.79,1.09-1.91,1.94-3.35,2.54-1.44.6-3.12.9-5.03.9s-3.55-.33-4.99-1Zm-.11-15.14c1.27,1.19,2.97,1.79,5.11,1.79,1.33,0,2.52-.28,3.58-.85,1.05-.56,1.88-1.35,2.49-2.35.6-1,.9-2.13.9-3.39,0-1.98-.64-3.59-1.92-4.8-1.28-1.22-2.96-1.83-5.05-1.83-1.36,0-2.57.28-3.64.85-1.07.57-1.9,1.35-2.49,2.35-.59,1-.89,2.15-.89,3.43,0,2.01.63,3.61,1.9,4.8Z"/>
      <path class="c" d="m332.01,177.48c-1.47-.82-2.61-1.97-3.43-3.45-.82-1.48-1.23-3.18-1.23-5.09s.4-3.56,1.19-5.03c.79-1.47,1.9-2.61,3.33-3.43,1.43-.82,3.08-1.22,4.93-1.22,2.94,0,5.25.85,6.93,2.56,1.68,1.71,2.52,4.03,2.52,6.97,0,.55-.01.97-.04,1.24h-16.01c.15,1.88.85,3.37,2.11,4.45,1.26,1.08,2.86,1.62,4.82,1.62,1.2,0,2.37-.23,3.5-.68,1.13-.45,2-1.06,2.6-1.81l1.81,1.7c-.88,1.06-2.03,1.88-3.45,2.49-1.42.6-2.93.9-4.54.9-1.91,0-3.6-.41-5.07-1.22Zm11.58-9.85c-.1-1.76-.75-3.17-1.96-4.24-1.2-1.07-2.79-1.6-4.75-1.6s-3.37.52-4.54,1.56c-1.17,1.04-1.86,2.47-2.09,4.28h13.34Z"/>
      <path class="c" d="m350.56,159.65h2.52l.04,3.01c.78-1.05,1.76-1.87,2.94-2.45,1.18-.58,2.49-.87,3.92-.87,2.46,0,4.4.75,5.82,2.26,1.42,1.51,2.13,3.57,2.13,6.18v10.47h-2.79v-10.32c0-1.91-.48-3.39-1.43-4.45-.95-1.06-2.31-1.58-4.07-1.58-1.23,0-2.32.28-3.28.83-.96.55-1.7,1.31-2.22,2.26-.53.95-.79,2.02-.79,3.2v10.06h-2.79v-18.61Z"/>
      <path class="c" d="m375.35,172.3v-10.21h-3.77v-2.45h3.77v-5.2l2.79-.26v5.46h5.91v2.45h-5.91v10.21c0,1.21.23,2.13.68,2.77.45.64,1.24.96,2.37.96.85,0,1.78-.24,2.79-.72l.87,2.3c-1.38.63-2.69.94-3.92.94-3.72,0-5.58-2.08-5.58-6.25Z"/>
      <path class="c" d="m390.2,176.3c-1.41-1.51-2.11-3.57-2.11-6.18v-10.47h2.79v10.32c0,1.91.47,3.39,1.41,4.45.94,1.05,2.27,1.58,3.97,1.58,1.21,0,2.28-.28,3.22-.83.94-.55,1.67-1.31,2.18-2.26.51-.95.77-2.02.77-3.2v-10.06h2.79v18.61h-2.49l-.04-3.01c-.78,1.06-1.75,1.87-2.92,2.45-1.17.58-2.46.87-3.86.87-2.41,0-4.32-.75-5.73-2.26Z"/>
      <path class="c" d="m410.99,159.65h2.52l.04,3.54c.68-1.26,1.53-2.21,2.54-2.86,1.02-.65,2.18-.98,3.48-.98.8,0,1.58.11,2.34.34.75.23,1.41.55,1.96.98l-1.28,2.34c-.93-.6-1.97-.9-3.13-.9s-2.09.29-2.96.87c-.87.58-1.54,1.39-2.01,2.43-.48,1.04-.72,2.23-.72,3.56v9.31h-2.79v-18.61Z"/>
      <path class="c" d="m438.87,153.18c1.06-1.17,2.55-1.75,4.48-1.75,1.51,0,2.9.48,4.18,1.43l-1.21,2c-.95-.65-1.91-.98-2.86-.98-2.26,0-3.39,1.39-3.39,4.18v1.58h5.91v2.49h-5.91v16.12h-2.79v-16.12h-3.65v-2.49h3.65v-1.58c0-2.08.53-3.71,1.58-4.88Z"/>
      <path class="c" d="m451.19,176.3c-1.41-1.51-2.11-3.57-2.11-6.18v-10.47h2.79v10.32c0,1.91.47,3.39,1.41,4.45.94,1.05,2.27,1.58,3.97,1.58,1.21,0,2.28-.28,3.22-.83.94-.55,1.67-1.31,2.18-2.26.51-.95.77-2.02.77-3.2v-10.06h2.79v18.61h-2.49l-.04-3.01c-.78,1.06-1.75,1.87-2.92,2.45-1.17.58-2.46.87-3.86.87-2.41,0-4.32-.75-5.73-2.26Z"/>
      <path class="c" d="m471.98,159.65h2.52l.04,3.54c.68-1.26,1.53-2.21,2.54-2.86,1.02-.65,2.18-.98,3.48-.98.8,0,1.58.11,2.34.34.75.23,1.41.55,1.96.98l-1.28,2.34c-.93-.6-1.97-.9-3.13-.9s-2.09.29-2.96.87c-.87.58-1.54,1.39-2.01,2.43-.48,1.04-.72,2.23-.72,3.56v9.31h-2.79v-18.61Z"/>
      <path class="c" d="m499.86,177.43c-1.41-.8-2.5-1.94-3.3-3.41-.79-1.47-1.19-3.16-1.19-5.07s.4-3.6,1.19-5.07c.79-1.47,1.89-2.61,3.3-3.41,1.41-.8,3-1.21,4.78-1.21,1.53,0,2.93.3,4.2.89,1.27.59,2.28,1.4,3.03,2.43v-10.7h2.79v26.37h-2.52l-.04-3.2c-.73,1.13-1.75,2.01-3.05,2.64-1.31.63-2.78.94-4.41.94-1.78,0-3.38-.4-4.78-1.21Zm-.81-4.78c.59,1.08,1.4,1.92,2.43,2.51,1.03.59,2.21.89,3.54.89s2.51-.29,3.54-.89c1.03-.59,1.84-1.43,2.43-2.51.59-1.08.89-2.31.89-3.69s-.3-2.61-.89-3.69c-.59-1.08-1.4-1.92-2.43-2.51-1.03-.59-2.21-.89-3.54-.89s-2.51.3-3.54.89c-1.03.59-1.84,1.43-2.43,2.51-.59,1.08-.89,2.31-.89,3.69s.3,2.61.89,3.69Z"/>
      <path class="c" d="m520.36,152.6c.38-.38.85-.57,1.43-.57s1.09.19,1.47.57c.38.38.57.85.57,1.43s-.19,1.05-.57,1.41c-.38.36-.87.55-1.47.55s-1.05-.18-1.43-.55c-.38-.36-.56-.83-.56-1.41s.19-1.06.56-1.43Zm.04,7.04h2.79v18.61h-2.79v-18.61Z"/>
      <path class="c" d="m532.47,188.48c-1.44-.67-2.56-1.59-3.33-2.77-.78-1.18-1.16-2.52-1.13-4.03h2.75c-.02,1,.24,1.9.79,2.69.55.79,1.34,1.41,2.37,1.85,1.03.44,2.21.66,3.54.66,2.03,0,3.67-.43,4.92-1.28,1.24-.85,1.86-1.97,1.86-3.35s-.61-2.49-1.83-3.31c-1.22-.83-2.86-1.24-4.92-1.24s-3.72-.37-5.2-1.11c-1.48-.74-2.62-1.8-3.43-3.18-.8-1.38-1.21-3-1.21-4.86,0-1.76.42-3.33,1.26-4.73.84-1.39,2-2.49,3.48-3.28,1.48-.79,3.15-1.19,5.01-1.19,1.03,0,2.02.13,2.98.38.95.25,1.78.6,2.49,1.06l2.41-2.9,2,1.58-2.52,2.94c.88,1.05,1.51,2.05,1.88,2.98.38.93.56,1.98.56,3.16,0,1.81-.48,3.39-1.43,4.75-.95,1.36-2.27,2.34-3.96,2.94,1.66.5,2.94,1.27,3.84,2.32.9,1.04,1.36,2.28,1.36,3.71s-.4,2.69-1.19,3.79c-.79,1.09-1.91,1.94-3.35,2.54-1.44.6-3.12.9-5.03.9s-3.55-.33-4.99-1Zm-.11-15.14c1.27,1.19,2.97,1.79,5.11,1.79,1.33,0,2.52-.28,3.58-.85,1.05-.56,1.88-1.35,2.49-2.35.6-1,.9-2.13.9-3.39,0-1.98-.64-3.59-1.92-4.8-1.28-1.22-2.96-1.83-5.05-1.83-1.36,0-2.57.28-3.64.85-1.07.57-1.9,1.35-2.49,2.35-.59,1-.89,2.15-.89,3.43,0,2.01.63,3.61,1.9,4.8Z"/>
      <path class="c" d="m551.81,152.6c.38-.38.85-.57,1.43-.57s1.09.19,1.47.57c.38.38.57.85.57,1.43s-.19,1.05-.57,1.41c-.38.36-.87.55-1.47.55s-1.05-.18-1.43-.55c-.38-.36-.56-.83-.56-1.41s.19-1.06.56-1.43Zm.04,7.04h2.79v18.61h-2.79v-18.61Z"/>
      <path class="c" d="m562.51,172.3v-10.21h-3.77v-2.45h3.77v-5.2l2.79-.26v5.46h5.91v2.45h-5.91v10.21c0,1.21.23,2.13.68,2.77.45.64,1.24.96,2.37.96.85,0,1.78-.24,2.79-.72l.87,2.3c-1.38.63-2.69.94-3.92.94-3.72,0-5.58-2.08-5.58-6.25Z"/>
      <path class="c" d="m578.6,177.41c-1.41-.82-2.5-1.96-3.3-3.43-.79-1.47-1.19-3.15-1.19-5.03s.4-3.56,1.19-5.03c.79-1.47,1.89-2.61,3.3-3.43,1.41-.82,3.01-1.22,4.82-1.22,1.61,0,3.06.32,4.35.96,1.29.64,2.32,1.53,3.07,2.66l.04-3.24h2.52v18.61h-2.52l-.04-3.2c-.73,1.13-1.75,2.01-3.05,2.64-1.31.63-2.76.94-4.37.94-1.81,0-3.42-.41-4.82-1.22Zm-.81-4.77c.59,1.08,1.4,1.92,2.43,2.51,1.03.59,2.21.89,3.54.89s2.51-.29,3.54-.89c1.03-.59,1.84-1.43,2.43-2.51.59-1.08.89-2.31.89-3.69s-.3-2.61-.89-3.69c-.59-1.08-1.4-1.92-2.43-2.51-1.03-.59-2.21-.89-3.54-.89s-2.51.3-3.54.89c-1.03.59-1.84,1.43-2.43,2.51-.59,1.08-.89,2.31-.89,3.69s.3,2.61.89,3.69Z"/>
      <path class="c" d="m599.13,151.88h2.79v26.37h-2.79v-26.37Z"/>
      <path class="c" d="m611.05,177.48c-1.47-.82-2.61-1.97-3.43-3.45-.82-1.48-1.23-3.18-1.23-5.09s.4-3.56,1.19-5.03c.79-1.47,1.9-2.61,3.33-3.43,1.43-.82,3.08-1.22,4.93-1.22,2.94,0,5.25.85,6.93,2.56,1.68,1.71,2.52,4.03,2.52,6.97,0,.55-.01.97-.04,1.24h-16.01c.15,1.88.85,3.37,2.11,4.45,1.26,1.08,2.86,1.62,4.82,1.62,1.2,0,2.37-.23,3.5-.68,1.13-.45,2-1.06,2.6-1.81l1.81,1.7c-.88,1.06-2.03,1.88-3.45,2.49-1.42.6-2.93.9-4.54.9-1.91,0-3.6-.41-5.07-1.22Zm11.58-9.85c-.1-1.76-.75-3.17-1.96-4.24-1.2-1.07-2.79-1.6-4.75-1.6s-3.37.52-4.54,1.56c-1.17,1.04-1.86,2.47-2.09,4.28h13.34Z"/>
      <path class="c" d="m640.01,151.88h11.72c1.86,0,3.48.37,4.86,1.11,1.38.74,2.44,1.78,3.18,3.13.74,1.34,1.11,2.89,1.11,4.65s-.37,3.3-1.11,4.63c-.74,1.33-1.8,2.37-3.18,3.11-1.38.74-3,1.11-4.86,1.11h-8.82v8.63h-2.9v-26.37Zm11.6,15.03c1.98,0,3.54-.56,4.67-1.68,1.13-1.12,1.7-2.61,1.7-4.46s-.57-3.35-1.7-4.48c-1.13-1.13-2.69-1.7-4.67-1.7h-8.7v12.32h8.7Z"/>
      <path class="c" d="m664.83,159.65h2.52l.04,3.54c.68-1.26,1.53-2.21,2.54-2.86,1.02-.65,2.18-.98,3.48-.98.8,0,1.58.11,2.34.34.75.23,1.41.55,1.96.98l-1.28,2.34c-.93-.6-1.97-.9-3.13-.9s-2.09.29-2.96.87c-.87.58-1.54,1.39-2.01,2.43-.48,1.04-.72,2.23-.72,3.56v9.31h-2.79v-18.61Z"/>
      <path class="c" d="m683.31,177.37c-1.47-.84-2.61-2-3.43-3.47-.82-1.47-1.23-3.12-1.23-4.95s.41-3.48,1.23-4.95c.82-1.47,1.96-2.62,3.43-3.47,1.47-.84,3.16-1.26,5.07-1.26s3.6.42,5.07,1.26c1.47.84,2.61,2,3.41,3.47.8,1.47,1.2,3.12,1.2,4.95s-.4,3.48-1.2,4.95c-.8,1.47-1.94,2.62-3.41,3.47-1.47.84-3.16,1.26-5.07,1.26s-3.6-.42-5.07-1.26Zm-1-4.84c.58,1.08,1.39,1.93,2.45,2.56,1.06.63,2.26.94,3.62.94s2.52-.31,3.58-.94c1.06-.63,1.87-1.48,2.45-2.56.58-1.08.87-2.27.87-3.58s-.29-2.5-.87-3.58c-.58-1.08-1.39-1.93-2.45-2.56-1.06-.63-2.25-.94-3.58-.94s-2.56.31-3.62.94c-1.06.63-1.87,1.48-2.45,2.56-.58,1.08-.87,2.27-.87,3.58s.29,2.5.87,3.58Z"/>
      <path class="c" d="m705.78,177.43c-1.41-.8-2.5-1.94-3.3-3.41-.79-1.47-1.19-3.16-1.19-5.07s.4-3.6,1.19-5.07c.79-1.47,1.89-2.61,3.3-3.41,1.41-.8,3-1.21,4.78-1.21,1.53,0,2.93.3,4.2.89,1.27.59,2.28,1.4,3.03,2.43v-10.7h2.79v26.37h-2.52l-.04-3.2c-.73,1.13-1.75,2.01-3.05,2.64-1.31.63-2.78.94-4.41.94-1.78,0-3.38-.4-4.78-1.21Zm-.81-4.78c.59,1.08,1.4,1.92,2.43,2.51,1.03.59,2.21.89,3.54.89s2.51-.29,3.54-.89c1.03-.59,1.84-1.43,2.43-2.51.59-1.08.89-2.31.89-3.69s-.3-2.61-.89-3.69c-.59-1.08-1.4-1.92-2.43-2.51-1.03-.59-2.21-.89-3.54-.89s-2.51.3-3.54.89c-1.03.59-1.84,1.43-2.43,2.51-.59,1.08-.89,2.31-.89,3.69s.3,2.61.89,3.69Z"/>
      <path class="c" d="m728.16,176.3c-1.41-1.51-2.11-3.57-2.11-6.18v-10.47h2.79v10.32c0,1.91.47,3.39,1.41,4.45.94,1.05,2.27,1.58,3.97,1.58,1.21,0,2.28-.28,3.22-.83.94-.55,1.67-1.31,2.18-2.26.51-.95.77-2.02.77-3.2v-10.06h2.79v18.61h-2.49l-.04-3.01c-.78,1.06-1.75,1.87-2.92,2.45-1.17.58-2.46.87-3.86.87-2.41,0-4.32-.75-5.73-2.26Z"/>
      <path class="c" d="m751.74,169.59v8.66h-2.79v-26.37h2.79v16.05l7.99-8.29h3.54l-8.78,9,9.95,9.61h-3.8l-8.89-8.66Z"/>
      <path class="c" d="m769.49,172.3v-10.21h-3.77v-2.45h3.77v-5.2l2.79-.26v5.46h5.91v2.45h-5.91v10.21c0,1.21.23,2.13.68,2.77.45.64,1.24.96,2.37.96.85,0,1.78-.24,2.79-.72l.87,2.3c-1.38.63-2.69.94-3.92.94-3.72,0-5.58-2.08-5.58-6.25Z"/>
      <path class="c" d="m785.74,177.48c-1.47-.82-2.61-1.97-3.43-3.45-.82-1.48-1.23-3.18-1.23-5.09s.4-3.56,1.19-5.03c.79-1.47,1.9-2.61,3.33-3.43,1.43-.82,3.08-1.22,4.93-1.22,2.94,0,5.25.85,6.93,2.56,1.68,1.71,2.52,4.03,2.52,6.97,0,.55-.01.97-.04,1.24h-16.01c.15,1.88.85,3.37,2.11,4.45,1.26,1.08,2.86,1.62,4.82,1.62,1.2,0,2.37-.23,3.5-.68,1.13-.45,2-1.06,2.6-1.81l1.81,1.7c-.88,1.06-2.03,1.88-3.45,2.49-1.42.6-2.93.9-4.54.9-1.91,0-3.6-.41-5.07-1.22Zm11.58-9.85c-.1-1.76-.75-3.17-1.96-4.24-1.2-1.07-2.79-1.6-4.75-1.6s-3.37.52-4.54,1.56c-1.17,1.04-1.86,2.47-2.09,4.28h13.34Z"/>
    </g>
    <path class="c" d="m452.58,152.6c.38-.38.85-.57,1.43-.57s1.09.19,1.47.57c.38.38.57.85.57,1.43s-.19,1.05-.57,1.41c-.38.36-.87.55-1.47.55s-1.05-.18-1.43-.55c-.38-.36-.56-.83-.56-1.41s.19-1.06.56-1.43Z"/>
    <path class="c" d="m459.48,152.6c.38-.38.85-.57,1.43-.57s1.09.19,1.47.57c.38.38.57.85.57,1.43s-.19,1.05-.57,1.41c-.38.36-.87.55-1.47.55s-1.05-.18-1.43-.55c-.38-.36-.56-.83-.56-1.41s.19-1.06.56-1.43Z"/>
  </g>
  <circle class="b" cx="788.52" cy="100.32" r="11.26"/>
</svg>